<svg xmlns="http://www.w3.org/2000/svg" xmlns:xlink="http://www.w3.org/1999/xlink" width="250" zoomAndPan="magnify" viewBox="0 0 187.5 187.499992" height="250" preserveAspectRatio="xMidYMid meet" version="1.0"><defs><clipPath id="id1"><path d="M 18.75 6.34375 L 168.75 6.34375 L 168.75 185.59375 L 18.75 185.59375 Z M 18.75 6.34375 " clip-rule="nonzero"/></clipPath></defs><g clip-path="url(#id1)"><path fill="#008037" d="M 147.328125 185.414062 C 144.484375 182.234375 142.09375 178.652344 140.117188 174.84375 C 138.15625 171.035156 136.679688 166.933594 135.941406 162.652344 C 135.210938 158.382812 135.289062 153.894531 136.488281 149.640625 C 137.664062 145.390625 139.9375 141.4375 142.828125 138.152344 C 148.378906 131.808594 152.90625 124.675781 156.335938 117.035156 C 159.753906 109.386719 162.050781 101.265625 163.289062 92.996094 C 164.542969 84.730469 164.78125 76.304688 163.976562 68.003906 C 163.566406 63.859375 162.890625 59.742188 161.886719 55.730469 C 160.871094 51.742188 159.554688 47.792969 157.617188 44.371094 C 153.59375 37.140625 148.335938 30.632812 142.046875 25.375 C 135.765625 20.109375 128.390625 16.230469 120.515625 14.066406 C 116.578125 12.988281 112.535156 12.273438 108.445312 11.980469 C 104.371094 11.675781 100.179688 11.734375 96.097656 12.070312 C 87.867188 12.78125 79.746094 14.734375 72.039062 17.753906 C 68.179688 19.253906 64.425781 21.03125 60.804688 23.03125 C 57.203125 25.042969 53.675781 27.300781 50.511719 29.785156 L 50.007812 30.191406 L 49.414062 30.722656 C 49.023438 31.074219 48.585938 31.445312 48.289062 31.769531 C 47.960938 32.109375 47.628906 32.425781 47.300781 32.78125 L 46.308594 33.894531 C 45.019531 35.417969 43.800781 37.03125 42.695312 38.726562 C 40.484375 42.125 38.609375 45.78125 37.207031 49.566406 C 36.519531 51.460938 35.941406 53.382812 35.542969 55.304688 L 35.292969 56.738281 L 35.0625 58.324219 L 34.5625 61.511719 C 33.90625 65.707031 33.15625 69.808594 33.726562 73.378906 C 33.875 74.269531 34.089844 75.132812 34.402344 75.964844 C 34.554688 76.386719 34.738281 76.792969 34.933594 77.199219 C 35.183594 77.742188 35.386719 78.117188 35.644531 78.710938 C 36.136719 79.816406 36.558594 80.910156 36.871094 82.164062 C 37.179688 83.398438 37.320312 84.769531 37.253906 86.066406 C 37.191406 87.371094 36.964844 88.550781 36.734375 89.632812 L 36.558594 90.433594 L 36.472656 90.828125 L 36.429688 91.023438 L 36.375 91.246094 L 36.347656 91.339844 C 36.269531 91.601562 36.21875 91.820312 36.078125 92.203125 C 35.953125 92.546875 35.820312 92.914062 35.703125 93.164062 C 35.226562 94.285156 34.699219 95.265625 34.167969 96.246094 C 33.628906 97.21875 33.082031 98.164062 32.519531 99.09375 C 30.273438 102.808594 27.921875 106.378906 25.574219 109.945312 L 24.027344 112.28125 C 24.03125 112.273438 23.941406 112.417969 24.023438 112.28125 L 23.871094 112.539062 L 23.839844 112.59375 L 23.835938 112.609375 L 23.816406 112.640625 L 23.746094 112.816406 C 23.707031 112.9375 23.667969 113.0625 23.648438 113.195312 C 23.601562 113.464844 23.589844 113.765625 23.625 114.085938 C 23.765625 115.382812 24.695312 116.847656 25.890625 117.628906 C 26.1875 117.828125 26.5 117.988281 26.820312 118.105469 C 26.898438 118.140625 26.980469 118.160156 27.058594 118.1875 C 27.144531 118.210938 27.003906 118.179688 27.058594 118.191406 L 27.15625 118.214844 L 27.351562 118.265625 C 27.632812 118.328125 27.636719 118.328125 27.890625 118.371094 C 28.699219 118.507812 29.671875 118.441406 31.128906 118.65625 C 31.851562 118.777344 32.734375 119.042969 33.515625 119.566406 C 33.894531 119.8125 34.304688 120.1875 34.429688 120.316406 C 34.566406 120.453125 34.71875 120.609375 34.851562 120.753906 C 34.96875 120.894531 35.089844 121.027344 35.203125 121.175781 C 36.128906 122.339844 36.699219 123.828125 36.867188 125.214844 C 36.964844 125.898438 36.953125 126.644531 36.953125 127.105469 C 36.953125 127.625 36.972656 128.082031 36.957031 128.777344 C 36.953125 128.953125 36.941406 129.191406 36.890625 129.5 C 36.84375 129.808594 36.6875 130.296875 36.46875 130.648438 C 36.367188 130.816406 36.253906 130.96875 36.171875 131.070312 L 36.023438 131.246094 L 35.859375 131.457031 C 35.621094 131.773438 35.378906 132.171875 35.308594 132.34375 L 35.230469 132.527344 L 35.207031 132.601562 C 35.1875 132.640625 35.15625 132.753906 35.132812 132.832031 C 35.089844 133 35.046875 133.175781 35.027344 133.335938 C 35.007812 133.421875 35.003906 133.488281 35 133.558594 L 34.992188 133.65625 L 34.992188 133.699219 C 34.992188 133.679688 34.992188 133.796875 34.984375 133.671875 L 35 133.871094 C 35.003906 133.960938 35.007812 133.921875 35.011719 133.953125 C 35.007812 133.96875 35.03125 134.070312 35.039062 134.136719 C 35.101562 134.433594 35.21875 134.753906 35.355469 134.996094 C 35.417969 135.113281 35.488281 135.210938 35.523438 135.253906 C 35.558594 135.304688 35.566406 135.265625 35.347656 135.171875 L 35.390625 139.246094 C 35.679688 139.101562 35.589844 139.066406 35.519531 139.21875 C 35.441406 139.347656 35.371094 139.617188 35.367188 139.726562 C 35.367188 139.765625 35.359375 139.699219 35.367188 139.859375 L 35.375 139.914062 L 35.40625 140.003906 C 35.441406 140.097656 35.597656 140.304688 35.839844 140.527344 C 35.964844 140.636719 36.101562 140.75 36.25 140.867188 L 36.363281 140.953125 L 36.421875 140.996094 L 36.613281 141.148438 L 36.699219 141.226562 C 36.789062 141.3125 36.878906 141.40625 36.957031 141.507812 L 37.0625 141.652344 C 37.128906 141.746094 37.160156 141.800781 37.195312 141.863281 C 37.265625 141.984375 37.316406 142.082031 37.359375 142.171875 C 37.667969 142.851562 37.804688 143.335938 37.960938 143.875 C 38.246094 144.929688 38.457031 145.953125 38.554688 147.109375 C 38.625 148.222656 38.601562 149.488281 38.195312 150.757812 C 37.996094 151.378906 37.753906 151.878906 37.570312 152.300781 C 37.378906 152.726562 37.222656 153.09375 37.085938 153.484375 L 37.058594 153.554688 L 37.054688 153.566406 C 37.105469 153.402344 37.070312 153.527344 37.078125 153.492188 L 37.070312 153.511719 L 37.058594 153.554688 L 37.007812 153.730469 C 36.972656 153.847656 36.933594 153.972656 36.9375 154.007812 L 36.898438 154.183594 L 36.863281 154.4375 C 36.828125 154.78125 36.808594 155.144531 36.839844 155.515625 C 36.882812 156.25 37.058594 157.023438 37.316406 157.636719 C 37.441406 157.929688 37.617188 158.191406 37.664062 158.242188 L 37.640625 158.222656 L 37.675781 158.253906 L 37.742188 158.316406 L 37.871094 158.441406 L 38.136719 158.683594 L 38.574219 159.054688 C 39.199219 159.558594 39.875 159.957031 40.617188 160.285156 C 40.976562 160.464844 41.378906 160.582031 41.765625 160.730469 C 42.179688 160.839844 42.570312 160.980469 43 161.0625 C 43.84375 161.253906 44.722656 161.402344 45.621094 161.488281 C 46.511719 161.59375 47.433594 161.632812 48.347656 161.667969 C 49.273438 161.679688 50.195312 161.695312 51.132812 161.660156 C 52.0625 161.652344 53.003906 161.582031 53.941406 161.539062 C 54.878906 161.480469 55.820312 161.386719 56.761719 161.316406 L 56.917969 161.304688 L 57.003906 161.304688 C 58.890625 161.363281 60.886719 161.328125 62.832031 161.246094 C 64.789062 161.15625 66.746094 161.015625 68.691406 160.808594 C 72.589844 160.394531 76.457031 159.746094 80.222656 158.757812 C 83.984375 157.765625 87.648438 156.417969 90.976562 154.523438 C 92.636719 153.574219 94.210938 152.484375 95.601562 151.210938 C 96.316406 150.566406 96.921875 149.917969 97.601562 149.15625 C 98.246094 148.425781 98.84375 147.699219 99.445312 146.925781 C 101.8125 143.84375 103.773438 140.433594 105.351562 136.84375 C 106.925781 133.253906 108.140625 129.492188 108.96875 125.636719 C 110.601562 117.921875 110.789062 109.855469 109.371094 102.007812 C 110.285156 105.886719 110.839844 109.863281 110.976562 113.867188 C 111.121094 117.871094 110.847656 121.898438 110.191406 125.867188 C 109.519531 129.835938 108.472656 133.757812 106.992188 137.527344 C 105.507812 141.292969 103.609375 144.917969 101.242188 148.25 C 100.652344 149.074219 100.015625 149.910156 99.371094 150.699219 C 98.753906 151.445312 98.023438 152.28125 97.28125 152.992188 C 95.773438 154.457031 94.085938 155.699219 92.320312 156.789062 C 88.78125 158.957031 84.921875 160.449219 81.011719 161.59375 C 77.089844 162.726562 73.089844 163.496094 69.074219 164.023438 C 67.0625 164.285156 65.046875 164.480469 63.023438 164.621094 C 60.992188 164.757812 59 164.847656 56.902344 164.835938 L 57.144531 164.824219 C 56.167969 164.925781 55.195312 165.042969 54.21875 165.128906 C 53.234375 165.203125 52.257812 165.296875 51.265625 165.328125 C 50.277344 165.390625 49.28125 165.394531 48.28125 165.398438 C 47.277344 165.375 46.269531 165.351562 45.25 165.25 C 44.234375 165.167969 43.203125 165.019531 42.171875 164.804688 C 41.652344 164.710938 41.132812 164.546875 40.613281 164.414062 C 40.097656 164.234375 39.574219 164.078125 39.066406 163.84375 C 38.039062 163.414062 37.035156 162.839844 36.148438 162.152344 L 35.476562 161.605469 L 35.207031 161.363281 L 35.074219 161.242188 L 35.007812 161.183594 L 34.976562 161.152344 L 34.890625 161.070312 C 34.261719 160.433594 33.953125 159.84375 33.675781 159.265625 C 33.167969 158.117188 32.910156 156.988281 32.8125 155.8125 C 32.757812 155.222656 32.765625 154.621094 32.820312 154.007812 L 32.875 153.546875 L 32.980469 153.019531 C 33.074219 152.597656 33.078125 152.609375 33.21875 152.152344 C 33.558594 151.101562 34.078125 150.097656 34.238281 149.523438 C 34.414062 148.953125 34.4375 148.261719 34.375 147.460938 C 34.300781 146.703125 34.117188 145.839844 33.882812 145.039062 C 33.769531 144.660156 33.613281 144.222656 33.515625 144.03125 L 33.511719 144.023438 L 33.546875 144.078125 L 33.601562 144.152344 C 33.660156 144.226562 33.726562 144.304688 33.804688 144.367188 L 33.847656 144.40625 L 33.839844 144.398438 L 33.820312 144.382812 L 33.8125 144.375 C 34.132812 144.625 33.894531 144.441406 33.964844 144.492188 L 33.941406 144.480469 L 33.855469 144.417969 L 33.675781 144.289062 C 33.445312 144.113281 33.207031 143.925781 32.96875 143.714844 C 32.5 143.292969 31.996094 142.78125 31.582031 142.023438 C 31.378906 141.644531 31.214844 141.203125 31.128906 140.765625 C 31.078125 140.546875 31.054688 140.34375 31.035156 140.101562 C 31.027344 140.027344 31.015625 139.71875 31.027344 139.515625 C 31.078125 138.667969 31.261719 137.992188 31.613281 137.261719 C 31.792969 136.898438 32.019531 136.535156 32.347656 136.167969 C 32.671875 135.808594 33.113281 135.441406 33.699219 135.191406 L 33.742188 139.265625 C 33.027344 138.972656 32.613281 138.589844 32.285156 138.246094 C 31.964844 137.894531 31.726562 137.550781 31.523438 137.210938 C 31.128906 136.527344 30.867188 135.84375 30.691406 135.101562 C 30.652344 134.90625 30.613281 134.75 30.582031 134.5 C 30.570312 134.398438 30.550781 134.230469 30.546875 134.1875 L 30.53125 133.988281 C 30.519531 133.792969 30.527344 133.84375 30.523438 133.761719 L 30.523438 133.605469 C 30.523438 133.503906 30.523438 133.394531 30.53125 133.300781 C 30.542969 133.105469 30.558594 132.910156 30.585938 132.730469 C 30.628906 132.359375 30.707031 132.015625 30.789062 131.671875 C 30.839844 131.492188 30.878906 131.34375 30.949219 131.136719 L 31.054688 130.835938 L 31.128906 130.648438 C 31.472656 129.835938 31.816406 129.335938 32.195312 128.785156 C 32.320312 128.601562 32.800781 127.988281 32.554688 128.328125 C 32.46875 128.449219 32.402344 128.679688 32.398438 128.726562 C 32.386719 128.773438 32.394531 128.742188 32.394531 128.652344 L 32.371094 127.132812 C 32.363281 126.53125 32.363281 126.207031 32.308594 125.832031 C 32.203125 125.109375 31.964844 124.546875 31.558594 124.042969 C 31.511719 123.980469 31.449219 123.917969 31.402344 123.855469 L 31.265625 123.714844 C 31.007812 123.472656 31.019531 123.496094 30.953125 123.445312 C 30.84375 123.378906 30.691406 123.316406 30.359375 123.265625 C 29.710938 123.148438 28.535156 123.199219 27.234375 123.023438 C 26.960938 122.996094 26.441406 122.894531 26.207031 122.835938 L 26.011719 122.789062 L 25.914062 122.761719 L 25.722656 122.710938 C 25.550781 122.65625 25.375 122.605469 25.203125 122.542969 C 24.523438 122.296875 23.878906 121.96875 23.285156 121.582031 C 22.101562 120.8125 21.117188 119.804688 20.355469 118.644531 C 19.601562 117.488281 19.050781 116.160156 18.855469 114.683594 C 18.761719 113.949219 18.761719 113.175781 18.890625 112.394531 C 18.953125 112.003906 19.054688 111.609375 19.183594 111.226562 C 19.25 111.035156 19.328125 110.847656 19.40625 110.65625 L 19.566406 110.332031 L 19.648438 110.171875 C 19.679688 110.113281 19.703125 110.074219 19.71875 110.050781 L 19.816406 109.878906 L 19.972656 109.625 L 20.191406 109.292969 L 20.625 108.621094 L 21.488281 107.285156 C 23.789062 103.714844 26.085938 100.136719 28.207031 96.539062 C 29.246094 94.75 30.300781 92.90625 31.019531 91.195312 C 31.128906 90.960938 31.164062 90.824219 31.226562 90.671875 C 31.28125 90.558594 31.359375 90.257812 31.425781 90.007812 L 31.449219 89.910156 C 31.46875 89.851562 31.414062 90.082031 31.445312 89.9375 L 31.484375 89.746094 L 31.570312 89.359375 L 31.722656 88.597656 C 31.929688 87.597656 32.082031 86.671875 32.109375 85.84375 C 32.140625 85.015625 32.054688 84.246094 31.84375 83.417969 C 31.640625 82.605469 31.292969 81.699219 30.917969 80.867188 C 30.753906 80.476562 30.460938 79.914062 30.261719 79.488281 C 29.996094 78.933594 29.742188 78.371094 29.527344 77.789062 C 29.085938 76.628906 28.777344 75.417969 28.578125 74.210938 C 28.183594 71.78125 28.253906 69.40625 28.46875 67.171875 C 28.6875 64.925781 29.035156 62.792969 29.363281 60.6875 L 29.839844 57.5625 L 30.066406 55.984375 L 30.355469 54.273438 C 30.8125 52.019531 31.464844 49.855469 32.222656 47.742188 C 33.769531 43.53125 35.789062 39.558594 38.207031 35.804688 C 39.425781 33.933594 40.765625 32.128906 42.222656 30.398438 L 43.351562 29.125 C 43.746094 28.699219 44.179688 28.269531 44.59375 27.847656 C 45.027344 27.394531 45.40625 27.078125 45.804688 26.714844 L 46.398438 26.179688 L 47.132812 25.574219 C 50.660156 22.777344 54.351562 20.449219 58.191406 18.320312 C 62.035156 16.210938 66.007812 14.351562 70.097656 12.773438 C 78.269531 9.609375 86.898438 7.5625 95.65625 6.839844 C 100.070312 6.488281 104.425781 6.445312 108.851562 6.789062 C 113.257812 7.121094 117.648438 7.90625 121.914062 9.140625 C 130.453125 11.582031 138.457031 15.90625 145.175781 21.664062 C 151.90625 27.414062 157.449219 34.453125 161.621094 42.144531 C 162.734375 44.152344 163.589844 46.25 164.316406 48.347656 C 165.042969 50.445312 165.632812 52.570312 166.128906 54.707031 C 167.117188 58.980469 167.746094 63.304688 168.097656 67.636719 C 168.785156 76.308594 168.386719 85.039062 166.921875 93.585938 C 165.425781 102.128906 162.839844 110.488281 159.113281 118.3125 C 157.230469 122.21875 155.101562 126.003906 152.664062 129.582031 C 151.449219 131.375 150.167969 133.121094 148.816406 134.808594 C 147.472656 136.484375 146.023438 138.160156 144.589844 139.707031 C 141.738281 142.710938 139.535156 146.25 138.277344 150.175781 C 137.023438 154.09375 136.722656 158.316406 137.242188 162.460938 C 137.753906 166.617188 139.039062 170.679688 140.753906 174.542969 C 142.492188 178.394531 144.664062 182.085938 147.328125 185.414062 " fill-opacity="1" fill-rule="nonzero"/></g></svg>