<svg xmlns="http://www.w3.org/2000/svg" xmlns:xlink="http://www.w3.org/1999/xlink" width="150" zoomAndPan="magnify" viewBox="0 0 112.5 112.499997" height="150" preserveAspectRatio="xMidYMid meet" version="1.0"><defs><clipPath id="id1"><path d="M 0 24.257812 L 112.003906 24.257812 L 112.003906 88 L 0 88 Z M 0 24.257812 " clip-rule="nonzero"/></clipPath></defs><g clip-path="url(#id1)"><path fill="#00c2cb" d="M 95.636719 44.867188 C 93.421875 44.867188 91.308594 45.296875 89.375 46.070312 C 87.785156 40.070312 82.304688 35.648438 75.785156 35.648438 C 74.582031 35.648438 73.417969 35.800781 72.304688 36.082031 C 69.796875 29.191406 63.171875 24.277344 55.394531 24.277344 C 46.730469 24.277344 39.496094 30.382812 37.789062 38.511719 C 35.835938 37.585938 33.652344 37.070312 31.339844 37.070312 C 23.175781 37.070312 16.535156 43.539062 16.28125 51.609375 C 15.128906 51.261719 13.898438 51.078125 12.632812 51.078125 C 5.65625 51.078125 0 56.707031 0 63.660156 C 0 70.609375 5.65625 76.238281 12.628906 76.238281 C 15.429688 76.238281 18.023438 75.328125 20.117188 73.789062 C 22.5625 79.921875 28.570312 84.261719 35.597656 84.261719 C 40.195312 84.261719 44.347656 82.40625 47.359375 79.417969 C 51.570312 84.628906 58.019531 87.960938 65.25 87.960938 C 74.261719 87.960938 82.046875 82.792969 85.8125 75.273438 C 88.582031 77.253906 91.96875 78.425781 95.636719 78.425781 C 104.9375 78.425781 112.480469 70.914062 112.480469 61.644531 C 112.480469 52.375 104.9375 44.859375 95.636719 44.859375 Z M 95.636719 77.515625 C 92.285156 77.515625 89.066406 76.484375 86.347656 74.53125 C 86.191406 74.417969 86 74.363281 85.8125 74.363281 C 85.742188 74.363281 85.664062 74.371094 85.59375 74.390625 C 85.335938 74.453125 85.117188 74.628906 84.996094 74.867188 C 81.238281 82.378906 73.667969 87.050781 65.257812 87.050781 C 58.554688 87.050781 52.292969 84.058594 48.078125 78.84375 C 47.917969 78.640625 47.675781 78.523438 47.417969 78.507812 C 47.402344 78.507812 47.382812 78.507812 47.367188 78.507812 C 47.128906 78.507812 46.898438 78.605469 46.722656 78.773438 C 43.75 81.730469 39.800781 83.351562 35.605469 83.351562 C 29.113281 83.351562 23.371094 79.46875 20.96875 73.453125 C 20.863281 73.195312 20.644531 72.992188 20.371094 72.914062 C 20.285156 72.894531 20.203125 72.878906 20.117188 72.878906 C 19.929688 72.878906 19.730469 72.941406 19.578125 73.054688 C 17.554688 74.546875 15.148438 75.328125 12.628906 75.328125 C 6.167969 75.328125 0.90625 70.09375 0.90625 63.652344 C 0.90625 57.210938 6.164062 51.980469 12.628906 51.980469 C 13.773438 51.980469 14.917969 52.148438 16.015625 52.476562 C 16.097656 52.507812 16.191406 52.519531 16.273438 52.519531 C 16.464844 52.519531 16.648438 52.464844 16.808594 52.351562 C 17.039062 52.183594 17.179688 51.925781 17.1875 51.644531 C 17.425781 43.984375 23.644531 37.984375 31.339844 37.984375 C 33.453125 37.984375 35.492188 38.441406 37.398438 39.335938 C 37.523438 39.394531 37.65625 39.429688 37.789062 39.429688 C 37.925781 39.429688 38.070312 39.394531 38.199219 39.332031 C 38.449219 39.203125 38.625 38.972656 38.683594 38.699219 C 40.328125 30.871094 47.355469 25.1875 55.394531 25.1875 C 62.554688 25.1875 69.003906 29.691406 71.449219 36.390625 C 71.582031 36.753906 71.933594 36.992188 72.304688 36.992188 C 72.382812 36.992188 72.453125 36.984375 72.53125 36.964844 C 73.59375 36.699219 74.679688 36.558594 75.785156 36.558594 C 81.75 36.558594 86.976562 40.570312 88.496094 46.304688 C 88.566406 46.554688 88.734375 46.765625 88.96875 46.882812 C 89.09375 46.949219 89.234375 46.980469 89.375 46.980469 C 89.488281 46.980469 89.605469 46.960938 89.710938 46.917969 C 91.601562 46.164062 93.597656 45.777344 95.636719 45.777344 C 104.417969 45.777344 111.566406 52.898438 111.566406 61.648438 C 111.566406 70.402344 104.417969 77.519531 95.636719 77.519531 Z M 95.636719 77.515625 " fill-opacity="1" fill-rule="nonzero"/></g></svg>