<svg xmlns="http://www.w3.org/2000/svg" xmlns:xlink="http://www.w3.org/1999/xlink" width="150" zoomAndPan="magnify" viewBox="0 0 112.5 112.499997" height="150" preserveAspectRatio="xMidYMid meet" version="1.0"><defs><clipPath id="id1"><path d="M 2.148438 21.539062 L 110.148438 21.539062 L 110.148438 91.289062 L 2.148438 91.289062 Z M 2.148438 21.539062 " clip-rule="nonzero"/></clipPath></defs><g clip-path="url(#id1)"><path fill="#c9e265" d="M 91.78125 91.285156 L 20.519531 91.285156 C 10.414062 91.285156 2.195312 83.011719 2.195312 72.84375 C 2.195312 63.394531 9.292969 55.582031 18.398438 54.523438 C 19.144531 40.859375 30.425781 29.972656 44.183594 29.972656 C 45.65625 29.972656 47.164062 30.109375 48.675781 30.378906 C 54.285156 24.746094 61.945312 21.539062 69.886719 21.539062 C 77.902344 21.539062 85.4375 24.683594 91.105469 30.386719 C 96.777344 36.09375 99.898438 43.679688 99.898438 51.75 C 99.898438 53.230469 99.789062 54.707031 99.574219 56.171875 C 105.941406 59.1875 110.101562 65.671875 110.101562 72.84375 C 110.101562 83.011719 101.882812 91.285156 91.78125 91.285156 Z M 20.457031 58.746094 C 12.761719 58.777344 6.511719 65.089844 6.511719 72.84375 C 6.511719 80.617188 12.792969 86.941406 20.519531 86.941406 L 91.78125 86.941406 C 99.503906 86.941406 105.785156 80.617188 105.785156 72.84375 C 105.785156 66.886719 102.027344 61.550781 96.429688 59.5625 C 95.40625 59.199219 94.8125 58.132812 95.035156 57.066406 C 95.398438 55.324219 95.582031 53.535156 95.582031 51.75 C 95.582031 44.839844 92.910156 38.347656 88.054688 33.460938 C 83.203125 28.574219 76.75 25.882812 69.886719 25.882812 C 62.738281 25.882812 55.851562 28.921875 50.996094 34.21875 C 50.472656 34.789062 49.6875 35.035156 48.933594 34.863281 C 47.332031 34.5 45.734375 34.316406 44.183594 34.316406 C 32.324219 34.316406 22.675781 44.027344 22.675781 55.964844 C 22.675781 56.027344 22.683594 56.085938 22.6875 56.148438 C 22.695312 56.273438 22.703125 56.402344 22.707031 56.527344 C 22.71875 57.113281 22.496094 57.679688 22.089844 58.09375 C 21.683594 58.511719 21.128906 58.746094 20.546875 58.746094 C 20.519531 58.746094 20.488281 58.746094 20.457031 58.746094 Z M 20.457031 58.746094 " fill-opacity="1" fill-rule="nonzero"/></g></svg>