<svg xmlns="http://www.w3.org/2000/svg" xmlns:xlink="http://www.w3.org/1999/xlink" width="100" zoomAndPan="magnify" viewBox="0 0 75 74.999997" height="100" preserveAspectRatio="xMidYMid meet" version="1.0"><defs><clipPath id="id1"><path d="M 2.484375 3 L 72.984375 3 L 72.984375 72 L 2.484375 72 Z M 2.484375 3 " clip-rule="nonzero"/></clipPath></defs><g clip-path="url(#id1)"><path fill="#000000" d="M 37.734375 3.144531 C 18.257812 3.144531 2.484375 18.921875 2.484375 38.394531 C 2.484375 53.996094 12.574219 67.167969 26.585938 71.839844 C 28.351562 72.148438 29.011719 71.089844 29.011719 70.164062 C 29.011719 69.328125 28.96875 66.550781 28.96875 63.601562 C 20.109375 65.230469 17.820312 61.441406 17.113281 59.457031 C 16.71875 58.445312 15 55.316406 13.5 54.480469 C 12.265625 53.816406 10.503906 52.1875 13.457031 52.144531 C 16.234375 52.101562 18.214844 54.699219 18.875 55.757812 C 22.050781 61.089844 27.117188 59.589844 29.144531 58.664062 C 29.453125 56.375 30.375 54.832031 31.390625 53.949219 C 23.546875 53.070312 15.351562 50.027344 15.351562 36.546875 C 15.351562 32.710938 16.71875 29.539062 18.964844 27.070312 C 18.613281 26.191406 17.378906 22.578125 19.316406 17.730469 C 19.316406 17.730469 22.269531 16.804688 29.011719 21.34375 C 31.832031 20.550781 34.828125 20.15625 37.824219 20.15625 C 40.820312 20.15625 43.816406 20.550781 46.636719 21.34375 C 53.378906 16.761719 56.328125 17.730469 56.328125 17.730469 C 58.269531 22.578125 57.035156 26.191406 56.683594 27.070312 C 58.929688 29.539062 60.296875 32.667969 60.296875 36.546875 C 60.296875 50.074219 52.054688 53.070312 44.210938 53.949219 C 45.492188 55.050781 46.59375 57.167969 46.59375 60.472656 C 46.59375 65.1875 46.546875 68.976562 46.546875 70.164062 C 46.546875 71.089844 47.207031 72.191406 48.972656 71.839844 C 50.710938 71.253906 52.394531 70.535156 54.019531 69.683594 C 55.648438 68.835938 57.199219 67.863281 58.675781 66.773438 C 60.152344 65.679688 61.53125 64.480469 62.820312 63.175781 C 64.109375 61.867188 65.289062 60.46875 66.359375 58.980469 C 67.429688 57.488281 68.378906 55.921875 69.207031 54.285156 C 70.03125 52.644531 70.726562 50.953125 71.289062 49.207031 C 71.851562 47.460938 72.273438 45.679688 72.558594 43.867188 C 72.84375 42.054688 72.984375 40.230469 72.984375 38.394531 C 72.984375 18.921875 57.210938 3.144531 37.734375 3.144531 Z M 37.734375 3.144531 " fill-opacity="1" fill-rule="nonzero"/></g></svg>