<svg xmlns="http://www.w3.org/2000/svg" xmlns:xlink="http://www.w3.org/1999/xlink" width="100" zoomAndPan="magnify" viewBox="0 0 75 74.999997" height="100" preserveAspectRatio="xMidYMid meet" version="1.0"><defs><clipPath id="id1"><path d="M 2.925781 2.925781 L 71 2.925781 L 71 71 L 2.925781 71 Z M 2.925781 2.925781 " clip-rule="nonzero"/></clipPath></defs><g clip-path="url(#id1)"><path fill="#4a86c5" d="M 2.925781 36.535156 C 2.925781 17.976562 17.976562 2.925781 36.535156 2.925781 C 55.097656 2.925781 70.148438 17.976562 70.148438 36.535156 C 70.148438 55.097656 55.097656 70.148438 36.535156 70.148438 C 17.976562 70.148438 2.925781 55.097656 2.925781 36.535156 Z M 2.925781 36.535156 " fill-opacity="1" fill-rule="nonzero"/></g><path fill="#3d80b2" d="M 60.296875 12.773438 C 73.425781 25.902344 73.425781 47.183594 60.296875 60.296875 C 47.171875 73.425781 25.886719 73.425781 12.773438 60.296875 Z M 60.296875 12.773438 " fill-opacity="1" fill-rule="nonzero"/><path fill="#4a86c5" d="M 68.546875 46.792969 C 68.671875 46.410156 68.777344 46.019531 68.886719 45.625 C 68.777344 46.019531 68.671875 46.410156 68.546875 46.792969 " fill-opacity="1" fill-rule="nonzero"/><path fill="#377ca5" d="M 68.886719 45.625 L 50.679688 27.417969 L 46.535156 31.5625 L 43.660156 28.679688 L 41.265625 31.078125 L 27.1875 17 L 26.320312 16.664062 L 20.914062 22.066406 L 27.433594 28.582031 L 21.050781 34.964844 L 27.285156 41.195312 L 20.46875 48.011719 L 42.144531 69.660156 C 54.621094 67.558594 64.769531 58.605469 68.546875 46.777344 C 68.671875 46.410156 68.777344 46.019531 68.886719 45.625 " fill-opacity="1" fill-rule="nonzero"/><path fill="#ffffff" d="M 53.78125 35.613281 L 53.78125 48.078125 L 46.5625 48.078125 L 46.5625 36.453125 C 46.5625 33.527344 45.519531 31.535156 42.902344 31.535156 C 40.910156 31.535156 39.71875 32.878906 39.191406 34.179688 C 39 34.640625 38.949219 35.289062 38.949219 35.941406 L 38.949219 48.078125 L 31.726562 48.078125 C 31.726562 48.078125 31.820312 28.378906 31.726562 26.347656 L 38.949219 26.347656 L 38.949219 29.421875 C 38.933594 29.449219 38.921875 29.476562 38.90625 29.492188 L 38.949219 29.492188 L 38.949219 29.421875 C 39.910156 27.945312 41.617188 25.832031 45.464844 25.832031 C 50.21875 25.832031 53.78125 28.9375 53.78125 35.613281 M 24.167969 15.863281 C 21.703125 15.863281 20.074219 17.488281 20.074219 19.617188 C 20.074219 21.703125 21.648438 23.367188 24.074219 23.367188 L 24.125 23.367188 C 26.648438 23.367188 28.21875 21.703125 28.21875 19.617188 C 28.148438 17.488281 26.632812 15.863281 24.167969 15.863281 M 20.496094 48.078125 L 27.730469 48.078125 L 27.730469 26.347656 L 20.507812 26.347656 L 20.507812 48.078125 Z M 20.496094 48.078125 " fill-opacity="1" fill-rule="nonzero"/></svg>