<svg xmlns="http://www.w3.org/2000/svg" xmlns:xlink="http://www.w3.org/1999/xlink" width="100" zoomAndPan="magnify" viewBox="0 0 75 74.999997" height="100" preserveAspectRatio="xMidYMid meet" version="1.0"><defs><clipPath id="id1"><path d="M 1.496094 1.496094 L 72.746094 1.496094 L 72.746094 72.746094 L 1.496094 72.746094 Z M 1.496094 1.496094 " clip-rule="nonzero"/></clipPath></defs><g clip-path="url(#id1)"><path fill="#1b9df0" d="M 72.746094 37.121094 C 72.746094 38.289062 72.6875 39.453125 72.574219 40.613281 C 72.460938 41.773438 72.289062 42.925781 72.0625 44.070312 C 71.832031 45.214844 71.550781 46.34375 71.210938 47.460938 C 70.871094 48.578125 70.480469 49.675781 70.035156 50.753906 C 69.585938 51.832031 69.089844 52.886719 68.539062 53.914062 C 67.988281 54.941406 67.390625 55.941406 66.742188 56.914062 C 66.09375 57.882812 65.398438 58.820312 64.660156 59.722656 C 63.917969 60.621094 63.136719 61.484375 62.3125 62.3125 C 61.484375 63.136719 60.621094 63.917969 59.722656 64.660156 C 58.820312 65.398438 57.882812 66.09375 56.914062 66.742188 C 55.941406 67.390625 54.941406 67.988281 53.914062 68.539062 C 52.886719 69.089844 51.832031 69.585938 50.753906 70.035156 C 49.675781 70.480469 48.578125 70.871094 47.460938 71.210938 C 46.34375 71.550781 45.214844 71.832031 44.070312 72.0625 C 42.925781 72.289062 41.773438 72.460938 40.613281 72.574219 C 39.453125 72.6875 38.289062 72.746094 37.121094 72.746094 C 35.953125 72.746094 34.789062 72.6875 33.628906 72.574219 C 32.46875 72.460938 31.316406 72.289062 30.171875 72.0625 C 29.027344 71.832031 27.894531 71.550781 26.777344 71.210938 C 25.664062 70.871094 24.566406 70.480469 23.488281 70.035156 C 22.410156 69.585938 21.355469 69.089844 20.328125 68.539062 C 19.296875 67.988281 18.296875 67.390625 17.328125 66.742188 C 16.359375 66.09375 15.421875 65.398438 14.519531 64.660156 C 13.617188 63.917969 12.753906 63.136719 11.929688 62.3125 C 11.105469 61.484375 10.324219 60.621094 9.582031 59.722656 C 8.84375 58.820312 8.148438 57.882812 7.5 56.914062 C 6.851562 55.941406 6.253906 54.941406 5.703125 53.914062 C 5.152344 52.886719 4.652344 51.832031 4.207031 50.753906 C 3.761719 49.675781 3.367188 48.578125 3.03125 47.460938 C 2.691406 46.34375 2.40625 45.214844 2.179688 44.070312 C 1.953125 42.925781 1.78125 41.773438 1.667969 40.613281 C 1.554688 39.453125 1.496094 38.289062 1.496094 37.121094 C 1.496094 35.953125 1.554688 34.789062 1.667969 33.628906 C 1.78125 32.46875 1.953125 31.316406 2.179688 30.171875 C 2.40625 29.027344 2.691406 27.894531 3.03125 26.777344 C 3.367188 25.664062 3.761719 24.566406 4.207031 23.488281 C 4.652344 22.410156 5.152344 21.355469 5.703125 20.328125 C 6.253906 19.296875 6.851562 18.296875 7.5 17.328125 C 8.148438 16.359375 8.84375 15.421875 9.582031 14.519531 C 10.324219 13.617188 11.105469 12.753906 11.929688 11.929688 C 12.753906 11.105469 13.617188 10.324219 14.519531 9.582031 C 15.421875 8.84375 16.359375 8.148438 17.328125 7.5 C 18.296875 6.851562 19.296875 6.253906 20.328125 5.703125 C 21.355469 5.152344 22.410156 4.652344 23.488281 4.207031 C 24.566406 3.761719 25.664062 3.367188 26.777344 3.03125 C 27.894531 2.691406 29.027344 2.40625 30.171875 2.179688 C 31.316406 1.953125 32.46875 1.78125 33.628906 1.667969 C 34.789062 1.554688 35.953125 1.496094 37.121094 1.496094 C 38.289062 1.496094 39.453125 1.554688 40.613281 1.667969 C 41.773438 1.78125 42.925781 1.953125 44.070312 2.179688 C 45.214844 2.40625 46.34375 2.691406 47.460938 3.03125 C 48.578125 3.367188 49.675781 3.761719 50.753906 4.207031 C 51.832031 4.652344 52.886719 5.152344 53.914062 5.703125 C 54.941406 6.253906 55.941406 6.851562 56.914062 7.5 C 57.882812 8.148438 58.820312 8.84375 59.722656 9.582031 C 60.621094 10.324219 61.484375 11.105469 62.3125 11.929688 C 63.136719 12.753906 63.917969 13.617188 64.660156 14.519531 C 65.398438 15.421875 66.09375 16.359375 66.742188 17.328125 C 67.390625 18.296875 67.988281 19.296875 68.539062 20.328125 C 69.089844 21.355469 69.585938 22.410156 70.035156 23.488281 C 70.480469 24.566406 70.871094 25.664062 71.210938 26.777344 C 71.550781 27.894531 71.832031 29.027344 72.0625 30.171875 C 72.289062 31.316406 72.460938 32.46875 72.574219 33.628906 C 72.6875 34.789062 72.746094 35.953125 72.746094 37.121094 Z M 72.746094 37.121094 " fill-opacity="1" fill-rule="nonzero"/></g><path fill="#ffffff" d="M 30.601562 55.914062 C 46.402344 55.914062 55.039062 42.820312 55.039062 31.472656 C 55.039062 31.101562 55.039062 30.726562 55.023438 30.371094 C 56.695312 29.160156 58.15625 27.644531 59.316406 25.917969 C 57.78125 26.59375 56.125 27.054688 54.382812 27.269531 C 56.164062 26.203125 57.515625 24.527344 58.15625 22.515625 C 56.5 23.492188 54.664062 24.207031 52.707031 24.597656 C 51.140625 22.925781 48.914062 21.890625 46.4375 21.890625 C 41.699219 21.890625 37.851562 25.738281 37.851562 30.476562 C 37.851562 31.152344 37.921875 31.8125 38.082031 32.4375 C 30.941406 32.078125 24.617188 28.660156 20.375 23.457031 C 19.648438 24.722656 19.21875 26.203125 19.21875 27.769531 C 19.21875 30.742188 20.734375 33.378906 23.046875 34.910156 C 21.640625 34.875 20.324219 34.484375 19.164062 33.84375 C 19.164062 33.878906 19.164062 33.914062 19.164062 33.949219 C 19.164062 38.117188 22.121094 41.574219 26.058594 42.375 C 25.347656 42.570312 24.582031 42.679688 23.796875 42.679688 C 23.246094 42.679688 22.710938 42.625 22.175781 42.519531 C 23.261719 45.9375 26.433594 48.414062 30.191406 48.484375 C 27.253906 50.78125 23.546875 52.15625 19.523438 52.15625 C 18.828125 52.15625 18.148438 52.117188 17.472656 52.03125 C 21.230469 54.488281 25.757812 55.914062 30.601562 55.914062 " fill-opacity="1" fill-rule="nonzero"/></svg>