<svg xmlns="http://www.w3.org/2000/svg" xmlns:xlink="http://www.w3.org/1999/xlink" width="150" zoomAndPan="magnify" viewBox="0 0 112.5 74.999997" height="100" preserveAspectRatio="xMidYMid meet" version="1.0"><defs><clipPath id="id1"><path d="M 45 21.8125 L 76 21.8125 L 76 22 L 45 22 Z M 45 21.8125 " clip-rule="nonzero"/></clipPath><clipPath id="id2"><path d="M 60 21.8125 L 73 21.8125 L 73 22 L 60 22 Z M 60 21.8125 " clip-rule="nonzero"/></clipPath><clipPath id="id3"><path d="M 49 21.8125 L 51 21.8125 L 51 22 L 49 22 Z M 49 21.8125 " clip-rule="nonzero"/></clipPath><clipPath id="id4"><path d="M 56 21.8125 L 58 21.8125 L 58 22 L 56 22 Z M 56 21.8125 " clip-rule="nonzero"/></clipPath><clipPath id="id5"><path d="M 61 21.8125 L 69 21.8125 L 69 22 L 61 22 Z M 61 21.8125 " clip-rule="nonzero"/></clipPath><clipPath id="id6"><path d="M 1.707031 48 L 111 48 L 111 53.3125 L 1.707031 53.3125 Z M 1.707031 48 " clip-rule="nonzero"/></clipPath><clipPath id="id7"><path d="M 1.707031 21.8125 L 111 21.8125 L 111 25 L 1.707031 25 Z M 1.707031 21.8125 " clip-rule="nonzero"/></clipPath><clipPath id="id8"><path d="M 1.707031 21.8125 L 3 21.8125 L 3 52 L 1.707031 52 Z M 1.707031 21.8125 " clip-rule="nonzero"/></clipPath><clipPath id="id9"><path d="M 1.707031 26 L 2 26 L 2 39 L 1.707031 39 Z M 1.707031 26 " clip-rule="nonzero"/></clipPath><clipPath id="id10"><path d="M 1.707031 39 L 2 39 L 2 47 L 1.707031 47 Z M 1.707031 39 " clip-rule="nonzero"/></clipPath><clipPath id="id11"><path d="M 1.707031 21.8125 L 2 21.8125 L 2 27 L 1.707031 27 Z M 1.707031 21.8125 " clip-rule="nonzero"/></clipPath><clipPath id="id12"><path d="M 1.707031 26 L 2 26 L 2 39 L 1.707031 39 Z M 1.707031 26 " clip-rule="nonzero"/></clipPath><clipPath id="id13"><path d="M 1.707031 39 L 2 39 L 2 47 L 1.707031 47 Z M 1.707031 39 " clip-rule="nonzero"/></clipPath><clipPath id="id14"><path d="M 1.707031 39 L 2 39 L 2 46 L 1.707031 46 Z M 1.707031 39 " clip-rule="nonzero"/></clipPath><clipPath id="id15"><path d="M 1.707031 46 L 2 46 L 2 52 L 1.707031 52 Z M 1.707031 46 " clip-rule="nonzero"/></clipPath><clipPath id="id16"><path d="M 2 21.8125 L 19 21.8125 L 19 52 L 2 52 Z M 2 21.8125 " clip-rule="nonzero"/></clipPath><clipPath id="id17"><path d="M 2 21.8125 L 9 21.8125 L 9 36 L 2 36 Z M 2 21.8125 " clip-rule="nonzero"/></clipPath><clipPath id="id18"><path d="M 12 21.8125 L 14 21.8125 L 14 27 L 12 27 Z M 12 21.8125 " clip-rule="nonzero"/></clipPath><clipPath id="id19"><path d="M 8 21.8125 L 13 21.8125 L 13 36 L 8 36 Z M 8 21.8125 " clip-rule="nonzero"/></clipPath><clipPath id="id20"><path d="M 2 21.8125 L 13 21.8125 L 13 36 L 2 36 Z M 2 21.8125 " clip-rule="nonzero"/></clipPath><clipPath id="id21"><path d="M 13 21.8125 L 19 21.8125 L 19 27 L 13 27 Z M 13 21.8125 " clip-rule="nonzero"/></clipPath><clipPath id="id22"><path d="M 18 21.8125 L 36 21.8125 L 36 52 L 18 52 Z M 18 21.8125 " clip-rule="nonzero"/></clipPath><clipPath id="id23"><path d="M 18 21.8125 L 26 21.8125 L 26 36 L 18 36 Z M 18 21.8125 " clip-rule="nonzero"/></clipPath><clipPath id="id24"><path d="M 29 21.8125 L 30 21.8125 L 30 27 L 29 27 Z M 29 21.8125 " clip-rule="nonzero"/></clipPath><clipPath id="id25"><path d="M 25 21.8125 L 30 21.8125 L 30 36 L 25 36 Z M 25 21.8125 " clip-rule="nonzero"/></clipPath><clipPath id="id26"><path d="M 19 21.8125 L 29 21.8125 L 29 36 L 19 36 Z M 19 21.8125 " clip-rule="nonzero"/></clipPath><clipPath id="id27"><path d="M 29 21.8125 L 36 21.8125 L 36 27 L 29 27 Z M 29 21.8125 " clip-rule="nonzero"/></clipPath><clipPath id="id28"><path d="M 29 21.8125 L 35 21.8125 L 35 27 L 29 27 Z M 29 21.8125 " clip-rule="nonzero"/></clipPath><clipPath id="id29"><path d="M 35 21.8125 L 52 21.8125 L 52 52 L 35 52 Z M 35 21.8125 " clip-rule="nonzero"/></clipPath><clipPath id="id30"><path d="M 35 21.8125 L 42 21.8125 L 42 36 L 35 36 Z M 35 21.8125 " clip-rule="nonzero"/></clipPath><clipPath id="id31"><path d="M 46 21.8125 L 47 21.8125 L 47 27 L 46 27 Z M 46 21.8125 " clip-rule="nonzero"/></clipPath><clipPath id="id32"><path d="M 41 21.8125 L 46 21.8125 L 46 36 L 41 36 Z M 41 21.8125 " clip-rule="nonzero"/></clipPath><clipPath id="id33"><path d="M 35 21.8125 L 46 21.8125 L 46 36 L 35 36 Z M 35 21.8125 " clip-rule="nonzero"/></clipPath><clipPath id="id34"><path d="M 46 21.8125 L 52 21.8125 L 52 27 L 46 27 Z M 46 21.8125 " clip-rule="nonzero"/></clipPath><clipPath id="id35"><path d="M 51 21.8125 L 69 21.8125 L 69 52 L 51 52 Z M 51 21.8125 " clip-rule="nonzero"/></clipPath><clipPath id="id36"><path d="M 51 21.8125 L 59 21.8125 L 59 36 L 51 36 Z M 51 21.8125 " clip-rule="nonzero"/></clipPath><clipPath id="id37"><path d="M 62 21.8125 L 63 21.8125 L 63 27 L 62 27 Z M 62 21.8125 " clip-rule="nonzero"/></clipPath><clipPath id="id38"><path d="M 58 21.8125 L 63 21.8125 L 63 36 L 58 36 Z M 58 21.8125 " clip-rule="nonzero"/></clipPath><clipPath id="id39"><path d="M 52 21.8125 L 62 21.8125 L 62 36 L 52 36 Z M 52 21.8125 " clip-rule="nonzero"/></clipPath><clipPath id="id40"><path d="M 62 21.8125 L 69 21.8125 L 69 27 L 62 27 Z M 62 21.8125 " clip-rule="nonzero"/></clipPath><clipPath id="id41"><path d="M 62 21.8125 L 68 21.8125 L 68 27 L 62 27 Z M 62 21.8125 " clip-rule="nonzero"/></clipPath><clipPath id="id42"><path d="M 68 21.8125 L 86 21.8125 L 86 52 L 68 52 Z M 68 21.8125 " clip-rule="nonzero"/></clipPath><clipPath id="id43"><path d="M 68 21.8125 L 75 21.8125 L 75 36 L 68 36 Z M 68 21.8125 " clip-rule="nonzero"/></clipPath><clipPath id="id44"><path d="M 79 21.8125 L 80 21.8125 L 80 27 L 79 27 Z M 79 21.8125 " clip-rule="nonzero"/></clipPath><clipPath id="id45"><path d="M 74 21.8125 L 79 21.8125 L 79 36 L 74 36 Z M 74 21.8125 " clip-rule="nonzero"/></clipPath><clipPath id="id46"><path d="M 68 21.8125 L 79 21.8125 L 79 36 L 68 36 Z M 68 21.8125 " clip-rule="nonzero"/></clipPath><clipPath id="id47"><path d="M 79 21.8125 L 85 21.8125 L 85 27 L 79 27 Z M 79 21.8125 " clip-rule="nonzero"/></clipPath><clipPath id="id48"><path d="M 85 21.8125 L 102 21.8125 L 102 52 L 85 52 Z M 85 21.8125 " clip-rule="nonzero"/></clipPath><clipPath id="id49"><path d="M 85 21.8125 L 92 21.8125 L 92 36 L 85 36 Z M 85 21.8125 " clip-rule="nonzero"/></clipPath><clipPath id="id50"><path d="M 95 21.8125 L 97 21.8125 L 97 27 L 95 27 Z M 95 21.8125 " clip-rule="nonzero"/></clipPath><clipPath id="id51"><path d="M 91 21.8125 L 96 21.8125 L 96 36 L 91 36 Z M 91 21.8125 " clip-rule="nonzero"/></clipPath><clipPath id="id52"><path d="M 85 21.8125 L 95 21.8125 L 95 36 L 85 36 Z M 85 21.8125 " clip-rule="nonzero"/></clipPath><clipPath id="id53"><path d="M 96 21.8125 L 102 21.8125 L 102 27 L 96 27 Z M 96 21.8125 " clip-rule="nonzero"/></clipPath><clipPath id="id54"><path d="M 96 21.8125 L 101 21.8125 L 101 27 L 96 27 Z M 96 21.8125 " clip-rule="nonzero"/></clipPath><clipPath id="id55"><path d="M 101 21.8125 L 111 21.8125 L 111 52 L 101 52 Z M 101 21.8125 " clip-rule="nonzero"/></clipPath><clipPath id="id56"><path d="M 101 21.8125 L 108 21.8125 L 108 36 L 101 36 Z M 101 21.8125 " clip-rule="nonzero"/></clipPath><clipPath id="id57"><path d="M 102 21.8125 L 111 21.8125 L 111 36 L 102 36 Z M 102 21.8125 " clip-rule="nonzero"/></clipPath></defs><g clip-path="url(#id1)"><path fill="#000000" d="M 75.863281 21.65625 L 75.863281 -37.757812 L 45.015625 -37.757812 L 45.015625 21.65625 L 75.863281 21.65625 " fill-opacity="1" fill-rule="nonzero"/><path fill="#79d10b" d="M 75.238281 21.65625 L 75.238281 -37.054688 L 45.644531 -37.054688 L 45.644531 21.65625 L 75.238281 21.65625 " fill-opacity="1" fill-rule="nonzero"/></g><g clip-path="url(#id2)"><path fill="#06a700" d="M 72.457031 21.65625 L 72.457031 21.160156 L 60.4375 21.160156 L 60.4375 21.65625 L 72.457031 21.65625 " fill-opacity="1" fill-rule="nonzero"/></g><g clip-path="url(#id3)"><path fill="#06a700" d="M 50.609375 21.65625 L 50.609375 -34.945312 L 49.355469 -34.945312 L 49.355469 21.65625 L 50.609375 21.65625 " fill-opacity="1" fill-rule="nonzero"/></g><g clip-path="url(#id4)"><path fill="#06a700" d="M 57.660156 21.65625 L 57.660156 -34.945312 L 56.410156 -34.945312 L 56.410156 21.65625 L 57.660156 21.65625 " fill-opacity="1" fill-rule="nonzero"/></g><g clip-path="url(#id5)"><path fill="#06a700" d="M 68.375 21.65625 L 68.375 -34.945312 L 61.394531 -34.945312 L 61.394531 21.65625 L 68.375 21.65625 " fill-opacity="1" fill-rule="nonzero"/></g><g clip-path="url(#id6)"><path fill="#382d26" d="M -226.847656 48.9375 L -226.847656 53.726562 L 110.933594 53.726562 L 110.933594 48.9375 L -226.847656 48.9375 " fill-opacity="1" fill-rule="nonzero"/></g><g clip-path="url(#id7)"><path fill="#ffc5a0" d="M -226.847656 19.441406 L -226.847656 24.230469 L 110.933594 24.230469 L 110.933594 19.441406 L -226.847656 19.441406 " fill-opacity="1" fill-rule="nonzero"/></g><g clip-path="url(#id8)"><path fill="#382d26" d="M 2.367188 51.5 L -14.171875 51.5 L -14.171875 20.484375 L 2.367188 20.484375 L 2.367188 51.5 " fill-opacity="1" fill-rule="nonzero"/></g><g clip-path="url(#id9)"><path fill="#ffc5a0" d="M -3.347656 32.308594 L -3.179688 27.097656 L 1.507812 26.648438 L 1.507812 26.605469 L -3.621094 27.097656 L -3.785156 32.308594 L -6.492188 34.042969 L -7.074219 38.984375 L -6.636719 38.976562 L -6.054688 34.042969 L -3.347656 32.308594 " fill-opacity="1" fill-rule="nonzero"/></g><g clip-path="url(#id10)"><path fill="#ffc5a0" d="M -3.179688 39.875 L -3.621094 39.875 L -3.621094 45.082031 L 1.507812 46.070312 L 1.507812 45.984375 L -3.179688 45.082031 L -3.179688 39.875 " fill-opacity="1" fill-rule="nonzero"/></g><g clip-path="url(#id11)"><path fill="#191411" d="M 1.507812 20.484375 L 1.507812 25.671875 L -3.179688 26.273438 L -3.179688 26.332031 L 1.945312 25.671875 L 1.945312 20.484375 L 1.507812 20.484375 " fill-opacity="1" fill-rule="nonzero"/><path fill="#c64504" d="M 1.507812 20.484375 L -3.179688 20.484375 L -3.179688 26.273438 L 1.507812 25.671875 L 1.507812 20.484375 " fill-opacity="1" fill-rule="nonzero"/></g><g clip-path="url(#id12)"><path fill="#191411" d="M 1.507812 38.820312 L -6.636719 38.976562 L -6.636719 38.984375 L 1.945312 38.820312 L 1.945312 26.605469 L 1.507812 26.648438 L 1.507812 38.820312 " fill-opacity="1" fill-rule="nonzero"/><path fill="#c64504" d="M 1.507812 26.648438 L -3.179688 27.097656 L -3.347656 32.308594 L -6.054688 34.042969 L -6.636719 38.976562 L 1.507812 38.820312 L 1.507812 26.648438 " fill-opacity="1" fill-rule="nonzero"/></g><g clip-path="url(#id13)"><path fill="#191411" d="M 1.507812 45.984375 L 1.945312 46.070312 L 1.945312 39.875 L 1.507812 39.875 L 1.507812 45.984375 " fill-opacity="1" fill-rule="nonzero"/></g><g clip-path="url(#id14)"><path fill="#c64504" d="M -3.179688 39.875 L -3.179688 45.082031 L 1.507812 45.984375 L 1.507812 39.875 L -3.179688 39.875 " fill-opacity="1" fill-rule="nonzero"/></g><g clip-path="url(#id15)"><path fill="#191411" d="M -3.179688 46.375 L 1.507812 47.277344 L 1.507812 51.5 L 1.945312 51.5 L 1.945312 47.277344 L -3.179688 46.289062 L -3.179688 46.375 " fill-opacity="1" fill-rule="nonzero"/><path fill="#c64504" d="M -3.179688 46.375 L -3.179688 51.5 L 1.507812 51.5 L 1.507812 47.277344 L -3.179688 46.375 " fill-opacity="1" fill-rule="nonzero"/></g><g clip-path="url(#id16)"><path fill="#382d26" d="M 18.910156 51.5 L 2.367188 51.5 L 2.367188 20.484375 L 18.910156 20.484375 L 18.910156 51.5 " fill-opacity="1" fill-rule="nonzero"/></g><g clip-path="url(#id17)"><path fill="#ffc5a0" d="M 8.484375 35.402344 L 2.804688 33.226562 L 2.804688 20.484375 L 2.367188 20.484375 L 2.367188 33.226562 L 8.386719 35.53125 L 8.484375 35.402344 " fill-opacity="1" fill-rule="nonzero"/></g><path fill="#ffc5a0" d="M 2.804688 34.21875 L 2.367188 34.050781 L 2.367188 39.136719 L 2.804688 39.136719 L 2.804688 34.21875 " fill-opacity="1" fill-rule="nonzero"/><g clip-path="url(#id18)"><path fill="#ffc5a0" d="M 12.921875 20.484375 L 12.921875 26.332031 L 13.359375 26.273438 L 13.359375 20.484375 L 12.921875 20.484375 " fill-opacity="1" fill-rule="nonzero"/></g><path fill="#ffc5a0" d="M 13.195312 32.308594 L 13.359375 27.097656 L 18.050781 26.648438 L 18.050781 26.605469 L 12.921875 27.097656 L 12.757812 32.308594 L 10.050781 34.042969 L 9.46875 38.984375 L 9.90625 38.976562 L 10.488281 34.042969 L 13.195312 32.308594 " fill-opacity="1" fill-rule="nonzero"/><path fill="#ffc5a0" d="M 2.367188 39.875 L 2.367188 51.5 L 2.804688 51.5 L 2.804688 39.875 L 2.367188 39.875 " fill-opacity="1" fill-rule="nonzero"/><path fill="#ffc5a0" d="M 13.359375 39.875 L 12.921875 39.875 L 12.921875 45.082031 L 18.050781 46.070312 L 18.050781 45.984375 L 13.359375 45.082031 L 13.359375 39.875 " fill-opacity="1" fill-rule="nonzero"/><path fill="#ffc5a0" d="M 12.921875 46.289062 L 12.921875 51.5 L 13.359375 51.5 L 13.359375 46.375 L 12.921875 46.289062 " fill-opacity="1" fill-rule="nonzero"/><g clip-path="url(#id19)"><path fill="#191411" d="M 8.484375 35.402344 L 8.824219 35.53125 L 12.539062 30.757812 L 12.539062 20.484375 L 12.097656 20.484375 L 12.097656 30.757812 L 8.484375 35.402344 " fill-opacity="1" fill-rule="nonzero"/></g><g clip-path="url(#id20)"><path fill="#c64504" d="M 8.484375 35.402344 L 12.097656 30.757812 L 12.097656 20.484375 L 2.804688 20.484375 L 2.804688 33.226562 L 8.484375 35.402344 " fill-opacity="1" fill-rule="nonzero"/></g><path fill="#191411" d="M 8.390625 39.136719 L 8.832031 39.136719 L 8.832031 36.351562 L 2.804688 34.050781 L 2.804688 34.21875 L 8.390625 36.351562 L 8.390625 39.136719 " fill-opacity="1" fill-rule="nonzero"/><path fill="#c64504" d="M 8.390625 39.136719 L 8.390625 36.351562 L 2.804688 34.21875 L 2.804688 39.136719 L 8.390625 39.136719 " fill-opacity="1" fill-rule="nonzero"/><g clip-path="url(#id21)"><path fill="#191411" d="M 18.050781 20.484375 L 18.050781 25.671875 L 13.359375 26.273438 L 13.359375 26.332031 L 18.488281 25.671875 L 18.488281 20.484375 L 18.050781 20.484375 " fill-opacity="1" fill-rule="nonzero"/><path fill="#c64504" d="M 18.050781 20.484375 L 13.359375 20.484375 L 13.359375 26.273438 L 18.050781 25.671875 L 18.050781 20.484375 " fill-opacity="1" fill-rule="nonzero"/></g><path fill="#191411" d="M 18.050781 38.820312 L 9.90625 38.976562 L 9.90625 38.984375 L 18.488281 38.820312 L 18.488281 26.605469 L 18.050781 26.648438 L 18.050781 38.820312 " fill-opacity="1" fill-rule="nonzero"/><path fill="#c64504" d="M 18.050781 26.648438 L 13.359375 27.097656 L 13.195312 32.308594 L 10.488281 34.042969 L 9.90625 38.976562 L 18.050781 38.820312 L 18.050781 26.648438 " fill-opacity="1" fill-rule="nonzero"/><path fill="#191411" d="M 12.097656 51.5 L 12.539062 51.5 L 12.539062 39.875 L 12.097656 39.875 L 12.097656 51.5 " fill-opacity="1" fill-rule="nonzero"/><path fill="#c64504" d="M 2.804688 39.875 L 2.804688 51.5 L 12.097656 51.5 L 12.097656 39.875 L 2.804688 39.875 " fill-opacity="1" fill-rule="nonzero"/><path fill="#191411" d="M 18.050781 45.984375 L 18.488281 46.070312 L 18.488281 39.875 L 18.050781 39.875 L 18.050781 45.984375 " fill-opacity="1" fill-rule="nonzero"/><path fill="#c64504" d="M 13.359375 39.875 L 13.359375 45.082031 L 18.050781 45.984375 L 18.050781 39.875 L 13.359375 39.875 " fill-opacity="1" fill-rule="nonzero"/><path fill="#191411" d="M 13.359375 46.375 L 18.050781 47.277344 L 18.050781 51.5 L 18.488281 51.5 L 18.488281 47.277344 L 13.359375 46.289062 L 13.359375 46.375 " fill-opacity="1" fill-rule="nonzero"/><path fill="#c64504" d="M 13.359375 46.375 L 13.359375 51.5 L 18.050781 51.5 L 18.050781 47.277344 L 13.359375 46.375 " fill-opacity="1" fill-rule="nonzero"/><g clip-path="url(#id22)"><path fill="#382d26" d="M 35.453125 51.5 L 18.910156 51.5 L 18.910156 20.484375 L 35.453125 20.484375 L 35.453125 51.5 " fill-opacity="1" fill-rule="nonzero"/></g><g clip-path="url(#id23)"><path fill="#ffc5a0" d="M 25.027344 35.402344 L 19.347656 33.226562 L 19.347656 20.484375 L 18.910156 20.484375 L 18.910156 33.226562 L 24.925781 35.53125 L 25.027344 35.402344 " fill-opacity="1" fill-rule="nonzero"/></g><path fill="#ffc5a0" d="M 19.347656 34.21875 L 18.910156 34.050781 L 18.910156 39.132812 L 19.347656 39.132812 L 19.347656 34.21875 " fill-opacity="1" fill-rule="nonzero"/><g clip-path="url(#id24)"><path fill="#ffc5a0" d="M 29.460938 20.484375 L 29.460938 26.332031 L 29.902344 26.273438 L 29.902344 20.484375 L 29.460938 20.484375 " fill-opacity="1" fill-rule="nonzero"/></g><path fill="#ffc5a0" d="M 29.738281 32.308594 L 29.902344 27.097656 L 34.589844 26.648438 L 34.589844 26.605469 L 29.460938 27.097656 L 29.296875 32.308594 L 26.589844 34.042969 L 26.007812 38.984375 L 26.449219 38.976562 L 27.027344 34.042969 L 29.738281 32.308594 " fill-opacity="1" fill-rule="nonzero"/><path fill="#ffc5a0" d="M 18.910156 39.875 L 18.910156 51.5 L 19.347656 51.5 L 19.347656 39.875 L 18.910156 39.875 " fill-opacity="1" fill-rule="nonzero"/><path fill="#ffc5a0" d="M 29.902344 39.875 L 29.460938 39.875 L 29.460938 45.082031 L 34.589844 46.070312 L 34.589844 45.984375 L 29.902344 45.082031 L 29.902344 39.875 " fill-opacity="1" fill-rule="nonzero"/><path fill="#ffc5a0" d="M 29.460938 46.289062 L 29.460938 51.5 L 29.902344 51.5 L 29.902344 46.375 L 29.460938 46.289062 " fill-opacity="1" fill-rule="nonzero"/><g clip-path="url(#id25)"><path fill="#191411" d="M 25.027344 35.402344 L 25.367188 35.53125 L 29.078125 30.757812 L 29.078125 20.484375 L 28.640625 20.484375 L 28.640625 30.757812 L 25.027344 35.402344 " fill-opacity="1" fill-rule="nonzero"/></g><g clip-path="url(#id26)"><path fill="#c64504" d="M 25.027344 35.402344 L 28.640625 30.757812 L 28.640625 20.484375 L 19.347656 20.484375 L 19.347656 33.226562 L 25.027344 35.402344 " fill-opacity="1" fill-rule="nonzero"/></g><path fill="#191411" d="M 24.933594 39.132812 L 25.371094 39.132812 L 25.371094 36.351562 L 19.347656 34.050781 L 19.347656 34.21875 L 24.933594 36.351562 L 24.933594 39.132812 " fill-opacity="1" fill-rule="nonzero"/><path fill="#c64504" d="M 24.933594 39.132812 L 24.933594 36.351562 L 19.347656 34.21875 L 19.347656 39.132812 L 24.933594 39.132812 " fill-opacity="1" fill-rule="nonzero"/><g clip-path="url(#id27)"><path fill="#191411" d="M 34.589844 20.484375 L 34.589844 25.671875 L 29.902344 26.273438 L 29.902344 26.332031 L 35.027344 25.671875 L 35.027344 20.484375 L 34.589844 20.484375 " fill-opacity="1" fill-rule="nonzero"/></g><g clip-path="url(#id28)"><path fill="#c64504" d="M 34.589844 20.484375 L 29.902344 20.484375 L 29.902344 26.273438 L 34.589844 25.671875 L 34.589844 20.484375 " fill-opacity="1" fill-rule="nonzero"/></g><path fill="#191411" d="M 34.589844 38.820312 L 26.449219 38.976562 L 26.449219 38.984375 L 35.027344 38.820312 L 35.027344 26.605469 L 34.589844 26.648438 L 34.589844 38.820312 " fill-opacity="1" fill-rule="nonzero"/><path fill="#c64504" d="M 34.589844 26.648438 L 29.902344 27.097656 L 29.738281 32.308594 L 27.027344 34.042969 L 26.449219 38.976562 L 34.589844 38.820312 L 34.589844 26.648438 " fill-opacity="1" fill-rule="nonzero"/><path fill="#191411" d="M 28.640625 51.5 L 29.078125 51.5 L 29.078125 39.875 L 28.640625 39.875 L 28.640625 51.5 " fill-opacity="1" fill-rule="nonzero"/><path fill="#c64504" d="M 19.347656 39.875 L 19.347656 51.5 L 28.640625 51.5 L 28.640625 39.875 L 19.347656 39.875 " fill-opacity="1" fill-rule="nonzero"/><path fill="#191411" d="M 34.589844 45.984375 L 35.027344 46.070312 L 35.027344 39.875 L 34.589844 39.875 L 34.589844 45.984375 " fill-opacity="1" fill-rule="nonzero"/><path fill="#c64504" d="M 29.902344 39.875 L 29.902344 45.082031 L 34.589844 45.984375 L 34.589844 39.875 L 29.902344 39.875 " fill-opacity="1" fill-rule="nonzero"/><path fill="#191411" d="M 29.902344 46.375 L 34.589844 47.277344 L 34.589844 51.5 L 35.027344 51.5 L 35.027344 47.277344 L 29.902344 46.289062 L 29.902344 46.375 " fill-opacity="1" fill-rule="nonzero"/><path fill="#c64504" d="M 29.902344 46.375 L 29.902344 51.5 L 34.589844 51.5 L 34.589844 47.277344 L 29.902344 46.375 " fill-opacity="1" fill-rule="nonzero"/><g clip-path="url(#id29)"><path fill="#382d26" d="M 51.992188 51.5 L 35.453125 51.5 L 35.453125 20.484375 L 51.992188 20.484375 L 51.992188 51.5 " fill-opacity="1" fill-rule="nonzero"/></g><g clip-path="url(#id30)"><path fill="#ffc5a0" d="M 41.570312 35.402344 L 35.890625 33.226562 L 35.890625 20.484375 L 35.453125 20.484375 L 35.453125 33.226562 L 41.46875 35.53125 L 41.570312 35.402344 " fill-opacity="1" fill-rule="nonzero"/></g><path fill="#ffc5a0" d="M 35.890625 34.21875 L 35.453125 34.050781 L 35.453125 39.132812 L 35.890625 39.132812 L 35.890625 34.21875 " fill-opacity="1" fill-rule="nonzero"/><g clip-path="url(#id31)"><path fill="#ffc5a0" d="M 46.003906 20.484375 L 46.003906 26.332031 L 46.441406 26.273438 L 46.441406 20.484375 L 46.003906 20.484375 " fill-opacity="1" fill-rule="nonzero"/></g><path fill="#ffc5a0" d="M 46.277344 32.308594 L 46.441406 27.097656 L 51.132812 26.648438 L 51.132812 26.605469 L 46.003906 27.097656 L 45.839844 32.308594 L 43.132812 34.042969 L 42.550781 38.984375 L 42.988281 38.976562 L 43.570312 34.042969 L 46.277344 32.308594 " fill-opacity="1" fill-rule="nonzero"/><path fill="#ffc5a0" d="M 35.453125 39.875 L 35.453125 51.5 L 35.890625 51.5 L 35.890625 39.875 L 35.453125 39.875 " fill-opacity="1" fill-rule="nonzero"/><path fill="#ffc5a0" d="M 46.441406 39.875 L 46.003906 39.875 L 46.003906 45.082031 L 51.132812 46.070312 L 51.132812 45.984375 L 46.441406 45.082031 L 46.441406 39.875 " fill-opacity="1" fill-rule="nonzero"/><path fill="#ffc5a0" d="M 46.003906 46.289062 L 46.003906 51.5 L 46.441406 51.5 L 46.441406 46.375 L 46.003906 46.289062 " fill-opacity="1" fill-rule="nonzero"/><g clip-path="url(#id32)"><path fill="#191411" d="M 41.570312 35.402344 L 41.90625 35.53125 L 45.621094 30.757812 L 45.621094 20.484375 L 45.183594 20.484375 L 45.183594 30.757812 L 41.570312 35.402344 " fill-opacity="1" fill-rule="nonzero"/></g><g clip-path="url(#id33)"><path fill="#c64504" d="M 41.570312 35.402344 L 45.183594 30.757812 L 45.183594 20.484375 L 35.890625 20.484375 L 35.890625 33.226562 L 41.570312 35.402344 " fill-opacity="1" fill-rule="nonzero"/></g><path fill="#191411" d="M 41.476562 39.132812 L 41.914062 39.132812 L 41.914062 36.351562 L 35.890625 34.050781 L 35.890625 34.21875 L 41.476562 36.351562 L 41.476562 39.132812 " fill-opacity="1" fill-rule="nonzero"/><path fill="#c64504" d="M 41.476562 39.132812 L 41.476562 36.351562 L 35.890625 34.21875 L 35.890625 39.132812 L 41.476562 39.132812 " fill-opacity="1" fill-rule="nonzero"/><g clip-path="url(#id34)"><path fill="#191411" d="M 51.132812 20.484375 L 51.132812 25.671875 L 46.441406 26.273438 L 46.441406 26.332031 L 51.570312 25.671875 L 51.570312 20.484375 L 51.132812 20.484375 " fill-opacity="1" fill-rule="nonzero"/><path fill="#c64504" d="M 51.132812 20.484375 L 46.441406 20.484375 L 46.441406 26.273438 L 51.132812 25.671875 L 51.132812 20.484375 " fill-opacity="1" fill-rule="nonzero"/></g><path fill="#191411" d="M 51.132812 38.820312 L 42.988281 38.976562 L 42.988281 38.984375 L 51.570312 38.820312 L 51.570312 26.605469 L 51.132812 26.648438 L 51.132812 38.820312 " fill-opacity="1" fill-rule="nonzero"/><path fill="#c64504" d="M 51.132812 26.648438 L 46.441406 27.097656 L 46.277344 32.308594 L 43.570312 34.042969 L 42.988281 38.976562 L 51.132812 38.820312 L 51.132812 26.648438 " fill-opacity="1" fill-rule="nonzero"/><path fill="#191411" d="M 45.183594 51.5 L 45.621094 51.5 L 45.621094 39.875 L 45.183594 39.875 L 45.183594 51.5 " fill-opacity="1" fill-rule="nonzero"/><path fill="#c64504" d="M 35.890625 39.875 L 35.890625 51.5 L 45.183594 51.5 L 45.183594 39.875 L 35.890625 39.875 " fill-opacity="1" fill-rule="nonzero"/><path fill="#191411" d="M 51.132812 45.984375 L 51.570312 46.070312 L 51.570312 39.875 L 51.132812 39.875 L 51.132812 45.984375 " fill-opacity="1" fill-rule="nonzero"/><path fill="#c64504" d="M 46.441406 39.875 L 46.441406 45.082031 L 51.132812 45.984375 L 51.132812 39.875 L 46.441406 39.875 " fill-opacity="1" fill-rule="nonzero"/><path fill="#191411" d="M 46.441406 46.375 L 51.132812 47.277344 L 51.132812 51.5 L 51.570312 51.5 L 51.570312 47.277344 L 46.441406 46.289062 L 46.441406 46.375 " fill-opacity="1" fill-rule="nonzero"/><path fill="#c64504" d="M 46.441406 46.375 L 46.441406 51.5 L 51.132812 51.5 L 51.132812 47.277344 L 46.441406 46.375 " fill-opacity="1" fill-rule="nonzero"/><g clip-path="url(#id35)"><path fill="#382d26" d="M 68.535156 51.5 L 51.992188 51.5 L 51.992188 20.484375 L 68.535156 20.484375 L 68.535156 51.5 " fill-opacity="1" fill-rule="nonzero"/></g><g clip-path="url(#id36)"><path fill="#ffc5a0" d="M 58.109375 35.402344 L 52.429688 33.226562 L 52.429688 20.484375 L 51.992188 20.484375 L 51.992188 33.226562 L 58.011719 35.53125 L 58.109375 35.402344 " fill-opacity="1" fill-rule="nonzero"/></g><path fill="#ffc5a0" d="M 52.429688 34.21875 L 51.992188 34.050781 L 51.992188 39.132812 L 52.429688 39.132812 L 52.429688 34.21875 " fill-opacity="1" fill-rule="nonzero"/><g clip-path="url(#id37)"><path fill="#ffc5a0" d="M 62.546875 20.484375 L 62.546875 26.332031 L 62.984375 26.273438 L 62.984375 20.484375 L 62.546875 20.484375 " fill-opacity="1" fill-rule="nonzero"/></g><path fill="#ffc5a0" d="M 62.820312 32.308594 L 62.984375 27.097656 L 67.675781 26.648438 L 67.675781 26.605469 L 62.546875 27.097656 L 62.382812 32.308594 L 59.675781 34.042969 L 59.089844 38.984375 L 59.53125 38.976562 L 60.113281 34.042969 L 62.820312 32.308594 " fill-opacity="1" fill-rule="nonzero"/><path fill="#ffc5a0" d="M 51.992188 39.875 L 51.992188 51.5 L 52.429688 51.5 L 52.429688 39.875 L 51.992188 39.875 " fill-opacity="1" fill-rule="nonzero"/><path fill="#ffc5a0" d="M 62.984375 39.875 L 62.546875 39.875 L 62.546875 45.082031 L 67.675781 46.070312 L 67.675781 45.984375 L 62.984375 45.082031 L 62.984375 39.875 " fill-opacity="1" fill-rule="nonzero"/><path fill="#ffc5a0" d="M 62.546875 46.289062 L 62.546875 51.5 L 62.984375 51.5 L 62.984375 46.375 L 62.546875 46.289062 " fill-opacity="1" fill-rule="nonzero"/><g clip-path="url(#id38)"><path fill="#191411" d="M 58.109375 35.402344 L 58.449219 35.53125 L 62.164062 30.757812 L 62.164062 20.484375 L 61.722656 20.484375 L 61.722656 30.757812 L 58.109375 35.402344 " fill-opacity="1" fill-rule="nonzero"/></g><g clip-path="url(#id39)"><path fill="#c64504" d="M 58.109375 35.402344 L 61.722656 30.757812 L 61.722656 20.484375 L 52.429688 20.484375 L 52.429688 33.226562 L 58.109375 35.402344 " fill-opacity="1" fill-rule="nonzero"/></g><path fill="#191411" d="M 58.015625 39.132812 L 58.453125 39.132812 L 58.453125 36.351562 L 52.429688 34.050781 L 52.429688 34.21875 L 58.015625 36.351562 L 58.015625 39.132812 " fill-opacity="1" fill-rule="nonzero"/><path fill="#c64504" d="M 58.015625 39.132812 L 58.015625 36.351562 L 52.429688 34.21875 L 52.429688 39.132812 L 58.015625 39.132812 " fill-opacity="1" fill-rule="nonzero"/><g clip-path="url(#id40)"><path fill="#191411" d="M 67.675781 20.484375 L 67.675781 25.671875 L 62.984375 26.273438 L 62.984375 26.332031 L 68.113281 25.671875 L 68.113281 20.484375 L 67.675781 20.484375 " fill-opacity="1" fill-rule="nonzero"/></g><g clip-path="url(#id41)"><path fill="#c64504" d="M 67.675781 20.484375 L 62.984375 20.484375 L 62.984375 26.273438 L 67.675781 25.671875 L 67.675781 20.484375 " fill-opacity="1" fill-rule="nonzero"/></g><path fill="#191411" d="M 67.675781 38.820312 L 59.53125 38.976562 L 59.53125 38.984375 L 68.113281 38.820312 L 68.113281 26.605469 L 67.675781 26.648438 L 67.675781 38.820312 " fill-opacity="1" fill-rule="nonzero"/><path fill="#c64504" d="M 67.675781 26.648438 L 62.984375 27.097656 L 62.820312 32.308594 L 60.113281 34.042969 L 59.53125 38.976562 L 67.675781 38.820312 L 67.675781 26.648438 " fill-opacity="1" fill-rule="nonzero"/><path fill="#191411" d="M 61.722656 51.5 L 62.164062 51.5 L 62.164062 39.875 L 61.722656 39.875 L 61.722656 51.5 " fill-opacity="1" fill-rule="nonzero"/><path fill="#c64504" d="M 52.429688 39.875 L 52.429688 51.5 L 61.722656 51.5 L 61.722656 39.875 L 52.429688 39.875 " fill-opacity="1" fill-rule="nonzero"/><path fill="#191411" d="M 67.675781 45.984375 L 68.113281 46.070312 L 68.113281 39.875 L 67.675781 39.875 L 67.675781 45.984375 " fill-opacity="1" fill-rule="nonzero"/><path fill="#c64504" d="M 62.984375 39.875 L 62.984375 45.082031 L 67.675781 45.984375 L 67.675781 39.875 L 62.984375 39.875 " fill-opacity="1" fill-rule="nonzero"/><path fill="#191411" d="M 62.984375 46.375 L 67.675781 47.277344 L 67.675781 51.5 L 68.113281 51.5 L 68.113281 47.277344 L 62.984375 46.289062 L 62.984375 46.375 " fill-opacity="1" fill-rule="nonzero"/><path fill="#c64504" d="M 62.984375 46.375 L 62.984375 51.5 L 67.675781 51.5 L 67.675781 47.277344 L 62.984375 46.375 " fill-opacity="1" fill-rule="nonzero"/><g clip-path="url(#id42)"><path fill="#382d26" d="M 85.078125 51.5 L 68.535156 51.5 L 68.535156 20.484375 L 85.078125 20.484375 L 85.078125 51.5 " fill-opacity="1" fill-rule="nonzero"/></g><g clip-path="url(#id43)"><path fill="#ffc5a0" d="M 74.652344 35.402344 L 68.972656 33.226562 L 68.972656 20.484375 L 68.535156 20.484375 L 68.535156 33.226562 L 74.550781 35.53125 L 74.652344 35.402344 " fill-opacity="1" fill-rule="nonzero"/></g><path fill="#ffc5a0" d="M 68.972656 34.21875 L 68.535156 34.050781 L 68.535156 39.132812 L 68.972656 39.132812 L 68.972656 34.21875 " fill-opacity="1" fill-rule="nonzero"/><g clip-path="url(#id44)"><path fill="#ffc5a0" d="M 79.085938 20.484375 L 79.085938 26.332031 L 79.527344 26.273438 L 79.527344 20.484375 L 79.085938 20.484375 " fill-opacity="1" fill-rule="nonzero"/></g><path fill="#ffc5a0" d="M 79.363281 32.308594 L 79.527344 27.097656 L 84.214844 26.648438 L 84.214844 26.605469 L 79.085938 27.097656 L 78.921875 32.308594 L 76.214844 34.042969 L 75.632812 38.984375 L 76.074219 38.976562 L 76.652344 34.042969 L 79.363281 32.308594 " fill-opacity="1" fill-rule="nonzero"/><path fill="#ffc5a0" d="M 68.535156 39.875 L 68.535156 51.5 L 68.972656 51.5 L 68.972656 39.875 L 68.535156 39.875 " fill-opacity="1" fill-rule="nonzero"/><path fill="#ffc5a0" d="M 79.527344 39.875 L 79.085938 39.875 L 79.085938 45.082031 L 84.214844 46.070312 L 84.214844 45.984375 L 79.527344 45.082031 L 79.527344 39.875 " fill-opacity="1" fill-rule="nonzero"/><path fill="#ffc5a0" d="M 79.085938 46.289062 L 79.085938 51.5 L 79.527344 51.5 L 79.527344 46.375 L 79.085938 46.289062 " fill-opacity="1" fill-rule="nonzero"/><g clip-path="url(#id45)"><path fill="#191411" d="M 74.652344 35.402344 L 74.992188 35.53125 L 78.703125 30.757812 L 78.703125 20.484375 L 78.265625 20.484375 L 78.265625 30.757812 L 74.652344 35.402344 " fill-opacity="1" fill-rule="nonzero"/></g><g clip-path="url(#id46)"><path fill="#c64504" d="M 74.652344 35.402344 L 78.265625 30.757812 L 78.265625 20.484375 L 68.972656 20.484375 L 68.972656 33.226562 L 74.652344 35.402344 " fill-opacity="1" fill-rule="nonzero"/></g><path fill="#191411" d="M 74.558594 39.132812 L 74.996094 39.132812 L 74.996094 36.351562 L 68.972656 34.050781 L 68.972656 34.21875 L 74.558594 36.351562 L 74.558594 39.132812 " fill-opacity="1" fill-rule="nonzero"/><path fill="#c64504" d="M 74.558594 39.132812 L 74.558594 36.351562 L 68.972656 34.21875 L 68.972656 39.132812 L 74.558594 39.132812 " fill-opacity="1" fill-rule="nonzero"/><g clip-path="url(#id47)"><path fill="#191411" d="M 84.214844 20.484375 L 84.214844 25.671875 L 79.527344 26.273438 L 79.527344 26.332031 L 84.652344 25.671875 L 84.652344 20.484375 L 84.214844 20.484375 " fill-opacity="1" fill-rule="nonzero"/><path fill="#c64504" d="M 84.214844 20.484375 L 79.527344 20.484375 L 79.527344 26.273438 L 84.214844 25.671875 L 84.214844 20.484375 " fill-opacity="1" fill-rule="nonzero"/></g><path fill="#191411" d="M 84.214844 38.820312 L 76.074219 38.976562 L 76.070312 38.984375 L 84.652344 38.820312 L 84.652344 26.605469 L 84.214844 26.648438 L 84.214844 38.820312 " fill-opacity="1" fill-rule="nonzero"/><path fill="#c64504" d="M 84.214844 26.648438 L 79.527344 27.097656 L 79.363281 32.308594 L 76.652344 34.042969 L 76.074219 38.976562 L 84.214844 38.820312 L 84.214844 26.648438 " fill-opacity="1" fill-rule="nonzero"/><path fill="#191411" d="M 78.265625 51.5 L 78.703125 51.5 L 78.703125 39.875 L 78.265625 39.875 L 78.265625 51.5 " fill-opacity="1" fill-rule="nonzero"/><path fill="#c64504" d="M 68.972656 39.875 L 68.972656 51.5 L 78.265625 51.5 L 78.265625 39.875 L 68.972656 39.875 " fill-opacity="1" fill-rule="nonzero"/><path fill="#191411" d="M 84.214844 45.984375 L 84.652344 46.070312 L 84.652344 39.875 L 84.214844 39.875 L 84.214844 45.984375 " fill-opacity="1" fill-rule="nonzero"/><path fill="#c64504" d="M 79.527344 39.875 L 79.527344 45.082031 L 84.214844 45.984375 L 84.214844 39.875 L 79.527344 39.875 " fill-opacity="1" fill-rule="nonzero"/><path fill="#191411" d="M 79.527344 46.375 L 84.214844 47.277344 L 84.214844 51.5 L 84.652344 51.5 L 84.652344 47.277344 L 79.527344 46.289062 L 79.527344 46.375 " fill-opacity="1" fill-rule="nonzero"/><path fill="#c64504" d="M 79.527344 46.375 L 79.527344 51.5 L 84.214844 51.5 L 84.214844 47.277344 L 79.527344 46.375 " fill-opacity="1" fill-rule="nonzero"/><g clip-path="url(#id48)"><path fill="#382d26" d="M 101.617188 51.5 L 85.078125 51.5 L 85.078125 20.484375 L 101.617188 20.484375 L 101.617188 51.5 " fill-opacity="1" fill-rule="nonzero"/></g><g clip-path="url(#id49)"><path fill="#ffc5a0" d="M 91.195312 35.402344 L 85.515625 33.226562 L 85.515625 20.484375 L 85.078125 20.484375 L 85.078125 33.226562 L 91.09375 35.53125 L 91.195312 35.402344 " fill-opacity="1" fill-rule="nonzero"/></g><path fill="#ffc5a0" d="M 85.515625 34.21875 L 85.078125 34.050781 L 85.078125 39.132812 L 85.515625 39.132812 L 85.515625 34.21875 " fill-opacity="1" fill-rule="nonzero"/><g clip-path="url(#id50)"><path fill="#ffc5a0" d="M 95.628906 20.484375 L 95.628906 26.332031 L 96.066406 26.273438 L 96.066406 20.484375 L 95.628906 20.484375 " fill-opacity="1" fill-rule="nonzero"/></g><path fill="#ffc5a0" d="M 95.902344 32.308594 L 96.066406 27.097656 L 100.757812 26.648438 L 100.757812 26.605469 L 95.628906 27.097656 L 95.464844 32.308594 L 92.757812 34.042969 L 92.175781 38.984375 L 92.613281 38.976562 L 93.195312 34.042969 L 95.902344 32.308594 " fill-opacity="1" fill-rule="nonzero"/><path fill="#ffc5a0" d="M 85.078125 39.875 L 85.078125 51.5 L 85.515625 51.5 L 85.515625 39.875 L 85.078125 39.875 " fill-opacity="1" fill-rule="nonzero"/><path fill="#ffc5a0" d="M 96.066406 39.875 L 95.628906 39.875 L 95.628906 45.082031 L 100.757812 46.070312 L 100.757812 45.984375 L 96.066406 45.082031 L 96.066406 39.875 " fill-opacity="1" fill-rule="nonzero"/><path fill="#ffc5a0" d="M 95.628906 46.289062 L 95.628906 51.5 L 96.066406 51.5 L 96.066406 46.375 L 95.628906 46.289062 " fill-opacity="1" fill-rule="nonzero"/><g clip-path="url(#id51)"><path fill="#191411" d="M 91.195312 35.402344 L 91.53125 35.53125 L 95.246094 30.757812 L 95.246094 20.484375 L 94.804688 20.484375 L 94.804688 30.757812 L 91.195312 35.402344 " fill-opacity="1" fill-rule="nonzero"/></g><g clip-path="url(#id52)"><path fill="#c64504" d="M 91.195312 35.402344 L 94.804688 30.757812 L 94.804688 20.484375 L 85.515625 20.484375 L 85.515625 33.226562 L 91.195312 35.402344 " fill-opacity="1" fill-rule="nonzero"/></g><path fill="#191411" d="M 91.101562 39.132812 L 91.539062 39.132812 L 91.539062 36.351562 L 85.515625 34.050781 L 85.515625 34.21875 L 91.101562 36.351562 L 91.101562 39.132812 " fill-opacity="1" fill-rule="nonzero"/><path fill="#c64504" d="M 91.101562 39.132812 L 91.101562 36.351562 L 85.515625 34.21875 L 85.515625 39.132812 L 91.101562 39.132812 " fill-opacity="1" fill-rule="nonzero"/><g clip-path="url(#id53)"><path fill="#191411" d="M 100.757812 20.484375 L 100.757812 25.671875 L 96.066406 26.273438 L 96.066406 26.332031 L 101.195312 25.671875 L 101.195312 20.484375 L 100.757812 20.484375 " fill-opacity="1" fill-rule="nonzero"/></g><g clip-path="url(#id54)"><path fill="#c64504" d="M 100.757812 20.484375 L 96.066406 20.484375 L 96.066406 26.273438 L 100.757812 25.671875 L 100.757812 20.484375 " fill-opacity="1" fill-rule="nonzero"/></g><path fill="#191411" d="M 100.757812 38.820312 L 92.613281 38.976562 L 92.613281 38.984375 L 101.195312 38.820312 L 101.195312 26.605469 L 100.757812 26.648438 L 100.757812 38.820312 " fill-opacity="1" fill-rule="nonzero"/><path fill="#c64504" d="M 100.757812 26.648438 L 96.066406 27.097656 L 95.902344 32.308594 L 93.195312 34.042969 L 92.613281 38.976562 L 100.757812 38.820312 L 100.757812 26.648438 " fill-opacity="1" fill-rule="nonzero"/><path fill="#191411" d="M 94.804688 51.5 L 95.246094 51.5 L 95.246094 39.875 L 94.804688 39.875 L 94.804688 51.5 " fill-opacity="1" fill-rule="nonzero"/><path fill="#c64504" d="M 85.515625 39.875 L 85.515625 51.5 L 94.804688 51.5 L 94.804688 39.875 L 85.515625 39.875 " fill-opacity="1" fill-rule="nonzero"/><path fill="#191411" d="M 100.757812 45.984375 L 101.195312 46.070312 L 101.195312 39.875 L 100.757812 39.875 L 100.757812 45.984375 " fill-opacity="1" fill-rule="nonzero"/><path fill="#c64504" d="M 96.066406 39.875 L 96.066406 45.082031 L 100.757812 45.984375 L 100.757812 39.875 L 96.066406 39.875 " fill-opacity="1" fill-rule="nonzero"/><path fill="#191411" d="M 96.066406 46.375 L 100.757812 47.277344 L 100.757812 51.5 L 101.195312 51.5 L 101.195312 47.277344 L 96.066406 46.289062 L 96.066406 46.375 " fill-opacity="1" fill-rule="nonzero"/><path fill="#c64504" d="M 96.066406 46.375 L 96.066406 51.5 L 100.757812 51.5 L 100.757812 47.277344 L 96.066406 46.375 " fill-opacity="1" fill-rule="nonzero"/><g clip-path="url(#id55)"><path fill="#382d26" d="M 101.617188 20.484375 L 101.617188 51.5 L 110.933594 51.5 L 110.933594 20.484375 L 101.617188 20.484375 " fill-opacity="1" fill-rule="nonzero"/></g><g clip-path="url(#id56)"><path fill="#ffc5a0" d="M 107.734375 35.402344 L 102.054688 33.226562 L 102.054688 20.484375 L 101.617188 20.484375 L 101.617188 33.226562 L 107.632812 35.53125 L 107.734375 35.402344 " fill-opacity="1" fill-rule="nonzero"/></g><path fill="#ffc5a0" d="M 102.054688 34.21875 L 101.617188 34.050781 L 101.617188 39.132812 L 102.054688 39.132812 L 102.054688 34.21875 " fill-opacity="1" fill-rule="nonzero"/><path fill="#ffc5a0" d="M 109.296875 34.042969 L 108.714844 38.984375 L 109.15625 38.976562 L 109.738281 34.042969 L 110.933594 33.277344 L 110.933594 32.996094 L 109.296875 34.042969 " fill-opacity="1" fill-rule="nonzero"/><path fill="#ffc5a0" d="M 101.617188 39.875 L 101.617188 51.5 L 102.054688 51.5 L 102.054688 39.875 L 101.617188 39.875 " fill-opacity="1" fill-rule="nonzero"/><path fill="#191411" d="M 107.734375 35.402344 L 108.074219 35.53125 L 110.933594 31.855469 L 110.933594 31.289062 L 107.734375 35.402344 " fill-opacity="1" fill-rule="nonzero"/><g clip-path="url(#id57)"><path fill="#c64504" d="M 102.054688 20.484375 L 102.054688 33.226562 L 107.734375 35.402344 L 110.933594 31.289062 L 110.933594 20.484375 L 102.054688 20.484375 " fill-opacity="1" fill-rule="nonzero"/></g><path fill="#191411" d="M 107.640625 39.132812 L 108.078125 39.132812 L 108.078125 36.351562 L 102.054688 34.050781 L 102.054688 34.21875 L 107.640625 36.351562 L 107.640625 39.132812 " fill-opacity="1" fill-rule="nonzero"/><path fill="#c64504" d="M 107.640625 39.132812 L 107.640625 36.351562 L 102.054688 34.21875 L 102.054688 39.132812 L 107.640625 39.132812 " fill-opacity="1" fill-rule="nonzero"/><path fill="#191411" d="M 109.15625 38.976562 L 109.15625 38.984375 L 110.933594 38.949219 L 110.933594 38.941406 L 109.15625 38.976562 " fill-opacity="1" fill-rule="nonzero"/><path fill="#c64504" d="M 109.738281 34.042969 L 109.15625 38.976562 L 110.933594 38.941406 L 110.933594 33.277344 L 109.738281 34.042969 " fill-opacity="1" fill-rule="nonzero"/><path fill="#c64504" d="M 102.054688 39.875 L 102.054688 51.5 L 110.933594 51.5 L 110.933594 39.875 L 102.054688 39.875 " fill-opacity="1" fill-rule="nonzero"/></svg>