<svg xmlns="http://www.w3.org/2000/svg" xmlns:xlink="http://www.w3.org/1999/xlink" width="100" zoomAndPan="magnify" viewBox="0 0 75 74.999997" height="100" preserveAspectRatio="xMidYMid meet" version="1.0"><defs><clipPath id="id1"><path d="M 27 0.742188 L 53.71875 0.742188 L 53.71875 24 L 27 24 Z M 27 0.742188 " clip-rule="nonzero"/></clipPath><clipPath id="id2"><path d="M 21.46875 15 L 49 15 L 49 74.992188 L 21.46875 74.992188 Z M 21.46875 15 " clip-rule="nonzero"/></clipPath></defs><g clip-path="url(#id1)"><path fill="#7ed957" d="M 40.390625 0.726562 L 53.664062 23.632812 L 27.113281 23.632812 L 40.390625 0.726562 L 53.664062 23.632812 L 27.113281 23.632812 L 40.390625 0.726562 " fill-opacity="1" fill-rule="nonzero"/></g><g clip-path="url(#id2)"><path fill="#7ed957" d="M 21.546875 74.832031 C 21.546875 74.832031 21.8125 74.847656 22.292969 74.765625 C 22.765625 74.683594 23.457031 74.5 24.242188 74.105469 C 25.035156 73.714844 25.914062 73.109375 26.769531 72.261719 C 27.625 71.417969 28.453125 70.339844 29.203125 69.074219 C 29.945312 67.800781 30.59375 66.324219 31.179688 64.734375 C 31.4375 63.917969 31.738281 63.109375 31.953125 62.230469 C 32.066406 61.800781 32.183594 61.363281 32.300781 60.921875 C 32.398438 60.472656 32.5 60.023438 32.597656 59.566406 C 32.996094 57.746094 33.28125 55.824219 33.519531 53.871094 C 33.636719 52.898438 33.710938 51.894531 33.808594 50.90625 C 33.894531 49.914062 33.929688 48.898438 33.996094 47.902344 L 34.039062 47.152344 L 34.058594 46.394531 C 34.070312 45.890625 34.082031 45.386719 34.09375 44.886719 C 34.105469 44.382812 34.128906 43.890625 34.125 43.386719 C 34.125 42.882812 34.125 42.382812 34.121094 41.886719 C 34.136719 39.90625 34.054688 37.9375 33.996094 36.050781 C 33.964844 35.101562 33.898438 34.164062 33.851562 33.253906 C 33.792969 32.339844 33.761719 31.453125 33.6875 30.578125 C 33.539062 28.835938 33.429688 27.199219 33.28125 25.679688 C 33.128906 24.164062 32.988281 22.773438 32.859375 21.542969 C 32.726562 20.3125 32.582031 19.234375 32.480469 18.351562 C 32.261719 16.582031 32.136719 15.574219 32.136719 15.574219 L 48.640625 15.503906 C 48.640625 15.503906 48.507812 16.570312 48.269531 18.4375 C 48.148438 19.371094 48.019531 20.496094 47.839844 21.796875 C 47.648438 23.09375 47.429688 24.554688 47.199219 26.152344 C 46.957031 27.746094 46.644531 29.472656 46.339844 31.292969 C 46.191406 32.203125 45.992188 33.140625 45.8125 34.097656 C 45.621094 35.050781 45.449219 36.023438 45.234375 37.015625 C 44.796875 39 44.371094 41.039062 43.832031 43.105469 C 43.703125 43.621094 43.578125 44.140625 43.449219 44.664062 C 43.316406 45.179688 43.164062 45.703125 43.019531 46.222656 C 42.871094 46.742188 42.726562 47.261719 42.582031 47.785156 L 42.363281 48.566406 L 42.117188 49.34375 C 41.785156 50.382812 41.480469 51.417969 41.125 52.445312 C 40.757812 53.46875 40.421875 54.488281 40.03125 55.488281 C 39.253906 57.496094 38.441406 59.449219 37.523438 61.292969 C 37.292969 61.75 37.066406 62.207031 36.839844 62.660156 C 36.59375 63.101562 36.347656 63.542969 36.105469 63.976562 C 35.644531 64.847656 35.085938 65.664062 34.589844 66.460938 C 33.515625 68.035156 32.410156 69.457031 31.242188 70.648438 C 30.066406 71.832031 28.855469 72.789062 27.6875 73.472656 C 26.523438 74.160156 25.410156 74.570312 24.476562 74.773438 C 23.542969 74.980469 22.796875 74.988281 22.296875 74.949219 C 21.800781 74.910156 21.546875 74.832031 21.546875 74.832031 " fill-opacity="1" fill-rule="nonzero"/></g></svg>