<svg xmlns="http://www.w3.org/2000/svg" xmlns:xlink="http://www.w3.org/1999/xlink" width="100" zoomAndPan="magnify" viewBox="0 0 75 74.999997" height="100" preserveAspectRatio="xMidYMid meet" version="1.0"><defs><clipPath id="id1"><path d="M 21.691406 52 L 49 52 L 49 75 L 21.691406 75 Z M 21.691406 52 " clip-rule="nonzero"/></clipPath><clipPath id="id2"><path d="M 26 0.964844 L 53.941406 0.964844 L 53.941406 61 L 26 61 Z M 26 0.964844 " clip-rule="nonzero"/></clipPath></defs><g clip-path="url(#id1)"><path fill="#eb3346" d="M 35.015625 75.226562 L 21.742188 52.324219 L 48.292969 52.324219 L 35.015625 75.226562 L 21.742188 52.324219 L 48.292969 52.324219 L 35.015625 75.226562 " fill-opacity="1" fill-rule="nonzero"/></g><g clip-path="url(#id2)"><path fill="#eb3346" d="M 53.859375 1.125 C 53.859375 1.125 53.59375 1.109375 53.117188 1.191406 C 52.640625 1.269531 51.949219 1.457031 51.164062 1.851562 C 50.375 2.242188 49.492188 2.847656 48.640625 3.695312 C 47.78125 4.539062 46.957031 5.617188 46.203125 6.878906 C 45.460938 8.15625 44.8125 9.632812 44.230469 11.222656 C 43.972656 12.039062 43.671875 12.84375 43.457031 13.722656 C 43.339844 14.15625 43.222656 14.59375 43.105469 15.035156 C 43.007812 15.484375 42.910156 15.933594 42.808594 16.390625 C 42.414062 18.210938 42.128906 20.132812 41.886719 22.085938 C 41.769531 23.058594 41.695312 24.058594 41.601562 25.046875 C 41.511719 26.042969 41.476562 27.058594 41.410156 28.054688 L 41.367188 28.804688 L 41.347656 29.5625 C 41.335938 30.066406 41.324219 30.570312 41.3125 31.070312 C 41.304688 31.570312 41.277344 32.066406 41.28125 32.570312 C 41.285156 33.070312 41.285156 33.570312 41.285156 34.070312 C 41.269531 36.050781 41.355469 38.019531 41.410156 39.90625 C 41.441406 40.855469 41.507812 41.792969 41.558594 42.703125 C 41.613281 43.617188 41.644531 44.503906 41.722656 45.375 C 41.867188 47.121094 41.976562 48.757812 42.125 50.277344 C 42.28125 51.789062 42.421875 53.179688 42.546875 54.414062 C 42.679688 55.644531 42.824219 56.722656 42.929688 57.605469 C 43.144531 59.371094 43.269531 60.382812 43.269531 60.382812 L 26.769531 60.453125 C 26.769531 60.453125 26.898438 59.386719 27.136719 57.519531 C 27.257812 56.585938 27.386719 55.460938 27.570312 54.160156 C 27.761719 52.863281 27.976562 51.398438 28.207031 49.804688 C 28.453125 48.210938 28.761719 46.484375 29.066406 44.664062 C 29.214844 43.753906 29.417969 42.816406 29.59375 41.859375 C 29.785156 40.90625 29.957031 39.933594 30.171875 38.941406 C 30.609375 36.957031 31.035156 34.917969 31.574219 32.851562 C 31.703125 32.332031 31.832031 31.816406 31.960938 31.292969 C 32.089844 30.777344 32.246094 30.253906 32.390625 29.734375 C 32.535156 29.214844 32.679688 28.695312 32.824219 28.171875 L 33.046875 27.390625 L 33.289062 26.613281 C 33.621094 25.574219 33.925781 24.539062 34.28125 23.511719 C 34.652344 22.488281 34.984375 21.46875 35.375 20.464844 C 36.152344 18.460938 36.964844 16.507812 37.882812 14.664062 C 38.113281 14.203125 38.34375 13.75 38.566406 13.296875 C 38.8125 12.851562 39.058594 12.414062 39.300781 11.980469 C 39.765625 11.109375 40.324219 10.292969 40.816406 9.492188 C 41.890625 7.921875 43 6.5 44.164062 5.308594 C 45.34375 4.125 46.550781 3.167969 47.71875 2.484375 C 48.886719 1.796875 50 1.386719 50.929688 1.183594 C 51.863281 0.976562 52.609375 0.96875 53.109375 1.007812 C 53.605469 1.042969 53.859375 1.125 53.859375 1.125 " fill-opacity="1" fill-rule="nonzero"/></g></svg>