<svg xmlns="http://www.w3.org/2000/svg" xmlns:xlink="http://www.w3.org/1999/xlink" width="300" zoomAndPan="magnify" viewBox="0 0 224.87999 225" height="300" preserveAspectRatio="xMidYMid meet" version="1.0"><defs><clipPath id="id1"><path d="M 128.445312 18.40625 L 224.761719 18.40625 L 224.761719 211.714844 L 128.445312 211.714844 Z M 128.445312 18.40625 " clip-rule="nonzero"/></clipPath></defs><g clip-path="url(#id1)"><path fill="#df3f3f" d="M 134.082031 147.515625 C 133.554688 146.105469 133.113281 144.609375 132.671875 143.199219 L 253.324219 22.546875 C 254.734375 22.988281 256.230469 23.425781 257.640625 23.957031 Z M 239.234375 19.464844 C 237.5625 19.199219 235.800781 19.023438 234.125 18.847656 L 128.886719 124.089844 C 129.0625 125.761719 129.238281 127.523438 129.5 129.195312 Z M 280.273438 35.667969 C 279.128906 34.875 277.984375 34.082031 276.839844 33.378906 L 143.417969 166.800781 C 144.121094 167.945312 144.914062 169.09375 145.707031 170.238281 Z M 265.742188 27.300781 C 264.421875 26.6875 263.101562 26.070312 261.78125 25.542969 L 135.667969 151.65625 C 136.195312 152.976562 136.8125 154.296875 137.429688 155.617188 Z M 273.230469 31.265625 C 271.996094 30.5625 270.761719 29.855469 269.53125 29.238281 L 139.1875 159.582031 C 139.804688 160.8125 140.511719 162.046875 141.214844 163.28125 Z M 186.304688 26.511719 C 182.167969 28.359375 178.117188 30.472656 174.242188 32.851562 L 142.886719 64.203125 C 140.421875 68.078125 138.308594 72.128906 136.546875 76.269531 Z M 223.03125 18.40625 L 128.445312 112.992188 C 128.445312 114.929688 128.445312 116.78125 128.53125 118.71875 L 228.667969 18.496094 C 226.816406 18.40625 224.878906 18.40625 223.03125 18.40625 Z M 321.753906 114.578125 L 224.617188 211.714844 C 226.554688 211.714844 228.578125 211.714844 230.515625 211.539062 L 321.578125 120.476562 C 321.667969 118.539062 321.753906 116.515625 321.753906 114.578125 Z M 286.792969 40.6875 C 285.734375 39.808594 284.675781 38.925781 283.621094 38.136719 L 148.171875 173.582031 C 148.964844 174.640625 149.84375 175.695312 150.726562 176.753906 Z M 216.953125 18.761719 C 214.75 18.9375 212.636719 19.199219 210.4375 19.550781 L 129.589844 100.398438 C 129.238281 102.601562 128.972656 104.714844 128.796875 106.914062 Z M 203.390625 20.875 C 200.75 21.488281 198.105469 22.195312 195.464844 23.074219 L 133.023438 85.425781 C 132.230469 88.070312 131.4375 90.625 130.824219 93.351562 Z M 248.746094 21.3125 C 247.160156 20.960938 245.664062 20.609375 244.078125 20.257812 L 130.292969 134.039062 C 130.648438 135.625 131 137.125 131.351562 138.707031 Z M 319.992188 133.511719 C 320.433594 131.222656 320.785156 129.019531 321.050781 126.730469 L 236.769531 211.011719 C 239.058594 210.746094 241.347656 210.394531 243.550781 209.957031 Z M 321.578125 109.03125 C 321.488281 107.269531 321.3125 105.507812 321.136719 103.746094 L 213.78125 211.011719 C 215.542969 211.1875 217.304688 211.363281 219.066406 211.453125 Z M 320.34375 98.726562 C 320.082031 97.140625 319.730469 95.554688 319.375 93.96875 L 203.917969 209.339844 C 205.503906 209.691406 207.089844 210.042969 208.675781 210.308594 Z M 292.78125 46.0625 C 291.8125 45.09375 290.84375 44.210938 289.875 43.242188 L 153.367188 179.746094 C 154.25 180.714844 155.21875 181.683594 156.1875 182.652344 Z M 298.417969 177.988281 C 303.261719 172.351562 307.3125 166.363281 310.65625 160.019531 L 270.058594 200.621094 C 276.398438 197.273438 282.386719 193.222656 288.023438 188.378906 Z M 318.230469 89.390625 C 317.792969 87.894531 317.351562 86.484375 316.910156 84.988281 L 195.023438 206.871094 C 196.523438 207.3125 197.929688 207.753906 199.429688 208.195312 Z M 315.414062 149.628906 C 316.46875 146.8125 317.4375 143.992188 318.230469 141.085938 L 251.125 208.195312 C 254.03125 207.402344 256.847656 206.433594 259.667969 205.375 Z M 303.4375 58.390625 C 302.644531 57.332031 301.851562 56.1875 300.96875 55.132812 L 165.167969 190.84375 C 166.226562 191.726562 167.371094 192.519531 168.429688 193.308594 Z M 315.414062 80.757812 C 314.886719 79.351562 314.355469 78.03125 313.738281 76.707031 L 186.65625 203.789062 C 187.980469 204.40625 189.386719 204.933594 190.710938 205.464844 Z M 298.328125 51.960938 C 297.449219 50.90625 296.566406 49.9375 295.597656 48.96875 L 159.003906 185.558594 C 159.972656 186.527344 161.03125 187.410156 162 188.289062 Z M 307.925781 65.261719 C 307.222656 64.113281 306.519531 62.882812 305.726562 61.738281 L 171.773438 195.6875 C 172.917969 196.480469 174.0625 197.183594 175.296875 197.890625 Z M 311.980469 72.746094 C 311.363281 71.511719 310.746094 70.191406 310.042969 68.957031 L 178.996094 200.003906 C 180.230469 200.707031 181.460938 201.324219 182.78125 201.941406 Z M 311.980469 72.746094 " fill-opacity="1" fill-rule="nonzero"/></g></svg>