<svg xmlns="http://www.w3.org/2000/svg" xmlns:xlink="http://www.w3.org/1999/xlink" width="200" zoomAndPan="magnify" viewBox="0 0 150 74.999997" height="100" preserveAspectRatio="xMidYMid meet" version="1.0"><defs><g/></defs><g fill="#ffffff" fill-opacity="1"><g transform="translate(7.530472, 48.085134)"><g><path d="M 3.984375 -3.8125 C 2.523438 -0.84375 1.753906 0.71875 1.671875 0.875 C 1.578125 1.0625 1.476562 1.253906 1.375 1.453125 C 1.351562 1.503906 1.332031 1.554688 1.3125 1.609375 C 1.125 1.992188 0.9375 2.378906 0.75 2.765625 C -0.40625 5.085938 -1.503906 7.421875 -2.546875 9.765625 C -2.546875 9.796875 -2.550781 9.828125 -2.5625 9.859375 C -2.582031 9.910156 -2.609375 9.96875 -2.640625 10.03125 C -2.785156 10.21875 -2.960938 10.296875 -3.171875 10.265625 C -3.222656 10.285156 -3.28125 10.285156 -3.34375 10.265625 C -3.457031 10.242188 -3.539062 10.195312 -3.59375 10.125 C -3.65625 10.0625 -3.664062 9.960938 -3.625 9.828125 C -3.476562 9.367188 -3.300781 8.910156 -3.09375 8.453125 C -2.363281 6.910156 -1.640625 5.359375 -0.921875 3.796875 C -0.492188 2.867188 -0.0625 1.9375 0.375 1 C 0.5625 0.632812 1.144531 -0.539062 2.125 -2.53125 C 3.113281 -4.53125 3.691406 -5.707031 3.859375 -6.0625 C 5.148438 -8.707031 6.515625 -11.320312 7.953125 -13.90625 C 8.867188 -15.601562 9.769531 -17.3125 10.65625 -19.03125 C 10.757812 -19.238281 10.882812 -19.421875 11.03125 -19.578125 C 11.164062 -19.703125 11.320312 -19.78125 11.5 -19.8125 C 11.550781 -19.84375 11.609375 -19.847656 11.671875 -19.828125 C 11.804688 -19.847656 11.910156 -19.8125 11.984375 -19.71875 C 12.054688 -19.625 12.070312 -19.515625 12.03125 -19.390625 C 12 -19.296875 11.957031 -19.195312 11.90625 -19.09375 C 11.664062 -18.5 11.390625 -17.910156 11.078125 -17.328125 C 10.046875 -15.335938 9.003906 -13.351562 7.953125 -11.375 C 7.398438 -10.363281 6.863281 -9.347656 6.34375 -8.328125 C 6.082031 -7.847656 5.820312 -7.359375 5.5625 -6.859375 C 5.46875 -6.671875 5.375 -6.484375 5.28125 -6.296875 C 5.257812 -6.265625 5.242188 -6.238281 5.234375 -6.21875 C 5.191406 -6.144531 5.160156 -6.070312 5.140625 -6 C 5.117188 -5.9375 5.125 -5.875 5.15625 -5.8125 C 5.195312 -5.757812 5.25 -5.722656 5.3125 -5.703125 C 5.382812 -5.722656 5.457031 -5.738281 5.53125 -5.75 C 5.550781 -5.769531 5.578125 -5.785156 5.609375 -5.796875 C 6.378906 -6.015625 7.144531 -6.234375 7.90625 -6.453125 C 10.050781 -7.078125 12.179688 -7.738281 14.296875 -8.4375 C 16.421875 -9.132812 18.523438 -9.90625 20.609375 -10.75 C 21.921875 -11.28125 23.210938 -11.84375 24.484375 -12.4375 C 25.753906 -13.03125 27.003906 -13.6875 28.234375 -14.40625 C 29.253906 -15.007812 30.21875 -15.710938 31.125 -16.515625 C 31.570312 -16.921875 31.960938 -17.375 32.296875 -17.875 C 32.972656 -18.882812 33.015625 -19.832031 32.421875 -20.71875 C 32.066406 -21.238281 31.609375 -21.664062 31.046875 -22 C 30.210938 -22.539062 29.3125 -22.960938 28.34375 -23.265625 C 25.957031 -23.992188 23.476562 -24.457031 20.90625 -24.65625 C 19.394531 -24.757812 17.863281 -24.820312 16.3125 -24.84375 C 15.476562 -24.84375 14.632812 -24.820312 13.78125 -24.78125 C 12.519531 -24.71875 11.253906 -24.601562 9.984375 -24.4375 C 8.710938 -24.269531 7.441406 -23.984375 6.171875 -23.578125 C 5.367188 -23.328125 4.585938 -23 3.828125 -22.59375 C 3.234375 -22.3125 2.707031 -21.941406 2.25 -21.484375 C 2.125 -21.335938 1.976562 -21.234375 1.8125 -21.171875 C 1.726562 -21.128906 1.648438 -21.113281 1.578125 -21.125 C 1.441406 -21.113281 1.328125 -21.15625 1.234375 -21.25 C 1.109375 -21.382812 1.109375 -21.535156 1.234375 -21.703125 C 1.429688 -21.972656 1.65625 -22.203125 1.90625 -22.390625 C 2.164062 -22.585938 2.4375 -22.765625 2.71875 -22.921875 C 3.988281 -23.660156 5.3125 -24.203125 6.6875 -24.546875 C 8.375 -24.984375 10.0625 -25.25 11.75 -25.34375 C 13.382812 -25.46875 15.023438 -25.535156 16.671875 -25.546875 L 16.703125 -25.546875 C 17.015625 -25.546875 17.332031 -25.546875 17.65625 -25.546875 C 19.226562 -25.523438 20.785156 -25.445312 22.328125 -25.3125 C 23.867188 -25.175781 25.390625 -24.941406 26.890625 -24.609375 C 27.671875 -24.429688 28.4375 -24.21875 29.1875 -23.96875 C 29.9375 -23.726562 30.660156 -23.425781 31.359375 -23.0625 C 32.128906 -22.6875 32.796875 -22.203125 33.359375 -21.609375 C 34.609375 -20.234375 34.546875 -18.710938 33.171875 -17.046875 C 32.535156 -16.304688 31.816406 -15.65625 31.015625 -15.09375 C 30.015625 -14.375 28.988281 -13.722656 27.9375 -13.140625 C 26.882812 -12.566406 25.804688 -12.035156 24.703125 -11.546875 C 22.429688 -10.503906 20.132812 -9.566406 17.8125 -8.734375 C 15.488281 -7.910156 13.15625 -7.148438 10.8125 -6.453125 C 8.96875 -5.898438 7.128906 -5.367188 5.296875 -4.859375 C 5.003906 -4.785156 4.742188 -4.664062 4.515625 -4.5 C 4.296875 -4.34375 4.117188 -4.113281 3.984375 -3.8125 Z M 35.953125 4.0625 C 36.554688 4.582031 32.953125 3.675781 25.140625 1.34375 C 19.785156 -0.28125 14.382812 -1.816406 8.9375 -3.265625 C 7.414062 -3.648438 5.890625 -4.023438 4.359375 -4.390625 C 3.742188 -4.546875 3.128906 -4.695312 2.515625 -4.84375 C 2.304688 -4.882812 2.097656 -4.921875 1.890625 -4.953125 C 1.859375 -4.953125 1.816406 -4.960938 1.765625 -4.984375 C 1.628906 -4.984375 1.648438 -5.164062 1.828125 -5.53125 C 2.015625 -5.90625 2.238281 -6.019531 2.5 -5.875 C 2.851562 -5.695312 3.675781 -5.425781 4.96875 -5.0625 C 6.257812 -4.707031 7.925781 -4.25 9.96875 -3.6875 C 13.851562 -2.664062 18.488281 -1.367188 23.875 0.203125 C 31.320312 2.253906 35.347656 3.539062 35.953125 4.0625 Z M 35.953125 4.0625 "/></g></g></g><g fill="#ffffff" fill-opacity="1"><g transform="translate(28.481261, 48.085134)"><g><path d="M 1.515625 -2.25 L 1.484375 -2.25 C 0.566406 -2.257812 -0.0351562 -2.460938 -0.328125 -2.859375 C -0.617188 -3.253906 -0.609375 -3.78125 -0.296875 -4.4375 C -0.0234375 -4.9375 0.3125 -5.375 0.71875 -5.75 C 0.851562 -5.875 0.992188 -5.972656 1.140625 -6.046875 C 1.285156 -6.128906 1.445312 -6.171875 1.625 -6.171875 C 1.738281 -6.179688 1.863281 -6.160156 2 -6.109375 C 2.039062 -6.097656 2.085938 -6.082031 2.140625 -6.0625 C 2.242188 -6.082031 2.347656 -6.117188 2.453125 -6.171875 C 2.472656 -6.179688 2.503906 -6.195312 2.546875 -6.21875 C 2.753906 -6.289062 2.976562 -6.320312 3.21875 -6.3125 C 3.3125 -6.3125 3.410156 -6.3125 3.515625 -6.3125 C 3.878906 -6.257812 4.15625 -6.101562 4.34375 -5.84375 C 4.539062 -5.59375 4.609375 -5.28125 4.546875 -4.90625 C 4.515625 -4.6875 4.445312 -4.476562 4.34375 -4.28125 C 3.613281 -2.976562 2.6875 -2.300781 1.5625 -2.25 Z M 3 -5.640625 C 2.5 -5.660156 2.054688 -5.515625 1.671875 -5.203125 C 1.285156 -4.898438 0.992188 -4.550781 0.796875 -4.15625 C 0.609375 -3.757812 0.554688 -3.429688 0.640625 -3.171875 C 0.734375 -2.910156 1 -2.835938 1.4375 -2.953125 C 1.9375 -3.109375 2.378906 -3.394531 2.765625 -3.8125 C 3.148438 -4.226562 3.382812 -4.625 3.46875 -5 C 3.550781 -5.375 3.394531 -5.585938 3 -5.640625 Z M 3 -5.640625 "/></g></g></g><g fill="#ffffff" fill-opacity="1"><g transform="translate(33.512861, 48.085134)"><g><path d="M 8.421875 -4.984375 C 8.554688 -4.953125 8.625 -4.90625 8.625 -4.84375 C 8.632812 -4.78125 8.640625 -4.75 8.640625 -4.75 C 8.484375 -4.488281 8.3125 -4.242188 8.125 -4.015625 C 7.664062 -3.515625 7.140625 -3.117188 6.546875 -2.828125 C 6.253906 -2.660156 5.925781 -2.570312 5.5625 -2.5625 C 4.71875 -2.550781 4.332031 -2.960938 4.40625 -3.796875 C 4.4375 -3.972656 4.476562 -4.144531 4.53125 -4.3125 C 4.5625 -4.394531 4.582031 -4.476562 4.59375 -4.5625 C 4.675781 -4.863281 4.695312 -5.03125 4.65625 -5.0625 C 4.625 -5.101562 4.523438 -5.019531 4.359375 -4.8125 C 4.316406 -4.769531 4.273438 -4.726562 4.234375 -4.6875 C 3.984375 -4.382812 3.726562 -4.085938 3.46875 -3.796875 C 2.976562 -3.234375 2.421875 -2.765625 1.796875 -2.390625 C 1.421875 -2.171875 1.023438 -2.050781 0.609375 -2.03125 C -0.078125 -2 -0.460938 -2.316406 -0.546875 -2.984375 C -0.578125 -3.242188 -0.5625 -3.503906 -0.5 -3.765625 C -0.21875 -4.835938 0.335938 -5.65625 1.171875 -6.21875 C 2.003906 -6.78125 2.957031 -6.976562 4.03125 -6.8125 C 4.332031 -6.726562 4.550781 -6.8125 4.6875 -7.0625 C 4.75 -7.15625 4.804688 -7.253906 4.859375 -7.359375 C 5.148438 -7.859375 5.4375 -8.359375 5.71875 -8.859375 C 6.238281 -9.816406 6.765625 -10.785156 7.296875 -11.765625 C 7.734375 -12.523438 8.164062 -13.296875 8.59375 -14.078125 C 8.71875 -14.316406 8.859375 -14.546875 9.015625 -14.765625 C 9.078125 -14.867188 9.160156 -14.929688 9.265625 -14.953125 C 9.367188 -14.984375 9.476562 -15 9.59375 -15 C 9.625 -15 9.65625 -15 9.6875 -15 C 9.8125 -15 9.910156 -14.960938 9.984375 -14.890625 C 10.054688 -14.828125 10.070312 -14.742188 10.03125 -14.640625 C 9.945312 -14.378906 9.847656 -14.128906 9.734375 -13.890625 C 9.148438 -12.722656 8.601562 -11.539062 8.09375 -10.34375 C 7.582031 -9.15625 7.078125 -7.957031 6.578125 -6.75 C 6.410156 -6.332031 6.238281 -5.914062 6.0625 -5.5 C 5.851562 -5.007812 5.679688 -4.507812 5.546875 -4 C 5.503906 -3.882812 5.484375 -3.769531 5.484375 -3.65625 C 5.484375 -3.550781 5.539062 -3.457031 5.65625 -3.375 C 5.71875 -3.332031 5.785156 -3.320312 5.859375 -3.34375 C 5.941406 -3.375 6.023438 -3.410156 6.109375 -3.453125 C 6.128906 -3.472656 6.148438 -3.488281 6.171875 -3.5 C 6.773438 -3.84375 7.328125 -4.257812 7.828125 -4.75 C 7.910156 -4.832031 7.992188 -4.898438 8.078125 -4.953125 C 8.171875 -5.015625 8.285156 -5.023438 8.421875 -4.984375 Z M 3.734375 -5.609375 C 3.804688 -5.722656 3.828125 -5.832031 3.796875 -5.9375 C 3.765625 -6.039062 3.691406 -6.117188 3.578125 -6.171875 C 3.347656 -6.296875 3.097656 -6.3125 2.828125 -6.21875 C 2.179688 -6.019531 1.640625 -5.644531 1.203125 -5.09375 C 0.765625 -4.539062 0.523438 -3.929688 0.484375 -3.265625 C 0.492188 -3.234375 0.5 -3.210938 0.5 -3.203125 C 0.5 -3.148438 0.5 -3.09375 0.5 -3.03125 C 0.5625 -2.726562 0.75 -2.671875 1.0625 -2.859375 C 1.382812 -3.046875 1.742188 -3.347656 2.140625 -3.765625 C 2.535156 -4.179688 2.890625 -4.578125 3.203125 -4.953125 C 3.515625 -5.328125 3.691406 -5.546875 3.734375 -5.609375 Z M 3.734375 -5.609375 "/></g></g></g><g fill="#ffffff" fill-opacity="1"><g transform="translate(41.434553, 48.085134)"><g/></g></g><g fill="#ffffff" fill-opacity="1"><g transform="translate(48.598187, 48.085134)"><g><path d="M 51.25 -8.671875 C 50.050781 -8.804688 48.835938 -8.875 47.609375 -8.875 C 47.066406 -8.894531 46.519531 -8.910156 45.96875 -8.921875 C 40.90625 -9.128906 35.828125 -9.179688 30.734375 -9.078125 C 30.484375 -9.078125 30.273438 -9.078125 30.109375 -9.078125 C 29.828125 -9.097656 29.625 -9.097656 29.5 -9.078125 C 29.375 -9.054688 29.269531 -8.988281 29.1875 -8.875 C 29.113281 -8.757812 29.03125 -8.566406 28.9375 -8.296875 C 28.863281 -8.148438 28.78125 -7.960938 28.6875 -7.734375 C 27.84375 -5.878906 27.066406 -4 26.359375 -2.09375 C 25.890625 -0.863281 25.53125 0.398438 25.28125 1.703125 C 25.1875 2.097656 25.148438 2.488281 25.171875 2.875 C 25.203125 3.257812 25.378906 3.601562 25.703125 3.90625 C 25.742188 3.9375 25.757812 3.972656 25.75 4.015625 C 25.738281 4.066406 25.707031 4.113281 25.65625 4.15625 C 25.613281 4.195312 25.566406 4.222656 25.515625 4.234375 C 24.765625 4.347656 24.3125 4.082031 24.15625 3.4375 C 24.070312 3.070312 24.054688 2.691406 24.109375 2.296875 C 24.109375 2.265625 24.109375 2.242188 24.109375 2.234375 C 24.171875 1.578125 24.289062 0.921875 24.46875 0.265625 C 24.644531 -0.390625 24.847656 -1.046875 25.078125 -1.703125 C 25.785156 -3.679688 26.570312 -5.628906 27.4375 -7.546875 C 27.476562 -7.628906 27.515625 -7.710938 27.546875 -7.796875 C 27.585938 -7.890625 27.632812 -7.988281 27.6875 -8.09375 C 27.75 -8.226562 27.804688 -8.363281 27.859375 -8.5 C 27.921875 -8.644531 27.945312 -8.789062 27.9375 -8.9375 C 27.863281 -9 27.789062 -9.035156 27.71875 -9.046875 C 27.65625 -9.054688 27.585938 -9.054688 27.515625 -9.046875 C 27.503906 -9.046875 27.488281 -9.046875 27.46875 -9.046875 C 26.875 -9.046875 26.28125 -9.039062 25.6875 -9.03125 C 25.519531 -9.03125 25.34375 -9.03125 25.15625 -9.03125 C 24.9375 -9.019531 24.75 -8.945312 24.59375 -8.8125 C 24.445312 -8.6875 24.300781 -8.535156 24.15625 -8.359375 C 23.976562 -8.117188 23.796875 -7.882812 23.609375 -7.65625 C 22.835938 -6.664062 22.054688 -5.679688 21.265625 -4.703125 C 20.085938 -3.285156 18.863281 -1.921875 17.59375 -0.609375 C 16.320312 0.703125 14.972656 1.9375 13.546875 3.09375 C 11.742188 4.570312 9.835938 5.875 7.828125 7 C 4.742188 8.65625 1.507812 9.4375 -1.875 9.34375 C -5.0625 9.28125 -7.9375 8.421875 -10.5 6.765625 C -11.21875 6.304688 -11.851562 5.753906 -12.40625 5.109375 C -12.78125 4.640625 -13.078125 4.140625 -13.296875 3.609375 C -13.515625 3.078125 -13.625 2.5 -13.625 1.875 C -13.59375 1.113281 -13.421875 0.414062 -13.109375 -0.21875 C -12.796875 -0.863281 -12.363281 -1.445312 -11.8125 -1.96875 C -11.039062 -2.707031 -10.195312 -3.332031 -9.28125 -3.84375 C -8.394531 -4.363281 -7.476562 -4.816406 -6.53125 -5.203125 C -5.582031 -5.597656 -4.628906 -5.945312 -3.671875 -6.25 C -2.117188 -6.75 -0.550781 -7.164062 1.03125 -7.5 C 2.625 -7.84375 4.222656 -8.140625 5.828125 -8.390625 C 9.617188 -8.910156 13.421875 -9.253906 17.234375 -9.421875 C 19.179688 -9.546875 21.117188 -9.609375 23.046875 -9.609375 C 23.578125 -9.597656 23.988281 -9.820312 24.28125 -10.28125 C 24.800781 -11 25.316406 -11.722656 25.828125 -12.453125 C 26.628906 -13.566406 27.421875 -14.695312 28.203125 -15.84375 C 31.816406 -21.25 35.28125 -26.738281 38.59375 -32.3125 C 38.875 -32.78125 39.144531 -33.257812 39.40625 -33.75 C 39.539062 -34 39.675781 -34.25 39.8125 -34.5 C 39.976562 -34.820312 40.238281 -35.003906 40.59375 -35.046875 C 40.789062 -35.046875 40.9375 -34.988281 41.03125 -34.875 C 41.125 -34.757812 41.132812 -34.613281 41.0625 -34.4375 C 40.988281 -34.28125 40.910156 -34.132812 40.828125 -34 C 40.285156 -33.039062 39.804688 -32.066406 39.390625 -31.078125 C 39.234375 -30.734375 39.078125 -30.390625 38.921875 -30.046875 C 37.460938 -26.878906 36 -23.710938 34.53125 -20.546875 C 33.40625 -18.097656 32.269531 -15.644531 31.125 -13.1875 C 30.789062 -12.457031 30.460938 -11.734375 30.140625 -11.015625 C 30.078125 -10.859375 30.007812 -10.710938 29.9375 -10.578125 C 29.925781 -10.546875 29.914062 -10.507812 29.90625 -10.46875 C 29.851562 -10.363281 29.8125 -10.265625 29.78125 -10.171875 C 29.757812 -10.078125 29.769531 -9.976562 29.8125 -9.875 C 29.90625 -9.8125 30.015625 -9.773438 30.140625 -9.765625 C 30.273438 -9.765625 30.394531 -9.765625 30.5 -9.765625 C 30.582031 -9.773438 30.660156 -9.78125 30.734375 -9.78125 C 31.253906 -9.769531 31.78125 -9.769531 32.3125 -9.78125 C 33.039062 -9.78125 33.765625 -9.773438 34.484375 -9.765625 C 38.429688 -9.691406 42.378906 -9.601562 46.328125 -9.5 C 47.628906 -9.476562 48.914062 -9.425781 50.1875 -9.34375 C 50.300781 -9.332031 50.425781 -9.328125 50.5625 -9.328125 C 50.625 -9.328125 50.695312 -9.328125 50.78125 -9.328125 C 50.945312 -9.328125 51.109375 -9.3125 51.265625 -9.28125 C 51.421875 -9.25 51.566406 -9.191406 51.703125 -9.109375 C 51.722656 -9.085938 51.738281 -9.054688 51.75 -9.015625 C 51.769531 -8.984375 51.773438 -8.953125 51.765625 -8.921875 C 51.765625 -8.878906 51.742188 -8.835938 51.703125 -8.796875 C 51.671875 -8.765625 51.644531 -8.742188 51.625 -8.734375 C 51.507812 -8.691406 51.382812 -8.671875 51.25 -8.671875 Z M 22.984375 -8.5625 C 23.023438 -8.65625 23.03125 -8.734375 23 -8.796875 C 22.96875 -8.867188 22.910156 -8.90625 22.828125 -8.90625 C 22.703125 -8.914062 22.566406 -8.914062 22.421875 -8.90625 C 22.359375 -8.90625 22.289062 -8.90625 22.21875 -8.90625 C 17.445312 -8.84375 12.671875 -8.515625 7.890625 -7.921875 C 6.066406 -7.703125 4.25 -7.410156 2.4375 -7.046875 C 0.625 -6.679688 -1.164062 -6.226562 -2.9375 -5.6875 C -3.882812 -5.394531 -4.816406 -5.0625 -5.734375 -4.6875 C -6.660156 -4.3125 -7.566406 -3.863281 -8.453125 -3.34375 C -9.367188 -2.832031 -10.203125 -2.207031 -10.953125 -1.46875 C -11.828125 -0.5625 -12.320312 0.398438 -12.4375 1.421875 C -12.550781 2.441406 -12.273438 3.425781 -11.609375 4.375 C -11.128906 5.039062 -10.550781 5.609375 -9.875 6.078125 C -7.40625 7.828125 -4.46875 8.71875 -1.0625 8.75 C -0.1875 8.75 0.8125 8.632812 1.9375 8.40625 C 3.0625 8.175781 4.148438 7.832031 5.203125 7.375 C 6.253906 6.925781 7.273438 6.394531 8.265625 5.78125 C 10.691406 4.28125 12.941406 2.535156 15.015625 0.546875 C 16.453125 -0.796875 17.804688 -2.210938 19.078125 -3.703125 C 20.347656 -5.191406 21.582031 -6.707031 22.78125 -8.25 C 22.851562 -8.363281 22.921875 -8.46875 22.984375 -8.5625 Z M 28.796875 -10.53125 C 29.710938 -12.613281 30.65625 -14.691406 31.625 -16.765625 C 31.664062 -16.878906 31.8125 -17.207031 32.0625 -17.75 C 32.3125 -18.289062 32.597656 -18.921875 32.921875 -19.640625 C 33.253906 -20.359375 33.554688 -21.035156 33.828125 -21.671875 C 34.097656 -22.304688 34.285156 -22.78125 34.390625 -23.09375 C 34.503906 -23.414062 34.472656 -23.453125 34.296875 -23.203125 C 34.253906 -23.140625 34.222656 -23.082031 34.203125 -23.03125 C 34.046875 -22.800781 33.898438 -22.578125 33.765625 -22.359375 C 32.609375 -20.566406 31.441406 -18.773438 30.265625 -16.984375 C 29.097656 -15.191406 27.890625 -13.425781 26.640625 -11.6875 C 26.515625 -11.53125 26.390625 -11.359375 26.265625 -11.171875 C 26.023438 -10.835938 25.789062 -10.503906 25.5625 -10.171875 C 25.46875 -10.035156 25.4375 -9.921875 25.46875 -9.828125 C 25.507812 -9.734375 25.609375 -9.6875 25.765625 -9.6875 C 26.015625 -9.6875 26.265625 -9.695312 26.515625 -9.71875 C 26.910156 -9.75 27.300781 -9.765625 27.6875 -9.765625 C 27.976562 -9.742188 28.207031 -9.800781 28.375 -9.9375 C 28.539062 -10.082031 28.679688 -10.28125 28.796875 -10.53125 Z M 28.796875 -10.53125 "/></g></g></g><g fill="#ffffff" fill-opacity="1"><g transform="translate(78.636179, 48.085134)"><g><path d="M 4.59375 -4.53125 C 4.800781 -4.738281 4.972656 -4.851562 5.109375 -4.875 C 5.242188 -4.894531 5.332031 -4.867188 5.375 -4.796875 C 5.414062 -4.734375 5.390625 -4.644531 5.296875 -4.53125 C 4.742188 -3.851562 4.125 -3.269531 3.4375 -2.78125 C 2.75 -2.300781 2.035156 -2.019531 1.296875 -1.9375 C 0.566406 -1.863281 0.128906 -2.265625 -0.015625 -3.140625 C -0.128906 -4.003906 0.390625 -5.765625 1.546875 -8.421875 C 2.710938 -11.085938 3.632812 -13.269531 4.3125 -14.96875 C 4.375 -15.125 4.460938 -15.257812 4.578125 -15.375 C 4.722656 -15.519531 4.898438 -15.554688 5.109375 -15.484375 C 5.179688 -15.441406 5.25 -15.382812 5.3125 -15.3125 C 5.382812 -15.25 5.410156 -15.128906 5.390625 -14.953125 C 2.398438 -7.859375 0.953125 -4 1.046875 -3.375 C 1.140625 -2.757812 1.535156 -2.609375 2.234375 -2.921875 C 2.941406 -3.234375 3.488281 -3.550781 3.875 -3.875 C 4.257812 -4.207031 4.5 -4.425781 4.59375 -4.53125 Z M 4.59375 -4.53125 "/></g></g></g><g fill="#ffffff" fill-opacity="1"><g transform="translate(83.364557, 48.085134)"><g><path d="M 5.40625 -3.640625 C 5.039062 -3.273438 4.613281 -2.960938 4.125 -2.703125 C 3.632812 -2.453125 3.222656 -2.285156 2.890625 -2.203125 C 2.566406 -2.128906 2.234375 -2.085938 1.890625 -2.078125 C 1.328125 -2.046875 0.8125 -2.117188 0.34375 -2.296875 C -0.414062 -2.609375 -0.679688 -3.203125 -0.453125 -4.078125 C -0.222656 -4.828125 0.226562 -5.414062 0.90625 -5.84375 C 1.582031 -6.269531 2.28125 -6.472656 3 -6.453125 C 3 -6.453125 3.003906 -6.453125 3.015625 -6.453125 C 3.203125 -6.472656 3.375 -6.460938 3.53125 -6.421875 C 3.8125 -6.316406 3.988281 -6.148438 4.0625 -5.921875 C 4.144531 -5.691406 4.097656 -5.441406 3.921875 -5.171875 C 3.515625 -4.554688 2.960938 -4.210938 2.265625 -4.140625 C 1.804688 -4.097656 1.359375 -4.117188 0.921875 -4.203125 C 0.847656 -4.222656 0.773438 -4.203125 0.703125 -4.140625 C 0.640625 -4.085938 0.601562 -4.019531 0.59375 -3.9375 C 0.46875 -3.394531 0.632812 -3.046875 1.09375 -2.890625 C 1.664062 -2.691406 2.257812 -2.691406 2.875 -2.890625 C 3.582031 -3.109375 4.253906 -3.523438 4.890625 -4.140625 C 5.523438 -4.753906 5.890625 -5.039062 5.984375 -5 C 6.085938 -4.957031 6.125 -4.835938 6.09375 -4.640625 C 6 -4.335938 5.769531 -4.003906 5.40625 -3.640625 Z M 1.359375 -5.171875 C 1.328125 -5.128906 1.300781 -5.078125 1.28125 -5.015625 C 1.269531 -4.960938 1.289062 -4.914062 1.34375 -4.875 C 1.5625 -4.75 1.800781 -4.703125 2.0625 -4.734375 C 2.320312 -4.773438 2.539062 -4.875 2.71875 -5.03125 C 2.90625 -5.1875 2.984375 -5.382812 2.953125 -5.625 C 2.941406 -5.707031 2.898438 -5.757812 2.828125 -5.78125 C 2.753906 -5.800781 2.6875 -5.804688 2.625 -5.796875 C 2.15625 -5.710938 1.734375 -5.503906 1.359375 -5.171875 Z M 1.359375 -5.171875 "/></g></g></g><g fill="#ffffff" fill-opacity="1"><g transform="translate(88.879419, 48.085134)"><g><path d="M 1.265625 -2.859375 C 1.203125 -2.921875 1.128906 -2.976562 1.046875 -3.03125 C 1.003906 -3.0625 0.96875 -3.09375 0.9375 -3.125 C 0.71875 -3.039062 0.53125 -2.914062 0.375 -2.75 C 0.289062 -2.644531 0.191406 -2.5625 0.078125 -2.5 C -0.078125 -2.363281 -0.253906 -2.304688 -0.453125 -2.328125 C -0.566406 -2.347656 -0.660156 -2.40625 -0.734375 -2.5 C -0.742188 -2.507812 -0.75 -2.539062 -0.75 -2.59375 C -0.75 -2.644531 -0.742188 -2.679688 -0.734375 -2.703125 C -0.703125 -2.734375 -0.671875 -2.757812 -0.640625 -2.78125 C -0.472656 -3.007812 -0.296875 -3.210938 -0.109375 -3.390625 C 0.0976562 -3.585938 0.226562 -3.789062 0.28125 -4 C 0.34375 -4.207031 0.304688 -4.453125 0.171875 -4.734375 C 0.00390625 -5.128906 -0.128906 -5.550781 -0.234375 -6 C -0.253906 -6.125 -0.28125 -6.257812 -0.3125 -6.40625 C -0.363281 -6.59375 -0.304688 -6.753906 -0.140625 -6.890625 C -0.015625 -6.984375 0.117188 -7.007812 0.265625 -6.96875 C 0.410156 -6.9375 0.507812 -6.859375 0.5625 -6.734375 C 0.644531 -6.484375 0.726562 -6.234375 0.8125 -5.984375 C 0.894531 -5.753906 0.972656 -5.523438 1.046875 -5.296875 C 1.160156 -5.015625 1.335938 -4.984375 1.578125 -5.203125 C 1.835938 -5.441406 2.097656 -5.6875 2.359375 -5.9375 C 2.640625 -6.195312 2.921875 -6.460938 3.203125 -6.734375 C 3.421875 -6.941406 3.65625 -7.128906 3.90625 -7.296875 C 4.0625 -7.390625 4.207031 -7.382812 4.34375 -7.28125 C 4.414062 -7.195312 4.441406 -7.117188 4.421875 -7.046875 C 4.410156 -6.984375 4.378906 -6.925781 4.328125 -6.875 C 3.734375 -6.238281 3.15625 -5.609375 2.59375 -4.984375 C 2.445312 -4.835938 2.304688 -4.695312 2.171875 -4.5625 C 1.898438 -4.34375 1.75 -4.148438 1.71875 -3.984375 C 1.695312 -3.816406 1.851562 -3.5625 2.1875 -3.21875 C 2.375 -3.0625 2.660156 -3.046875 3.046875 -3.171875 C 3.429688 -3.304688 3.847656 -3.507812 4.296875 -3.78125 C 4.742188 -4.050781 5.148438 -4.3125 5.515625 -4.5625 C 5.765625 -4.75 5.960938 -4.878906 6.109375 -4.953125 C 6.484375 -5.148438 6.703125 -5.171875 6.765625 -5.015625 C 6.828125 -4.867188 6.726562 -4.679688 6.46875 -4.453125 C 6.332031 -4.359375 6.195312 -4.257812 6.0625 -4.15625 C 5.5 -3.757812 4.929688 -3.359375 4.359375 -2.953125 C 4.066406 -2.765625 3.753906 -2.601562 3.421875 -2.46875 C 3.023438 -2.320312 2.644531 -2.269531 2.28125 -2.3125 C 1.925781 -2.363281 1.585938 -2.546875 1.265625 -2.859375 Z M 1.265625 -2.859375 "/></g></g></g><g fill="#ffffff" fill-opacity="1"><g transform="translate(94.887017, 48.085134)"><g><path d="M 6.875 -4.828125 C 7.03125 -4.742188 7.039062 -4.535156 6.90625 -4.203125 C 6.726562 -3.960938 6.535156 -3.738281 6.328125 -3.53125 C 6.117188 -3.320312 5.890625 -3.140625 5.640625 -2.984375 C 5.617188 -2.984375 5.609375 -2.972656 5.609375 -2.953125 C 5.453125 -2.835938 5.28125 -2.742188 5.09375 -2.671875 C 3.582031 -2.117188 2.8125 -2.4375 2.78125 -3.625 C 2.164062 -3.09375 1.753906 -2.765625 1.546875 -2.640625 C 1.046875 -2.347656 0.503906 -2.21875 -0.078125 -2.25 C -0.503906 -2.269531 -0.796875 -2.398438 -0.953125 -2.640625 C -1.109375 -2.878906 -1.09375 -3.203125 -0.90625 -3.609375 C -0.632812 -4.242188 -0.238281 -4.8125 0.28125 -5.3125 C 0.875 -5.863281 1.539062 -6.304688 2.28125 -6.640625 C 2.664062 -6.835938 3.078125 -6.914062 3.515625 -6.875 C 3.941406 -6.851562 4.195312 -6.609375 4.28125 -6.140625 C 4.320312 -6.003906 4.289062 -5.882812 4.1875 -5.78125 C 4.039062 -5.644531 3.878906 -5.613281 3.703125 -5.6875 C 3.679688 -5.6875 3.660156 -5.6875 3.640625 -5.6875 C 3.617188 -5.695312 3.601562 -5.710938 3.59375 -5.734375 C 3.40625 -5.984375 3.21875 -6.085938 3.03125 -6.046875 C 2.851562 -6.003906 2.660156 -5.921875 2.453125 -5.796875 C 1.472656 -5.222656 0.75 -4.425781 0.28125 -3.40625 C 0.25 -3.363281 0.226562 -3.316406 0.21875 -3.265625 C 0.21875 -3.210938 0.238281 -3.171875 0.28125 -3.140625 C 0.394531 -3.097656 0.519531 -3.101562 0.65625 -3.15625 C 0.789062 -3.21875 0.925781 -3.300781 1.0625 -3.40625 C 1.207031 -3.507812 1.328125 -3.59375 1.421875 -3.65625 C 1.429688 -3.675781 1.4375 -3.6875 1.4375 -3.6875 C 1.90625 -4.070312 2.359375 -4.46875 2.796875 -4.875 C 2.992188 -5.082031 3.238281 -5.195312 3.53125 -5.21875 C 3.945312 -5.21875 4.117188 -5.035156 4.046875 -4.671875 C 4.015625 -4.523438 3.972656 -4.382812 3.921875 -4.25 C 3.753906 -3.644531 3.75 -3.289062 3.90625 -3.1875 C 4.0625 -3.082031 4.296875 -3.082031 4.609375 -3.1875 C 4.921875 -3.289062 5.234375 -3.488281 5.546875 -3.78125 C 5.859375 -4.082031 6.117188 -4.351562 6.328125 -4.59375 C 6.546875 -4.832031 6.726562 -4.910156 6.875 -4.828125 Z M 6.875 -4.828125 "/></g></g></g><g fill="#ffffff" fill-opacity="1"><g transform="translate(101.169411, 48.085134)"><g><path d="M 7.515625 -4.734375 C 7.609375 -4.609375 7.476562 -4.375 7.125 -4.03125 C 6.769531 -3.695312 6.394531 -3.414062 6 -3.1875 C 5.601562 -2.96875 5.144531 -2.742188 4.625 -2.515625 C 4.269531 -2.359375 3.894531 -2.304688 3.5 -2.359375 C 3.113281 -2.410156 2.921875 -2.644531 2.921875 -3.0625 C 2.921875 -3.488281 3.019531 -3.910156 3.21875 -4.328125 C 3.414062 -4.765625 3.457031 -4.988281 3.34375 -5 C 3.226562 -5.007812 3 -4.90625 2.65625 -4.6875 C 1.75 -4.09375 0.90625 -3.410156 0.125 -2.640625 C -0.0820312 -2.390625 -0.34375 -2.253906 -0.65625 -2.234375 C -0.820312 -2.234375 -0.953125 -2.285156 -1.046875 -2.390625 C -1.140625 -2.492188 -1.148438 -2.601562 -1.078125 -2.71875 C -0.523438 -3.75 0.0351562 -4.769531 0.609375 -5.78125 C 0.734375 -5.988281 0.921875 -6.117188 1.171875 -6.171875 C 1.285156 -6.179688 1.382812 -6.144531 1.46875 -6.0625 C 1.5625 -5.976562 1.609375 -5.882812 1.609375 -5.78125 C 1.597656 -5.675781 1.554688 -5.554688 1.484375 -5.421875 C 1.453125 -5.335938 1.421875 -5.253906 1.390625 -5.171875 C 1.367188 -5.097656 1.363281 -5.035156 1.375 -4.984375 C 1.382812 -4.929688 1.421875 -4.914062 1.484375 -4.9375 C 1.578125 -4.988281 1.671875 -5.046875 1.765625 -5.109375 C 2.015625 -5.242188 2.25 -5.375 2.46875 -5.5 C 2.664062 -5.613281 2.867188 -5.710938 3.078125 -5.796875 C 3.296875 -5.890625 3.519531 -5.953125 3.75 -5.984375 C 4.132812 -6.003906 4.40625 -5.914062 4.5625 -5.71875 C 4.71875 -5.53125 4.738281 -5.257812 4.625 -4.90625 C 4.488281 -4.59375 4.351562 -4.28125 4.21875 -3.96875 C 4.050781 -3.675781 4.023438 -3.453125 4.140625 -3.296875 C 4.253906 -3.148438 4.78125 -3.328125 5.71875 -3.828125 L 6.4375 -4.25 C 7.101562 -4.675781 7.460938 -4.835938 7.515625 -4.734375 Z M 7.515625 -4.734375 "/></g></g></g><g fill="#ffffff" fill-opacity="1"><g transform="translate(108.115104, 48.085134)"><g><path d="M 8.421875 -4.984375 C 8.554688 -4.953125 8.625 -4.90625 8.625 -4.84375 C 8.632812 -4.78125 8.640625 -4.75 8.640625 -4.75 C 8.484375 -4.488281 8.3125 -4.242188 8.125 -4.015625 C 7.664062 -3.515625 7.140625 -3.117188 6.546875 -2.828125 C 6.253906 -2.660156 5.925781 -2.570312 5.5625 -2.5625 C 4.71875 -2.550781 4.332031 -2.960938 4.40625 -3.796875 C 4.4375 -3.972656 4.476562 -4.144531 4.53125 -4.3125 C 4.5625 -4.394531 4.582031 -4.476562 4.59375 -4.5625 C 4.675781 -4.863281 4.695312 -5.03125 4.65625 -5.0625 C 4.625 -5.101562 4.523438 -5.019531 4.359375 -4.8125 C 4.316406 -4.769531 4.273438 -4.726562 4.234375 -4.6875 C 3.984375 -4.382812 3.726562 -4.085938 3.46875 -3.796875 C 2.976562 -3.234375 2.421875 -2.765625 1.796875 -2.390625 C 1.421875 -2.171875 1.023438 -2.050781 0.609375 -2.03125 C -0.078125 -2 -0.460938 -2.316406 -0.546875 -2.984375 C -0.578125 -3.242188 -0.5625 -3.503906 -0.5 -3.765625 C -0.21875 -4.835938 0.335938 -5.65625 1.171875 -6.21875 C 2.003906 -6.78125 2.957031 -6.976562 4.03125 -6.8125 C 4.332031 -6.726562 4.550781 -6.8125 4.6875 -7.0625 C 4.75 -7.15625 4.804688 -7.253906 4.859375 -7.359375 C 5.148438 -7.859375 5.4375 -8.359375 5.71875 -8.859375 C 6.238281 -9.816406 6.765625 -10.785156 7.296875 -11.765625 C 7.734375 -12.523438 8.164062 -13.296875 8.59375 -14.078125 C 8.71875 -14.316406 8.859375 -14.546875 9.015625 -14.765625 C 9.078125 -14.867188 9.160156 -14.929688 9.265625 -14.953125 C 9.367188 -14.984375 9.476562 -15 9.59375 -15 C 9.625 -15 9.65625 -15 9.6875 -15 C 9.8125 -15 9.910156 -14.960938 9.984375 -14.890625 C 10.054688 -14.828125 10.070312 -14.742188 10.03125 -14.640625 C 9.945312 -14.378906 9.847656 -14.128906 9.734375 -13.890625 C 9.148438 -12.722656 8.601562 -11.539062 8.09375 -10.34375 C 7.582031 -9.15625 7.078125 -7.957031 6.578125 -6.75 C 6.410156 -6.332031 6.238281 -5.914062 6.0625 -5.5 C 5.851562 -5.007812 5.679688 -4.507812 5.546875 -4 C 5.503906 -3.882812 5.484375 -3.769531 5.484375 -3.65625 C 5.484375 -3.550781 5.539062 -3.457031 5.65625 -3.375 C 5.71875 -3.332031 5.785156 -3.320312 5.859375 -3.34375 C 5.941406 -3.375 6.023438 -3.410156 6.109375 -3.453125 C 6.128906 -3.472656 6.148438 -3.488281 6.171875 -3.5 C 6.773438 -3.84375 7.328125 -4.257812 7.828125 -4.75 C 7.910156 -4.832031 7.992188 -4.898438 8.078125 -4.953125 C 8.171875 -5.015625 8.285156 -5.023438 8.421875 -4.984375 Z M 3.734375 -5.609375 C 3.804688 -5.722656 3.828125 -5.832031 3.796875 -5.9375 C 3.765625 -6.039062 3.691406 -6.117188 3.578125 -6.171875 C 3.347656 -6.296875 3.097656 -6.3125 2.828125 -6.21875 C 2.179688 -6.019531 1.640625 -5.644531 1.203125 -5.09375 C 0.765625 -4.539062 0.523438 -3.929688 0.484375 -3.265625 C 0.492188 -3.234375 0.5 -3.210938 0.5 -3.203125 C 0.5 -3.148438 0.5 -3.09375 0.5 -3.03125 C 0.5625 -2.726562 0.75 -2.671875 1.0625 -2.859375 C 1.382812 -3.046875 1.742188 -3.347656 2.140625 -3.765625 C 2.535156 -4.179688 2.890625 -4.578125 3.203125 -4.953125 C 3.515625 -5.328125 3.691406 -5.546875 3.734375 -5.609375 Z M 3.734375 -5.609375 "/></g></g></g><g fill="#ffffff" fill-opacity="1"><g transform="translate(116.036795, 48.085134)"><g><path d="M 5.40625 -3.640625 C 5.039062 -3.273438 4.613281 -2.960938 4.125 -2.703125 C 3.632812 -2.453125 3.222656 -2.285156 2.890625 -2.203125 C 2.566406 -2.128906 2.234375 -2.085938 1.890625 -2.078125 C 1.328125 -2.046875 0.8125 -2.117188 0.34375 -2.296875 C -0.414062 -2.609375 -0.679688 -3.203125 -0.453125 -4.078125 C -0.222656 -4.828125 0.226562 -5.414062 0.90625 -5.84375 C 1.582031 -6.269531 2.28125 -6.472656 3 -6.453125 C 3 -6.453125 3.003906 -6.453125 3.015625 -6.453125 C 3.203125 -6.472656 3.375 -6.460938 3.53125 -6.421875 C 3.8125 -6.316406 3.988281 -6.148438 4.0625 -5.921875 C 4.144531 -5.691406 4.097656 -5.441406 3.921875 -5.171875 C 3.515625 -4.554688 2.960938 -4.210938 2.265625 -4.140625 C 1.804688 -4.097656 1.359375 -4.117188 0.921875 -4.203125 C 0.847656 -4.222656 0.773438 -4.203125 0.703125 -4.140625 C 0.640625 -4.085938 0.601562 -4.019531 0.59375 -3.9375 C 0.46875 -3.394531 0.632812 -3.046875 1.09375 -2.890625 C 1.664062 -2.691406 2.257812 -2.691406 2.875 -2.890625 C 3.582031 -3.109375 4.253906 -3.523438 4.890625 -4.140625 C 5.523438 -4.753906 5.890625 -5.039062 5.984375 -5 C 6.085938 -4.957031 6.125 -4.835938 6.09375 -4.640625 C 6 -4.335938 5.769531 -4.003906 5.40625 -3.640625 Z M 1.359375 -5.171875 C 1.328125 -5.128906 1.300781 -5.078125 1.28125 -5.015625 C 1.269531 -4.960938 1.289062 -4.914062 1.34375 -4.875 C 1.5625 -4.75 1.800781 -4.703125 2.0625 -4.734375 C 2.320312 -4.773438 2.539062 -4.875 2.71875 -5.03125 C 2.90625 -5.1875 2.984375 -5.382812 2.953125 -5.625 C 2.941406 -5.707031 2.898438 -5.757812 2.828125 -5.78125 C 2.753906 -5.800781 2.6875 -5.804688 2.625 -5.796875 C 2.15625 -5.710938 1.734375 -5.503906 1.359375 -5.171875 Z M 1.359375 -5.171875 "/></g></g></g><g fill="#ffffff" fill-opacity="1"><g transform="translate(121.551657, 48.085134)"><g><path d="M 4.546875 -5.828125 C 4.492188 -5.390625 4.289062 -5.101562 3.9375 -4.96875 C 3.582031 -4.832031 3.46875 -5.003906 3.59375 -5.484375 C 3.71875 -5.972656 3.5 -6.097656 2.9375 -5.859375 C 2.382812 -5.617188 1.925781 -5.316406 1.5625 -4.953125 C 1.007812 -4.390625 0.515625 -3.78125 0.078125 -3.125 C 0.0351562 -3.0625 0.00390625 -3.015625 -0.015625 -2.984375 C -0.140625 -2.796875 -0.265625 -2.617188 -0.390625 -2.453125 C -0.472656 -2.335938 -0.570312 -2.265625 -0.6875 -2.234375 C -0.800781 -2.210938 -0.914062 -2.210938 -1.03125 -2.234375 C -1.132812 -2.242188 -1.210938 -2.28125 -1.265625 -2.34375 C -1.328125 -2.414062 -1.335938 -2.5 -1.296875 -2.59375 C -1.222656 -2.769531 -1.140625 -2.945312 -1.046875 -3.125 C -0.472656 -4.175781 0.101562 -5.234375 0.6875 -6.296875 C 0.707031 -6.304688 0.71875 -6.316406 0.71875 -6.328125 C 0.789062 -6.492188 0.882812 -6.648438 1 -6.796875 C 1.125 -6.929688 1.269531 -6.984375 1.4375 -6.953125 C 1.601562 -6.929688 1.710938 -6.835938 1.765625 -6.671875 C 1.835938 -6.441406 1.898438 -6.3125 1.953125 -6.28125 C 2.003906 -6.257812 2.117188 -6.285156 2.296875 -6.359375 C 2.671875 -6.492188 3.035156 -6.585938 3.390625 -6.640625 C 3.753906 -6.703125 4.050781 -6.691406 4.28125 -6.609375 C 4.519531 -6.523438 4.609375 -6.265625 4.546875 -5.828125 Z M 4.546875 -5.828125 "/></g></g></g><g fill="#ffffff" fill-opacity="1"><g transform="translate(126.289511, 48.085134)"><g><path d="M 4.59375 -4.8125 C 3.59375 -4.4375 2.867188 -4.128906 2.421875 -3.890625 C 2.097656 -3.734375 1.910156 -3.601562 1.859375 -3.5 C 1.816406 -3.394531 1.859375 -3.207031 1.984375 -2.9375 C 1.984375 -2.914062 1.992188 -2.894531 2.015625 -2.875 C 2.148438 -2.539062 2.226562 -2.191406 2.25 -1.828125 C 2.300781 -1.097656 1.6875 -0.585938 0.40625 -0.296875 C -0.875 -0.015625 -1.726562 -0.0078125 -2.15625 -0.28125 C -2.59375 -0.550781 -2.726562 -0.894531 -2.5625 -1.3125 C -2.394531 -1.726562 -1.957031 -2.148438 -1.25 -2.578125 C -0.550781 -3.003906 -0.0859375 -3.3125 0.140625 -3.5 C 0.378906 -3.695312 0.453125 -3.910156 0.359375 -4.140625 C 0.328125 -4.222656 0.289062 -4.304688 0.25 -4.390625 C 0.164062 -4.585938 0.0820312 -4.789062 0 -5 C -0.164062 -5.375 -0.238281 -5.742188 -0.21875 -6.109375 C -0.195312 -6.484375 -0.0625 -6.796875 0.1875 -7.046875 C 0.4375 -7.296875 0.828125 -7.425781 1.359375 -7.4375 C 1.648438 -7.457031 1.910156 -7.421875 2.140625 -7.328125 C 2.378906 -7.234375 2.570312 -7.0625 2.71875 -6.8125 C 2.832031 -6.644531 2.796875 -6.492188 2.609375 -6.359375 C 2.484375 -6.265625 2.351562 -6.25 2.21875 -6.3125 C 2.132812 -6.351562 2.050781 -6.410156 1.96875 -6.484375 C 1.96875 -6.492188 1.96875 -6.5 1.96875 -6.5 C 1.925781 -6.53125 1.890625 -6.554688 1.859375 -6.578125 C 1.816406 -6.640625 1.773438 -6.6875 1.734375 -6.71875 C 1.566406 -6.832031 1.398438 -6.863281 1.234375 -6.8125 C 1.066406 -6.769531 0.941406 -6.644531 0.859375 -6.4375 C 0.804688 -6.269531 0.78125 -6.101562 0.78125 -5.9375 C 0.789062 -5.726562 0.835938 -5.523438 0.921875 -5.328125 C 0.972656 -5.210938 1.023438 -5.101562 1.078125 -5 C 1.179688 -4.71875 1.265625 -4.523438 1.328125 -4.421875 C 1.398438 -4.316406 1.484375 -4.269531 1.578125 -4.28125 C 1.679688 -4.300781 2.582031 -4.625 4.28125 -5.25 C 4.644531 -5.375 4.75 -5.226562 4.59375 -4.8125 Z M 0.484375 -1.1875 C 0.921875 -1.332031 1.109375 -1.628906 1.046875 -2.078125 C 1.046875 -2.109375 1.039062 -2.144531 1.03125 -2.1875 C 1 -2.425781 0.945312 -2.609375 0.875 -2.734375 C 0.800781 -2.867188 0.628906 -2.863281 0.359375 -2.71875 C -0.296875 -2.34375 -0.898438 -1.90625 -1.453125 -1.40625 C -1.492188 -1.363281 -1.53125 -1.328125 -1.5625 -1.296875 C -1.5625 -1.296875 -1.566406 -1.285156 -1.578125 -1.265625 C -1.617188 -1.210938 -1.625 -1.15625 -1.59375 -1.09375 C -1.570312 -1.03125 -1.519531 -1 -1.4375 -1 C -0.78125 -0.894531 -0.140625 -0.957031 0.484375 -1.1875 Z M 0.484375 -1.1875 "/></g></g></g><g fill="#ffffff" fill-opacity="1"><g transform="translate(130.487249, 48.085134)"><g><path d="M 1.515625 -2.25 L 1.484375 -2.25 C 0.566406 -2.257812 -0.0351562 -2.460938 -0.328125 -2.859375 C -0.617188 -3.253906 -0.609375 -3.78125 -0.296875 -4.4375 C -0.0234375 -4.9375 0.3125 -5.375 0.71875 -5.75 C 0.851562 -5.875 0.992188 -5.972656 1.140625 -6.046875 C 1.285156 -6.128906 1.445312 -6.171875 1.625 -6.171875 C 1.738281 -6.179688 1.863281 -6.160156 2 -6.109375 C 2.039062 -6.097656 2.085938 -6.082031 2.140625 -6.0625 C 2.242188 -6.082031 2.347656 -6.117188 2.453125 -6.171875 C 2.472656 -6.179688 2.503906 -6.195312 2.546875 -6.21875 C 2.753906 -6.289062 2.976562 -6.320312 3.21875 -6.3125 C 3.3125 -6.3125 3.410156 -6.3125 3.515625 -6.3125 C 3.878906 -6.257812 4.15625 -6.101562 4.34375 -5.84375 C 4.539062 -5.59375 4.609375 -5.28125 4.546875 -4.90625 C 4.515625 -4.6875 4.445312 -4.476562 4.34375 -4.28125 C 3.613281 -2.976562 2.6875 -2.300781 1.5625 -2.25 Z M 3 -5.640625 C 2.5 -5.660156 2.054688 -5.515625 1.671875 -5.203125 C 1.285156 -4.898438 0.992188 -4.550781 0.796875 -4.15625 C 0.609375 -3.757812 0.554688 -3.429688 0.640625 -3.171875 C 0.734375 -2.910156 1 -2.835938 1.4375 -2.953125 C 1.9375 -3.109375 2.378906 -3.394531 2.765625 -3.8125 C 3.148438 -4.226562 3.382812 -4.625 3.46875 -5 C 3.550781 -5.375 3.394531 -5.585938 3 -5.640625 Z M 3 -5.640625 "/></g></g></g><g fill="#ffffff" fill-opacity="1"><g transform="translate(135.51885, 48.085134)"><g><path d="M 7.515625 -4.734375 C 7.609375 -4.609375 7.476562 -4.375 7.125 -4.03125 C 6.769531 -3.695312 6.394531 -3.414062 6 -3.1875 C 5.601562 -2.96875 5.144531 -2.742188 4.625 -2.515625 C 4.269531 -2.359375 3.894531 -2.304688 3.5 -2.359375 C 3.113281 -2.410156 2.921875 -2.644531 2.921875 -3.0625 C 2.921875 -3.488281 3.019531 -3.910156 3.21875 -4.328125 C 3.414062 -4.765625 3.457031 -4.988281 3.34375 -5 C 3.226562 -5.007812 3 -4.90625 2.65625 -4.6875 C 1.75 -4.09375 0.90625 -3.410156 0.125 -2.640625 C -0.0820312 -2.390625 -0.34375 -2.253906 -0.65625 -2.234375 C -0.820312 -2.234375 -0.953125 -2.285156 -1.046875 -2.390625 C -1.140625 -2.492188 -1.148438 -2.601562 -1.078125 -2.71875 C -0.523438 -3.75 0.0351562 -4.769531 0.609375 -5.78125 C 0.734375 -5.988281 0.921875 -6.117188 1.171875 -6.171875 C 1.285156 -6.179688 1.382812 -6.144531 1.46875 -6.0625 C 1.5625 -5.976562 1.609375 -5.882812 1.609375 -5.78125 C 1.597656 -5.675781 1.554688 -5.554688 1.484375 -5.421875 C 1.453125 -5.335938 1.421875 -5.253906 1.390625 -5.171875 C 1.367188 -5.097656 1.363281 -5.035156 1.375 -4.984375 C 1.382812 -4.929688 1.421875 -4.914062 1.484375 -4.9375 C 1.578125 -4.988281 1.671875 -5.046875 1.765625 -5.109375 C 2.015625 -5.242188 2.25 -5.375 2.46875 -5.5 C 2.664062 -5.613281 2.867188 -5.710938 3.078125 -5.796875 C 3.296875 -5.890625 3.519531 -5.953125 3.75 -5.984375 C 4.132812 -6.003906 4.40625 -5.914062 4.5625 -5.71875 C 4.71875 -5.53125 4.738281 -5.257812 4.625 -4.90625 C 4.488281 -4.59375 4.351562 -4.28125 4.21875 -3.96875 C 4.050781 -3.675781 4.023438 -3.453125 4.140625 -3.296875 C 4.253906 -3.148438 4.78125 -3.328125 5.71875 -3.828125 L 6.4375 -4.25 C 7.101562 -4.675781 7.460938 -4.835938 7.515625 -4.734375 Z M 7.515625 -4.734375 "/></g></g></g></svg>