<?xml version="1.0" encoding="UTF-8"?>
<svg id="Layer_1" data-name="Layer 1" xmlns="http://www.w3.org/2000/svg" viewBox="0 0 87.27 28.9">
  <defs>
    <style>
      .cls-1 {
        fill: #020000;
      }

      .cls-2 {
        fill: #fff;
        font-family: Bjorn-Halftone, Bjorn;
        font-size: 18.18px;
      }

      .cls-3 {
        fill: #f7941d;
        stroke: #f7941d;
        stroke-miterlimit: 10;
        stroke-width: 5.86px;
      }
    </style>
  </defs>
  <path class="cls-1" d="M0,28.33V6.92C0,3.11,3.11,0,6.92,0H87.27V21.98c0,3.81-3.11,6.92-6.92,6.92H6.92c-3.81,0-6.92-.13-6.92-.29v-.29Z"/>
  <path class="cls-3" d="M32.1,25.12h-.56s-2.44-1.83-2.44-1.83l-2.47,1.81h-.56s2.75-2.02,2.75-2.02l-2.73-2.04h.55s2.46,1.84,2.46,1.84l2.47-1.82h.56s-2.75,2.02-2.75,2.02l2.73,2.04Z"/>
  <path class="cls-3" d="M44.38,25.11h-.58v-4.08h.58v4.08Z"/>
  <path class="cls-3" d="M51.95,25.11h-.58v-4.08h.58v4.08Z"/>
  <path class="cls-3" d="M59.54,25.12h-.58v-4.08h.58v4.08Z"/>
  <text class="cls-2" transform="translate(6.09 18.32)"><tspan x="0" y="0">PRETTÁN</tspan></text>
</svg>