<svg xmlns="http://www.w3.org/2000/svg" xmlns:xlink="http://www.w3.org/1999/xlink" width="250" zoomAndPan="magnify" viewBox="0 0 187.5 187.499992" height="250" preserveAspectRatio="xMidYMid meet" version="1.0"><defs><clipPath id="id1"><path d="M 29 15.410156 L 166 15.410156 L 166 64 L 29 64 Z M 29 15.410156 " clip-rule="nonzero"/></clipPath><clipPath id="id2"><path d="M 97 110.664062 L 131.386719 110.664062 L 131.386719 172.160156 L 97 172.160156 Z M 97 110.664062 " clip-rule="nonzero"/></clipPath><clipPath id="id3"><path d="M 69.78125 104 L 110.992188 104 L 110.992188 172.160156 L 69.78125 172.160156 Z M 69.78125 104 " clip-rule="nonzero"/></clipPath><clipPath id="id4"><path d="M 69.78125 165.089844 L 77 165.089844 L 77 172.160156 L 69.78125 172.160156 Z M 69.78125 165.089844 " clip-rule="nonzero"/></clipPath><clipPath id="id5"><path d="M 8.597656 29.027344 L 178.84375 29.027344 L 178.84375 117.890625 L 8.597656 117.890625 Z M 8.597656 29.027344 " clip-rule="nonzero"/></clipPath></defs><path fill="#77cb4b" d="M 117.558594 56.316406 L 117.554688 49.5 L 124.363281 49.496094 L 124.367188 56.316406 L 117.558594 56.316406 " fill-opacity="1" fill-rule="nonzero"/><path fill="#77cb4b" d="M 124.363281 49.5 L 124.363281 56.3125 L 117.558594 56.3125 L 117.558594 49.5 L 124.363281 49.5 " fill-opacity="1" fill-rule="nonzero"/><path fill="#77cb4b" d="M 103.9375 49.503906 L 103.929688 42.6875 L 110.742188 42.6875 L 110.746094 49.503906 L 103.9375 49.503906 " fill-opacity="1" fill-rule="nonzero"/><path fill="#77cb4b" d="M 110.742188 42.6875 L 110.742188 49.5 L 103.9375 49.5 L 103.9375 42.6875 L 110.742188 42.6875 " fill-opacity="1" fill-rule="nonzero"/><path fill="#77cb4b" d="M 110.742188 49.503906 L 110.738281 42.6875 L 117.558594 42.6875 L 117.5625 49.503906 L 110.742188 49.503906 " fill-opacity="1" fill-rule="nonzero"/><path fill="#77cb4b" d="M 117.558594 42.6875 L 117.558594 49.5 L 110.742188 49.5 L 110.742188 42.6875 L 117.558594 42.6875 " fill-opacity="1" fill-rule="nonzero"/><g clip-path="url(#id1)"><path fill="#77cb4b" d="M 29.023438 63.132812 L 29.019531 49.5 L 35.839844 49.496094 L 35.835938 42.6875 L 56.269531 42.6875 L 56.265625 29.058594 L 63.074219 29.054688 L 63.070312 22.238281 L 83.507812 22.234375 L 83.503906 15.425781 L 103.9375 15.421875 L 103.941406 22.238281 L 131.171875 22.234375 L 131.175781 29.058594 L 144.792969 29.054688 L 144.796875 42.6875 L 165.21875 42.6875 L 165.222656 49.5 L 144.792969 49.503906 L 144.796875 56.3125 L 131.171875 56.316406 L 131.167969 42.6875 L 124.363281 42.695312 L 124.359375 35.871094 L 110.742188 35.875 L 110.738281 29.058594 L 97.121094 29.0625 L 97.125 35.871094 L 103.9375 35.863281 L 103.941406 42.6875 L 90.3125 42.695312 L 90.308594 35.871094 L 76.699219 35.875 L 76.699219 42.6875 L 69.890625 42.695312 L 69.894531 49.5 L 49.460938 49.503906 L 49.46875 56.3125 L 35.839844 56.316406 L 35.84375 63.132812 L 29.023438 63.132812 " fill-opacity="1" fill-rule="nonzero"/><path fill="#77cb4b" d="M 165.21875 42.6875 L 165.21875 49.5 L 144.792969 49.5 L 144.792969 56.3125 L 131.171875 56.3125 L 131.171875 42.6875 L 124.363281 42.6875 L 124.363281 35.871094 L 110.742188 35.871094 L 110.742188 29.058594 L 97.121094 29.058594 L 97.121094 35.871094 L 103.9375 35.871094 L 103.9375 42.6875 L 90.3125 42.6875 L 90.3125 35.871094 L 76.699219 35.871094 L 76.699219 42.6875 L 69.890625 42.6875 L 69.890625 49.5 L 49.460938 49.5 L 49.460938 56.3125 L 35.839844 56.3125 L 35.839844 63.128906 L 29.023438 63.128906 L 29.023438 49.5 L 35.839844 49.5 L 35.839844 42.6875 L 56.269531 42.6875 L 56.269531 29.058594 L 63.074219 29.058594 L 63.074219 22.238281 L 83.507812 22.238281 L 83.507812 15.425781 L 103.9375 15.425781 L 103.9375 22.238281 L 131.171875 22.238281 L 131.171875 29.058594 L 144.792969 29.058594 L 144.792969 42.6875 L 165.21875 42.6875 " fill-opacity="1" fill-rule="nonzero"/></g><path fill="#77cb4b" d="M 165.21875 69.949219 L 165.210938 63.128906 L 158.410156 63.132812 L 158.40625 56.3125 L 165.21875 56.308594 L 165.210938 49.5 L 172.03125 49.496094 L 172.035156 69.949219 L 165.21875 69.949219 " fill-opacity="1" fill-rule="nonzero"/><path fill="#77cb4b" d="M 172.03125 49.5 L 172.03125 69.945312 L 165.21875 69.945312 L 165.21875 63.128906 L 158.410156 63.128906 L 158.410156 56.3125 L 165.21875 56.3125 L 165.21875 49.5 L 172.03125 49.5 " fill-opacity="1" fill-rule="nonzero"/><g clip-path="url(#id2)"><path fill="#6f421a" d="M 110.742188 172.164062 L 110.738281 165.347656 L 103.9375 165.351562 L 103.929688 151.714844 L 97.121094 151.71875 L 97.117188 144.898438 L 103.9375 144.898438 L 103.929688 138.089844 L 97.121094 138.09375 L 97.117188 131.277344 L 103.9375 131.273438 L 103.929688 117.648438 L 117.558594 117.640625 L 117.554688 110.824219 L 131.171875 110.820312 L 131.175781 117.648438 L 124.363281 117.648438 L 124.367188 124.457031 L 110.742188 124.460938 L 110.746094 158.527344 L 117.558594 158.523438 L 117.5625 165.347656 L 124.363281 165.34375 L 124.367188 172.164062 L 110.742188 172.164062 " fill-opacity="1" fill-rule="nonzero"/><path fill="#6f421a" d="M 131.171875 110.824219 L 131.171875 117.648438 L 124.363281 117.648438 L 124.363281 124.457031 L 110.742188 124.457031 L 110.742188 158.527344 L 117.558594 158.527344 L 117.558594 165.347656 L 124.363281 165.347656 L 124.363281 172.160156 L 110.742188 172.160156 L 110.742188 165.347656 L 103.9375 165.347656 L 103.9375 151.714844 L 97.121094 151.714844 L 97.121094 144.898438 L 103.9375 144.898438 L 103.9375 138.089844 L 97.121094 138.089844 L 97.121094 131.277344 L 103.9375 131.277344 L 103.9375 117.648438 L 117.558594 117.648438 L 117.558594 110.824219 L 131.171875 110.824219 " fill-opacity="1" fill-rule="nonzero"/></g><g clip-path="url(#id3)"><path fill="#ac5e1e" d="M 76.699219 172.164062 L 76.691406 165.347656 L 83.507812 165.34375 L 83.503906 158.527344 L 90.3125 158.523438 L 90.308594 131.277344 L 76.699219 131.28125 L 76.691406 124.457031 L 83.507812 124.453125 L 83.503906 117.648438 L 69.890625 117.648438 L 69.886719 104.015625 L 76.699219 104.011719 L 76.699219 110.824219 L 90.3125 110.820312 L 90.320312 117.648438 L 103.9375 117.640625 L 103.941406 131.277344 L 97.121094 131.28125 L 97.125 138.089844 L 103.9375 138.085938 L 103.941406 144.898438 L 97.121094 144.902344 L 97.125 151.714844 L 103.9375 151.710938 L 103.941406 165.347656 L 110.742188 165.34375 L 110.746094 172.164062 L 76.699219 172.164062 " fill-opacity="1" fill-rule="nonzero"/><path fill="#ac5e1e" d="M 110.742188 165.347656 L 110.742188 172.160156 L 76.699219 172.160156 L 76.699219 165.347656 L 83.507812 165.347656 L 83.507812 158.527344 L 90.3125 158.527344 L 90.3125 131.277344 L 76.699219 131.277344 L 76.699219 124.457031 L 83.507812 124.457031 L 83.507812 117.648438 L 69.890625 117.648438 L 69.890625 104.015625 L 76.699219 104.015625 L 76.699219 110.824219 L 90.3125 110.824219 L 90.3125 117.648438 L 103.9375 117.648438 L 103.9375 131.277344 L 97.121094 131.277344 L 97.121094 138.089844 L 103.9375 138.089844 L 103.9375 144.898438 L 97.121094 144.898438 L 97.121094 151.714844 L 103.9375 151.714844 L 103.9375 165.347656 L 110.742188 165.347656 " fill-opacity="1" fill-rule="nonzero"/></g><path fill="#ac5e1e" d="M 83.507812 158.53125 L 83.503906 138.089844 L 69.890625 138.09375 L 69.886719 131.277344 L 56.269531 131.28125 L 56.265625 124.457031 L 76.699219 124.453125 L 76.699219 131.277344 L 90.3125 131.273438 L 90.320312 158.53125 L 83.507812 158.53125 " fill-opacity="1" fill-rule="nonzero"/><path fill="#ac5e1e" d="M 90.3125 131.277344 L 90.3125 158.527344 L 83.507812 158.527344 L 83.507812 138.089844 L 69.890625 138.089844 L 69.890625 131.277344 L 56.269531 131.277344 L 56.269531 124.457031 L 76.699219 124.457031 L 76.699219 131.277344 L 90.3125 131.277344 " fill-opacity="1" fill-rule="nonzero"/><g clip-path="url(#id4)"><path fill="#ac5e1e" d="M 69.890625 172.164062 L 69.886719 165.347656 L 76.699219 165.34375 L 76.699219 172.164062 L 69.890625 172.164062 " fill-opacity="1" fill-rule="nonzero"/><path fill="#ac5e1e" d="M 69.890625 165.347656 L 76.699219 165.347656 L 76.699219 172.160156 L 69.890625 172.160156 L 69.890625 165.347656 " fill-opacity="1" fill-rule="nonzero"/></g><path fill="#ac5e1e" d="M 76.699219 165.351562 L 76.691406 158.527344 L 83.507812 158.523438 L 83.511719 165.351562 L 76.699219 165.351562 " fill-opacity="1" fill-rule="nonzero"/><path fill="#ac5e1e" d="M 76.699219 158.527344 L 83.507812 158.527344 L 83.507812 165.347656 L 76.699219 165.347656 L 76.699219 158.527344 " fill-opacity="1" fill-rule="nonzero"/><path fill="#27813b" d="M 63.074219 138.09375 L 63.070312 131.277344 L 69.890625 131.273438 L 69.894531 138.09375 L 63.074219 138.09375 " fill-opacity="1" fill-rule="nonzero"/><path fill="#27813b" d="M 63.074219 131.277344 L 69.890625 131.277344 L 69.890625 138.089844 L 63.074219 138.089844 L 63.074219 131.277344 " fill-opacity="1" fill-rule="nonzero"/><path fill="#27813b" d="M 49.460938 138.09375 L 49.457031 131.277344 L 56.269531 131.273438 L 56.273438 138.09375 L 49.460938 138.09375 " fill-opacity="1" fill-rule="nonzero"/><path fill="#27813b" d="M 49.460938 138.089844 L 49.460938 131.277344 L 56.269531 131.277344 L 56.269531 138.089844 L 49.460938 138.089844 " fill-opacity="1" fill-rule="nonzero"/><path fill="#27813b" d="M 117.558594 138.09375 L 117.554688 131.277344 L 110.742188 131.28125 L 110.738281 124.457031 L 124.363281 124.453125 L 124.359375 117.648438 L 131.171875 117.640625 L 131.167969 110.824219 L 117.558594 110.832031 L 117.554688 97.203125 L 131.171875 97.199219 L 131.167969 90.382812 L 137.988281 90.378906 L 137.980469 83.570312 L 144.792969 83.566406 L 144.789062 76.753906 L 151.597656 76.75 L 151.601562 83.570312 L 158.410156 83.566406 L 158.414062 90.382812 L 151.597656 90.386719 L 151.601562 97.203125 L 144.792969 97.207031 L 144.796875 104.015625 L 137.988281 104.019531 L 137.988281 110.824219 L 151.597656 110.820312 L 151.59375 104.015625 L 165.21875 104.011719 L 165.222656 117.648438 L 158.410156 117.648438 L 158.414062 124.457031 L 151.597656 124.460938 L 151.601562 131.277344 L 144.792969 131.28125 L 144.789062 124.457031 L 137.988281 124.460938 L 137.988281 131.277344 L 131.171875 131.28125 L 131.175781 138.09375 L 117.558594 138.09375 " fill-opacity="1" fill-rule="nonzero"/><path fill="#27813b" d="M 165.21875 104.015625 L 165.21875 117.648438 L 158.410156 117.648438 L 158.410156 124.457031 L 151.597656 124.457031 L 151.597656 131.277344 L 144.792969 131.277344 L 144.792969 124.457031 L 137.988281 124.457031 L 137.988281 131.277344 L 131.171875 131.277344 L 131.171875 138.089844 L 117.558594 138.089844 L 117.558594 131.277344 L 110.742188 131.277344 L 110.742188 124.457031 L 124.363281 124.457031 L 124.363281 117.648438 L 131.171875 117.648438 L 131.171875 110.824219 L 117.558594 110.824219 L 117.558594 97.203125 L 131.171875 97.203125 L 131.171875 90.382812 L 137.988281 90.382812 L 137.988281 83.570312 L 144.792969 83.570312 L 144.792969 76.753906 L 151.597656 76.753906 L 151.597656 83.570312 L 158.410156 83.570312 L 158.410156 90.382812 L 151.597656 90.382812 L 151.597656 97.203125 L 144.792969 97.203125 L 144.792969 104.015625 L 137.988281 104.015625 L 137.988281 110.824219 L 151.597656 110.824219 L 151.597656 104.015625 L 165.21875 104.015625 " fill-opacity="1" fill-rule="nonzero"/><path fill="#27813b" d="M 42.648438 131.28125 L 42.640625 124.457031 L 35.839844 124.460938 L 35.835938 117.648438 L 29.023438 117.648438 L 29.019531 110.824219 L 22.21875 110.832031 L 22.214844 104.015625 L 15.410156 104.019531 L 15.410156 97.203125 L 29.023438 97.199219 L 29.03125 104.015625 L 42.648438 104.011719 L 42.652344 110.824219 L 56.269531 110.820312 L 56.273438 117.648438 L 63.074219 117.640625 L 63.070312 104.015625 L 56.269531 104.019531 L 56.265625 97.203125 L 63.074219 97.199219 L 63.070312 90.382812 L 42.648438 90.386719 L 42.640625 76.753906 L 49.460938 76.75 L 49.457031 69.945312 L 56.269531 69.9375 L 56.273438 83.570312 L 76.699219 83.566406 L 76.699219 90.382812 L 90.3125 90.378906 L 90.308594 83.570312 L 110.742188 83.566406 L 110.738281 69.945312 L 124.363281 69.9375 L 124.367188 76.753906 L 117.558594 76.761719 L 117.5625 90.382812 L 97.121094 90.386719 L 97.125 110.824219 L 117.558594 110.820312 L 117.5625 117.648438 L 90.3125 117.648438 L 90.308594 110.824219 L 76.699219 110.832031 L 76.691406 104.015625 L 69.890625 104.019531 L 69.894531 117.648438 L 83.507812 117.640625 L 83.511719 124.457031 L 49.460938 124.460938 L 49.46875 131.28125 L 42.648438 131.28125 " fill-opacity="1" fill-rule="nonzero"/><path fill="#27813b" d="M 117.558594 110.824219 L 117.558594 117.648438 L 90.3125 117.648438 L 90.3125 110.824219 L 76.699219 110.824219 L 76.699219 104.015625 L 69.890625 104.015625 L 69.890625 117.648438 L 83.507812 117.648438 L 83.507812 124.457031 L 49.460938 124.457031 L 49.460938 131.277344 L 42.648438 131.277344 L 42.648438 124.457031 L 35.839844 124.457031 L 35.839844 117.648438 L 29.023438 117.648438 L 29.023438 110.824219 L 22.21875 110.824219 L 22.21875 104.015625 L 15.410156 104.015625 L 15.410156 97.203125 L 29.023438 97.203125 L 29.023438 104.015625 L 42.648438 104.015625 L 42.648438 110.824219 L 56.269531 110.824219 L 56.269531 117.648438 L 63.074219 117.648438 L 63.074219 104.015625 L 56.269531 104.015625 L 56.269531 97.203125 L 63.074219 97.203125 L 63.074219 90.382812 L 42.648438 90.382812 L 42.648438 76.753906 L 49.460938 76.753906 L 49.460938 69.945312 L 56.269531 69.945312 L 56.269531 83.570312 L 76.699219 83.570312 L 76.699219 90.382812 L 90.3125 90.382812 L 90.3125 83.570312 L 110.742188 83.570312 L 110.742188 69.945312 L 124.363281 69.945312 L 124.363281 76.753906 L 117.558594 76.753906 L 117.558594 90.382812 L 97.121094 90.382812 L 97.121094 110.824219 L 117.558594 110.824219 " fill-opacity="1" fill-rule="nonzero"/><path fill="#4cbc38" d="M 42.648438 42.695312 L 42.640625 35.871094 L 49.460938 35.863281 L 49.457031 29.058594 L 56.269531 29.054688 L 56.273438 42.695312 L 42.648438 42.695312 " fill-opacity="1" fill-rule="nonzero"/><path fill="#4cbc38" d="M 42.648438 42.6875 L 42.648438 35.871094 L 49.460938 35.871094 L 49.460938 29.058594 L 56.269531 29.058594 L 56.269531 42.6875 L 42.648438 42.6875 " fill-opacity="1" fill-rule="nonzero"/><path fill="#4cbc38" d="M 83.507812 104.019531 L 83.503906 97.203125 L 90.3125 97.199219 L 90.320312 104.019531 L 83.507812 104.019531 " fill-opacity="1" fill-rule="nonzero"/><path fill="#4cbc38" d="M 90.3125 97.203125 L 90.3125 104.015625 L 83.507812 104.015625 L 83.507812 97.203125 L 90.3125 97.203125 " fill-opacity="1" fill-rule="nonzero"/><path fill="#4cbc38" d="M 131.171875 42.695312 L 131.167969 35.871094 L 137.988281 35.863281 L 137.988281 42.695312 L 131.171875 42.695312 " fill-opacity="1" fill-rule="nonzero"/><path fill="#4cbc38" d="M 137.988281 42.6875 L 131.171875 42.6875 L 131.171875 35.871094 L 137.988281 35.871094 L 137.988281 42.6875 " fill-opacity="1" fill-rule="nonzero"/><path fill="#4cbc38" d="M 144.792969 42.695312 L 144.789062 29.058594 L 151.597656 29.054688 L 151.601562 35.871094 L 158.410156 35.863281 L 158.414062 42.695312 L 144.792969 42.695312 " fill-opacity="1" fill-rule="nonzero"/><path fill="#4cbc38" d="M 144.792969 42.6875 L 144.792969 29.058594 L 151.597656 29.058594 L 151.597656 35.871094 L 158.410156 35.871094 L 158.410156 42.6875 L 144.792969 42.6875 " fill-opacity="1" fill-rule="nonzero"/><g clip-path="url(#id5)"><path fill="#4cbc38" d="M 103.941406 49.5 L 117.558594 49.496094 L 117.554688 42.6875 L 103.9375 42.695312 Z M 117.5625 56.3125 L 124.363281 56.308594 L 124.359375 49.5 L 117.558594 49.503906 Z M 56.269531 117.648438 L 56.265625 110.824219 L 42.648438 110.832031 L 42.640625 104.015625 L 29.023438 104.019531 L 29.019531 97.203125 L 8.601562 97.207031 L 8.597656 90.382812 L 15.410156 90.378906 L 15.410156 69.945312 L 22.21875 69.9375 L 22.214844 56.3125 L 29.023438 56.308594 L 29.03125 63.128906 L 35.839844 63.125 L 35.835938 56.3125 L 49.460938 56.308594 L 49.457031 49.5 L 69.890625 49.496094 L 69.886719 42.6875 L 76.699219 42.6875 L 76.691406 35.871094 L 90.3125 35.863281 L 90.320312 42.6875 L 103.9375 42.6875 L 103.929688 35.871094 L 97.121094 35.875 L 97.117188 29.058594 L 110.742188 29.054688 L 110.746094 35.871094 L 124.363281 35.863281 L 124.367188 42.6875 L 131.171875 42.6875 L 131.175781 56.3125 L 144.792969 56.308594 L 144.789062 49.5 L 165.21875 49.496094 L 165.222656 56.3125 L 158.410156 56.316406 L 158.414062 63.128906 L 165.21875 63.125 L 165.222656 69.945312 L 178.839844 69.9375 L 178.84375 83.570312 L 172.03125 83.574219 L 172.035156 104.015625 L 151.597656 104.019531 L 151.601562 110.824219 L 137.988281 110.832031 L 137.980469 104.015625 L 144.792969 104.011719 L 144.789062 97.203125 L 151.597656 97.199219 L 151.59375 90.382812 L 158.410156 90.378906 L 158.40625 83.570312 L 151.597656 83.574219 L 151.59375 76.753906 L 144.792969 76.761719 L 144.796875 83.570312 L 137.988281 83.574219 L 137.988281 90.382812 L 131.171875 90.386719 L 131.175781 97.203125 L 117.558594 97.207031 L 117.5625 110.824219 L 97.121094 110.832031 L 97.117188 90.382812 L 117.558594 90.378906 L 117.554688 76.753906 L 124.363281 76.75 L 124.359375 69.945312 L 110.742188 69.949219 L 110.746094 83.570312 L 90.3125 83.574219 L 90.320312 90.382812 L 76.699219 90.386719 L 76.691406 83.570312 L 56.269531 83.574219 L 56.265625 69.945312 L 49.460938 69.949219 L 49.46875 76.753906 L 42.648438 76.761719 L 42.652344 90.382812 L 63.074219 90.378906 L 63.078125 97.203125 L 56.269531 97.207031 L 56.273438 104.015625 L 63.074219 104.011719 L 63.078125 117.648438 L 56.269531 117.648438 " fill-opacity="1" fill-rule="nonzero"/><path fill="#4cbc38" d="M 178.839844 69.945312 L 178.839844 83.570312 L 172.03125 83.570312 L 172.03125 104.015625 L 151.597656 104.015625 L 151.597656 110.824219 L 137.988281 110.824219 L 137.988281 104.015625 L 144.792969 104.015625 L 144.792969 97.203125 L 151.597656 97.203125 L 151.597656 90.382812 L 158.410156 90.382812 L 158.410156 83.570312 L 151.597656 83.570312 L 151.597656 76.753906 L 144.792969 76.753906 L 144.792969 83.570312 L 137.988281 83.570312 L 137.988281 90.382812 L 131.171875 90.382812 L 131.171875 97.203125 L 117.558594 97.203125 L 117.558594 110.824219 L 97.121094 110.824219 L 97.121094 90.382812 L 117.558594 90.382812 L 117.558594 76.753906 L 124.363281 76.753906 L 124.363281 69.945312 L 110.742188 69.945312 L 110.742188 83.570312 L 90.3125 83.570312 L 90.3125 90.382812 L 76.699219 90.382812 L 76.699219 83.570312 L 56.269531 83.570312 L 56.269531 69.945312 L 49.460938 69.945312 L 49.460938 76.753906 L 42.648438 76.753906 L 42.648438 90.382812 L 63.074219 90.382812 L 63.074219 97.203125 L 56.269531 97.203125 L 56.269531 104.015625 L 63.074219 104.015625 L 63.074219 117.648438 L 56.269531 117.648438 L 56.269531 110.824219 L 42.648438 110.824219 L 42.648438 104.015625 L 29.023438 104.015625 L 29.023438 97.203125 L 8.601562 97.203125 L 8.601562 90.382812 L 15.410156 90.382812 L 15.410156 69.945312 L 22.21875 69.945312 L 22.21875 56.3125 L 29.023438 56.3125 L 29.023438 63.128906 L 35.839844 63.128906 L 35.839844 56.3125 L 49.460938 56.3125 L 49.460938 49.5 L 69.890625 49.5 L 69.890625 42.6875 L 76.699219 42.6875 L 76.699219 35.871094 L 90.3125 35.871094 L 90.3125 42.6875 L 103.9375 42.6875 L 103.9375 49.5 L 117.558594 49.5 L 117.558594 56.3125 L 124.363281 56.3125 L 124.363281 49.5 L 117.558594 49.5 L 117.558594 42.6875 L 103.9375 42.6875 L 103.9375 35.871094 L 97.121094 35.871094 L 97.121094 29.058594 L 110.742188 29.058594 L 110.742188 35.871094 L 124.363281 35.871094 L 124.363281 42.6875 L 131.171875 42.6875 L 131.171875 56.3125 L 144.792969 56.3125 L 144.792969 49.5 L 165.21875 49.5 L 165.21875 56.3125 L 158.410156 56.3125 L 158.410156 63.128906 L 165.21875 63.128906 L 165.21875 69.945312 L 178.839844 69.945312 " fill-opacity="1" fill-rule="nonzero"/></g><path fill="#4cbc38" d="M 103.9375 49.503906 L 103.929688 42.6875 L 117.558594 42.6875 L 117.5625 49.503906 L 103.9375 49.503906 " fill-opacity="1" fill-rule="nonzero"/><path fill="#4cbc38" d="M 117.558594 42.6875 L 117.558594 49.5 L 103.9375 49.5 L 103.9375 42.6875 L 117.558594 42.6875 " fill-opacity="1" fill-rule="nonzero"/><path fill="#4cbc38" d="M 117.558594 56.316406 L 117.554688 49.5 L 124.363281 49.496094 L 124.367188 56.316406 L 117.558594 56.316406 " fill-opacity="1" fill-rule="nonzero"/><path fill="#4cbc38" d="M 124.363281 49.5 L 124.363281 56.3125 L 117.558594 56.3125 L 117.558594 49.5 L 124.363281 49.5 " fill-opacity="1" fill-rule="nonzero"/></svg>