<svg xmlns="http://www.w3.org/2000/svg" xmlns:xlink="http://www.w3.org/1999/xlink" width="250" zoomAndPan="magnify" viewBox="0 0 187.5 187.499992" height="250" preserveAspectRatio="xMidYMid meet" version="1.0"><defs><clipPath id="id1"><path d="M 7 183 L 180 183 L 180 187 L 7 187 Z M 7 183 " clip-rule="nonzero"/></clipPath><clipPath id="id2"><path d="M 183 173 L 187 173 L 187 181 L 183 181 Z M 183 173 " clip-rule="nonzero"/></clipPath><clipPath id="id3"><path d="M 83 115.546875 L 98 115.546875 L 98 120 L 83 120 Z M 83 115.546875 " clip-rule="nonzero"/></clipPath></defs><path fill="#227135" d="M 176.382812 183.9375 L 179.972656 183.9375 L 179.972656 180.339844 L 176.382812 180.339844 L 176.382812 183.9375 " fill-opacity="1" fill-rule="nonzero"/><path fill="#227135" d="M 172.789062 183.9375 L 176.382812 183.9375 L 176.382812 180.339844 L 172.789062 180.339844 L 172.789062 183.9375 " fill-opacity="1" fill-rule="nonzero"/><path fill="#227135" d="M 169.199219 183.9375 L 172.789062 183.9375 L 172.789062 180.339844 L 169.199219 180.339844 L 169.199219 183.9375 " fill-opacity="1" fill-rule="nonzero"/><path fill="#227135" d="M 165.609375 183.9375 L 169.199219 183.9375 L 169.199219 180.339844 L 165.609375 180.339844 L 165.609375 183.9375 " fill-opacity="1" fill-rule="nonzero"/><path fill="#227135" d="M 162.015625 183.9375 L 165.609375 183.9375 L 165.609375 180.339844 L 162.015625 180.339844 L 162.015625 183.9375 " fill-opacity="1" fill-rule="nonzero"/><path fill="#227135" d="M 158.425781 183.9375 L 162.015625 183.9375 L 162.015625 180.339844 L 158.425781 180.339844 L 158.425781 183.9375 " fill-opacity="1" fill-rule="nonzero"/><path fill="#227135" d="M 154.832031 183.9375 L 158.425781 183.9375 L 158.425781 180.339844 L 154.832031 180.339844 L 154.832031 183.9375 " fill-opacity="1" fill-rule="nonzero"/><path fill="#227135" d="M 151.242188 183.9375 L 154.832031 183.9375 L 154.832031 180.339844 L 151.242188 180.339844 L 151.242188 183.9375 " fill-opacity="1" fill-rule="nonzero"/><path fill="#227135" d="M 147.648438 183.9375 L 151.242188 183.9375 L 151.242188 180.339844 L 147.648438 180.339844 L 147.648438 183.9375 " fill-opacity="1" fill-rule="nonzero"/><path fill="#227135" d="M 144.058594 183.9375 L 147.648438 183.9375 L 147.648438 180.339844 L 144.058594 180.339844 L 144.058594 183.9375 " fill-opacity="1" fill-rule="nonzero"/><path fill="#227135" d="M 140.464844 183.9375 L 144.058594 183.9375 L 144.058594 180.339844 L 140.464844 180.339844 L 140.464844 183.9375 " fill-opacity="1" fill-rule="nonzero"/><path fill="#2c873b" d="M 136.875 183.9375 L 140.464844 183.9375 L 140.464844 180.339844 L 136.875 180.339844 L 136.875 183.9375 " fill-opacity="1" fill-rule="nonzero"/><path fill="#2c873b" d="M 133.285156 183.9375 L 136.875 183.9375 L 136.875 180.339844 L 133.285156 180.339844 L 133.285156 183.9375 " fill-opacity="1" fill-rule="nonzero"/><path fill="#227135" d="M 179.972656 180.339844 L 183.566406 180.339844 L 183.566406 176.742188 L 179.972656 176.742188 L 179.972656 180.339844 " fill-opacity="1" fill-rule="nonzero"/><path fill="#227135" d="M 176.382812 180.339844 L 179.972656 180.339844 L 179.972656 176.742188 L 176.382812 176.742188 L 176.382812 180.339844 " fill-opacity="1" fill-rule="nonzero"/><path fill="#227135" d="M 172.789062 180.339844 L 176.382812 180.339844 L 176.382812 176.742188 L 172.789062 176.742188 L 172.789062 180.339844 " fill-opacity="1" fill-rule="nonzero"/><path fill="#227135" d="M 169.199219 180.339844 L 172.789062 180.339844 L 172.789062 176.742188 L 169.199219 176.742188 L 169.199219 180.339844 " fill-opacity="1" fill-rule="nonzero"/><path fill="#227135" d="M 165.609375 180.339844 L 169.199219 180.339844 L 169.199219 176.742188 L 165.609375 176.742188 L 165.609375 180.339844 " fill-opacity="1" fill-rule="nonzero"/><path fill="#227135" d="M 162.015625 180.339844 L 165.609375 180.339844 L 165.609375 176.742188 L 162.015625 176.742188 L 162.015625 180.339844 " fill-opacity="1" fill-rule="nonzero"/><path fill="#227135" d="M 158.425781 180.339844 L 162.015625 180.339844 L 162.015625 176.742188 L 158.425781 176.742188 L 158.425781 180.339844 " fill-opacity="1" fill-rule="nonzero"/><path fill="#227135" d="M 154.832031 180.339844 L 158.425781 180.339844 L 158.425781 176.742188 L 154.832031 176.742188 L 154.832031 180.339844 " fill-opacity="1" fill-rule="nonzero"/><path fill="#257937" d="M 151.242188 180.339844 L 154.832031 180.339844 L 154.832031 176.742188 L 151.242188 176.742188 L 151.242188 180.339844 " fill-opacity="1" fill-rule="nonzero"/><path fill="#2c873b" d="M 147.648438 180.339844 L 151.242188 180.339844 L 151.242188 176.742188 L 147.648438 176.742188 L 147.648438 180.339844 " fill-opacity="1" fill-rule="nonzero"/><path fill="#2c873b" d="M 144.058594 180.339844 L 147.648438 180.339844 L 147.648438 176.742188 L 144.058594 176.742188 L 144.058594 180.339844 " fill-opacity="1" fill-rule="nonzero"/><path fill="#2c873b" d="M 140.464844 180.339844 L 144.058594 180.339844 L 144.058594 176.742188 L 140.464844 176.742188 L 140.464844 180.339844 " fill-opacity="1" fill-rule="nonzero"/><path fill="#2c873b" d="M 136.875 180.339844 L 140.464844 180.339844 L 140.464844 176.742188 L 136.875 176.742188 L 136.875 180.339844 " fill-opacity="1" fill-rule="nonzero"/><path fill="#2c873b" d="M 133.285156 180.339844 L 136.875 180.339844 L 136.875 176.742188 L 133.285156 176.742188 L 133.285156 180.339844 " fill-opacity="1" fill-rule="nonzero"/><path fill="#227135" d="M 179.972656 176.742188 L 183.566406 176.742188 L 183.566406 173.144531 L 179.972656 173.144531 L 179.972656 176.742188 " fill-opacity="1" fill-rule="nonzero"/><path fill="#227135" d="M 176.382812 176.742188 L 179.972656 176.742188 L 179.972656 173.144531 L 176.382812 173.144531 L 176.382812 176.742188 " fill-opacity="1" fill-rule="nonzero"/><path fill="#227135" d="M 172.789062 176.742188 L 176.382812 176.742188 L 176.382812 173.144531 L 172.789062 173.144531 L 172.789062 176.742188 " fill-opacity="1" fill-rule="nonzero"/><path fill="#227135" d="M 169.199219 176.742188 L 172.789062 176.742188 L 172.789062 173.144531 L 169.199219 173.144531 L 169.199219 176.742188 " fill-opacity="1" fill-rule="nonzero"/><path fill="#227135" d="M 165.609375 176.742188 L 169.199219 176.742188 L 169.199219 173.144531 L 165.609375 173.144531 L 165.609375 176.742188 " fill-opacity="1" fill-rule="nonzero"/><path fill="#227135" d="M 162.015625 176.742188 L 165.609375 176.742188 L 165.609375 173.144531 L 162.015625 173.144531 L 162.015625 176.742188 " fill-opacity="1" fill-rule="nonzero"/><path fill="#227135" d="M 158.425781 176.742188 L 162.015625 176.742188 L 162.015625 173.144531 L 158.425781 173.144531 L 158.425781 176.742188 " fill-opacity="1" fill-rule="nonzero"/><path fill="#267b38" d="M 154.832031 176.742188 L 158.425781 176.742188 L 158.425781 173.144531 L 154.832031 173.144531 L 154.832031 176.742188 " fill-opacity="1" fill-rule="nonzero"/><path fill="#2c873b" d="M 151.242188 176.742188 L 154.832031 176.742188 L 154.832031 173.144531 L 151.242188 173.144531 L 151.242188 176.742188 " fill-opacity="1" fill-rule="nonzero"/><path fill="#2c873b" d="M 147.648438 176.742188 L 151.242188 176.742188 L 151.242188 173.144531 L 147.648438 173.144531 L 147.648438 176.742188 " fill-opacity="1" fill-rule="nonzero"/><path fill="#2c873b" d="M 144.058594 176.742188 L 147.648438 176.742188 L 147.648438 173.144531 L 144.058594 173.144531 L 144.058594 176.742188 " fill-opacity="1" fill-rule="nonzero"/><path fill="#2c873b" d="M 140.464844 176.742188 L 144.058594 176.742188 L 144.058594 173.144531 L 140.464844 173.144531 L 140.464844 176.742188 " fill-opacity="1" fill-rule="nonzero"/><path fill="#227135" d="M 176.382812 173.144531 L 179.972656 173.144531 L 179.972656 169.542969 L 176.382812 169.542969 L 176.382812 173.144531 " fill-opacity="1" fill-rule="nonzero"/><path fill="#227135" d="M 172.789062 173.144531 L 176.382812 173.144531 L 176.382812 169.542969 L 172.789062 169.542969 L 172.789062 173.144531 " fill-opacity="1" fill-rule="nonzero"/><path fill="#227135" d="M 169.199219 173.144531 L 172.789062 173.144531 L 172.789062 169.542969 L 169.199219 169.542969 L 169.199219 173.144531 " fill-opacity="1" fill-rule="nonzero"/><path fill="#227135" d="M 165.609375 173.144531 L 169.199219 173.144531 L 169.199219 169.542969 L 165.609375 169.542969 L 165.609375 173.144531 " fill-opacity="1" fill-rule="nonzero"/><path fill="#227135" d="M 162.015625 173.144531 L 165.609375 173.144531 L 165.609375 169.542969 L 162.015625 169.542969 L 162.015625 173.144531 " fill-opacity="1" fill-rule="nonzero"/><path fill="#227135" d="M 158.425781 173.144531 L 162.015625 173.144531 L 162.015625 169.542969 L 158.425781 169.542969 L 158.425781 173.144531 " fill-opacity="1" fill-rule="nonzero"/><path fill="#2c873b" d="M 154.832031 173.144531 L 158.425781 173.144531 L 158.425781 169.542969 L 154.832031 169.542969 L 154.832031 173.144531 " fill-opacity="1" fill-rule="nonzero"/><path fill="#2c873b" d="M 151.242188 173.144531 L 154.832031 173.144531 L 154.832031 169.542969 L 151.242188 169.542969 L 151.242188 173.144531 " fill-opacity="1" fill-rule="nonzero"/><path fill="#2c873b" d="M 147.648438 173.144531 L 151.242188 173.144531 L 151.242188 169.542969 L 147.648438 169.542969 L 147.648438 173.144531 " fill-opacity="1" fill-rule="nonzero"/><path fill="#2c873b" d="M 144.058594 173.144531 L 147.648438 173.144531 L 147.648438 169.542969 L 144.058594 169.542969 L 144.058594 173.144531 " fill-opacity="1" fill-rule="nonzero"/><path fill="#2c873b" d="M 140.464844 173.144531 L 144.058594 173.144531 L 144.058594 169.542969 L 140.464844 169.542969 L 140.464844 173.144531 " fill-opacity="1" fill-rule="nonzero"/><path fill="#2c873b" d="M 108.144531 173.144531 L 111.734375 173.144531 L 111.734375 169.542969 L 108.144531 169.542969 L 108.144531 173.144531 " fill-opacity="1" fill-rule="nonzero"/><path fill="#227135" d="M 165.609375 169.542969 L 169.199219 169.542969 L 169.199219 165.945312 L 165.609375 165.945312 L 165.609375 169.542969 " fill-opacity="1" fill-rule="nonzero"/><path fill="#227135" d="M 162.015625 169.542969 L 165.609375 169.542969 L 165.609375 165.945312 L 162.015625 165.945312 L 162.015625 169.542969 " fill-opacity="1" fill-rule="nonzero"/><path fill="#227135" d="M 158.425781 169.542969 L 162.015625 169.542969 L 162.015625 165.945312 L 158.425781 165.945312 L 158.425781 169.542969 " fill-opacity="1" fill-rule="nonzero"/><path fill="#227135" d="M 154.832031 169.542969 L 158.425781 169.542969 L 158.425781 165.945312 L 154.832031 165.945312 L 154.832031 169.542969 " fill-opacity="1" fill-rule="nonzero"/><path fill="#2c873b" d="M 151.242188 169.542969 L 154.832031 169.542969 L 154.832031 165.945312 L 151.242188 165.945312 L 151.242188 169.542969 " fill-opacity="1" fill-rule="nonzero"/><path fill="#2c873b" d="M 147.648438 169.542969 L 151.242188 169.542969 L 151.242188 165.945312 L 147.648438 165.945312 L 147.648438 169.542969 " fill-opacity="1" fill-rule="nonzero"/><path fill="#2c873b" d="M 144.058594 169.542969 L 147.648438 169.542969 L 147.648438 165.945312 L 144.058594 165.945312 L 144.058594 169.542969 " fill-opacity="1" fill-rule="nonzero"/><path fill="#2c873b" d="M 140.464844 169.542969 L 144.058594 169.542969 L 144.058594 165.945312 L 140.464844 165.945312 L 140.464844 169.542969 " fill-opacity="1" fill-rule="nonzero"/><path fill="#227135" d="M 108.144531 169.542969 L 111.734375 169.542969 L 111.734375 165.945312 L 108.144531 165.945312 L 108.144531 169.542969 " fill-opacity="1" fill-rule="nonzero"/><path fill="#2c873b" d="M 104.550781 169.542969 L 108.144531 169.542969 L 108.144531 165.945312 L 104.550781 165.945312 L 104.550781 169.542969 " fill-opacity="1" fill-rule="nonzero"/><path fill="#227135" d="M 162.015625 165.945312 L 165.609375 165.945312 L 165.609375 162.34375 L 162.015625 162.34375 L 162.015625 165.945312 " fill-opacity="1" fill-rule="nonzero"/><path fill="#227135" d="M 158.425781 165.945312 L 162.015625 165.945312 L 162.015625 162.34375 L 158.425781 162.34375 L 158.425781 165.945312 " fill-opacity="1" fill-rule="nonzero"/><path fill="#2c873b" d="M 154.832031 165.945312 L 158.425781 165.945312 L 158.425781 162.34375 L 154.832031 162.34375 L 154.832031 165.945312 " fill-opacity="1" fill-rule="nonzero"/><path fill="#2c873b" d="M 151.242188 165.945312 L 154.832031 165.945312 L 154.832031 162.34375 L 151.242188 162.34375 L 151.242188 165.945312 " fill-opacity="1" fill-rule="nonzero"/><path fill="#2c873b" d="M 147.648438 165.945312 L 151.242188 165.945312 L 151.242188 162.34375 L 147.648438 162.34375 L 147.648438 165.945312 " fill-opacity="1" fill-rule="nonzero"/><path fill="#2c873b" d="M 144.058594 165.945312 L 147.648438 165.945312 L 147.648438 162.34375 L 144.058594 162.34375 L 144.058594 165.945312 " fill-opacity="1" fill-rule="nonzero"/><path fill="#2c873b" d="M 140.464844 165.945312 L 144.058594 165.945312 L 144.058594 162.34375 L 140.464844 162.34375 L 140.464844 165.945312 " fill-opacity="1" fill-rule="nonzero"/><path fill="#2c873b" d="M 136.875 165.945312 L 140.464844 165.945312 L 140.464844 162.34375 L 136.875 162.34375 L 136.875 165.945312 " fill-opacity="1" fill-rule="nonzero"/><path fill="#227135" d="M 104.550781 165.945312 L 108.144531 165.945312 L 108.144531 162.34375 L 104.550781 162.34375 L 104.550781 165.945312 " fill-opacity="1" fill-rule="nonzero"/><path fill="#2c873b" d="M 100.960938 165.945312 L 104.550781 165.945312 L 104.550781 162.34375 L 100.960938 162.34375 L 100.960938 165.945312 " fill-opacity="1" fill-rule="nonzero"/><path fill="#2c873b" d="M 97.371094 165.945312 L 100.960938 165.945312 L 100.960938 162.34375 L 97.371094 162.34375 L 97.371094 165.945312 " fill-opacity="1" fill-rule="nonzero"/><path fill="#2c873b" d="M 72.226562 165.945312 L 75.816406 165.945312 L 75.816406 162.34375 L 72.226562 162.34375 L 72.226562 165.945312 " fill-opacity="1" fill-rule="nonzero"/><path fill="#227135" d="M 158.425781 162.34375 L 162.015625 162.34375 L 162.015625 158.746094 L 158.425781 158.746094 L 158.425781 162.34375 " fill-opacity="1" fill-rule="nonzero"/><path fill="#227135" d="M 154.832031 162.34375 L 158.425781 162.34375 L 158.425781 158.746094 L 154.832031 158.746094 L 154.832031 162.34375 " fill-opacity="1" fill-rule="nonzero"/><path fill="#2c873b" d="M 151.242188 162.34375 L 154.832031 162.34375 L 154.832031 158.746094 L 151.242188 158.746094 L 151.242188 162.34375 " fill-opacity="1" fill-rule="nonzero"/><path fill="#2c873b" d="M 147.648438 162.34375 L 151.242188 162.34375 L 151.242188 158.746094 L 147.648438 158.746094 L 147.648438 162.34375 " fill-opacity="1" fill-rule="nonzero"/><path fill="#2c873b" d="M 144.058594 162.34375 L 147.648438 162.34375 L 147.648438 158.746094 L 144.058594 158.746094 L 144.058594 162.34375 " fill-opacity="1" fill-rule="nonzero"/><path fill="#2c873b" d="M 140.464844 162.34375 L 144.058594 162.34375 L 144.058594 158.746094 L 140.464844 158.746094 L 140.464844 162.34375 " fill-opacity="1" fill-rule="nonzero"/><path fill="#2c873b" d="M 136.875 162.34375 L 140.464844 162.34375 L 140.464844 158.746094 L 136.875 158.746094 L 136.875 162.34375 " fill-opacity="1" fill-rule="nonzero"/><path fill="#227135" d="M 100.960938 162.34375 L 104.550781 162.34375 L 104.550781 158.746094 L 100.960938 158.746094 L 100.960938 162.34375 " fill-opacity="1" fill-rule="nonzero"/><path fill="#2c873b" d="M 97.371094 162.34375 L 100.960938 162.34375 L 100.960938 158.746094 L 97.371094 158.746094 L 97.371094 162.34375 " fill-opacity="1" fill-rule="nonzero"/><path fill="#2c873b" d="M 93.777344 162.34375 L 97.371094 162.34375 L 97.371094 158.746094 L 93.777344 158.746094 L 93.777344 162.34375 " fill-opacity="1" fill-rule="nonzero"/><path fill="#2c873b" d="M 90.183594 162.34375 L 93.777344 162.34375 L 93.777344 158.746094 L 90.183594 158.746094 L 90.183594 162.34375 " fill-opacity="1" fill-rule="nonzero"/><path fill="#227135" d="M 75.816406 162.34375 L 79.410156 162.34375 L 79.410156 158.746094 L 75.816406 158.746094 L 75.816406 162.34375 " fill-opacity="1" fill-rule="nonzero"/><path fill="#2c873b" d="M 72.226562 162.34375 L 75.816406 162.34375 L 75.816406 158.746094 L 72.226562 158.746094 L 72.226562 162.34375 " fill-opacity="1" fill-rule="nonzero"/><path fill="#227135" d="M 158.425781 158.746094 L 162.015625 158.746094 L 162.015625 155.148438 L 158.425781 155.148438 L 158.425781 158.746094 " fill-opacity="1" fill-rule="nonzero"/><path fill="#227135" d="M 154.832031 158.746094 L 158.425781 158.746094 L 158.425781 155.148438 L 154.832031 155.148438 L 154.832031 158.746094 " fill-opacity="1" fill-rule="nonzero"/><path fill="#227135" d="M 151.242188 158.746094 L 154.832031 158.746094 L 154.832031 155.148438 L 151.242188 155.148438 L 151.242188 158.746094 " fill-opacity="1" fill-rule="nonzero"/><path fill="#227135" d="M 147.648438 158.746094 L 151.242188 158.746094 L 151.242188 155.148438 L 147.648438 155.148438 L 147.648438 158.746094 " fill-opacity="1" fill-rule="nonzero"/><path fill="#237436" d="M 144.058594 158.746094 L 147.648438 158.746094 L 147.648438 155.148438 L 144.058594 155.148438 L 144.058594 158.746094 " fill-opacity="1" fill-rule="nonzero"/><path fill="#2c873b" d="M 140.464844 158.746094 L 144.058594 158.746094 L 144.058594 155.148438 L 140.464844 155.148438 L 140.464844 158.746094 " fill-opacity="1" fill-rule="nonzero"/><path fill="#2c873b" d="M 136.875 158.746094 L 140.464844 158.746094 L 140.464844 155.148438 L 136.875 155.148438 L 136.875 158.746094 " fill-opacity="1" fill-rule="nonzero"/><path fill="#2c873b" d="M 133.285156 158.746094 L 136.875 158.746094 L 136.875 155.148438 L 133.285156 155.148438 L 133.285156 158.746094 " fill-opacity="1" fill-rule="nonzero"/><path fill="#227135" d="M 97.371094 158.746094 L 100.960938 158.746094 L 100.960938 155.148438 L 97.371094 155.148438 L 97.371094 158.746094 " fill-opacity="1" fill-rule="nonzero"/><path fill="#2c873b" d="M 93.777344 158.746094 L 97.371094 158.746094 L 97.371094 155.148438 L 93.777344 155.148438 L 93.777344 158.746094 " fill-opacity="1" fill-rule="nonzero"/><path fill="#2c873b" d="M 90.183594 158.746094 L 93.777344 158.746094 L 93.777344 155.148438 L 90.183594 155.148438 L 90.183594 158.746094 " fill-opacity="1" fill-rule="nonzero"/><path fill="#227135" d="M 72.226562 158.746094 L 75.816406 158.746094 L 75.816406 155.148438 L 72.226562 155.148438 L 72.226562 158.746094 " fill-opacity="1" fill-rule="nonzero"/><path fill="#2c873b" d="M 68.636719 158.746094 L 72.226562 158.746094 L 72.226562 155.148438 L 68.636719 155.148438 L 68.636719 158.746094 " fill-opacity="1" fill-rule="nonzero"/><path fill="#2c873b" d="M 54.269531 158.746094 L 57.859375 158.746094 L 57.859375 155.148438 L 54.269531 155.148438 L 54.269531 158.746094 " fill-opacity="1" fill-rule="nonzero"/><path fill="#227135" d="M 50.679688 158.746094 L 54.269531 158.746094 L 54.269531 155.148438 L 50.679688 155.148438 L 50.679688 158.746094 " fill-opacity="1" fill-rule="nonzero"/><path fill="#227135" d="M 154.832031 155.148438 L 158.425781 155.148438 L 158.425781 151.546875 L 154.832031 151.546875 L 154.832031 155.148438 " fill-opacity="1" fill-rule="nonzero"/><path fill="#227135" d="M 151.242188 155.148438 L 154.832031 155.148438 L 154.832031 151.546875 L 151.242188 151.546875 L 151.242188 155.148438 " fill-opacity="1" fill-rule="nonzero"/><path fill="#227135" d="M 147.648438 155.148438 L 151.242188 155.148438 L 151.242188 151.546875 L 147.648438 151.546875 L 147.648438 155.148438 " fill-opacity="1" fill-rule="nonzero"/><path fill="#227135" d="M 144.058594 155.148438 L 147.648438 155.148438 L 147.648438 151.546875 L 144.058594 151.546875 L 144.058594 155.148438 " fill-opacity="1" fill-rule="nonzero"/><path fill="#2c873b" d="M 140.464844 155.148438 L 144.058594 155.148438 L 144.058594 151.546875 L 140.464844 151.546875 L 140.464844 155.148438 " fill-opacity="1" fill-rule="nonzero"/><path fill="#2c873b" d="M 136.875 155.148438 L 140.464844 155.148438 L 140.464844 151.546875 L 136.875 151.546875 L 136.875 155.148438 " fill-opacity="1" fill-rule="nonzero"/><path fill="#2c873b" d="M 133.285156 155.148438 L 136.875 155.148438 L 136.875 151.546875 L 133.285156 151.546875 L 133.285156 155.148438 " fill-opacity="1" fill-rule="nonzero"/><path fill="#2c873b" d="M 129.691406 155.148438 L 133.285156 155.148438 L 133.285156 151.546875 L 129.691406 151.546875 L 129.691406 155.148438 " fill-opacity="1" fill-rule="nonzero"/><path fill="#2c873b" d="M 126.101562 155.148438 L 129.691406 155.148438 L 129.691406 151.546875 L 126.101562 151.546875 L 126.101562 155.148438 " fill-opacity="1" fill-rule="nonzero"/><path fill="#2c873b" d="M 122.511719 155.148438 L 126.101562 155.148438 L 126.101562 151.546875 L 122.511719 151.546875 L 122.511719 155.148438 " fill-opacity="1" fill-rule="nonzero"/><path fill="#227135" d="M 93.777344 155.148438 L 97.371094 155.148438 L 97.371094 151.546875 L 93.777344 151.546875 L 93.777344 155.148438 " fill-opacity="1" fill-rule="nonzero"/><path fill="#2c873b" d="M 90.183594 155.148438 L 93.777344 155.148438 L 93.777344 151.546875 L 90.183594 151.546875 L 90.183594 155.148438 " fill-opacity="1" fill-rule="nonzero"/><path fill="#2c873b" d="M 86.59375 155.148438 L 90.183594 155.148438 L 90.183594 151.546875 L 86.59375 151.546875 L 86.59375 155.148438 " fill-opacity="1" fill-rule="nonzero"/><path fill="#227135" d="M 72.226562 155.148438 L 75.816406 155.148438 L 75.816406 151.546875 L 72.226562 151.546875 L 72.226562 155.148438 " fill-opacity="1" fill-rule="nonzero"/><path fill="#2c873b" d="M 68.636719 155.148438 L 72.226562 155.148438 L 72.226562 151.546875 L 68.636719 151.546875 L 68.636719 155.148438 " fill-opacity="1" fill-rule="nonzero"/><path fill="#2c873b" d="M 65.046875 155.148438 L 68.636719 155.148438 L 68.636719 151.546875 L 65.046875 151.546875 L 65.046875 155.148438 " fill-opacity="1" fill-rule="nonzero"/><path fill="#479536" d="M 61.453125 155.148438 L 65.046875 155.148438 L 65.046875 151.546875 L 61.453125 151.546875 L 61.453125 155.148438 " fill-opacity="1" fill-rule="nonzero"/><path fill="#2c873b" d="M 57.859375 155.148438 L 61.453125 155.148438 L 61.453125 151.546875 L 57.859375 151.546875 L 57.859375 155.148438 " fill-opacity="1" fill-rule="nonzero"/><path fill="#227135" d="M 54.269531 155.148438 L 57.859375 155.148438 L 57.859375 151.546875 L 54.269531 151.546875 L 54.269531 155.148438 " fill-opacity="1" fill-rule="nonzero"/><path fill="#227135" d="M 147.648438 151.546875 L 151.242188 151.546875 L 151.242188 147.949219 L 147.648438 147.949219 L 147.648438 151.546875 " fill-opacity="1" fill-rule="nonzero"/><path fill="#227135" d="M 144.058594 151.546875 L 147.648438 151.546875 L 147.648438 147.949219 L 144.058594 147.949219 L 144.058594 151.546875 " fill-opacity="1" fill-rule="nonzero"/><path fill="#2c873b" d="M 140.464844 151.546875 L 144.058594 151.546875 L 144.058594 147.949219 L 140.464844 147.949219 L 140.464844 151.546875 " fill-opacity="1" fill-rule="nonzero"/><path fill="#2c873b" d="M 136.875 151.546875 L 140.464844 151.546875 L 140.464844 147.949219 L 136.875 147.949219 L 136.875 151.546875 " fill-opacity="1" fill-rule="nonzero"/><path fill="#2c873b" d="M 133.285156 151.546875 L 136.875 151.546875 L 136.875 147.949219 L 133.285156 147.949219 L 133.285156 151.546875 " fill-opacity="1" fill-rule="nonzero"/><path fill="#2c873b" d="M 129.691406 151.546875 L 133.285156 151.546875 L 133.285156 147.949219 L 129.691406 147.949219 L 129.691406 151.546875 " fill-opacity="1" fill-rule="nonzero"/><path fill="#2c873b" d="M 126.101562 151.546875 L 129.691406 151.546875 L 129.691406 147.949219 L 126.101562 147.949219 L 126.101562 151.546875 " fill-opacity="1" fill-rule="nonzero"/><path fill="#2c873b" d="M 122.511719 151.546875 L 126.101562 151.546875 L 126.101562 147.949219 L 122.511719 147.949219 L 122.511719 151.546875 " fill-opacity="1" fill-rule="nonzero"/><path fill="#227135" d="M 108.144531 151.546875 L 111.734375 151.546875 L 111.734375 147.949219 L 108.144531 147.949219 L 108.144531 151.546875 " fill-opacity="1" fill-rule="nonzero"/><path fill="#227135" d="M 90.183594 151.546875 L 93.777344 151.546875 L 93.777344 147.949219 L 90.183594 147.949219 L 90.183594 151.546875 " fill-opacity="1" fill-rule="nonzero"/><path fill="#2c873b" d="M 86.59375 151.546875 L 90.183594 151.546875 L 90.183594 147.949219 L 86.59375 147.949219 L 86.59375 151.546875 " fill-opacity="1" fill-rule="nonzero"/><path fill="#2c873b" d="M 83.003906 151.546875 L 86.59375 151.546875 L 86.59375 147.949219 L 83.003906 147.949219 L 83.003906 151.546875 " fill-opacity="1" fill-rule="nonzero"/><path fill="#2c873b" d="M 79.410156 151.546875 L 83.003906 151.546875 L 83.003906 147.949219 L 79.410156 147.949219 L 79.410156 151.546875 " fill-opacity="1" fill-rule="nonzero"/><path fill="#2c873b" d="M 75.816406 151.546875 L 79.410156 151.546875 L 79.410156 147.949219 L 75.816406 147.949219 L 75.816406 151.546875 " fill-opacity="1" fill-rule="nonzero"/><path fill="#2c873b" d="M 72.226562 151.546875 L 75.816406 151.546875 L 75.816406 147.949219 L 72.226562 147.949219 L 72.226562 151.546875 " fill-opacity="1" fill-rule="nonzero"/><path fill="#227135" d="M 68.636719 151.546875 L 72.226562 151.546875 L 72.226562 147.949219 L 68.636719 147.949219 L 68.636719 151.546875 " fill-opacity="1" fill-rule="nonzero"/><path fill="#2c873b" d="M 65.046875 151.546875 L 68.636719 151.546875 L 68.636719 147.949219 L 65.046875 147.949219 L 65.046875 151.546875 " fill-opacity="1" fill-rule="nonzero"/><path fill="#2c873b" d="M 61.453125 151.546875 L 65.046875 151.546875 L 65.046875 147.949219 L 61.453125 147.949219 L 61.453125 151.546875 " fill-opacity="1" fill-rule="nonzero"/><path fill="#227135" d="M 57.859375 151.546875 L 61.453125 151.546875 L 61.453125 147.949219 L 57.859375 147.949219 L 57.859375 151.546875 " fill-opacity="1" fill-rule="nonzero"/><path fill="#227135" d="M 147.648438 147.949219 L 151.242188 147.949219 L 151.242188 144.351562 L 147.648438 144.351562 L 147.648438 147.949219 " fill-opacity="1" fill-rule="nonzero"/><path fill="#227135" d="M 144.058594 147.949219 L 147.648438 147.949219 L 147.648438 144.351562 L 144.058594 144.351562 L 144.058594 147.949219 " fill-opacity="1" fill-rule="nonzero"/><path fill="#227135" d="M 140.464844 147.949219 L 144.058594 147.949219 L 144.058594 144.351562 L 140.464844 144.351562 L 140.464844 147.949219 " fill-opacity="1" fill-rule="nonzero"/><path fill="#227135" d="M 136.875 147.949219 L 140.464844 147.949219 L 140.464844 144.351562 L 136.875 144.351562 L 136.875 147.949219 " fill-opacity="1" fill-rule="nonzero"/><path fill="#227236" d="M 133.285156 147.949219 L 136.875 147.949219 L 136.875 144.351562 L 133.285156 144.351562 L 133.285156 147.949219 " fill-opacity="1" fill-rule="nonzero"/><path fill="#2c873b" d="M 129.691406 147.949219 L 133.285156 147.949219 L 133.285156 144.351562 L 129.691406 144.351562 L 129.691406 147.949219 " fill-opacity="1" fill-rule="nonzero"/><path fill="#2c873b" d="M 126.101562 147.949219 L 129.691406 147.949219 L 129.691406 144.351562 L 126.101562 144.351562 L 126.101562 147.949219 " fill-opacity="1" fill-rule="nonzero"/><path fill="#2c873b" d="M 122.511719 147.949219 L 126.101562 147.949219 L 126.101562 144.351562 L 122.511719 144.351562 L 122.511719 147.949219 " fill-opacity="1" fill-rule="nonzero"/><path fill="#2c873b" d="M 118.917969 147.949219 L 122.511719 147.949219 L 122.511719 144.351562 L 118.917969 144.351562 L 118.917969 147.949219 " fill-opacity="1" fill-rule="nonzero"/><path fill="#227135" d="M 111.734375 147.949219 L 115.324219 147.949219 L 115.324219 144.351562 L 111.734375 144.351562 L 111.734375 147.949219 " fill-opacity="1" fill-rule="nonzero"/><path fill="#227135" d="M 86.59375 147.949219 L 90.183594 147.949219 L 90.183594 144.351562 L 86.59375 144.351562 L 86.59375 147.949219 " fill-opacity="1" fill-rule="nonzero"/><path fill="#227135" d="M 83.003906 147.949219 L 86.59375 147.949219 L 86.59375 144.351562 L 83.003906 144.351562 L 83.003906 147.949219 " fill-opacity="1" fill-rule="nonzero"/><path fill="#227135" d="M 79.410156 147.949219 L 83.003906 147.949219 L 83.003906 144.351562 L 79.410156 144.351562 L 79.410156 147.949219 " fill-opacity="1" fill-rule="nonzero"/><path fill="#227135" d="M 75.816406 147.949219 L 79.410156 147.949219 L 79.410156 144.351562 L 75.816406 144.351562 L 75.816406 147.949219 " fill-opacity="1" fill-rule="nonzero"/><path fill="#227135" d="M 72.226562 147.949219 L 75.816406 147.949219 L 75.816406 144.351562 L 72.226562 144.351562 L 72.226562 147.949219 " fill-opacity="1" fill-rule="nonzero"/><path fill="#227135" d="M 65.046875 147.949219 L 68.636719 147.949219 L 68.636719 144.351562 L 65.046875 144.351562 L 65.046875 147.949219 " fill-opacity="1" fill-rule="nonzero"/><path fill="#227135" d="M 61.453125 147.949219 L 65.046875 147.949219 L 65.046875 144.351562 L 61.453125 144.351562 L 61.453125 147.949219 " fill-opacity="1" fill-rule="nonzero"/><path fill="#227135" d="M 144.058594 144.351562 L 147.648438 144.351562 L 147.648438 140.75 L 144.058594 140.75 L 144.058594 144.351562 " fill-opacity="1" fill-rule="nonzero"/><path fill="#227135" d="M 140.464844 144.351562 L 144.058594 144.351562 L 144.058594 140.75 L 140.464844 140.75 L 140.464844 144.351562 " fill-opacity="1" fill-rule="nonzero"/><path fill="#227135" d="M 136.875 144.351562 L 140.464844 144.351562 L 140.464844 140.75 L 136.875 140.75 L 136.875 144.351562 " fill-opacity="1" fill-rule="nonzero"/><path fill="#227135" d="M 133.285156 144.351562 L 136.875 144.351562 L 136.875 140.75 L 133.285156 140.75 L 133.285156 144.351562 " fill-opacity="1" fill-rule="nonzero"/><path fill="#227135" d="M 129.691406 144.351562 L 133.285156 144.351562 L 133.285156 140.75 L 129.691406 140.75 L 129.691406 144.351562 " fill-opacity="1" fill-rule="nonzero"/><path fill="#2c873b" d="M 126.101562 144.351562 L 129.691406 144.351562 L 129.691406 140.75 L 126.101562 140.75 L 126.101562 144.351562 " fill-opacity="1" fill-rule="nonzero"/><path fill="#2c873b" d="M 122.511719 144.351562 L 126.101562 144.351562 L 126.101562 140.75 L 122.511719 140.75 L 122.511719 144.351562 " fill-opacity="1" fill-rule="nonzero"/><path fill="#227135" d="M 118.917969 144.351562 L 122.511719 144.351562 L 122.511719 140.75 L 118.917969 140.75 L 118.917969 144.351562 " fill-opacity="1" fill-rule="nonzero"/><path fill="#227135" d="M 115.324219 144.351562 L 118.917969 144.351562 L 118.917969 140.75 L 115.324219 140.75 L 115.324219 144.351562 " fill-opacity="1" fill-rule="nonzero"/><path fill="#2c873b" d="M 111.734375 144.351562 L 115.324219 144.351562 L 115.324219 140.75 L 111.734375 140.75 L 111.734375 144.351562 " fill-opacity="1" fill-rule="nonzero"/><path fill="#2c873b" d="M 61.453125 144.351562 L 65.046875 144.351562 L 65.046875 140.75 L 61.453125 140.75 L 61.453125 144.351562 " fill-opacity="1" fill-rule="nonzero"/><path fill="#227135" d="M 140.464844 140.75 L 144.058594 140.75 L 144.058594 137.148438 L 140.464844 137.148438 L 140.464844 140.75 " fill-opacity="1" fill-rule="nonzero"/><path fill="#227135" d="M 136.875 140.75 L 140.464844 140.75 L 140.464844 137.148438 L 136.875 137.148438 L 136.875 140.75 " fill-opacity="1" fill-rule="nonzero"/><path fill="#227135" d="M 133.285156 140.75 L 136.875 140.75 L 136.875 137.148438 L 133.285156 137.148438 L 133.285156 140.75 " fill-opacity="1" fill-rule="nonzero"/><path fill="#227135" d="M 129.691406 140.75 L 133.285156 140.75 L 133.285156 137.148438 L 129.691406 137.148438 L 129.691406 140.75 " fill-opacity="1" fill-rule="nonzero"/><path fill="#227135" d="M 126.101562 140.75 L 129.691406 140.75 L 129.691406 137.148438 L 126.101562 137.148438 L 126.101562 140.75 " fill-opacity="1" fill-rule="nonzero"/><path fill="#227135" d="M 122.511719 140.75 L 126.101562 140.75 L 126.101562 137.148438 L 122.511719 137.148438 L 122.511719 140.75 " fill-opacity="1" fill-rule="nonzero"/><path fill="#227135" d="M 118.917969 140.75 L 122.511719 140.75 L 122.511719 137.148438 L 118.917969 137.148438 L 118.917969 140.75 " fill-opacity="1" fill-rule="nonzero"/><path fill="#2c873b" d="M 115.324219 140.75 L 118.917969 140.75 L 118.917969 137.148438 L 115.324219 137.148438 L 115.324219 140.75 " fill-opacity="1" fill-rule="nonzero"/><path fill="#2c873b" d="M 111.734375 140.75 L 115.324219 140.75 L 115.324219 137.148438 L 111.734375 137.148438 L 111.734375 140.75 " fill-opacity="1" fill-rule="nonzero"/><path fill="#2c873b" d="M 108.144531 140.75 L 111.734375 140.75 L 111.734375 137.148438 L 108.144531 137.148438 L 108.144531 140.75 " fill-opacity="1" fill-rule="nonzero"/><path fill="#2c873b" d="M 104.550781 140.75 L 108.144531 140.75 L 108.144531 137.148438 L 104.550781 137.148438 L 104.550781 140.75 " fill-opacity="1" fill-rule="nonzero"/><path fill="#2c873b" d="M 65.046875 140.75 L 68.636719 140.75 L 68.636719 137.148438 L 65.046875 137.148438 L 65.046875 140.75 " fill-opacity="1" fill-rule="nonzero"/><path fill="#227135" d="M 126.101562 137.148438 L 129.691406 137.148438 L 129.691406 133.550781 L 126.101562 133.550781 L 126.101562 137.148438 " fill-opacity="1" fill-rule="nonzero"/><path fill="#227135" d="M 122.511719 137.148438 L 126.101562 137.148438 L 126.101562 133.550781 L 122.511719 133.550781 L 122.511719 137.148438 " fill-opacity="1" fill-rule="nonzero"/><path fill="#2c873b" d="M 118.917969 137.148438 L 122.511719 137.148438 L 122.511719 133.550781 L 118.917969 133.550781 L 118.917969 137.148438 " fill-opacity="1" fill-rule="nonzero"/><path fill="#2c873b" d="M 115.324219 137.148438 L 118.917969 137.148438 L 118.917969 133.550781 L 115.324219 133.550781 L 115.324219 137.148438 " fill-opacity="1" fill-rule="nonzero"/><path fill="#2c873b" d="M 111.734375 137.148438 L 115.324219 137.148438 L 115.324219 133.550781 L 111.734375 133.550781 L 111.734375 137.148438 " fill-opacity="1" fill-rule="nonzero"/><path fill="#2c873b" d="M 108.144531 137.148438 L 111.734375 137.148438 L 111.734375 133.550781 L 108.144531 133.550781 L 108.144531 137.148438 " fill-opacity="1" fill-rule="nonzero"/><path fill="#2c873b" d="M 104.550781 137.148438 L 108.144531 137.148438 L 108.144531 133.550781 L 104.550781 133.550781 L 104.550781 137.148438 " fill-opacity="1" fill-rule="nonzero"/><path fill="#2c873b" d="M 100.960938 137.148438 L 104.550781 137.148438 L 104.550781 133.550781 L 100.960938 133.550781 L 100.960938 137.148438 " fill-opacity="1" fill-rule="nonzero"/><path fill="#2c873b" d="M 68.636719 137.148438 L 72.226562 137.148438 L 72.226562 133.550781 L 68.636719 133.550781 L 68.636719 137.148438 " fill-opacity="1" fill-rule="nonzero"/><path fill="#368e39" d="M 54.269531 137.148438 L 57.859375 137.148438 L 57.859375 133.550781 L 54.269531 133.550781 L 54.269531 137.148438 " fill-opacity="1" fill-rule="nonzero"/><path fill="#2c873b" d="M 118.917969 133.550781 L 122.511719 133.550781 L 122.511719 129.953125 L 118.917969 129.953125 L 118.917969 133.550781 " fill-opacity="1" fill-rule="nonzero"/><path fill="#2c873b" d="M 115.324219 133.550781 L 118.917969 133.550781 L 118.917969 129.953125 L 115.324219 129.953125 L 115.324219 133.550781 " fill-opacity="1" fill-rule="nonzero"/><path fill="#2c873b" d="M 111.734375 133.550781 L 115.324219 133.550781 L 115.324219 129.953125 L 111.734375 129.953125 L 111.734375 133.550781 " fill-opacity="1" fill-rule="nonzero"/><path fill="#2c873b" d="M 108.144531 133.550781 L 111.734375 133.550781 L 111.734375 129.953125 L 108.144531 129.953125 L 108.144531 133.550781 " fill-opacity="1" fill-rule="nonzero"/><path fill="#2c873b" d="M 104.550781 133.550781 L 108.144531 133.550781 L 108.144531 129.953125 L 104.550781 129.953125 L 104.550781 133.550781 " fill-opacity="1" fill-rule="nonzero"/><path fill="#2c873b" d="M 100.960938 133.550781 L 104.550781 133.550781 L 104.550781 129.953125 L 100.960938 129.953125 L 100.960938 133.550781 " fill-opacity="1" fill-rule="nonzero"/><path fill="#2c873b" d="M 97.371094 133.550781 L 100.960938 133.550781 L 100.960938 129.953125 L 97.371094 129.953125 L 97.371094 133.550781 " fill-opacity="1" fill-rule="nonzero"/><path fill="#479536" d="M 136.875 165.945312 L 136.875 158.746094 L 133.285156 158.746094 L 133.285156 155.148438 L 122.511719 155.148438 L 122.511719 147.949219 L 118.917969 147.949219 L 118.917969 144.351562 L 115.324219 144.351562 L 115.324219 147.949219 L 111.734375 147.949219 L 111.734375 151.546875 L 108.144531 151.546875 L 108.144531 147.949219 L 111.734375 147.949219 L 111.734375 140.75 L 104.550781 140.75 L 104.550781 137.148438 L 100.960938 137.148438 L 100.960938 133.550781 L 97.371094 133.550781 L 97.371094 129.953125 L 79.410156 129.953125 L 79.410156 133.550781 L 72.226562 133.550781 L 72.226562 137.148438 L 68.636719 137.148438 L 68.636719 140.75 L 65.046875 140.75 L 65.046875 144.351562 L 68.636719 144.351562 L 68.636719 147.949219 L 72.226562 147.949219 L 72.226562 144.351562 L 90.183594 144.351562 L 90.183594 147.949219 L 93.777344 147.949219 L 93.777344 151.546875 L 97.371094 151.546875 L 97.371094 155.148438 L 100.960938 155.148438 L 100.960938 158.746094 L 104.550781 158.746094 L 104.550781 162.34375 L 108.144531 162.34375 L 108.144531 165.945312 L 111.734375 165.945312 L 111.734375 173.144531 L 108.144531 173.144531 L 108.144531 169.542969 L 104.550781 169.542969 L 104.550781 165.945312 L 97.371094 165.945312 L 97.371094 162.34375 L 90.183594 162.34375 L 90.183594 155.148438 L 86.59375 155.148438 L 86.59375 151.546875 L 75.816406 151.546875 L 75.816406 158.746094 L 79.410156 158.746094 L 79.410156 162.34375 L 75.816406 162.34375 L 75.816406 165.945312 L 72.226562 165.945312 L 72.226562 158.746094 L 68.636719 158.746094 L 68.636719 155.148438 L 57.859375 155.148438 L 57.859375 158.746094 L 50.679688 158.746094 L 50.679688 155.148438 L 54.269531 155.148438 L 54.269531 151.546875 L 57.859375 151.546875 L 57.859375 147.949219 L 54.269531 147.949219 L 54.269531 144.351562 L 50.679688 144.351562 L 50.679688 140.75 L 43.496094 140.75 L 43.496094 144.351562 L 36.3125 144.351562 L 36.3125 151.546875 L 29.128906 151.546875 L 29.128906 158.746094 L 18.355469 158.746094 L 18.355469 165.945312 L 14.765625 165.945312 L 14.765625 169.542969 L 7.582031 169.542969 L 7.582031 173.144531 L 3.988281 173.144531 L 3.988281 180.339844 L 7.582031 180.339844 L 7.582031 183.9375 L 133.285156 183.9375 L 133.285156 176.742188 L 140.464844 176.742188 L 140.464844 165.945312 L 136.875 165.945312 " fill-opacity="1" fill-rule="nonzero"/><path fill="#479536" d="M 57.859375 147.949219 L 61.453125 147.949219 L 61.453125 140.75 L 65.046875 140.75 L 65.046875 137.148438 L 68.636719 137.148438 L 68.636719 133.550781 L 57.859375 133.550781 L 57.859375 137.148438 L 54.269531 137.148438 L 54.269531 144.351562 L 57.859375 144.351562 L 57.859375 147.949219 " fill-opacity="1" fill-rule="nonzero"/><path fill="#2c873b" d="M 75.816406 133.550781 L 79.410156 133.550781 L 79.410156 129.953125 L 75.816406 129.953125 L 75.816406 133.550781 " fill-opacity="1" fill-rule="nonzero"/><path fill="#2c873b" d="M 72.226562 133.550781 L 75.816406 133.550781 L 75.816406 129.953125 L 72.226562 129.953125 L 72.226562 133.550781 " fill-opacity="1" fill-rule="nonzero"/><path fill="#2c873b" d="M 68.636719 133.550781 L 72.226562 133.550781 L 72.226562 129.953125 L 68.636719 129.953125 L 68.636719 133.550781 " fill-opacity="1" fill-rule="nonzero"/><path fill="#2c873b" d="M 65.046875 133.550781 L 68.636719 133.550781 L 68.636719 129.953125 L 65.046875 129.953125 L 65.046875 133.550781 " fill-opacity="1" fill-rule="nonzero"/><path fill="#2c873b" d="M 61.453125 133.550781 L 65.046875 133.550781 L 65.046875 129.953125 L 61.453125 129.953125 L 61.453125 133.550781 " fill-opacity="1" fill-rule="nonzero"/><path fill="#2c873b" d="M 57.859375 133.550781 L 61.453125 133.550781 L 61.453125 129.953125 L 57.859375 129.953125 L 57.859375 133.550781 " fill-opacity="1" fill-rule="nonzero"/><path fill="#2c873b" d="M 118.917969 129.953125 L 122.511719 129.953125 L 122.511719 126.355469 L 118.917969 126.355469 L 118.917969 129.953125 " fill-opacity="1" fill-rule="nonzero"/><path fill="#2c873b" d="M 115.324219 129.953125 L 118.917969 129.953125 L 118.917969 126.355469 L 115.324219 126.355469 L 115.324219 129.953125 " fill-opacity="1" fill-rule="nonzero"/><path fill="#2c873b" d="M 111.734375 129.953125 L 115.324219 129.953125 L 115.324219 126.355469 L 111.734375 126.355469 L 111.734375 129.953125 " fill-opacity="1" fill-rule="nonzero"/><path fill="#2c873b" d="M 108.144531 129.953125 L 111.734375 129.953125 L 111.734375 126.355469 L 108.144531 126.355469 L 108.144531 129.953125 " fill-opacity="1" fill-rule="nonzero"/><path fill="#2c873b" d="M 104.550781 129.953125 L 108.144531 129.953125 L 108.144531 126.355469 L 104.550781 126.355469 L 104.550781 129.953125 " fill-opacity="1" fill-rule="nonzero"/><path fill="#2c873b" d="M 100.960938 129.953125 L 104.550781 129.953125 L 104.550781 126.355469 L 100.960938 126.355469 L 100.960938 129.953125 " fill-opacity="1" fill-rule="nonzero"/><path fill="#2c873b" d="M 97.371094 129.953125 L 100.960938 129.953125 L 100.960938 126.355469 L 97.371094 126.355469 L 97.371094 129.953125 " fill-opacity="1" fill-rule="nonzero"/><path fill="#2c873b" d="M 93.777344 129.953125 L 97.371094 129.953125 L 97.371094 126.355469 L 93.777344 126.355469 L 93.777344 129.953125 " fill-opacity="1" fill-rule="nonzero"/><path fill="#2c873b" d="M 90.183594 129.953125 L 93.777344 129.953125 L 93.777344 126.355469 L 90.183594 126.355469 L 90.183594 129.953125 " fill-opacity="1" fill-rule="nonzero"/><path fill="#2c873b" d="M 86.59375 129.953125 L 90.183594 129.953125 L 90.183594 126.355469 L 86.59375 126.355469 L 86.59375 129.953125 " fill-opacity="1" fill-rule="nonzero"/><path fill="#2c873b" d="M 83.003906 129.953125 L 86.59375 129.953125 L 86.59375 126.355469 L 83.003906 126.355469 L 83.003906 129.953125 " fill-opacity="1" fill-rule="nonzero"/><path fill="#2c873b" d="M 79.410156 129.953125 L 83.003906 129.953125 L 83.003906 126.355469 L 79.410156 126.355469 L 79.410156 129.953125 " fill-opacity="1" fill-rule="nonzero"/><path fill="#2c873b" d="M 75.816406 129.953125 L 79.410156 129.953125 L 79.410156 126.355469 L 75.816406 126.355469 L 75.816406 129.953125 " fill-opacity="1" fill-rule="nonzero"/><path fill="#2c873b" d="M 115.324219 126.355469 L 118.917969 126.355469 L 118.917969 122.753906 L 115.324219 122.753906 L 115.324219 126.355469 " fill-opacity="1" fill-rule="nonzero"/><path fill="#2c873b" d="M 111.734375 126.355469 L 115.324219 126.355469 L 115.324219 122.753906 L 111.734375 122.753906 L 111.734375 126.355469 " fill-opacity="1" fill-rule="nonzero"/><path fill="#2c873b" d="M 108.144531 126.355469 L 111.734375 126.355469 L 111.734375 122.753906 L 108.144531 122.753906 L 108.144531 126.355469 " fill-opacity="1" fill-rule="nonzero"/><path fill="#2c873b" d="M 104.550781 126.355469 L 108.144531 126.355469 L 108.144531 122.753906 L 104.550781 122.753906 L 104.550781 126.355469 " fill-opacity="1" fill-rule="nonzero"/><path fill="#2c873b" d="M 100.960938 126.355469 L 104.550781 126.355469 L 104.550781 122.753906 L 100.960938 122.753906 L 100.960938 126.355469 " fill-opacity="1" fill-rule="nonzero"/><path fill="#2c873b" d="M 97.371094 126.355469 L 100.960938 126.355469 L 100.960938 122.753906 L 97.371094 122.753906 L 97.371094 126.355469 " fill-opacity="1" fill-rule="nonzero"/><path fill="#2c873b" d="M 93.777344 126.355469 L 97.371094 126.355469 L 97.371094 122.753906 L 93.777344 122.753906 L 93.777344 126.355469 " fill-opacity="1" fill-rule="nonzero"/><path fill="#2c873b" d="M 90.183594 126.355469 L 93.777344 126.355469 L 93.777344 122.753906 L 90.183594 122.753906 L 90.183594 126.355469 " fill-opacity="1" fill-rule="nonzero"/><path fill="#2c873b" d="M 86.59375 126.355469 L 90.183594 126.355469 L 90.183594 122.753906 L 86.59375 122.753906 L 86.59375 126.355469 " fill-opacity="1" fill-rule="nonzero"/><path fill="#2c873b" d="M 83.003906 126.355469 L 86.59375 126.355469 L 86.59375 122.753906 L 83.003906 122.753906 L 83.003906 126.355469 " fill-opacity="1" fill-rule="nonzero"/><path fill="#2c873b" d="M 79.410156 126.355469 L 83.003906 126.355469 L 83.003906 122.753906 L 79.410156 122.753906 L 79.410156 126.355469 " fill-opacity="1" fill-rule="nonzero"/><path fill="#2b8039" d="M 75.816406 126.355469 L 79.410156 126.355469 L 79.410156 122.753906 L 75.816406 122.753906 L 75.816406 126.355469 " fill-opacity="1" fill-rule="nonzero"/><path fill="#2c873b" d="M 93.777344 122.753906 L 97.371094 122.753906 L 97.371094 119.152344 L 93.777344 119.152344 L 93.777344 122.753906 " fill-opacity="1" fill-rule="nonzero"/><path fill="#2c873b" d="M 90.183594 122.753906 L 93.777344 122.753906 L 93.777344 119.152344 L 90.183594 119.152344 L 90.183594 122.753906 " fill-opacity="1" fill-rule="nonzero"/><path fill="#2c873b" d="M 86.59375 122.753906 L 90.183594 122.753906 L 90.183594 119.152344 L 86.59375 119.152344 L 86.59375 122.753906 " fill-opacity="1" fill-rule="nonzero"/><path fill="#2c873b" d="M 83.003906 122.753906 L 86.59375 122.753906 L 86.59375 119.152344 L 83.003906 119.152344 L 83.003906 122.753906 " fill-opacity="1" fill-rule="nonzero"/><g clip-path="url(#id1)"><path fill="#040606" d="M 172.789062 183.9375 L 7.582031 183.9375 L 7.582031 187.539062 L 179.972656 187.539062 L 179.972656 183.9375 L 172.789062 183.9375 " fill-opacity="1" fill-rule="nonzero"/></g><path fill="#040606" d="M 179.972656 183.9375 L 183.566406 183.9375 L 183.566406 180.339844 L 179.972656 180.339844 L 179.972656 183.9375 " fill-opacity="1" fill-rule="nonzero"/><path fill="#040606" d="M 3.988281 180.339844 L 3.988281 183.9375 L 7.582031 183.9375 L 7.582031 180.339844 L 3.988281 180.339844 " fill-opacity="1" fill-rule="nonzero"/><g clip-path="url(#id2)"><path fill="#040606" d="M 183.566406 173.144531 L 183.566406 180.339844 L 187.15625 180.339844 L 187.15625 173.144531 L 183.566406 173.144531 " fill-opacity="1" fill-rule="nonzero"/></g><path fill="#040606" d="M 3.988281 173.144531 L 0.398438 173.144531 L 0.398438 180.339844 L 3.988281 180.339844 L 3.988281 173.144531 " fill-opacity="1" fill-rule="nonzero"/><path fill="#040606" d="M 183.566406 173.144531 L 183.566406 169.542969 L 179.972656 169.542969 L 179.972656 173.144531 L 183.566406 173.144531 " fill-opacity="1" fill-rule="nonzero"/><path fill="#040606" d="M 7.582031 169.542969 L 3.988281 169.542969 L 3.988281 173.144531 L 7.582031 173.144531 L 7.582031 169.542969 " fill-opacity="1" fill-rule="nonzero"/><path fill="#040606" d="M 14.765625 169.542969 L 14.765625 165.945312 L 7.582031 165.945312 L 7.582031 169.542969 L 14.765625 169.542969 " fill-opacity="1" fill-rule="nonzero"/><path fill="#040606" d="M 18.355469 162.34375 L 18.355469 158.746094 L 14.765625 158.746094 L 14.765625 165.945312 L 18.355469 165.945312 L 18.355469 162.34375 " fill-opacity="1" fill-rule="nonzero"/><path fill="#040606" d="M 162.015625 162.34375 L 165.609375 162.34375 L 165.609375 165.945312 L 169.199219 165.945312 L 169.199219 169.542969 L 179.972656 169.542969 L 179.972656 165.945312 L 172.789062 165.945312 L 172.789062 162.34375 L 169.199219 162.34375 L 169.199219 158.746094 L 165.609375 158.746094 L 165.609375 155.148438 L 162.015625 155.148438 L 162.015625 162.34375 " fill-opacity="1" fill-rule="nonzero"/><path fill="#040606" d="M 25.539062 158.746094 L 29.128906 158.746094 L 29.128906 151.546875 L 25.539062 151.546875 L 25.539062 155.148438 L 18.355469 155.148438 L 18.355469 158.746094 L 25.539062 158.746094 " fill-opacity="1" fill-rule="nonzero"/><path fill="#040606" d="M 162.015625 155.148438 L 162.015625 151.546875 L 158.425781 151.546875 L 158.425781 155.148438 L 162.015625 155.148438 " fill-opacity="1" fill-rule="nonzero"/><path fill="#040606" d="M 151.242188 151.546875 L 158.425781 151.546875 L 158.425781 147.949219 L 154.832031 147.949219 L 154.832031 144.351562 L 151.242188 144.351562 L 151.242188 151.546875 " fill-opacity="1" fill-rule="nonzero"/><path fill="#040606" d="M 36.3125 151.546875 L 36.3125 144.351562 L 32.71875 144.351562 L 32.71875 147.949219 L 29.128906 147.949219 L 29.128906 151.546875 L 36.3125 151.546875 " fill-opacity="1" fill-rule="nonzero"/><path fill="#040606" d="M 57.859375 147.949219 L 57.859375 144.351562 L 54.269531 144.351562 L 54.269531 147.949219 L 57.859375 147.949219 " fill-opacity="1" fill-rule="nonzero"/><path fill="#040606" d="M 151.242188 144.351562 L 151.242188 140.75 L 147.648438 140.75 L 147.648438 144.351562 L 151.242188 144.351562 " fill-opacity="1" fill-rule="nonzero"/><path fill="#040606" d="M 43.496094 144.351562 L 43.496094 140.75 L 36.3125 140.75 L 36.3125 144.351562 L 43.496094 144.351562 " fill-opacity="1" fill-rule="nonzero"/><path fill="#040606" d="M 147.648438 140.75 L 147.648438 137.148438 L 144.058594 137.148438 L 144.058594 140.75 L 147.648438 140.75 " fill-opacity="1" fill-rule="nonzero"/><path fill="#040606" d="M 50.679688 140.75 L 50.679688 144.351562 L 54.269531 144.351562 L 54.269531 133.550781 L 50.679688 133.550781 L 50.679688 137.148438 L 43.496094 137.148438 L 43.496094 140.75 L 50.679688 140.75 " fill-opacity="1" fill-rule="nonzero"/><path fill="#040606" d="M 122.511719 133.550781 L 129.691406 133.550781 L 129.691406 137.148438 L 144.058594 137.148438 L 144.058594 133.550781 L 133.285156 133.550781 L 133.285156 129.953125 L 126.101562 129.953125 L 126.101562 126.355469 L 122.511719 126.355469 L 122.511719 133.550781 " fill-opacity="1" fill-rule="nonzero"/><path fill="#040606" d="M 57.859375 129.953125 L 54.269531 129.953125 L 54.269531 133.550781 L 57.859375 133.550781 L 57.859375 129.953125 " fill-opacity="1" fill-rule="nonzero"/><path fill="#040606" d="M 65.046875 129.953125 L 75.816406 129.953125 L 75.816406 122.753906 L 72.226562 122.753906 L 72.226562 126.355469 L 57.859375 126.355469 L 57.859375 129.953125 L 65.046875 129.953125 " fill-opacity="1" fill-rule="nonzero"/><path fill="#040606" d="M 122.511719 126.355469 L 122.511719 122.753906 L 118.917969 122.753906 L 118.917969 126.355469 L 122.511719 126.355469 " fill-opacity="1" fill-rule="nonzero"/><path fill="#040606" d="M 100.960938 122.753906 L 118.917969 122.753906 L 118.917969 119.152344 L 97.371094 119.152344 L 97.371094 122.753906 L 100.960938 122.753906 " fill-opacity="1" fill-rule="nonzero"/><path fill="#040606" d="M 83.003906 122.753906 L 83.003906 119.152344 L 75.816406 119.152344 L 75.816406 122.753906 L 83.003906 122.753906 " fill-opacity="1" fill-rule="nonzero"/><g clip-path="url(#id3)"><path fill="#040606" d="M 90.183594 119.152344 L 97.371094 119.152344 L 97.371094 115.558594 L 83.003906 115.558594 L 83.003906 119.152344 L 90.183594 119.152344 " fill-opacity="1" fill-rule="nonzero"/></g></svg>