<svg xmlns="http://www.w3.org/2000/svg" xmlns:xlink="http://www.w3.org/1999/xlink" width="250" zoomAndPan="magnify" viewBox="0 0 187.5 187.499992" height="250" preserveAspectRatio="xMidYMid meet" version="1.0"><defs><clipPath id="id1"><path d="M 10.585938 50 L 49 50 L 49 73 L 10.585938 73 Z M 10.585938 50 " clip-rule="nonzero"/></clipPath><clipPath id="id2"><path d="M 48 18.75 L 97 18.75 L 97 46 L 48 46 Z M 48 18.75 " clip-rule="nonzero"/></clipPath><clipPath id="id3"><path d="M 128.339844 99 L 176.964844 99 L 176.964844 126 L 128.339844 126 Z M 128.339844 99 " clip-rule="nonzero"/></clipPath><clipPath id="id4"><path d="M 37.222656 141.855469 L 75.3125 141.855469 L 75.3125 168.75 L 37.222656 168.75 Z M 37.222656 141.855469 " clip-rule="nonzero"/></clipPath><clipPath id="id5"><path d="M 48.050781 163.117188 L 59 163.117188 L 59 168.75 L 48.050781 168.75 Z M 48.050781 163.117188 " clip-rule="nonzero"/></clipPath><clipPath id="id6"><path d="M 64.109375 109.773438 L 107.425781 109.773438 L 107.425781 168.75 L 64.109375 168.75 Z M 64.109375 109.773438 " clip-rule="nonzero"/></clipPath></defs><g clip-path="url(#id1)"><path fill="#63c442" d="M 10.710938 72.328125 L 10.707031 66.96875 L 16.074219 66.964844 L 16.070312 61.613281 L 26.804688 61.609375 L 26.800781 56.257812 L 32.164062 56.253906 L 32.160156 50.894531 L 48.253906 50.890625 L 48.253906 56.257812 L 42.890625 56.261719 L 42.894531 66.96875 L 26.804688 66.972656 L 26.808594 72.328125 L 10.710938 72.328125 " fill-opacity="1" fill-rule="nonzero"/><path fill="#63c442" d="M 26.804688 66.96875 L 26.804688 72.324219 L 10.710938 72.324219 L 10.710938 66.96875 L 16.074219 66.96875 L 16.074219 61.613281 L 26.804688 61.613281 L 26.804688 56.257812 L 32.164062 56.257812 L 32.164062 50.894531 L 48.253906 50.894531 L 48.253906 56.257812 L 42.890625 56.257812 L 42.890625 66.96875 L 26.804688 66.96875 " fill-opacity="1" fill-rule="nonzero"/></g><path fill="#63c442" d="M 101.878906 131.253906 L 101.878906 125.898438 L 112.605469 125.894531 L 112.601562 120.539062 L 117.96875 120.535156 L 117.972656 125.898438 L 123.332031 125.894531 L 123.335938 131.253906 L 101.878906 131.253906 " fill-opacity="1" fill-rule="nonzero"/><path fill="#63c442" d="M 117.96875 125.898438 L 123.332031 125.898438 L 123.332031 131.253906 L 101.878906 131.253906 L 101.878906 125.898438 L 112.605469 125.898438 L 112.605469 120.539062 L 117.96875 120.539062 L 117.96875 125.898438 " fill-opacity="1" fill-rule="nonzero"/><path fill="#63c442" d="M 32.164062 115.1875 L 32.160156 109.824219 L 37.523438 109.824219 L 37.519531 104.46875 L 42.890625 104.464844 L 42.890625 99.113281 L 58.976562 99.109375 L 58.980469 104.46875 L 53.617188 104.472656 L 53.621094 109.824219 L 42.890625 109.832031 L 42.894531 115.1875 L 32.164062 115.1875 " fill-opacity="1" fill-rule="nonzero"/><path fill="#63c442" d="M 58.976562 99.113281 L 58.976562 104.46875 L 53.617188 104.46875 L 53.617188 109.824219 L 42.890625 109.824219 L 42.890625 115.1875 L 32.164062 115.1875 L 32.164062 109.824219 L 37.523438 109.824219 L 37.523438 104.46875 L 42.890625 104.46875 L 42.890625 99.113281 L 58.976562 99.113281 " fill-opacity="1" fill-rule="nonzero"/><g clip-path="url(#id2)"><path fill="#63c442" d="M 48.253906 45.542969 L 48.25 34.824219 L 53.617188 34.820312 L 53.613281 29.46875 L 58.976562 29.464844 L 58.972656 24.109375 L 69.703125 24.109375 L 69.699219 18.753906 L 96.519531 18.75 L 96.523438 24.109375 L 91.152344 24.117188 L 91.15625 29.46875 L 85.792969 29.472656 L 85.796875 34.824219 L 58.976562 34.828125 L 58.980469 40.179688 L 53.617188 40.183594 L 53.621094 45.542969 L 48.253906 45.542969 " fill-opacity="1" fill-rule="nonzero"/><path fill="#63c442" d="M 91.152344 29.46875 L 85.792969 29.46875 L 85.792969 34.824219 L 58.976562 34.824219 L 58.976562 40.179688 L 53.617188 40.179688 L 53.617188 45.542969 L 48.253906 45.542969 L 48.253906 34.824219 L 53.617188 34.824219 L 53.617188 29.46875 L 58.976562 29.46875 L 58.976562 24.109375 L 69.703125 24.109375 L 69.703125 18.753906 L 96.519531 18.753906 L 96.519531 24.109375 L 91.152344 24.109375 L 91.152344 29.46875 " fill-opacity="1" fill-rule="nonzero"/></g><path fill="#63c442" d="M 91.152344 83.046875 L 91.148438 77.683594 L 101.878906 77.679688 L 101.878906 72.324219 L 107.242188 72.320312 L 107.238281 66.96875 L 117.96875 66.964844 L 117.964844 61.613281 L 134.054688 61.609375 L 134.058594 77.683594 L 117.96875 77.6875 L 117.972656 83.046875 L 91.152344 83.046875 " fill-opacity="1" fill-rule="nonzero"/><path fill="#63c442" d="M 91.152344 83.042969 L 91.152344 77.683594 L 101.878906 77.683594 L 101.878906 72.324219 L 107.242188 72.324219 L 107.242188 66.96875 L 117.96875 66.96875 L 117.96875 61.613281 L 134.054688 61.613281 L 134.054688 77.683594 L 117.96875 77.683594 L 117.96875 83.042969 L 91.152344 83.042969 " fill-opacity="1" fill-rule="nonzero"/><path fill="#63c442" d="M 117.96875 109.832031 L 117.964844 104.46875 L 123.332031 104.464844 L 123.328125 99.113281 L 134.054688 99.109375 L 134.050781 93.75 L 144.78125 93.746094 L 144.777344 88.398438 L 155.511719 88.394531 L 155.511719 93.75 L 150.148438 93.753906 L 150.152344 99.113281 L 139.421875 99.117188 L 139.425781 104.46875 L 128.691406 104.472656 L 128.699219 109.832031 L 117.96875 109.832031 " fill-opacity="1" fill-rule="nonzero"/><path fill="#63c442" d="M 155.511719 88.398438 L 155.511719 93.75 L 150.148438 93.75 L 150.148438 99.113281 L 139.421875 99.113281 L 139.421875 104.46875 L 128.691406 104.46875 L 128.691406 109.824219 L 117.96875 109.824219 L 117.96875 104.46875 L 123.332031 104.46875 L 123.332031 99.113281 L 134.054688 99.113281 L 134.054688 93.75 L 144.78125 93.75 L 144.78125 88.398438 L 155.511719 88.398438 " fill-opacity="1" fill-rule="nonzero"/><path fill="#398b40" d="M 26.804688 120.542969 L 26.800781 115.1875 L 21.433594 115.1875 L 21.433594 109.824219 L 26.804688 109.824219 L 26.800781 104.46875 L 37.523438 104.464844 L 37.527344 109.824219 L 32.164062 109.832031 L 32.167969 115.1875 L 42.890625 115.179688 L 42.890625 109.824219 L 53.617188 109.824219 L 53.613281 104.46875 L 69.703125 104.464844 L 69.707031 109.824219 L 58.976562 109.832031 L 58.980469 115.1875 L 53.617188 115.1875 L 53.621094 120.542969 L 26.804688 120.542969 " fill-opacity="1" fill-rule="nonzero"/><path fill="#398b40" d="M 69.703125 104.46875 L 69.703125 109.824219 L 58.976562 109.824219 L 58.976562 115.1875 L 53.617188 115.1875 L 53.617188 120.539062 L 26.804688 120.539062 L 26.804688 115.1875 L 21.433594 115.1875 L 21.433594 109.824219 L 26.804688 109.824219 L 26.804688 104.46875 L 37.523438 104.46875 L 37.523438 109.824219 L 32.164062 109.824219 L 32.164062 115.1875 L 42.890625 115.1875 L 42.890625 109.824219 L 53.617188 109.824219 L 53.617188 104.46875 L 69.703125 104.46875 " fill-opacity="1" fill-rule="nonzero"/><path fill="#398b40" d="M 16.074219 77.6875 L 16.070312 72.324219 L 26.804688 72.320312 L 26.800781 66.96875 L 42.890625 66.964844 L 42.890625 56.257812 L 48.253906 56.253906 L 48.25 50.894531 L 53.617188 50.890625 L 53.621094 56.257812 L 64.339844 56.253906 L 64.34375 61.613281 L 75.0625 61.609375 L 75.0625 56.257812 L 69.703125 56.261719 L 69.699219 50.894531 L 58.976562 50.898438 L 58.972656 45.542969 L 53.617188 45.542969 L 53.613281 40.179688 L 58.976562 40.175781 L 58.972656 34.824219 L 85.792969 34.820312 L 85.789062 29.46875 L 112.605469 29.464844 L 112.609375 34.824219 L 117.96875 34.820312 L 117.972656 40.179688 L 123.332031 40.175781 L 123.335938 45.542969 L 117.96875 45.542969 L 117.972656 50.894531 L 101.878906 50.898438 L 101.882812 56.257812 L 96.519531 56.261719 L 96.523438 61.613281 L 80.425781 61.617188 L 80.429688 66.96875 L 69.703125 66.972656 L 69.707031 72.324219 L 42.890625 72.328125 L 42.894531 77.6875 L 16.074219 77.6875 " fill-opacity="1" fill-rule="nonzero"/><path fill="#398b40" d="M 80.425781 66.96875 L 69.703125 66.96875 L 69.703125 72.324219 L 42.890625 72.324219 L 42.890625 77.683594 L 16.074219 77.683594 L 16.074219 72.324219 L 26.804688 72.324219 L 26.804688 66.96875 L 42.890625 66.96875 L 42.890625 56.257812 L 48.253906 56.257812 L 48.253906 50.894531 L 53.617188 50.894531 L 53.617188 56.257812 L 64.339844 56.257812 L 64.339844 61.613281 L 75.0625 61.613281 L 75.0625 56.257812 L 69.703125 56.257812 L 69.703125 50.894531 L 58.976562 50.894531 L 58.976562 45.542969 L 53.617188 45.542969 L 53.617188 40.179688 L 58.976562 40.179688 L 58.976562 34.824219 L 85.792969 34.824219 L 85.792969 29.46875 L 112.605469 29.46875 L 112.605469 34.824219 L 117.96875 34.824219 L 117.96875 40.179688 L 123.332031 40.179688 L 123.332031 45.542969 L 117.96875 45.542969 L 117.96875 50.894531 L 101.878906 50.894531 L 101.878906 56.257812 L 96.519531 56.257812 L 96.519531 61.613281 L 80.425781 61.613281 L 80.425781 66.96875 " fill-opacity="1" fill-rule="nonzero"/><path fill="#398b40" d="M 80.425781 136.613281 L 80.421875 131.253906 L 85.792969 131.25 L 85.789062 125.898438 L 101.878906 125.894531 L 101.882812 131.253906 L 96.519531 131.253906 L 96.523438 136.613281 L 80.425781 136.613281 " fill-opacity="1" fill-rule="nonzero"/><path fill="#398b40" d="M 101.878906 125.898438 L 101.878906 131.253906 L 96.519531 131.253906 L 96.519531 136.609375 L 80.425781 136.609375 L 80.425781 131.253906 L 85.792969 131.253906 L 85.792969 125.898438 L 101.878906 125.898438 " fill-opacity="1" fill-rule="nonzero"/><path fill="#398b40" d="M 134.054688 77.6875 L 134.050781 66.96875 L 139.421875 66.964844 L 139.425781 77.6875 L 134.054688 77.6875 " fill-opacity="1" fill-rule="nonzero"/><path fill="#398b40" d="M 139.421875 77.683594 L 134.054688 77.683594 L 134.054688 66.96875 L 139.421875 66.96875 L 139.421875 77.683594 " fill-opacity="1" fill-rule="nonzero"/><path fill="#398b40" d="M 107.242188 136.613281 L 107.238281 131.253906 L 123.332031 131.25 L 123.328125 125.898438 L 117.96875 125.902344 L 117.964844 115.1875 L 128.691406 115.179688 L 128.699219 120.539062 L 134.054688 120.535156 L 134.058594 131.253906 L 144.78125 131.25 L 144.785156 136.613281 L 107.242188 136.613281 " fill-opacity="1" fill-rule="nonzero"/><path fill="#398b40" d="M 128.691406 115.1875 L 128.691406 120.539062 L 134.054688 120.539062 L 134.054688 131.253906 L 144.78125 131.253906 L 144.78125 136.609375 L 107.242188 136.609375 L 107.242188 131.253906 L 123.332031 131.253906 L 123.332031 125.898438 L 117.96875 125.898438 L 117.96875 115.1875 L 128.691406 115.1875 " fill-opacity="1" fill-rule="nonzero"/><path fill="#398b40" d="M 91.152344 88.402344 L 91.148438 83.042969 L 117.96875 83.039062 L 117.964844 77.683594 L 134.054688 77.679688 L 134.058594 83.042969 L 123.332031 83.046875 L 123.335938 88.402344 L 91.152344 88.402344 " fill-opacity="1" fill-rule="nonzero"/><path fill="#398b40" d="M 134.054688 77.683594 L 134.054688 83.042969 L 123.332031 83.042969 L 123.332031 88.398438 L 91.152344 88.398438 L 91.152344 83.042969 L 117.96875 83.042969 L 117.96875 77.683594 L 134.054688 77.683594 " fill-opacity="1" fill-rule="nonzero"/><path fill="#398b40" d="M 101.878906 125.902344 L 101.878906 120.539062 L 112.605469 120.535156 L 112.609375 125.902344 L 101.878906 125.902344 " fill-opacity="1" fill-rule="nonzero"/><path fill="#398b40" d="M 101.878906 125.898438 L 101.878906 120.539062 L 112.605469 120.539062 L 112.605469 125.898438 L 101.878906 125.898438 " fill-opacity="1" fill-rule="nonzero"/><path fill="#398b40" d="M 144.78125 120.542969 L 144.777344 115.1875 L 128.691406 115.1875 L 128.691406 104.46875 L 139.421875 104.464844 L 139.417969 99.113281 L 150.148438 99.109375 L 150.148438 93.75 L 160.871094 93.746094 L 160.875 109.824219 L 166.234375 109.824219 L 166.238281 115.1875 L 155.511719 115.1875 L 155.511719 120.542969 L 144.78125 120.542969 " fill-opacity="1" fill-rule="nonzero"/><path fill="#398b40" d="M 166.234375 109.824219 L 166.234375 115.1875 L 155.511719 115.1875 L 155.511719 120.539062 L 144.78125 120.539062 L 144.78125 115.1875 L 128.691406 115.1875 L 128.691406 104.46875 L 139.421875 104.46875 L 139.421875 99.113281 L 150.148438 99.113281 L 150.148438 93.75 L 160.871094 93.75 L 160.871094 109.824219 L 166.234375 109.824219 " fill-opacity="1" fill-rule="nonzero"/><path fill="#1f373a" d="M 101.878906 120.542969 L 101.878906 115.1875 L 117.96875 115.179688 L 117.972656 120.542969 L 101.878906 120.542969 " fill-opacity="1" fill-rule="nonzero"/><path fill="#1f373a" d="M 101.878906 120.539062 L 101.878906 115.1875 L 117.96875 115.1875 L 117.96875 120.539062 L 101.878906 120.539062 " fill-opacity="1" fill-rule="nonzero"/><path fill="#1f373a" d="M 96.519531 141.972656 L 96.519531 131.253906 L 107.242188 131.25 L 107.246094 136.609375 L 128.691406 136.609375 L 128.699219 141.972656 L 96.519531 141.972656 " fill-opacity="1" fill-rule="nonzero"/><path fill="#1f373a" d="M 128.691406 136.609375 L 128.691406 141.96875 L 96.519531 141.96875 L 96.519531 131.253906 L 107.242188 131.253906 L 107.242188 136.609375 L 128.691406 136.609375 " fill-opacity="1" fill-rule="nonzero"/><path fill="#1f373a" d="M 123.332031 115.1875 L 123.328125 109.824219 L 128.691406 109.824219 L 128.699219 115.1875 L 123.332031 115.1875 " fill-opacity="1" fill-rule="nonzero"/><path fill="#1f373a" d="M 128.691406 109.824219 L 128.691406 115.1875 L 123.332031 115.1875 L 123.332031 109.824219 L 128.691406 109.824219 " fill-opacity="1" fill-rule="nonzero"/><path fill="#1f373a" d="M 107.242188 93.753906 L 107.238281 88.398438 L 123.332031 88.394531 L 123.328125 83.042969 L 134.054688 83.039062 L 134.050781 77.683594 L 139.421875 77.679688 L 139.417969 72.324219 L 144.78125 72.320312 L 144.785156 83.042969 L 139.421875 83.046875 L 139.425781 88.398438 L 128.691406 88.402344 L 128.699219 93.753906 L 107.242188 93.753906 " fill-opacity="1" fill-rule="nonzero"/><path fill="#1f373a" d="M 134.054688 83.042969 L 134.054688 77.683594 L 139.421875 77.683594 L 139.421875 72.324219 L 144.78125 72.324219 L 144.78125 83.042969 L 139.421875 83.042969 L 139.421875 88.398438 L 128.691406 88.398438 L 128.691406 93.75 L 107.242188 93.75 L 107.242188 88.398438 L 123.332031 88.398438 L 123.332031 83.042969 L 134.054688 83.042969 " fill-opacity="1" fill-rule="nonzero"/><g clip-path="url(#id3)"><path fill="#1f373a" d="M 139.421875 125.902344 L 139.417969 120.539062 L 128.691406 120.542969 L 128.691406 115.1875 L 144.78125 115.179688 L 144.785156 120.539062 L 155.511719 120.535156 L 155.507812 115.1875 L 166.234375 115.179688 L 166.230469 109.824219 L 160.871094 109.832031 L 160.867188 99.113281 L 166.234375 99.109375 L 166.238281 104.46875 L 171.597656 104.464844 L 171.601562 109.824219 L 176.960938 109.824219 L 176.964844 115.1875 L 171.597656 115.1875 L 171.601562 120.539062 L 160.871094 120.542969 L 160.875 125.902344 L 139.421875 125.902344 " fill-opacity="1" fill-rule="nonzero"/><path fill="#1f373a" d="M 176.960938 109.824219 L 176.960938 115.1875 L 171.597656 115.1875 L 171.597656 120.539062 L 160.871094 120.539062 L 160.871094 125.898438 L 139.421875 125.898438 L 139.421875 120.539062 L 128.691406 120.539062 L 128.691406 115.1875 L 144.78125 115.1875 L 144.78125 120.539062 L 155.511719 120.539062 L 155.511719 115.1875 L 166.234375 115.1875 L 166.234375 109.824219 L 160.871094 109.824219 L 160.871094 99.113281 L 166.234375 99.113281 L 166.234375 104.46875 L 171.597656 104.46875 L 171.597656 109.824219 L 176.960938 109.824219 " fill-opacity="1" fill-rule="nonzero"/></g><path fill="#1f373a" d="M 64.339844 61.617188 L 64.335938 56.257812 L 53.617188 56.261719 L 53.613281 50.894531 L 48.253906 50.898438 L 48.25 45.542969 L 58.976562 45.539062 L 58.980469 50.894531 L 69.703125 50.890625 L 69.707031 56.257812 L 75.0625 56.253906 L 75.070312 61.617188 L 64.339844 61.617188 " fill-opacity="1" fill-rule="nonzero"/><path fill="#1f373a" d="M 53.617188 50.894531 L 48.253906 50.894531 L 48.253906 45.542969 L 58.976562 45.542969 L 58.976562 50.894531 L 69.703125 50.894531 L 69.703125 56.257812 L 75.0625 56.257812 L 75.0625 61.613281 L 64.339844 61.613281 L 64.339844 56.257812 L 53.617188 56.257812 L 53.617188 50.894531 " fill-opacity="1" fill-rule="nonzero"/><path fill="#1f373a" d="M 37.523438 88.402344 L 37.519531 83.042969 L 32.164062 83.046875 L 32.160156 77.683594 L 42.890625 77.679688 L 42.890625 72.324219 L 69.703125 72.320312 L 69.699219 66.96875 L 80.425781 66.964844 L 80.421875 61.613281 L 96.519531 61.609375 L 96.519531 56.257812 L 101.878906 56.253906 L 101.878906 50.894531 L 117.96875 50.890625 L 117.964844 45.542969 L 128.691406 45.539062 L 128.699219 50.894531 L 123.332031 50.898438 L 123.335938 56.257812 L 107.242188 56.261719 L 107.246094 61.613281 L 101.878906 61.617188 L 101.882812 66.96875 L 85.792969 66.972656 L 85.796875 72.324219 L 75.0625 72.328125 L 75.070312 77.683594 L 53.617188 77.6875 L 53.621094 83.042969 L 48.253906 83.046875 L 48.253906 88.402344 L 37.523438 88.402344 " fill-opacity="1" fill-rule="nonzero"/><path fill="#1f373a" d="M 85.792969 66.96875 L 85.792969 72.324219 L 75.0625 72.324219 L 75.0625 77.683594 L 53.617188 77.683594 L 53.617188 83.042969 L 48.253906 83.042969 L 48.253906 88.398438 L 37.523438 88.398438 L 37.523438 83.042969 L 32.164062 83.042969 L 32.164062 77.683594 L 42.890625 77.683594 L 42.890625 72.324219 L 69.703125 72.324219 L 69.703125 66.96875 L 80.425781 66.96875 L 80.425781 61.613281 L 96.519531 61.613281 L 96.519531 56.257812 L 101.878906 56.257812 L 101.878906 50.894531 L 117.96875 50.894531 L 117.96875 45.542969 L 128.691406 45.542969 L 128.691406 50.894531 L 123.332031 50.894531 L 123.332031 56.257812 L 107.242188 56.257812 L 107.242188 61.613281 L 101.878906 61.613281 L 101.878906 66.96875 L 85.792969 66.96875 " fill-opacity="1" fill-rule="nonzero"/><path fill="#1f373a" d="M 58.976562 104.472656 L 58.972656 99.113281 L 64.339844 99.109375 L 64.34375 104.472656 L 58.976562 104.472656 " fill-opacity="1" fill-rule="nonzero"/><path fill="#1f373a" d="M 64.339844 104.46875 L 58.976562 104.46875 L 58.976562 99.113281 L 64.339844 99.113281 L 64.339844 104.46875 " fill-opacity="1" fill-rule="nonzero"/><path fill="#1f373a" d="M 37.523438 125.902344 L 37.519531 120.539062 L 53.617188 120.535156 L 53.613281 115.1875 L 58.976562 115.179688 L 58.972656 109.824219 L 75.0625 109.824219 L 75.070312 115.1875 L 64.339844 115.1875 L 64.34375 120.539062 L 58.976562 120.542969 L 58.980469 125.902344 L 37.523438 125.902344 " fill-opacity="1" fill-rule="nonzero"/><path fill="#1f373a" d="M 75.0625 109.824219 L 75.0625 115.1875 L 64.339844 115.1875 L 64.339844 120.539062 L 58.976562 120.539062 L 58.976562 125.898438 L 37.523438 125.898438 L 37.523438 120.539062 L 53.617188 120.539062 L 53.617188 115.1875 L 58.976562 115.1875 L 58.976562 109.824219 L 75.0625 109.824219 " fill-opacity="1" fill-rule="nonzero"/><path fill="#1f373a" d="M 91.152344 125.902344 L 91.148438 120.539062 L 101.878906 120.535156 L 101.882812 125.902344 L 91.152344 125.902344 " fill-opacity="1" fill-rule="nonzero"/><path fill="#1f373a" d="M 91.152344 125.898438 L 91.152344 120.539062 L 101.878906 120.539062 L 101.878906 125.898438 L 91.152344 125.898438 " fill-opacity="1" fill-rule="nonzero"/><path fill="#5c4f2f" d="M 75.0625 109.832031 L 75.0625 104.46875 L 80.425781 104.464844 L 80.429688 109.832031 L 75.0625 109.832031 " fill-opacity="1" fill-rule="nonzero"/><path fill="#5c4f2f" d="M 80.425781 104.46875 L 80.425781 109.824219 L 75.0625 109.824219 L 75.0625 104.46875 L 80.425781 104.46875 " fill-opacity="1" fill-rule="nonzero"/><path fill="#5c4f2f" d="M 42.890625 99.117188 L 42.890625 93.75 L 48.253906 93.746094 L 48.253906 99.117188 L 42.890625 99.117188 " fill-opacity="1" fill-rule="nonzero"/><path fill="#5c4f2f" d="M 48.253906 99.113281 L 42.890625 99.113281 L 42.890625 93.75 L 48.253906 93.75 L 48.253906 99.113281 " fill-opacity="1" fill-rule="nonzero"/><path fill="#5c4f2f" d="M 48.253906 93.753906 L 48.25 88.398438 L 53.617188 88.394531 L 53.621094 93.753906 L 48.253906 93.753906 " fill-opacity="1" fill-rule="nonzero"/><path fill="#5c4f2f" d="M 53.617188 93.75 L 48.253906 93.75 L 48.253906 88.398438 L 53.617188 88.398438 L 53.617188 93.75 " fill-opacity="1" fill-rule="nonzero"/><path fill="#5c4f2f" d="M 37.523438 104.472656 L 37.519531 99.113281 L 42.890625 99.109375 L 42.894531 104.472656 L 37.523438 104.472656 " fill-opacity="1" fill-rule="nonzero"/><path fill="#5c4f2f" d="M 42.890625 104.46875 L 37.523438 104.46875 L 37.523438 99.113281 L 42.890625 99.113281 L 42.890625 104.46875 " fill-opacity="1" fill-rule="nonzero"/><path fill="#5c4f2f" d="M 53.617188 83.046875 L 53.613281 77.683594 L 58.976562 77.679688 L 58.980469 83.046875 L 53.617188 83.046875 " fill-opacity="1" fill-rule="nonzero"/><path fill="#5c4f2f" d="M 58.976562 83.042969 L 53.617188 83.042969 L 53.617188 77.683594 L 58.976562 77.683594 L 58.976562 83.042969 " fill-opacity="1" fill-rule="nonzero"/><g clip-path="url(#id4)"><path fill="#5c4f2f" d="M 58.976562 168.761719 L 58.972656 163.394531 L 48.253906 163.398438 L 48.253906 168.757812 L 37.523438 168.761719 L 37.519531 163.394531 L 42.890625 163.390625 L 42.890625 152.6875 L 48.253906 152.683594 L 48.25 147.324219 L 58.976562 147.320312 L 58.972656 141.96875 L 69.703125 141.964844 L 69.707031 147.324219 L 75.0625 147.320312 L 75.070312 152.6875 L 69.703125 152.6875 L 69.707031 168.761719 L 58.976562 168.761719 " fill-opacity="1" fill-rule="nonzero"/><path fill="#5c4f2f" d="M 69.703125 147.324219 L 75.0625 147.324219 L 75.0625 152.6875 L 69.703125 152.6875 L 69.703125 168.757812 L 58.976562 168.757812 L 58.976562 163.394531 L 48.253906 163.394531 L 48.253906 168.757812 L 37.523438 168.757812 L 37.523438 163.394531 L 42.890625 163.394531 L 42.890625 152.6875 L 48.253906 152.6875 L 48.253906 147.324219 L 58.976562 147.324219 L 58.976562 141.96875 L 69.703125 141.96875 L 69.703125 147.324219 " fill-opacity="1" fill-rule="nonzero"/></g><path fill="#5c4f2f" d="M 80.425781 125.902344 L 80.421875 120.539062 L 75.0625 120.542969 L 75.0625 115.1875 L 80.425781 115.179688 L 80.421875 109.824219 L 85.792969 109.824219 L 85.796875 115.1875 L 91.152344 115.179688 L 91.15625 120.539062 L 85.792969 120.542969 L 85.796875 125.902344 L 80.425781 125.902344 " fill-opacity="1" fill-rule="nonzero"/><path fill="#5c4f2f" d="M 91.152344 115.1875 L 91.152344 120.539062 L 85.792969 120.539062 L 85.792969 125.898438 L 80.425781 125.898438 L 80.425781 120.539062 L 75.0625 120.539062 L 75.0625 115.1875 L 80.425781 115.1875 L 80.425781 109.824219 L 85.792969 109.824219 L 85.792969 115.1875 L 91.152344 115.1875 " fill-opacity="1" fill-rule="nonzero"/><path fill="#3a301e" d="M 69.703125 109.832031 L 69.699219 104.46875 L 75.0625 104.464844 L 75.070312 109.832031 L 69.703125 109.832031 " fill-opacity="1" fill-rule="nonzero"/><path fill="#3a301e" d="M 75.0625 104.46875 L 75.0625 109.824219 L 69.703125 109.824219 L 69.703125 104.46875 L 75.0625 104.46875 " fill-opacity="1" fill-rule="nonzero"/><path fill="#3a301e" d="M 58.976562 158.042969 L 58.972656 152.6875 L 64.339844 152.683594 L 64.34375 158.042969 L 58.976562 158.042969 " fill-opacity="1" fill-rule="nonzero"/><path fill="#3a301e" d="M 58.976562 152.6875 L 64.339844 152.6875 L 64.339844 158.039062 L 58.976562 158.039062 L 58.976562 152.6875 " fill-opacity="1" fill-rule="nonzero"/><path fill="#3a301e" d="M 48.253906 99.117188 L 48.25 93.75 L 53.617188 93.746094 L 53.613281 83.042969 L 58.976562 83.039062 L 58.972656 77.683594 L 85.792969 77.679688 L 85.796875 83.042969 L 91.152344 83.039062 L 91.15625 88.398438 L 69.703125 88.402344 L 69.707031 93.75 L 58.976562 93.753906 L 58.980469 99.117188 L 48.253906 99.117188 " fill-opacity="1" fill-rule="nonzero"/><path fill="#3a301e" d="M 48.253906 99.113281 L 48.253906 93.75 L 53.617188 93.75 L 53.617188 83.042969 L 58.976562 83.042969 L 58.976562 77.683594 L 85.792969 77.683594 L 85.792969 83.042969 L 91.152344 83.042969 L 91.152344 88.398438 L 69.703125 88.398438 L 69.703125 93.75 L 58.976562 93.75 L 58.976562 99.113281 L 48.253906 99.113281 " fill-opacity="1" fill-rule="nonzero"/><g clip-path="url(#id5)"><path fill="#3a301e" d="M 48.253906 168.761719 L 48.25 163.394531 L 58.976562 163.390625 L 58.980469 168.761719 L 48.253906 168.761719 " fill-opacity="1" fill-rule="nonzero"/><path fill="#3a301e" d="M 58.976562 163.394531 L 58.976562 168.757812 L 48.253906 168.757812 L 48.253906 163.394531 L 58.976562 163.394531 " fill-opacity="1" fill-rule="nonzero"/></g><g clip-path="url(#id6)"><path fill="#3a301e" d="M 69.703125 168.761719 L 69.699219 152.6875 L 75.0625 152.683594 L 75.0625 147.324219 L 69.703125 147.328125 L 69.699219 136.609375 L 75.0625 136.609375 L 75.0625 125.898438 L 69.703125 125.902344 L 69.699219 120.539062 L 64.339844 120.542969 L 64.335938 115.1875 L 75.0625 115.179688 L 75.0625 109.824219 L 80.425781 109.824219 L 80.429688 115.1875 L 85.792969 115.179688 L 85.789062 109.824219 L 91.152344 109.824219 L 91.15625 115.1875 L 101.878906 115.179688 L 101.882812 120.539062 L 91.152344 120.542969 L 91.15625 125.898438 L 85.792969 125.902344 L 85.796875 131.253906 L 80.425781 131.253906 L 80.429688 136.609375 L 96.519531 136.609375 L 96.523438 141.96875 L 85.792969 141.972656 L 85.796875 147.324219 L 91.152344 147.320312 L 91.15625 152.6875 L 96.519531 152.683594 L 96.523438 158.039062 L 101.878906 158.039062 L 101.882812 163.394531 L 107.242188 163.390625 L 107.246094 168.761719 L 69.703125 168.761719 " fill-opacity="1" fill-rule="nonzero"/><path fill="#3a301e" d="M 107.242188 163.394531 L 107.242188 168.757812 L 69.703125 168.757812 L 69.703125 152.6875 L 75.0625 152.6875 L 75.0625 147.324219 L 69.703125 147.324219 L 69.703125 136.609375 L 75.0625 136.609375 L 75.0625 125.898438 L 69.703125 125.898438 L 69.703125 120.539062 L 64.339844 120.539062 L 64.339844 115.1875 L 75.0625 115.1875 L 75.0625 109.824219 L 80.425781 109.824219 L 80.425781 115.1875 L 85.792969 115.1875 L 85.792969 109.824219 L 91.152344 109.824219 L 91.152344 115.1875 L 101.878906 115.1875 L 101.878906 120.539062 L 91.152344 120.539062 L 91.152344 125.898438 L 85.792969 125.898438 L 85.792969 131.253906 L 80.425781 131.253906 L 80.425781 136.609375 L 96.519531 136.609375 L 96.519531 141.96875 L 85.792969 141.96875 L 85.792969 147.324219 L 91.152344 147.324219 L 91.152344 152.6875 L 96.519531 152.6875 L 96.519531 158.039062 L 101.878906 158.039062 L 101.878906 163.394531 L 107.242188 163.394531 " fill-opacity="1" fill-rule="nonzero"/></g></svg>