<svg xmlns="http://www.w3.org/2000/svg" xmlns:xlink="http://www.w3.org/1999/xlink" width="150" zoomAndPan="magnify" viewBox="0 0 112.5 112.499997" height="150" preserveAspectRatio="xMidYMid meet" version="1.0"><defs><clipPath id="id1"><path d="M 1.582031 1.582031 L 112.003906 1.582031 L 112.003906 112.003906 L 1.582031 112.003906 Z M 1.582031 1.582031 " clip-rule="nonzero"/></clipPath></defs><g clip-path="url(#id1)"><path fill="#c99541" d="M 112.582031 17.355469 L 112.582031 96.808594 C 112.582031 98.328125 111.976562 99.792969 110.902344 100.867188 L 100.867188 110.902344 C 99.792969 111.976562 98.328125 112.582031 96.808594 112.582031 L 17.355469 112.582031 C 15.839844 112.582031 14.375 111.976562 13.296875 110.902344 L 3.265625 100.867188 C 2.1875 99.792969 1.582031 98.328125 1.582031 96.808594 L 1.582031 17.355469 C 1.582031 15.839844 2.1875 14.375 3.265625 13.296875 L 13.296875 3.265625 C 14.375 2.1875 15.839844 1.582031 17.355469 1.582031 L 96.808594 1.582031 C 98.328125 1.582031 99.792969 2.1875 100.867188 3.265625 L 110.902344 13.296875 C 111.976562 14.375 112.582031 15.839844 112.582031 17.355469 " fill-opacity="1" fill-rule="nonzero"/></g><path fill="#e2ac4d" d="M 17.027344 103.808594 L 10.359375 97.136719 C 9.640625 96.421875 9.238281 95.441406 9.238281 94.433594 L 9.238281 19.734375 C 9.238281 18.726562 9.640625 17.746094 10.359375 17.027344 L 17.027344 10.359375 C 17.746094 9.640625 18.726562 9.238281 19.734375 9.238281 L 94.433594 9.238281 C 95.441406 9.238281 96.421875 9.640625 97.136719 10.359375 L 103.808594 17.027344 C 104.523438 17.746094 104.929688 18.726562 104.929688 19.734375 L 104.929688 94.433594 C 104.929688 95.441406 104.523438 96.421875 103.808594 97.136719 L 97.136719 103.808594 C 96.421875 104.523438 95.441406 104.929688 94.433594 104.929688 L 19.734375 104.929688 C 18.726562 104.929688 17.746094 104.523438 17.027344 103.808594 " fill-opacity="1" fill-rule="nonzero"/><path fill="#ffffff" d="M 75.9375 42.28125 C 77.746094 52.910156 70.667969 62.367188 60.910156 64.359375 L 60.910156 68.566406 C 60.910156 69.621094 60.050781 70.480469 58.996094 70.480469 L 55.167969 70.480469 C 54.117188 70.480469 53.257812 69.621094 53.257812 68.566406 L 53.257812 60.515625 C 53.257812 58.617188 54.789062 57.082031 56.6875 57.082031 C 62.527344 57.082031 67.730469 52.898438 68.46875 47.101562 C 69.367188 40.105469 63.917969 34.117188 57.082031 34.117188 C 51.296875 34.117188 46.503906 38.410156 45.714844 43.972656 C 45.578125 44.90625 44.785156 45.601562 43.835938 45.601562 L 39.980469 45.601562 C 38.828125 45.601562 37.9375 44.589844 38.066406 43.449219 C 39.269531 32.765625 49.324219 24.707031 60.6875 26.792969 C 68.433594 28.21875 74.621094 34.515625 75.9375 42.28125 " fill-opacity="1" fill-rule="nonzero"/><path fill="#ffffff" d="M 58.996094 85.789062 L 55.167969 85.789062 C 54.117188 85.789062 53.257812 84.929688 53.257812 83.875 L 53.257812 80.050781 C 53.257812 78.996094 54.117188 78.136719 55.167969 78.136719 L 58.996094 78.136719 C 60.050781 78.136719 60.910156 78.996094 60.910156 80.050781 L 60.910156 83.875 C 60.910156 84.929688 60.050781 85.789062 58.996094 85.789062 " fill-opacity="1" fill-rule="nonzero"/><path fill="#c99541" d="M 26.460938 28.375 L 20.722656 28.375 C 19.667969 28.375 18.808594 27.515625 18.808594 26.460938 L 18.808594 20.722656 C 18.808594 19.667969 19.667969 18.808594 20.722656 18.808594 L 26.460938 18.808594 C 27.515625 18.808594 28.375 19.667969 28.375 20.722656 L 28.375 26.460938 C 28.375 27.515625 27.515625 28.375 26.460938 28.375 " fill-opacity="1" fill-rule="nonzero"/><path fill="#c99541" d="M 28.375 87.703125 L 28.375 93.445312 C 28.375 94.5 27.515625 95.359375 26.460938 95.359375 L 20.722656 95.359375 C 19.667969 95.359375 18.808594 94.5 18.808594 93.445312 L 18.808594 87.703125 C 18.808594 86.648438 19.667969 85.789062 20.722656 85.789062 L 26.460938 85.789062 C 27.515625 85.789062 28.375 86.648438 28.375 87.703125 " fill-opacity="1" fill-rule="nonzero"/><path fill="#c99541" d="M 87.703125 85.789062 L 93.445312 85.789062 C 94.5 85.789062 95.359375 86.648438 95.359375 87.703125 L 95.359375 93.445312 C 95.359375 94.5 94.5 95.359375 93.445312 95.359375 L 87.703125 95.359375 C 86.648438 95.359375 85.789062 94.5 85.789062 93.445312 L 85.789062 87.703125 C 85.789062 86.648438 86.648438 85.789062 87.703125 85.789062 " fill-opacity="1" fill-rule="nonzero"/><path fill="#c99541" d="M 85.789062 26.460938 L 85.789062 20.722656 C 85.789062 19.667969 86.648438 18.808594 87.703125 18.808594 L 93.445312 18.808594 C 94.5 18.808594 95.359375 19.667969 95.359375 20.722656 L 95.359375 26.460938 C 95.359375 27.515625 94.5 28.375 93.445312 28.375 L 87.703125 28.375 C 86.648438 28.375 85.789062 27.515625 85.789062 26.460938 " fill-opacity="1" fill-rule="nonzero"/></svg>