<svg xmlns="http://www.w3.org/2000/svg" xmlns:xlink="http://www.w3.org/1999/xlink" width="250" zoomAndPan="magnify" viewBox="0 0 187.5 187.499992" height="250" preserveAspectRatio="xMidYMid meet" version="1.0"><defs><clipPath id="id1"><path d="M 18.75 21.171875 L 168.75 21.171875 L 168.75 154.671875 L 18.75 154.671875 Z M 18.75 21.171875 " clip-rule="nonzero"/></clipPath></defs><g clip-path="url(#id1)"><path fill="#ee242d" d="M 151.996094 54.542969 L 151.996094 37.855469 L 135.359375 37.855469 L 135.359375 21.167969 L 118.714844 21.167969 L 118.714844 37.855469 L 102.074219 37.855469 L 102.074219 54.542969 L 85.433594 54.542969 L 85.433594 37.855469 L 68.796875 37.855469 L 68.796875 21.167969 L 52.15625 21.167969 L 52.15625 37.855469 L 35.511719 37.855469 L 35.511719 54.542969 L 18.875 54.542969 L 18.875 87.917969 L 35.511719 87.917969 L 35.511719 104.605469 L 52.15625 104.605469 L 52.15625 121.292969 L 68.796875 121.292969 L 68.796875 137.980469 L 85.433594 137.980469 L 85.433594 154.667969 L 102.074219 154.667969 L 102.074219 137.980469 L 118.714844 137.980469 L 118.714844 121.292969 L 135.359375 121.292969 L 135.359375 104.605469 L 151.996094 104.605469 L 151.996094 87.917969 L 168.636719 87.917969 L 168.636719 54.542969 L 151.996094 54.542969 " fill-opacity="1" fill-rule="nonzero"/></g></svg>