<svg xmlns="http://www.w3.org/2000/svg" xmlns:xlink="http://www.w3.org/1999/xlink" width="250" zoomAndPan="magnify" viewBox="0 0 187.5 187.499992" height="250" preserveAspectRatio="xMidYMid meet" version="1.0"><defs><clipPath id="id1"><path d="M 9 137 L 75 137 L 75 187 L 9 187 Z M 9 137 " clip-rule="nonzero"/></clipPath><clipPath id="id2"><path d="M 9 138 L 63 138 L 63 187 L 9 187 Z M 9 138 " clip-rule="nonzero"/></clipPath><clipPath id="id3"><path d="M 150 150 L 187 150 L 187 187 L 150 187 Z M 150 150 " clip-rule="nonzero"/></clipPath><clipPath id="id4"><path d="M 103 137 L 169 137 L 169 187 L 103 187 Z M 103 137 " clip-rule="nonzero"/></clipPath><clipPath id="id5"><path d="M 103 137 L 160 137 L 160 187 L 103 187 Z M 103 137 " clip-rule="nonzero"/></clipPath><clipPath id="id6"><path d="M 18 146 L 44 146 L 44 187 L 18 187 Z M 18 146 " clip-rule="nonzero"/></clipPath><clipPath id="id7"><path d="M 112 146 L 138 146 L 138 187 L 112 187 Z M 112 146 " clip-rule="nonzero"/></clipPath></defs><path fill="#55ba36" d="M 25 146.875 C 25 147.695312 24.921875 148.507812 24.761719 149.3125 C 24.601562 150.117188 24.363281 150.898438 24.046875 151.660156 C 23.734375 152.417969 23.347656 153.136719 22.894531 153.820312 C 22.4375 154.503906 21.917969 155.132812 21.339844 155.714844 C 20.757812 156.292969 20.128906 156.8125 19.445312 157.269531 C 18.761719 157.722656 18.042969 158.109375 17.285156 158.421875 C 16.523438 158.738281 15.742188 158.976562 14.9375 159.136719 C 14.132812 159.292969 13.320312 159.375 12.5 159.375 C 11.679688 159.375 10.867188 159.292969 10.0625 159.136719 C 9.257812 158.976562 8.476562 158.738281 7.714844 158.421875 C 6.957031 158.109375 6.238281 157.722656 5.554688 157.269531 C 4.871094 156.8125 4.242188 156.292969 3.660156 155.714844 C 3.082031 155.132812 2.5625 154.503906 2.105469 153.820312 C 1.652344 153.136719 1.265625 152.417969 0.953125 151.660156 C 0.636719 150.898438 0.398438 150.117188 0.238281 149.3125 C 0.078125 148.507812 0 147.695312 0 146.875 C 0 146.054688 0.078125 145.242188 0.238281 144.4375 C 0.398438 143.632812 0.636719 142.851562 0.953125 142.089844 C 1.265625 141.332031 1.652344 140.613281 2.105469 139.929688 C 2.5625 139.246094 3.082031 138.617188 3.660156 138.035156 C 4.242188 137.457031 4.871094 136.9375 5.554688 136.480469 C 6.238281 136.027344 6.957031 135.640625 7.714844 135.328125 C 8.476562 135.011719 9.257812 134.773438 10.0625 134.613281 C 10.867188 134.453125 11.679688 134.375 12.5 134.375 C 13.320312 134.375 14.132812 134.453125 14.9375 134.613281 C 15.742188 134.773438 16.523438 135.011719 17.285156 135.328125 C 18.042969 135.640625 18.761719 136.027344 19.445312 136.480469 C 20.128906 136.9375 20.757812 137.457031 21.339844 138.035156 C 21.917969 138.617188 22.4375 139.246094 22.894531 139.929688 C 23.347656 140.613281 23.734375 141.332031 24.046875 142.089844 C 24.363281 142.851562 24.601562 143.632812 24.761719 144.4375 C 24.921875 145.242188 25 146.054688 25 146.875 Z M 25 146.875 " fill-opacity="1" fill-rule="nonzero"/><g clip-path="url(#id1)"><path fill="#55ba36" d="M 42.1875 137.5 C 24.066406 137.5 9.375 152.191406 9.375 170.3125 C 9.375 179.804688 17.070312 187.5 26.5625 187.5 L 57.8125 187.5 C 67.304688 187.5 75 179.804688 75 170.3125 C 75 152.191406 60.308594 137.5 42.1875 137.5 Z M 42.1875 137.5 " fill-opacity="1" fill-rule="nonzero"/></g><g clip-path="url(#id2)"><path fill="#71f249" d="M 62.5 170.3125 C 62.5 154.328125 51.070312 141.03125 35.9375 138.113281 C 20.804688 141.03125 9.375 154.328125 9.375 170.3125 C 9.375 179.804688 17.070312 187.5 26.5625 187.5 L 45.3125 187.5 C 54.804688 187.5 62.5 179.804688 62.5 170.3125 Z M 62.5 170.3125 " fill-opacity="1" fill-rule="nonzero"/></g><g clip-path="url(#id3)"><path fill="#55ba36" d="M 187.5 168.75 C 187.5 169.363281 187.46875 169.976562 187.410156 170.585938 C 187.347656 171.199219 187.257812 171.804688 187.140625 172.40625 C 187.019531 173.011719 186.871094 173.605469 186.691406 174.191406 C 186.515625 174.78125 186.308594 175.359375 186.074219 175.925781 C 185.835938 176.492188 185.574219 177.046875 185.285156 177.589844 C 184.996094 178.128906 184.679688 178.65625 184.339844 179.167969 C 184 179.675781 183.632812 180.171875 183.242188 180.644531 C 182.855469 181.121094 182.441406 181.574219 182.007812 182.007812 C 181.574219 182.441406 181.121094 182.855469 180.644531 183.242188 C 180.171875 183.632812 179.675781 184 179.167969 184.339844 C 178.65625 184.679688 178.128906 184.996094 177.589844 185.285156 C 177.046875 185.574219 176.492188 185.835938 175.925781 186.074219 C 175.359375 186.308594 174.78125 186.515625 174.191406 186.691406 C 173.605469 186.871094 173.011719 187.019531 172.40625 187.140625 C 171.804688 187.257812 171.199219 187.347656 170.585938 187.410156 C 169.976562 187.46875 169.363281 187.5 168.75 187.5 C 168.136719 187.5 167.523438 187.46875 166.914062 187.410156 C 166.300781 187.347656 165.695312 187.257812 165.09375 187.140625 C 164.488281 187.019531 163.894531 186.871094 163.308594 186.691406 C 162.71875 186.515625 162.140625 186.308594 161.574219 186.074219 C 161.007812 185.835938 160.453125 185.574219 159.910156 185.285156 C 159.371094 184.996094 158.84375 184.679688 158.332031 184.339844 C 157.824219 184 157.328125 183.632812 156.855469 183.242188 C 156.378906 182.855469 155.925781 182.441406 155.492188 182.007812 C 155.058594 181.574219 154.644531 181.121094 154.257812 180.644531 C 153.867188 180.171875 153.5 179.675781 153.160156 179.167969 C 152.820312 178.65625 152.503906 178.128906 152.214844 177.589844 C 151.925781 177.046875 151.664062 176.492188 151.425781 175.925781 C 151.191406 175.359375 150.984375 174.78125 150.808594 174.191406 C 150.628906 173.605469 150.480469 173.011719 150.359375 172.40625 C 150.242188 171.804688 150.152344 171.199219 150.089844 170.585938 C 150.03125 169.976562 150 169.363281 150 168.75 C 150 168.136719 150.03125 167.523438 150.089844 166.914062 C 150.152344 166.300781 150.242188 165.695312 150.359375 165.09375 C 150.480469 164.488281 150.628906 163.894531 150.808594 163.308594 C 150.984375 162.71875 151.191406 162.140625 151.425781 161.574219 C 151.664062 161.007812 151.925781 160.453125 152.214844 159.910156 C 152.503906 159.371094 152.820312 158.84375 153.160156 158.332031 C 153.5 157.824219 153.867188 157.328125 154.257812 156.855469 C 154.644531 156.378906 155.058594 155.925781 155.492188 155.492188 C 155.925781 155.058594 156.378906 154.644531 156.855469 154.257812 C 157.328125 153.867188 157.824219 153.5 158.332031 153.160156 C 158.84375 152.820312 159.371094 152.503906 159.910156 152.214844 C 160.453125 151.925781 161.007812 151.664062 161.574219 151.425781 C 162.140625 151.191406 162.71875 150.984375 163.308594 150.808594 C 163.894531 150.628906 164.488281 150.480469 165.09375 150.359375 C 165.695312 150.242188 166.300781 150.152344 166.914062 150.089844 C 167.523438 150.03125 168.136719 150 168.75 150 C 169.363281 150 169.976562 150.03125 170.585938 150.089844 C 171.199219 150.152344 171.804688 150.242188 172.40625 150.359375 C 173.011719 150.480469 173.605469 150.628906 174.191406 150.808594 C 174.78125 150.984375 175.359375 151.191406 175.925781 151.425781 C 176.492188 151.664062 177.046875 151.925781 177.589844 152.214844 C 178.128906 152.503906 178.65625 152.820312 179.167969 153.160156 C 179.675781 153.5 180.171875 153.867188 180.644531 154.257812 C 181.121094 154.644531 181.574219 155.058594 182.007812 155.492188 C 182.441406 155.925781 182.855469 156.378906 183.242188 156.855469 C 183.632812 157.328125 184 157.824219 184.339844 158.332031 C 184.679688 158.84375 184.996094 159.371094 185.285156 159.910156 C 185.574219 160.453125 185.835938 161.007812 186.074219 161.574219 C 186.308594 162.140625 186.515625 162.71875 186.691406 163.308594 C 186.871094 163.894531 187.019531 164.488281 187.140625 165.09375 C 187.257812 165.695312 187.347656 166.300781 187.410156 166.914062 C 187.46875 167.523438 187.5 168.136719 187.5 168.75 Z M 187.5 168.75 " fill-opacity="1" fill-rule="nonzero"/></g><path fill="#71f249" d="M 178.125 168.75 C 178.125 169.34375 178.101562 169.9375 178.058594 170.527344 C 178.011719 171.117188 177.945312 171.707031 177.855469 172.289062 C 177.765625 172.871094 177.652344 173.445312 177.519531 174.015625 C 177.386719 174.582031 177.230469 175.140625 177.054688 175.691406 C 176.878906 176.238281 176.679688 176.773438 176.464844 177.296875 C 176.246094 177.820312 176.011719 178.332031 175.753906 178.824219 C 175.5 179.320312 175.226562 179.796875 174.933594 180.253906 C 174.640625 180.714844 174.332031 181.152344 174.007812 181.574219 C 173.679688 181.992188 173.339844 182.390625 172.984375 182.769531 C 172.628906 183.144531 172.257812 183.5 171.875 183.828125 C 171.492188 184.15625 171.097656 184.464844 170.691406 184.742188 C 170.285156 185.023438 169.871094 185.277344 169.445312 185.503906 C 169.019531 185.730469 168.585938 185.929688 168.144531 186.101562 C 167.703125 186.277344 167.257812 186.421875 166.804688 186.535156 C 166.355469 186.652344 165.898438 186.738281 165.441406 186.796875 C 164.984375 186.855469 164.523438 186.882812 164.0625 186.882812 C 163.601562 186.882812 163.140625 186.855469 162.683594 186.796875 C 162.226562 186.738281 161.769531 186.652344 161.320312 186.535156 C 160.867188 186.421875 160.421875 186.277344 159.980469 186.101562 C 159.539062 185.929688 159.105469 185.730469 158.679688 185.503906 C 158.253906 185.277344 157.839844 185.023438 157.433594 184.742188 C 157.027344 184.464844 156.632812 184.15625 156.25 183.828125 C 155.867188 183.5 155.496094 183.144531 155.140625 182.769531 C 154.785156 182.390625 154.445312 181.992188 154.117188 181.574219 C 153.792969 181.152344 153.484375 180.714844 153.191406 180.253906 C 152.898438 179.796875 152.625 179.320312 152.371094 178.824219 C 152.113281 178.332031 151.878906 177.820312 151.660156 177.296875 C 151.441406 176.773438 151.246094 176.238281 151.070312 175.691406 C 150.894531 175.140625 150.738281 174.582031 150.605469 174.015625 C 150.472656 173.445312 150.359375 172.871094 150.269531 172.289062 C 150.179688 171.707031 150.113281 171.117188 150.066406 170.527344 C 150.023438 169.9375 150 169.34375 150 168.75 C 150 168.15625 150.023438 167.5625 150.066406 166.972656 C 150.113281 166.382812 150.179688 165.792969 150.269531 165.210938 C 150.359375 164.628906 150.472656 164.054688 150.605469 163.484375 C 150.738281 162.917969 150.894531 162.359375 151.070312 161.808594 C 151.246094 161.261719 151.441406 160.726562 151.660156 160.203125 C 151.878906 159.675781 152.113281 159.167969 152.371094 158.675781 C 152.625 158.179688 152.898438 157.703125 153.191406 157.246094 C 153.484375 156.785156 153.792969 156.347656 154.117188 155.925781 C 154.445312 155.507812 154.785156 155.109375 155.140625 154.730469 C 155.496094 154.355469 155.867188 154 156.25 153.671875 C 156.632812 153.34375 157.027344 153.035156 157.433594 152.757812 C 157.839844 152.476562 158.253906 152.222656 158.679688 151.996094 C 159.105469 151.769531 159.539062 151.570312 159.980469 151.394531 C 160.421875 151.222656 160.867188 151.078125 161.320312 150.964844 C 161.769531 150.847656 162.226562 150.761719 162.683594 150.703125 C 163.140625 150.644531 163.601562 150.617188 164.0625 150.617188 C 164.523438 150.617188 164.984375 150.644531 165.441406 150.703125 C 165.898438 150.761719 166.355469 150.847656 166.804688 150.964844 C 167.257812 151.078125 167.703125 151.222656 168.144531 151.394531 C 168.585938 151.570312 169.019531 151.769531 169.445312 151.996094 C 169.871094 152.222656 170.285156 152.476562 170.691406 152.757812 C 171.097656 153.035156 171.492188 153.34375 171.875 153.671875 C 172.257812 154 172.628906 154.355469 172.984375 154.730469 C 173.339844 155.109375 173.679688 155.507812 174.007812 155.925781 C 174.332031 156.347656 174.640625 156.785156 174.933594 157.246094 C 175.226562 157.703125 175.5 158.179688 175.753906 158.675781 C 176.011719 159.167969 176.246094 159.675781 176.464844 160.203125 C 176.679688 160.726562 176.878906 161.261719 177.054688 161.808594 C 177.230469 162.359375 177.386719 162.917969 177.519531 163.484375 C 177.652344 164.054688 177.765625 164.628906 177.855469 165.210938 C 177.945312 165.792969 178.011719 166.382812 178.058594 166.972656 C 178.101562 167.5625 178.125 168.15625 178.125 168.75 Z M 178.125 168.75 " fill-opacity="1" fill-rule="nonzero"/><path fill="#55ba36" d="M 75 121.875 L 112.5 121.875 L 112.5 175 L 75 175 Z M 75 121.875 " fill-opacity="1" fill-rule="nonzero"/><path fill="#71f249" d="M 75 121.875 L 100 121.875 L 100 175 L 75 175 Z M 75 121.875 " fill-opacity="1" fill-rule="nonzero"/><g clip-path="url(#id4)"><path fill="#55ba36" d="M 135.9375 137.5 C 117.816406 137.5 103.125 152.191406 103.125 170.3125 C 103.125 179.804688 110.820312 187.5 120.3125 187.5 L 151.5625 187.5 C 161.054688 187.5 168.75 179.804688 168.75 170.3125 C 168.75 152.191406 154.058594 137.5 135.9375 137.5 Z M 135.9375 137.5 " fill-opacity="1" fill-rule="nonzero"/></g><g clip-path="url(#id5)"><path fill="#71f249" d="M 159.375 170.3125 C 159.375 153.789062 147.144531 140.152344 131.25 137.871094 C 115.355469 140.152344 103.125 153.785156 103.125 170.3125 C 103.125 179.804688 110.820312 187.5 120.3125 187.5 L 142.1875 187.5 C 151.679688 187.5 159.375 179.804688 159.375 170.3125 Z M 159.375 170.3125 " fill-opacity="1" fill-rule="nonzero"/></g><path fill="#eb6a2b" d="M 146.597656 111.609375 C 166.46875 96.414062 178.125 72.824219 178.125 47.8125 L 178.125 46.875 L 159.375 12.5 L 134.375 40.625 L 93.75 0 L 53.125 40.625 L 28.125 12.5 L 9.375 46.875 L 9.375 47.8125 C 9.375 72.828125 21.03125 96.414062 40.902344 111.609375 C 54.910156 122.320312 72.054688 128.125 89.6875 128.125 L 97.8125 128.125 C 115.445312 128.125 132.589844 122.320312 146.597656 111.609375 Z M 146.597656 111.609375 " fill-opacity="1" fill-rule="nonzero"/><path fill="#f08634" d="M 134.375 40.625 L 126.101562 32.351562 L 118.75 40.625 L 85.9375 7.8125 L 53.125 40.625 L 45.773438 32.351562 L 37.5 40.625 L 22.183594 23.394531 L 9.375 46.875 L 9.375 47.8125 C 9.375 72.828125 21.03125 96.414062 40.902344 111.609375 C 53.914062 121.558594 69.636719 127.210938 85.9375 127.972656 C 102.238281 127.210938 117.960938 121.558594 130.972656 111.609375 C 150.84375 96.414062 162.5 72.824219 162.5 47.8125 L 162.5 46.875 L 149.691406 23.394531 Z M 134.375 40.625 " fill-opacity="1" fill-rule="nonzero"/><g clip-path="url(#id6)"><path fill="#55ba36" d="M 18.75 171.875 L 18.75 185.609375 C 20.65625 186.585938 22.761719 187.21875 25 187.421875 L 25 171.875 C 25 161.535156 33.410156 153.125 43.75 153.125 L 43.75 146.875 C 29.964844 146.875 18.75 158.089844 18.75 171.875 Z M 18.75 171.875 " fill-opacity="1" fill-rule="nonzero"/></g><g clip-path="url(#id7)"><path fill="#55ba36" d="M 112.5 171.875 L 112.5 185.609375 C 114.40625 186.585938 116.511719 187.21875 118.75 187.421875 L 118.75 171.875 C 118.75 161.535156 127.160156 153.125 137.5 153.125 L 137.5 146.875 C 123.714844 146.875 112.5 158.089844 112.5 171.875 Z M 112.5 171.875 " fill-opacity="1" fill-rule="nonzero"/></g><path fill="#eb6a2b" d="M 87.5 87.5 L 81.25 87.5 C 81.25 77.160156 72.839844 68.75 62.5 68.75 C 52.160156 68.75 43.75 77.160156 43.75 87.5 L 37.5 87.5 C 37.5 73.714844 48.714844 62.5 62.5 62.5 C 76.285156 62.5 87.5 73.714844 87.5 87.5 Z M 87.5 87.5 " fill-opacity="1" fill-rule="nonzero"/><path fill="#eb6a2b" d="M 150 87.5 L 143.75 87.5 C 143.75 77.160156 135.339844 68.75 125 68.75 C 114.660156 68.75 106.25 77.160156 106.25 87.5 L 100 87.5 C 100 73.714844 111.214844 62.5 125 62.5 C 138.785156 62.5 150 73.714844 150 87.5 Z M 150 87.5 " fill-opacity="1" fill-rule="nonzero"/></svg>