<svg xmlns="http://www.w3.org/2000/svg" xmlns:xlink="http://www.w3.org/1999/xlink" width="250" zoomAndPan="magnify" viewBox="0 0 187.5 187.499992" height="250" preserveAspectRatio="xMidYMid meet" version="1.0"><defs><clipPath id="id1"><path d="M 151 81 L 187 81 L 187 114 L 151 114 Z M 151 81 " clip-rule="nonzero"/></clipPath><clipPath id="id2"><path d="M 24 93 L 164 93 L 164 163.007812 L 24 163.007812 Z M 24 93 " clip-rule="nonzero"/></clipPath><clipPath id="id3"><path d="M 24 24.257812 L 163 24.257812 L 163 85 L 24 85 Z M 24 24.257812 " clip-rule="nonzero"/></clipPath></defs><path fill="#cdd1d8" d="M 27.890625 84.582031 C 32.3125 52.214844 60.113281 27.273438 93.75 27.273438 C 127.386719 27.273438 155.1875 52.214844 159.609375 84.582031 L 178.527344 84.582031 C 181.765625 84.582031 184.390625 87.203125 184.390625 90.4375 C 184.390625 92.429688 183.375 94.285156 181.699219 95.359375 L 158.042969 110.546875 L 158.046875 110.546875 C 150.550781 139 124.609375 159.992188 93.75 159.992188 C 62.890625 159.992188 36.949219 139 29.457031 110.546875 L 5.800781 95.359375 C 4.125 94.285156 3.109375 92.429688 3.109375 90.4375 C 3.109375 87.203125 5.734375 84.582031 8.972656 84.582031 Z M 27.890625 84.582031 " fill-opacity="1" fill-rule="nonzero"/><path fill="#e6e9ed" d="M 175.328125 96.472656 C 175.328125 93.238281 172.703125 90.617188 169.464844 90.617188 L 150.542969 90.617188 C 146.121094 58.25 118.324219 33.308594 84.6875 33.308594 C 73.011719 33.308594 62.074219 36.367188 52.539062 41.644531 C 39.410156 52.027344 30.265625 67.214844 27.890625 84.582031 L 19.941406 84.582031 C 19.484375 86.5625 19.109375 88.574219 18.828125 90.617188 L 3.132812 90.617188 C 3.191406 92.539062 4.175781 94.316406 5.804688 95.359375 L 29.460938 110.546875 C 36.949219 139 62.890625 159.992188 93.75 159.992188 C 105.410156 159.992188 116.363281 156.988281 125.886719 151.722656 C 137.011719 142.929688 145.265625 130.675781 148.976562 116.578125 L 157.960938 110.8125 C 157.984375 110.71875 158.019531 110.636719 158.042969 110.546875 L 158.039062 110.546875 L 173.746094 100.46875 C 174.746094 99.394531 175.328125 97.972656 175.328125 96.472656 Z M 175.328125 96.472656 " fill-opacity="1" fill-rule="nonzero"/><path fill="#ffffff" d="M 87.707031 72.519531 C 87.707031 73.707031 87.628906 74.882812 87.476562 76.050781 C 87.320312 77.214844 87.089844 78.347656 86.789062 79.445312 C 86.484375 80.542969 86.109375 81.585938 85.671875 82.574219 C 85.230469 83.5625 84.730469 84.476562 84.167969 85.316406 C 83.605469 86.15625 82.996094 86.90625 82.335938 87.566406 C 81.675781 88.226562 80.980469 88.785156 80.246094 89.238281 C 79.511719 89.695312 78.757812 90.035156 77.980469 90.269531 C 77.199219 90.5 76.414062 90.617188 75.621094 90.617188 C 74.828125 90.617188 74.042969 90.5 73.265625 90.269531 C 72.484375 90.035156 71.730469 89.695312 70.996094 89.238281 C 70.261719 88.785156 69.566406 88.226562 68.90625 87.566406 C 68.246094 86.90625 67.636719 86.15625 67.074219 85.316406 C 66.515625 84.476562 66.011719 83.5625 65.574219 82.574219 C 65.132812 81.585938 64.757812 80.542969 64.457031 79.445312 C 64.152344 78.347656 63.921875 77.214844 63.769531 76.050781 C 63.613281 74.882812 63.535156 73.707031 63.535156 72.519531 C 63.535156 71.332031 63.613281 70.152344 63.769531 68.988281 C 63.921875 67.824219 64.152344 66.691406 64.457031 65.59375 C 64.757812 64.496094 65.132812 63.453125 65.574219 62.464844 C 66.011719 61.476562 66.515625 60.5625 67.074219 59.722656 C 67.636719 58.882812 68.246094 58.132812 68.90625 57.472656 C 69.566406 56.8125 70.261719 56.253906 70.996094 55.796875 C 71.730469 55.34375 72.484375 55 73.265625 54.769531 C 74.042969 54.535156 74.828125 54.421875 75.621094 54.421875 C 76.414062 54.421875 77.199219 54.535156 77.980469 54.769531 C 78.757812 55 79.511719 55.34375 80.246094 55.796875 C 80.980469 56.253906 81.675781 56.8125 82.335938 57.472656 C 82.996094 58.132812 83.605469 58.882812 84.167969 59.722656 C 84.730469 60.5625 85.230469 61.476562 85.671875 62.464844 C 86.109375 63.453125 86.484375 64.496094 86.789062 65.59375 C 87.089844 66.691406 87.320312 67.824219 87.476562 68.988281 C 87.628906 70.152344 87.707031 71.332031 87.707031 72.519531 Z M 87.707031 72.519531 " fill-opacity="1" fill-rule="nonzero"/><path fill="#ffffff" d="M 123.964844 72.519531 C 123.964844 73.707031 123.886719 74.882812 123.730469 76.050781 C 123.578125 77.214844 123.347656 78.347656 123.042969 79.445312 C 122.742188 80.542969 122.367188 81.585938 121.925781 82.574219 C 121.484375 83.5625 120.984375 84.476562 120.425781 85.316406 C 119.863281 86.15625 119.253906 86.90625 118.59375 87.566406 C 117.933594 88.226562 117.238281 88.785156 116.503906 89.238281 C 115.769531 89.695312 115.015625 90.035156 114.234375 90.269531 C 113.457031 90.5 112.671875 90.617188 111.878906 90.617188 C 111.085938 90.617188 110.300781 90.5 109.519531 90.269531 C 108.742188 90.035156 107.988281 89.695312 107.253906 89.238281 C 106.519531 88.785156 105.824219 88.226562 105.164062 87.566406 C 104.503906 86.90625 103.894531 86.15625 103.332031 85.316406 C 102.769531 84.476562 102.269531 83.5625 101.828125 82.574219 C 101.390625 81.585938 101.015625 80.542969 100.710938 79.445312 C 100.410156 78.347656 100.179688 77.214844 100.023438 76.050781 C 99.871094 74.882812 99.792969 73.707031 99.792969 72.519531 C 99.792969 71.332031 99.871094 70.152344 100.023438 68.988281 C 100.179688 67.824219 100.410156 66.691406 100.710938 65.59375 C 101.015625 64.496094 101.390625 63.453125 101.828125 62.464844 C 102.269531 61.476562 102.769531 60.5625 103.332031 59.722656 C 103.894531 58.882812 104.503906 58.132812 105.164062 57.472656 C 105.824219 56.8125 106.519531 56.253906 107.253906 55.796875 C 107.988281 55.34375 108.742188 55 109.519531 54.769531 C 110.300781 54.535156 111.085938 54.421875 111.878906 54.421875 C 112.671875 54.421875 113.457031 54.535156 114.234375 54.769531 C 115.015625 55 115.769531 55.34375 116.503906 55.796875 C 117.238281 56.253906 117.933594 56.8125 118.59375 57.472656 C 119.253906 58.132812 119.863281 58.882812 120.425781 59.722656 C 120.984375 60.5625 121.484375 61.476562 121.925781 62.464844 C 122.367188 63.453125 122.742188 64.496094 123.042969 65.59375 C 123.347656 66.691406 123.578125 67.824219 123.730469 68.988281 C 123.886719 70.152344 123.964844 71.332031 123.964844 72.519531 Z M 123.964844 72.519531 " fill-opacity="1" fill-rule="nonzero"/><path fill="#3f4568" d="M 130.007812 102.683594 C 130.007812 127.667969 113.773438 147.925781 93.75 147.925781 C 73.726562 147.925781 57.492188 127.667969 57.492188 102.683594 Z M 130.007812 102.683594 " fill-opacity="1" fill-rule="nonzero"/><path fill="#b13c37" d="M 93.75 126.8125 C 85.40625 126.8125 78.378906 133.378906 76.269531 142.316406 C 81.457031 145.882812 87.40625 147.925781 93.75 147.925781 C 100.09375 147.925781 106.042969 145.882812 111.230469 142.316406 C 109.121094 133.378906 102.09375 126.8125 93.75 126.8125 Z M 93.75 126.8125 " fill-opacity="1" fill-rule="nonzero"/><path fill="#c64944" d="M 93.75 132.84375 C 87.027344 132.84375 81.210938 137.144531 78.082031 143.472656 C 82.824219 146.320312 88.132812 147.925781 93.75 147.925781 C 99.367188 147.925781 104.675781 146.320312 109.417969 143.472656 C 106.289062 137.144531 100.472656 132.84375 93.75 132.84375 Z M 93.75 132.84375 " fill-opacity="1" fill-rule="nonzero"/><path fill="#ffffff" d="M 90.730469 102.683594 L 87.707031 117.761719 L 77.886719 107.960938 L 75.621094 123.796875 L 66.558594 102.683594 Z M 90.730469 102.683594 " fill-opacity="1" fill-rule="nonzero"/><path fill="#ffffff" d="M 96.769531 102.683594 L 99.792969 117.761719 L 109.613281 107.960938 L 111.878906 123.796875 L 120.941406 102.683594 Z M 96.769531 102.683594 " fill-opacity="1" fill-rule="nonzero"/><path fill="#000000" d="M 93.75 150.941406 C 72.09375 150.941406 54.472656 129.292969 54.472656 102.683594 C 54.472656 101.015625 55.824219 99.664062 57.492188 99.664062 L 130.007812 99.664062 C 131.675781 99.664062 133.027344 101.015625 133.027344 102.683594 C 133.027344 129.292969 115.40625 150.941406 93.75 150.941406 Z M 60.597656 105.699219 C 61.824219 127.582031 76.222656 144.910156 93.75 144.910156 C 111.277344 144.910156 125.675781 127.582031 126.902344 105.699219 Z M 60.597656 105.699219 " fill-opacity="1" fill-rule="nonzero"/><path fill="#000000" d="M 75.621094 126.8125 C 74.425781 126.8125 73.324219 126.101562 72.84375 124.984375 L 63.78125 103.871094 L 69.335938 101.496094 L 74.15625 112.722656 L 75.652344 102.257812 L 81.632812 103.109375 L 78.613281 124.222656 C 78.421875 125.558594 77.359375 126.609375 76.015625 126.789062 C 75.882812 126.804688 75.75 126.8125 75.621094 126.8125 Z M 75.621094 126.8125 " fill-opacity="1" fill-rule="nonzero"/><path fill="#000000" d="M 111.878906 126.8125 C 111.75 126.8125 111.617188 126.804688 111.484375 126.785156 C 110.140625 126.605469 109.078125 125.558594 108.886719 124.222656 L 105.867188 103.105469 L 111.847656 102.253906 L 113.34375 112.71875 L 118.164062 101.492188 L 123.71875 103.867188 L 114.65625 124.980469 C 114.175781 126.101562 113.074219 126.8125 111.878906 126.8125 Z M 111.878906 126.8125 " fill-opacity="1" fill-rule="nonzero"/><path fill="#000000" d="M 87.707031 120.78125 C 86.914062 120.78125 86.144531 120.46875 85.570312 119.894531 L 76.507812 110.847656 L 80.777344 106.582031 L 85.851562 111.644531 L 87.769531 102.089844 L 93.691406 103.277344 L 90.671875 118.359375 C 90.453125 119.445312 89.648438 120.332031 88.585938 120.652344 C 88.292969 120.738281 88 120.78125 87.707031 120.78125 Z M 87.707031 120.78125 " fill-opacity="1" fill-rule="nonzero"/><path fill="#000000" d="M 99.792969 120.78125 C 99.5 120.78125 99.207031 120.738281 98.917969 120.648438 C 97.851562 120.332031 97.050781 119.445312 96.832031 118.355469 L 93.808594 103.273438 L 99.734375 102.085938 L 101.652344 111.644531 L 106.722656 106.578125 L 110.996094 110.84375 L 101.933594 119.894531 C 101.355469 120.46875 100.585938 120.78125 99.792969 120.78125 Z M 99.792969 120.78125 " fill-opacity="1" fill-rule="nonzero"/><path fill="#000000" d="M 108.292969 143.019531 C 106.460938 135.25 100.480469 129.828125 93.75 129.828125 C 87.015625 129.828125 81.035156 135.25 79.207031 143.015625 L 73.324219 141.636719 C 75.800781 131.132812 84.199219 123.796875 93.75 123.796875 C 103.296875 123.796875 111.695312 131.132812 114.175781 141.632812 Z M 108.292969 143.019531 " fill-opacity="1" fill-rule="nonzero"/><path fill="#000000" d="M 75.621094 93.632812 C 67.148438 93.632812 60.515625 84.359375 60.515625 72.519531 C 60.515625 60.679688 67.148438 51.40625 75.621094 51.40625 C 84.09375 51.40625 90.730469 60.679688 90.730469 72.519531 C 90.730469 84.359375 84.09375 93.632812 75.621094 93.632812 Z M 75.621094 57.4375 C 70.707031 57.4375 66.558594 64.34375 66.558594 72.519531 C 66.558594 80.691406 70.707031 87.601562 75.621094 87.601562 C 80.535156 87.601562 84.6875 80.691406 84.6875 72.519531 C 84.6875 64.34375 80.535156 57.4375 75.621094 57.4375 Z M 75.621094 57.4375 " fill-opacity="1" fill-rule="nonzero"/><path fill="#000000" d="M 75.621094 78.550781 C 72.289062 78.550781 69.578125 75.84375 69.578125 72.519531 C 69.578125 69.191406 72.289062 66.484375 75.621094 66.484375 C 78.953125 66.484375 81.664062 69.191406 81.664062 72.519531 C 81.664062 75.84375 78.953125 78.550781 75.621094 78.550781 Z M 75.621094 72.511719 L 75.621094 72.519531 Z M 75.621094 72.511719 " fill-opacity="1" fill-rule="nonzero"/><path fill="#000000" d="M 111.878906 93.632812 C 103.40625 93.632812 96.769531 84.359375 96.769531 72.519531 C 96.769531 60.679688 103.40625 51.40625 111.878906 51.40625 C 120.351562 51.40625 126.984375 60.679688 126.984375 72.519531 C 126.984375 84.359375 120.351562 93.632812 111.878906 93.632812 Z M 111.878906 57.4375 C 106.964844 57.4375 102.8125 64.34375 102.8125 72.519531 C 102.8125 80.691406 106.964844 87.601562 111.878906 87.601562 C 116.792969 87.601562 120.941406 80.691406 120.941406 72.519531 C 120.941406 64.34375 116.792969 57.4375 111.878906 57.4375 Z M 111.878906 57.4375 " fill-opacity="1" fill-rule="nonzero"/><path fill="#000000" d="M 111.878906 78.550781 C 108.546875 78.550781 105.835938 75.84375 105.835938 72.519531 C 105.835938 69.191406 108.546875 66.484375 111.878906 66.484375 C 115.210938 66.484375 117.921875 69.191406 117.921875 72.519531 C 117.921875 75.84375 115.210938 78.550781 111.878906 78.550781 Z M 111.878906 72.511719 L 111.878906 72.519531 Z M 111.878906 72.511719 " fill-opacity="1" fill-rule="nonzero"/><path fill="#000000" d="M 75.621094 57.4375 C 75.082031 57.4375 74.546875 57.292969 74.066406 57.003906 L 58.957031 47.957031 L 62.066406 42.785156 L 75.621094 50.902344 L 89.171875 42.785156 L 92.28125 47.960938 L 77.175781 57.007812 C 76.695312 57.292969 76.160156 57.4375 75.621094 57.4375 Z M 75.621094 57.4375 " fill-opacity="1" fill-rule="nonzero"/><path fill="#000000" d="M 111.878906 57.4375 C 111.339844 57.4375 110.804688 57.292969 110.324219 57.003906 L 95.214844 47.957031 L 98.324219 42.785156 L 111.878906 50.902344 L 125.429688 42.785156 L 128.539062 47.960938 L 113.429688 57.007812 C 112.953125 57.292969 112.417969 57.4375 111.878906 57.4375 Z M 111.878906 57.4375 " fill-opacity="1" fill-rule="nonzero"/><g clip-path="url(#id1)"><path fill="#000000" d="M 159.675781 113.078125 L 156.40625 108.003906 L 180.0625 92.824219 C 180.882812 92.300781 181.371094 91.40625 181.371094 90.433594 C 181.371094 88.871094 180.09375 87.601562 178.53125 87.601562 L 151.15625 87.601562 L 151.15625 81.566406 L 178.53125 81.566406 C 183.429688 81.566406 187.414062 85.546875 187.414062 90.433594 C 187.414062 93.46875 185.886719 96.257812 183.332031 97.898438 Z M 159.675781 113.078125 " fill-opacity="1" fill-rule="nonzero"/></g><path fill="#000000" d="M 27.824219 113.078125 L 4.167969 97.898438 C 1.613281 96.257812 0.0859375 93.46875 0.0859375 90.433594 C 0.0859375 85.546875 4.070312 81.566406 8.96875 81.566406 L 36.34375 81.566406 L 36.34375 87.601562 L 8.96875 87.601562 C 7.40625 87.601562 6.128906 88.875 6.128906 90.433594 C 6.128906 91.402344 6.617188 92.296875 7.4375 92.824219 L 31.09375 108.003906 Z M 27.824219 113.078125 " fill-opacity="1" fill-rule="nonzero"/><g clip-path="url(#id2)"><path fill="#000000" d="M 93.75 163.007812 C 55.429688 163.007812 24.257812 131.886719 24.257812 93.632812 L 30.300781 93.632812 C 30.300781 128.558594 58.765625 156.976562 93.75 156.976562 C 128.734375 156.976562 157.199219 128.558594 157.199219 93.632812 L 163.242188 93.632812 C 163.242188 131.886719 132.070312 163.007812 93.75 163.007812 Z M 93.75 163.007812 " fill-opacity="1" fill-rule="nonzero"/></g><g clip-path="url(#id3)"><path fill="#000000" d="M 156.613281 84.992188 C 152.351562 53.804688 125.328125 30.289062 93.75 30.289062 C 62.171875 30.289062 35.148438 53.804688 30.886719 84.992188 L 24.898438 84.175781 C 29.5625 50.015625 59.164062 24.257812 93.75 24.257812 C 128.335938 24.257812 157.9375 50.015625 162.601562 84.175781 Z M 156.613281 84.992188 " fill-opacity="1" fill-rule="nonzero"/></g></svg>