<svg xmlns="http://www.w3.org/2000/svg" xmlns:xlink="http://www.w3.org/1999/xlink" width="250" zoomAndPan="magnify" viewBox="0 0 187.5 187.499992" height="250" preserveAspectRatio="xMidYMid meet" version="1.0"><defs><clipPath id="id1"><path d="M 18.75 37.59375 L 168.75 37.59375 L 168.75 150.09375 L 18.75 150.09375 Z M 18.75 37.59375 " clip-rule="nonzero"/></clipPath></defs><g clip-path="url(#id1)"><path fill="#000000" d="M 156.945312 85.808594 C 160.867188 85.808594 164.789062 85.808594 168.714844 85.808594 C 168.714844 95.53125 168.714844 105.253906 168.714844 114.972656 C 164.890625 114.972656 161.066406 114.972656 157.246094 114.972656 C 157.144531 114.972656 157.042969 114.972656 156.945312 114.972656 C 156.945312 115.71875 156.945312 116.460938 156.945312 117.203125 L 156.945312 126.613281 C 145.167969 126.613281 133.390625 126.613281 121.613281 126.613281 C 121.613281 131.28125 121.613281 135.945312 121.613281 140.609375 L 121.613281 150.019531 L 114.3125 150.019531 C 112.925781 150.019531 111.535156 150.019531 110.144531 150.019531 C 107.417969 150.019531 104.691406 150.019531 101.964844 150.019531 C 76.246094 150.019531 95.652344 150.09375 78.011719 150.09375 C 76.621094 150.09375 75.230469 150.09375 73.839844 150.09375 C 63.925781 150.09375 54.011719 150.09375 44.097656 150.09375 L 30.535156 150.09375 L 30.535156 140.683594 C 30.535156 139.941406 30.535156 139.195312 30.535156 138.453125 C 29.75 138.453125 28.96875 138.453125 28.183594 138.453125 L 18.789062 138.453125 L 18.789062 129.042969 C 18.789062 113.894531 18.789062 98.75 18.789062 83.601562 L 18.789062 68.898438 C 18.789062 58.464844 18.789062 48.027344 18.789062 37.59375 C 27.113281 37.59375 35.433594 37.59375 43.757812 37.59375 L 43.757812 42.324219 L 48.304688 42.324219 L 48.304688 37.652344 C 83.253906 37.652344 118.203125 37.59375 153.148438 37.59375 L 153.148438 45.945312 C 153.148438 49.425781 153.148438 52.90625 153.148438 56.390625 C 154.167969 56.390625 155.1875 56.390625 156.207031 56.390625 L 168.710938 56.390625 C 168.710938 63.34375 168.710938 70.296875 168.710938 77.25 L 160.375 77.25 C 159.230469 77.25 158.085938 77.25 156.945312 77.25 C 156.945312 80.105469 156.945312 82.957031 156.945312 85.808594 Z M 156.945312 85.808594 " fill-opacity="1" fill-rule="evenodd"/></g><path fill="#00ffff" d="M 135.476562 45.945312 L 135.476562 44.902344 L 136.519531 44.902344 C 137.894531 44.902344 139.269531 44.902344 140.640625 44.902344 L 141.683594 44.902344 L 141.683594 45.945312 C 141.683594 51.332031 141.683594 56.722656 141.683594 62.109375 C 141.683594 62.640625 141.683594 63.167969 141.683594 63.699219 C 142.21875 63.699219 142.753906 63.699219 143.289062 63.699219 C 148.71875 63.699219 150.773438 63.699219 156.207031 63.699219 L 157.246094 63.699219 L 157.246094 64.742188 C 157.246094 65.433594 157.246094 66.128906 157.246094 66.820312 C 157.246094 67.511719 157.246094 68.207031 157.246094 68.898438 L 157.246094 69.941406 L 156.207031 69.941406 C 149.199219 69.941406 145.570312 69.941406 138.566406 69.941406 C 137.882812 69.941406 137.203125 69.941406 136.519531 69.941406 L 135.476562 69.941406 L 135.476562 68.898438 C 135.476562 61.25 135.476562 53.597656 135.476562 45.945312 Z M 113.402344 60.589844 C 113.402344 61.117188 113.402344 61.640625 113.402344 62.167969 C 113.402344 62.699219 113.402344 63.226562 113.402344 63.757812 C 113.9375 63.757812 114.476562 63.757812 115.011719 63.757812 C 120.441406 63.757812 125.871094 63.757812 131.304688 63.757812 L 132.34375 63.757812 L 132.34375 64.800781 C 132.34375 66.1875 132.34375 67.574219 132.34375 68.960938 L 132.34375 70 L 131.304688 70 C 125.871094 70 120.441406 70 115.011719 70 C 114.320312 70 113.632812 70 112.945312 70 L 111.902344 70 C 111.902344 68.429688 111.902344 66.859375 111.902344 65.289062 C 110.671875 65.289062 109.441406 65.289062 108.210938 65.289062 L 107.171875 65.289062 C 107.171875 60.417969 107.171875 55.546875 107.171875 50.675781 L 107.171875 49.632812 L 108.210938 49.632812 C 108.898438 49.632812 109.589844 49.632812 110.277344 49.632812 C 110.820312 49.632812 111.359375 49.632812 111.902344 49.632812 C 111.902344 49.117188 111.902344 48.601562 111.902344 48.085938 C 111.902344 47.390625 111.902344 46.699219 111.902344 46.003906 L 111.902344 44.960938 L 112.945312 44.960938 C 119.0625 44.960938 125.183594 44.960938 131.304688 44.960938 L 132.34375 44.960938 L 132.34375 46.003906 C 132.34375 47.390625 132.34375 48.777344 132.34375 50.164062 L 132.34375 51.207031 L 131.304688 51.207031 C 125.871094 51.207031 120.441406 51.207031 115.011719 51.207031 C 114.476562 51.207031 113.9375 51.207031 113.402344 51.207031 C 113.402344 51.734375 113.402344 52.257812 113.402344 52.785156 C 113.402344 53.304688 113.402344 53.824219 113.402344 54.34375 C 113.9375 54.34375 114.472656 54.34375 115.011719 54.34375 C 117.28125 54.34375 119.550781 54.34375 121.820312 54.34375 L 122.859375 54.34375 L 122.859375 55.386719 C 122.859375 56.082031 122.859375 56.773438 122.859375 57.46875 C 122.859375 58.160156 122.859375 58.855469 122.859375 59.546875 L 122.859375 60.589844 L 121.820312 60.589844 C 119.550781 60.589844 117.28125 60.589844 115.011719 60.589844 C 114.476562 60.589844 113.9375 60.589844 113.402344 60.589844 Z M 79.117188 45.976562 L 79.117188 44.933594 L 80.160156 44.933594 C 81.53125 44.933594 82.90625 44.933594 84.28125 44.933594 L 85.320312 44.933594 L 85.320312 45.976562 C 85.320312 50.324219 85.320312 54.667969 85.320312 59.015625 C 86.554688 59.015625 87.785156 59.015625 89.015625 59.015625 L 90.054688 59.015625 L 90.054688 60.058594 C 90.054688 61.28125 90.054688 62.503906 90.054688 63.726562 C 91.128906 63.726562 92.203125 63.726562 93.277344 63.726562 C 93.277344 62.503906 93.277344 61.28125 93.277344 60.058594 L 93.277344 59.015625 L 94.316406 59.015625 C 95.554688 59.015625 96.792969 59.015625 98.03125 59.015625 C 98.03125 54.667969 98.03125 50.324219 98.03125 45.976562 L 98.03125 44.933594 L 99.070312 44.933594 C 100.453125 44.933594 101.839844 44.933594 103.222656 44.933594 L 104.261719 44.933594 L 104.261719 45.976562 C 104.261719 50.488281 104.261719 55.003906 104.261719 59.515625 L 104.261719 60.558594 L 103.222656 60.558594 C 101.992188 60.558594 100.761719 60.558594 99.53125 60.558594 C 99.53125 61.085938 99.53125 61.613281 99.53125 62.140625 C 99.53125 62.832031 99.53125 63.523438 99.53125 64.21875 L 99.53125 65.261719 L 98.488281 65.261719 C 97.792969 65.261719 97.097656 65.261719 96.402344 65.261719 C 95.863281 65.261719 95.320312 65.261719 94.777344 65.261719 C 94.777344 66.484375 94.777344 67.707031 94.777344 68.929688 L 94.777344 69.972656 L 93.738281 69.972656 C 92.351562 69.972656 90.96875 69.972656 89.585938 69.972656 L 88.542969 69.972656 L 88.542969 68.929688 C 88.542969 67.707031 88.542969 66.484375 88.542969 65.261719 C 87.316406 65.261719 86.089844 65.261719 84.863281 65.261719 L 83.820312 65.261719 L 83.820312 64.21875 C 83.820312 63 83.820312 61.777344 83.820312 60.558594 C 82.601562 60.558594 81.378906 60.558594 80.160156 60.558594 L 79.117188 60.558594 L 79.117188 59.515625 C 79.117188 55.003906 79.117188 50.488281 79.117188 45.976562 Z M 57.101562 60.589844 C 57.101562 61.117188 57.101562 61.640625 57.101562 62.167969 C 57.101562 62.699219 57.101562 63.226562 57.101562 63.757812 C 57.636719 63.757812 58.171875 63.757812 58.707031 63.757812 C 64.140625 63.757812 69.570312 63.757812 75.003906 63.757812 L 76.042969 63.757812 L 76.042969 64.800781 C 76.042969 66.1875 76.042969 67.574219 76.042969 68.960938 L 76.042969 70 L 75.003906 70 C 69.570312 70 64.140625 70 58.707031 70 C 58.019531 70 57.332031 70 56.640625 70 L 55.601562 70 L 55.601562 68.960938 C 55.601562 67.734375 55.601562 66.511719 55.601562 65.289062 C 54.371094 65.289062 53.140625 65.289062 51.910156 65.289062 L 50.867188 65.289062 L 50.867188 64.246094 C 50.867188 59.722656 50.867188 55.199219 50.867188 50.675781 L 50.867188 49.632812 L 51.910156 49.632812 C 53.140625 49.632812 54.371094 49.632812 55.601562 49.632812 C 55.601562 48.425781 55.601562 47.214844 55.601562 46.003906 L 55.601562 44.960938 L 56.640625 44.960938 C 62.761719 44.960938 68.882812 44.960938 75.003906 44.960938 L 76.042969 44.960938 L 76.042969 46.003906 C 76.042969 46.699219 76.042969 47.390625 76.042969 48.085938 C 76.042969 48.777344 76.042969 49.472656 76.042969 50.164062 L 76.042969 51.207031 L 75.003906 51.207031 C 69.035156 51.207031 63.070312 51.207031 57.101562 51.207031 C 57.101562 51.734375 57.101562 52.257812 57.101562 52.785156 C 57.101562 53.304688 57.101562 53.824219 57.101562 54.34375 C 59.90625 54.34375 62.710938 54.34375 65.519531 54.34375 L 66.558594 54.34375 L 66.558594 55.386719 C 66.558594 56.773438 66.558594 58.160156 66.558594 59.546875 L 66.558594 60.589844 L 65.519531 60.589844 C 62.710938 60.589844 59.90625 60.589844 57.101562 60.589844 Z M 26.085938 44.902344 C 27.808594 44.902344 29.527344 44.902344 31.25 44.902344 L 32.289062 44.902344 C 32.289062 50.636719 32.289062 56.375 32.289062 62.109375 C 32.289062 62.640625 32.289062 63.167969 32.289062 63.699219 C 38.257812 63.699219 40.847656 63.699219 46.8125 63.699219 L 47.855469 63.699219 L 47.855469 64.742188 C 47.855469 66.128906 47.855469 67.511719 47.855469 68.898438 L 47.855469 69.941406 L 46.8125 69.941406 C 38.777344 69.941406 34.121094 69.941406 26.085938 69.941406 L 26.085938 68.898438 C 26.085938 60.902344 26.085938 52.902344 26.085938 44.902344 Z M 26.085938 44.902344 " fill-opacity="1" fill-rule="evenodd"/><path fill="#00ffff" d="M 95.699219 83.53125 L 95.699219 81.429688 L 97.796875 81.429688 C 112.988281 81.429688 128.183594 81.429688 143.378906 81.429688 L 145.476562 81.429688 L 145.476562 83.53125 C 145.476562 85.253906 145.476562 86.976562 145.476562 88.699219 C 145.476562 90.175781 145.476562 91.648438 145.476562 93.121094 C 149.398438 93.121094 153.324219 93.121094 157.246094 93.121094 L 157.246094 95.21875 C 157.246094 98.667969 157.246094 102.117188 157.246094 105.5625 L 157.246094 107.664062 C 153.324219 107.664062 149.398438 107.664062 145.476562 107.664062 C 145.476562 109.121094 145.476562 110.578125 145.476562 112.035156 C 145.476562 113.757812 145.476562 115.480469 145.476562 117.203125 L 145.476562 119.304688 L 143.378906 119.304688 C 132.300781 119.304688 121.222656 119.304688 110.144531 119.304688 C 110.144531 126.40625 110.144531 133.507812 110.144531 140.609375 L 110.144531 142.710938 C 106.027344 142.710938 101.910156 142.710938 97.796875 142.710938 L 95.699219 142.710938 L 95.699219 140.609375 C 95.699219 121.585938 95.699219 102.558594 95.699219 83.53125 Z M 110.144531 104.761719 C 121.003906 104.761719 131.867188 104.761719 142.726562 104.761719 C 142.726562 101.832031 142.726562 98.902344 142.726562 95.972656 C 131.867188 95.972656 121.003906 95.972656 110.144531 95.972656 C 110.144531 97.445312 110.144531 98.917969 110.144531 100.390625 C 110.144531 101.847656 110.144531 103.304688 110.144531 104.761719 Z M 26.085938 83.601562 L 26.085938 81.503906 L 28.183594 81.503906 C 31.625 81.503906 35.066406 81.503906 38.507812 81.503906 L 40.605469 81.503906 L 40.605469 83.601562 C 40.605469 98.484375 40.605469 113.363281 40.605469 128.242188 C 51.464844 128.242188 62.328125 128.242188 73.1875 128.242188 C 73.1875 113.363281 73.1875 98.484375 73.1875 83.601562 L 73.1875 81.503906 L 75.285156 81.503906 C 78.726562 81.503906 82.167969 81.503906 85.609375 81.503906 L 87.707031 81.503906 L 87.707031 83.601562 C 87.707031 98.75 87.707031 113.894531 87.707031 129.042969 L 87.707031 131.144531 L 85.609375 131.144531 C 83.890625 131.144531 82.167969 131.144531 80.449219 131.144531 C 78.945312 131.144531 77.441406 131.144531 75.9375 131.144531 C 75.9375 132.601562 75.9375 134.054688 75.9375 135.511719 C 75.9375 137.238281 75.9375 138.960938 75.9375 140.683594 L 75.9375 142.785156 L 73.839844 142.785156 C 62.535156 142.785156 51.234375 142.785156 39.929688 142.785156 L 37.832031 142.785156 L 37.832031 140.683594 C 37.832031 137.503906 37.832031 134.324219 37.832031 131.144531 C 34.613281 131.144531 31.398438 131.144531 28.183594 131.144531 L 26.085938 131.144531 L 26.085938 129.042969 C 26.085938 113.894531 26.085938 98.75 26.085938 83.601562 Z M 26.085938 83.601562 " fill-opacity="1" fill-rule="evenodd"/><path fill="#ff00ff" d="M 139.648438 45.945312 L 139.648438 44.902344 L 140.6875 44.902344 C 142.0625 44.902344 143.4375 44.902344 144.8125 44.902344 L 145.851562 44.902344 L 145.851562 45.945312 C 145.851562 51.332031 145.851562 56.722656 145.851562 62.109375 C 145.851562 62.640625 145.851562 63.167969 145.851562 63.699219 C 146.386719 63.699219 146.921875 63.699219 147.457031 63.699219 C 152.890625 63.699219 154.945312 63.699219 160.375 63.699219 L 161.414062 63.699219 L 161.414062 64.742188 C 161.414062 65.433594 161.414062 66.128906 161.414062 66.820312 C 161.414062 67.511719 161.414062 68.207031 161.414062 68.898438 L 161.414062 69.941406 L 160.375 69.941406 C 153.371094 69.941406 149.742188 69.941406 142.734375 69.941406 C 142.054688 69.941406 141.371094 69.941406 140.6875 69.941406 L 139.648438 69.941406 L 139.648438 68.898438 C 139.648438 61.25 139.648438 53.597656 139.648438 45.945312 Z M 117.574219 60.589844 C 117.574219 61.117188 117.574219 61.640625 117.574219 62.167969 C 117.574219 62.699219 117.574219 63.226562 117.574219 63.757812 C 118.109375 63.757812 118.644531 63.757812 119.179688 63.757812 C 124.613281 63.757812 130.042969 63.757812 135.472656 63.757812 L 136.515625 63.757812 L 136.515625 64.800781 C 136.515625 66.1875 136.515625 67.574219 136.515625 68.960938 L 136.515625 70 L 135.472656 70 C 130.042969 70 124.613281 70 119.179688 70 C 118.492188 70 117.800781 70 117.113281 70 L 116.074219 70 C 116.074219 68.429688 116.074219 66.859375 116.074219 65.289062 C 114.84375 65.289062 113.613281 65.289062 112.382812 65.289062 L 111.339844 65.289062 C 111.339844 60.417969 111.339844 55.546875 111.339844 50.675781 L 111.339844 49.632812 L 112.382812 49.632812 C 113.070312 49.632812 113.757812 49.632812 114.445312 49.632812 C 114.988281 49.632812 115.53125 49.632812 116.074219 49.632812 C 116.074219 49.117188 116.074219 48.601562 116.074219 48.085938 C 116.074219 47.390625 116.074219 46.699219 116.074219 46.003906 L 116.074219 44.960938 L 117.113281 44.960938 C 123.234375 44.960938 129.355469 44.960938 135.472656 44.960938 L 136.515625 44.960938 L 136.515625 46.003906 C 136.515625 47.390625 136.515625 48.777344 136.515625 50.164062 L 136.515625 51.207031 L 135.472656 51.207031 C 130.042969 51.207031 124.609375 51.207031 119.179688 51.207031 C 118.644531 51.207031 118.109375 51.207031 117.574219 51.207031 C 117.574219 51.734375 117.574219 52.257812 117.574219 52.785156 C 117.574219 53.304688 117.574219 53.824219 117.574219 54.34375 C 118.109375 54.34375 118.644531 54.34375 119.179688 54.34375 C 121.449219 54.34375 123.71875 54.34375 125.988281 54.34375 L 127.03125 54.34375 L 127.03125 55.386719 C 127.03125 56.082031 127.03125 56.773438 127.03125 57.46875 C 127.03125 58.160156 127.03125 58.855469 127.03125 59.546875 L 127.03125 60.589844 L 125.988281 60.589844 C 123.71875 60.589844 121.449219 60.589844 119.179688 60.589844 C 118.644531 60.589844 118.109375 60.589844 117.574219 60.589844 Z M 83.289062 45.976562 L 83.289062 44.933594 L 84.328125 44.933594 C 85.703125 44.933594 87.078125 44.933594 88.453125 44.933594 L 89.492188 44.933594 L 89.492188 45.976562 C 89.492188 50.324219 89.492188 54.667969 89.492188 59.015625 C 90.722656 59.015625 91.953125 59.015625 93.183594 59.015625 L 94.226562 59.015625 L 94.226562 60.058594 C 94.226562 61.28125 94.226562 62.503906 94.226562 63.726562 C 95.300781 63.726562 96.371094 63.726562 97.445312 63.726562 C 97.445312 62.503906 97.445312 61.28125 97.445312 60.058594 L 97.445312 59.015625 L 98.488281 59.015625 C 99.726562 59.015625 100.960938 59.015625 102.199219 59.015625 C 102.199219 54.667969 102.199219 50.324219 102.199219 45.976562 L 102.199219 44.933594 L 103.238281 44.933594 C 104.625 44.933594 106.007812 44.933594 107.390625 44.933594 L 108.433594 44.933594 L 108.433594 45.976562 C 108.433594 50.488281 108.433594 55.003906 108.433594 59.515625 L 108.433594 60.558594 L 107.390625 60.558594 C 106.160156 60.558594 104.929688 60.558594 103.699219 60.558594 C 103.699219 61.085938 103.699219 61.613281 103.699219 62.140625 C 103.699219 62.832031 103.699219 63.523438 103.699219 64.21875 L 103.699219 65.261719 L 102.660156 65.261719 C 101.964844 65.261719 101.269531 65.261719 100.574219 65.261719 C 100.03125 65.261719 99.488281 65.261719 98.949219 65.261719 C 98.949219 66.484375 98.949219 67.707031 98.949219 68.929688 L 98.949219 69.972656 L 97.90625 69.972656 C 96.523438 69.972656 95.140625 69.972656 93.753906 69.972656 L 92.714844 69.972656 L 92.714844 68.929688 C 92.714844 67.707031 92.714844 66.484375 92.714844 65.261719 C 91.488281 65.261719 90.257812 65.261719 89.03125 65.261719 L 87.992188 65.261719 L 87.992188 64.21875 C 87.992188 63 87.992188 61.777344 87.992188 60.558594 C 86.769531 60.558594 85.550781 60.558594 84.328125 60.558594 L 83.289062 60.558594 L 83.289062 59.515625 C 83.289062 55.003906 83.289062 50.488281 83.289062 45.976562 Z M 61.273438 60.589844 C 61.273438 61.117188 61.273438 61.640625 61.273438 62.167969 C 61.273438 62.699219 61.273438 63.226562 61.273438 63.757812 C 61.808594 63.757812 62.34375 63.757812 62.878906 63.757812 C 68.308594 63.757812 73.742188 63.757812 79.171875 63.757812 L 80.214844 63.757812 L 80.214844 64.800781 C 80.214844 66.1875 80.214844 67.574219 80.214844 68.960938 L 80.214844 70 L 79.171875 70 C 73.742188 70 68.308594 70 62.878906 70 C 62.191406 70 61.5 70 60.8125 70 L 59.773438 70 L 59.773438 68.960938 C 59.773438 67.734375 59.773438 66.511719 59.773438 65.289062 C 58.539062 65.289062 57.308594 65.289062 56.078125 65.289062 L 55.039062 65.289062 L 55.039062 64.246094 C 55.039062 59.722656 55.039062 55.199219 55.039062 50.675781 L 55.039062 49.632812 L 56.078125 49.632812 C 57.308594 49.632812 58.539062 49.632812 59.773438 49.632812 C 59.773438 48.425781 59.773438 47.214844 59.773438 46.003906 L 59.773438 44.960938 L 60.8125 44.960938 C 66.933594 44.960938 73.050781 44.960938 79.171875 44.960938 L 80.214844 44.960938 L 80.214844 46.003906 C 80.214844 46.699219 80.214844 47.390625 80.214844 48.085938 C 80.214844 48.777344 80.214844 49.472656 80.214844 50.164062 L 80.214844 51.207031 L 79.171875 51.207031 C 73.207031 51.207031 67.238281 51.207031 61.273438 51.207031 C 61.273438 51.734375 61.273438 52.257812 61.273438 52.785156 C 61.273438 53.304688 61.273438 53.824219 61.273438 54.34375 C 64.078125 54.34375 66.882812 54.34375 69.6875 54.34375 L 70.726562 54.34375 L 70.726562 55.386719 C 70.726562 56.773438 70.726562 58.160156 70.726562 59.546875 L 70.726562 60.589844 L 69.6875 60.589844 C 66.882812 60.589844 64.078125 60.589844 61.273438 60.589844 Z M 30.257812 44.902344 C 31.976562 44.902344 33.699219 44.902344 35.417969 44.902344 L 36.460938 44.902344 C 36.460938 50.636719 36.460938 56.375 36.460938 62.109375 C 36.460938 62.640625 36.460938 63.167969 36.460938 63.699219 C 42.425781 63.699219 45.015625 63.699219 50.984375 63.699219 L 52.023438 63.699219 L 52.023438 64.742188 C 52.023438 66.128906 52.023438 67.511719 52.023438 68.898438 L 52.023438 69.941406 L 50.984375 69.941406 C 42.949219 69.941406 38.289062 69.941406 30.257812 69.941406 L 30.257812 68.898438 C 30.257812 60.902344 30.257812 52.902344 30.257812 44.902344 Z M 30.257812 44.902344 " fill-opacity="1" fill-rule="evenodd"/><path fill="#ff00ff" d="M 99.867188 83.53125 L 99.867188 81.429688 L 101.964844 81.429688 C 117.160156 81.429688 132.355469 81.429688 147.550781 81.429688 L 149.644531 81.429688 L 149.644531 83.53125 C 149.644531 85.253906 149.644531 86.976562 149.644531 88.699219 C 149.644531 90.175781 149.644531 91.648438 149.644531 93.121094 C 153.570312 93.121094 157.492188 93.121094 161.414062 93.121094 L 161.414062 95.21875 C 161.414062 98.667969 161.414062 102.117188 161.414062 105.5625 L 161.414062 107.664062 C 157.492188 107.664062 153.570312 107.664062 149.644531 107.664062 C 149.644531 109.121094 149.644531 110.578125 149.644531 112.035156 C 149.644531 113.757812 149.644531 115.480469 149.644531 117.203125 L 149.644531 119.304688 L 147.550781 119.304688 C 136.472656 119.304688 125.394531 119.304688 114.3125 119.304688 C 114.3125 126.40625 114.3125 133.507812 114.3125 140.609375 L 114.3125 142.710938 C 110.199219 142.710938 106.082031 142.710938 101.964844 142.710938 L 99.867188 142.710938 L 99.867188 140.609375 C 99.867188 121.585938 99.867188 102.558594 99.867188 83.53125 Z M 114.3125 104.761719 C 125.175781 104.761719 136.035156 104.761719 146.894531 104.761719 C 146.894531 101.832031 146.894531 98.902344 146.894531 95.972656 C 136.035156 95.972656 125.175781 95.972656 114.3125 95.972656 C 114.3125 97.445312 114.3125 98.917969 114.3125 100.390625 C 114.3125 101.847656 114.3125 103.304688 114.3125 104.761719 Z M 30.257812 83.601562 L 30.257812 81.503906 L 32.351562 81.503906 C 35.796875 81.503906 39.238281 81.503906 42.679688 81.503906 L 44.777344 81.503906 L 44.777344 83.601562 C 44.777344 98.484375 44.777344 113.363281 44.777344 128.242188 C 55.636719 128.242188 66.496094 128.242188 77.359375 128.242188 C 77.359375 113.363281 77.359375 98.484375 77.359375 83.601562 L 77.359375 81.503906 L 79.453125 81.503906 C 82.894531 81.503906 86.339844 81.503906 89.78125 81.503906 L 91.878906 81.503906 L 91.878906 83.601562 C 91.878906 98.75 91.878906 113.894531 91.878906 129.042969 L 91.878906 131.144531 L 89.78125 131.144531 C 88.058594 131.144531 86.339844 131.144531 84.617188 131.144531 C 83.113281 131.144531 81.609375 131.144531 80.109375 131.144531 C 80.109375 132.601562 80.109375 134.054688 80.109375 135.511719 C 80.109375 137.238281 80.109375 138.960938 80.109375 140.683594 L 80.109375 142.785156 L 78.011719 142.785156 C 66.707031 142.785156 55.402344 142.785156 44.097656 142.785156 L 42 142.785156 L 42 140.683594 C 42 137.503906 42 134.324219 42 131.144531 C 38.785156 131.144531 35.570312 131.144531 32.351562 131.144531 L 30.257812 131.144531 L 30.257812 129.042969 C 30.257812 113.894531 30.257812 98.75 30.257812 83.601562 Z M 30.257812 83.601562 " fill-opacity="1" fill-rule="evenodd"/><path fill="#ffffff" d="M 135.453125 45.964844 L 135.453125 44.960938 L 136.515625 44.960938 L 136.515625 46.003906 C 136.515625 47.390625 136.515625 48.777344 136.515625 50.164062 L 136.515625 51.207031 L 135.453125 51.207031 Z M 141.703125 44.902344 L 141.703125 45.964844 C 141.703125 51.347656 141.703125 56.726562 141.703125 62.109375 C 141.703125 62.628906 141.703125 63.144531 141.703125 63.714844 C 142.21875 63.714844 142.734375 63.714844 143.304688 63.714844 C 148.726562 63.714844 150.792969 63.714844 156.214844 63.714844 L 157.246094 63.714844 L 157.246094 64.75 C 157.246094 65.421875 157.246094 66.144531 157.246094 66.820312 C 157.246094 67.492188 157.246094 68.214844 157.246094 68.890625 L 157.246094 69.925781 L 139.648438 69.925781 L 139.648438 68.898438 C 139.648438 61.25 139.648438 53.597656 139.648438 45.945312 L 139.648438 44.902344 Z M 136.515625 69.925781 L 135.453125 69.925781 L 135.453125 63.757812 L 136.515625 63.757812 L 136.515625 64.800781 C 136.515625 66.1875 136.515625 67.574219 136.515625 68.960938 Z M 117.574219 60.589844 L 117.574219 60.609375 L 115.007812 60.609375 C 114.488281 60.609375 113.921875 60.609375 113.40625 60.609375 C 113.40625 61.125 113.40625 61.644531 113.40625 62.160156 C 113.40625 62.679688 113.40625 63.25 113.40625 63.765625 C 113.921875 63.765625 114.488281 63.765625 115.007812 63.765625 C 120.429688 63.765625 125.851562 63.765625 131.324219 63.765625 L 132.355469 63.765625 L 132.355469 64.800781 C 132.355469 66.199219 132.355469 67.59375 132.355469 68.941406 L 132.355469 69.976562 L 116.074219 69.976562 L 116.074219 65.289062 C 114.84375 65.289062 113.613281 65.289062 112.382812 65.289062 L 111.90625 65.289062 L 111.90625 65.265625 L 111.339844 65.265625 L 111.339844 49.636719 L 111.90625 49.636719 L 111.90625 49.632812 L 112.382812 49.632812 C 113.070312 49.632812 113.757812 49.632812 114.445312 49.632812 C 114.988281 49.632812 115.53125 49.632812 116.074219 49.632812 C 116.074219 49.117188 116.074219 48.601562 116.074219 48.085938 C 116.074219 47.390625 116.074219 46.699219 116.074219 46.003906 L 116.074219 44.980469 L 132.355469 44.980469 L 132.355469 46.015625 C 132.355469 47.414062 132.355469 48.757812 132.355469 50.15625 L 132.355469 51.191406 L 131.324219 51.191406 C 125.851562 51.191406 120.429688 51.191406 115.007812 51.191406 C 114.488281 51.191406 113.921875 51.191406 113.40625 51.191406 C 113.40625 51.707031 113.40625 52.277344 113.40625 52.796875 C 113.40625 53.3125 113.40625 53.828125 113.40625 54.347656 C 113.921875 54.347656 114.488281 54.347656 115.007812 54.347656 C 117.277344 54.347656 119.550781 54.347656 121.824219 54.347656 L 122.855469 54.347656 L 122.855469 55.382812 C 122.855469 56.054688 122.855469 56.78125 122.855469 57.453125 C 122.855469 58.175781 122.855469 58.847656 122.855469 59.523438 L 122.855469 60.589844 L 119.179688 60.589844 C 118.644531 60.589844 118.109375 60.589844 117.574219 60.589844 Z M 83.289062 45.976562 L 83.289062 44.933594 L 85.316406 44.933594 L 85.316406 45.964844 C 85.316406 50.3125 85.316406 54.65625 85.316406 59.003906 C 86.554688 59.003906 87.792969 59.003906 89.03125 59.003906 L 89.492188 59.003906 L 89.492188 59.015625 L 90.066406 59.015625 L 90.066406 60.039062 C 90.066406 61.28125 90.066406 62.523438 90.066406 63.714844 C 91.148438 63.714844 92.183594 63.714844 93.265625 63.714844 C 93.265625 62.523438 93.265625 61.28125 93.265625 60.039062 L 93.265625 59.015625 L 94.226562 59.015625 L 94.226562 60.058594 C 94.226562 61.28125 94.226562 62.503906 94.226562 63.726562 C 95.300781 63.726562 96.371094 63.726562 97.445312 63.726562 C 97.445312 62.503906 97.445312 61.28125 97.445312 60.058594 L 97.445312 59.015625 L 98.488281 59.015625 C 99.726562 59.015625 100.960938 59.015625 102.199219 59.015625 C 102.199219 54.667969 102.199219 50.324219 102.199219 45.976562 L 102.199219 44.933594 L 104.265625 44.933594 L 104.265625 45.964844 C 104.265625 50.464844 104.265625 55.019531 104.265625 59.523438 L 104.265625 60.558594 L 103.234375 60.558594 C 101.992188 60.558594 100.753906 60.558594 99.515625 60.558594 C 99.515625 61.074219 99.515625 61.59375 99.515625 62.160156 C 99.515625 62.835938 99.515625 63.507812 99.515625 64.230469 L 99.515625 65.261719 L 98.949219 65.261719 L 98.949219 65.265625 L 98.480469 65.265625 C 97.8125 65.265625 97.089844 65.265625 96.417969 65.265625 C 95.847656 65.265625 95.332031 65.265625 94.765625 65.265625 C 94.765625 66.507812 94.765625 67.699219 94.765625 68.941406 L 94.765625 69.972656 L 92.714844 69.972656 L 92.714844 68.929688 C 92.714844 67.707031 92.714844 66.484375 92.714844 65.261719 C 91.488281 65.261719 90.257812 65.261719 89.03125 65.261719 L 87.992188 65.261719 L 87.992188 64.21875 C 87.992188 63 87.992188 61.777344 87.992188 60.558594 C 86.769531 60.558594 85.550781 60.558594 84.328125 60.558594 L 83.289062 60.558594 L 83.289062 59.515625 C 83.289062 55.003906 83.289062 50.488281 83.289062 45.976562 Z M 108.433594 49.636719 L 108.433594 60.558594 L 107.15625 60.558594 L 107.15625 49.636719 Z M 61.273438 60.589844 L 61.273438 60.609375 L 57.121094 60.609375 C 57.121094 61.125 57.121094 61.644531 57.121094 62.160156 C 57.121094 62.679688 57.121094 63.25 57.121094 63.765625 C 57.636719 63.765625 58.152344 63.765625 58.722656 63.765625 C 64.144531 63.765625 69.566406 63.765625 74.988281 63.765625 L 76.019531 63.765625 L 76.019531 64.800781 C 76.019531 66.199219 76.019531 67.59375 76.019531 68.941406 L 76.019531 69.976562 L 59.773438 69.976562 L 59.773438 68.960938 C 59.773438 67.734375 59.773438 66.511719 59.773438 65.289062 C 58.539062 65.289062 57.308594 65.289062 56.078125 65.289062 L 55.625 65.289062 L 55.625 65.265625 L 55.039062 65.265625 L 55.039062 64.246094 C 55.039062 59.722656 55.039062 55.199219 55.039062 50.675781 L 55.039062 49.636719 L 55.625 49.636719 L 55.625 49.632812 L 56.078125 49.632812 C 57.308594 49.632812 58.539062 49.632812 59.773438 49.632812 C 59.773438 48.425781 59.773438 47.214844 59.773438 46.003906 L 59.773438 44.980469 L 76.019531 44.980469 L 76.019531 46.015625 C 76.019531 46.6875 76.019531 47.414062 76.019531 48.085938 C 76.019531 48.757812 76.019531 49.484375 76.019531 50.15625 L 76.019531 51.191406 L 74.988281 51.191406 C 69.050781 51.191406 63.058594 51.191406 57.121094 51.191406 C 57.121094 51.707031 57.121094 52.277344 57.121094 52.796875 C 57.121094 53.3125 57.121094 53.828125 57.121094 54.347656 C 59.910156 54.347656 62.699219 54.347656 65.539062 54.347656 L 66.570312 54.347656 L 66.570312 55.382812 C 66.570312 56.78125 66.570312 58.175781 66.570312 59.523438 L 66.570312 60.589844 Z M 79.117188 44.960938 L 80.214844 44.960938 L 80.214844 46.003906 C 80.214844 46.699219 80.214844 47.390625 80.214844 48.085938 C 80.214844 48.777344 80.214844 49.472656 80.214844 50.164062 L 80.214844 51.207031 L 79.117188 51.207031 Z M 30.257812 44.902344 L 32.28125 44.902344 L 32.28125 62.109375 C 32.28125 62.628906 32.28125 63.144531 32.28125 63.714844 C 38.273438 63.714844 40.855469 63.714844 46.792969 63.714844 L 47.878906 63.714844 L 47.878906 64.75 C 47.878906 66.144531 47.878906 67.492188 47.878906 68.890625 L 47.878906 69.925781 L 30.257812 69.925781 L 30.257812 68.898438 C 30.257812 60.902344 30.257812 52.902344 30.257812 44.902344 Z M 50.871094 63.699219 L 52.023438 63.699219 L 52.023438 65.265625 L 50.871094 65.265625 Z M 50.871094 63.699219 " fill-opacity="1" fill-rule="evenodd"/><path fill="#ffffff" d="M 145.476562 81.429688 L 145.476562 83.53125 C 145.476562 85.253906 145.476562 86.976562 145.476562 88.699219 C 145.476562 90.175781 145.476562 91.648438 145.476562 93.121094 L 157.246094 93.121094 L 157.246094 95.21875 C 157.246094 98.667969 157.246094 102.117188 157.246094 105.5625 L 157.246094 107.664062 L 145.476562 107.664062 C 145.476562 109.121094 145.476562 110.578125 145.476562 112.035156 C 145.476562 113.757812 145.476562 115.480469 145.476562 117.203125 L 145.476562 119.304688 L 143.378906 119.304688 C 132.300781 119.304688 121.222656 119.304688 110.144531 119.304688 C 110.144531 126.40625 110.144531 133.507812 110.144531 140.609375 L 110.144531 142.710938 L 99.867188 142.710938 L 99.867188 140.609375 C 99.867188 121.585938 99.867188 102.558594 99.867188 83.53125 L 99.867188 81.429688 Z M 114.3125 104.761719 C 125.175781 104.761719 136.035156 104.761719 146.894531 104.761719 C 146.894531 101.832031 146.894531 98.902344 146.894531 95.972656 C 136.035156 95.972656 125.175781 95.972656 114.3125 95.972656 L 110.144531 95.972656 C 110.144531 97.445312 110.144531 98.917969 110.144531 100.390625 C 110.144531 101.847656 110.144531 103.304688 110.144531 104.761719 Z M 30.257812 83.601562 L 30.257812 81.503906 L 40.605469 81.503906 L 40.605469 83.601562 C 40.605469 98.484375 40.605469 113.363281 40.605469 128.242188 L 44.773438 128.242188 C 55.636719 128.242188 66.496094 128.242188 77.355469 128.242188 C 77.355469 113.363281 77.355469 98.484375 77.355469 83.601562 L 77.355469 81.503906 L 87.707031 81.503906 L 87.707031 83.601562 C 87.707031 98.75 87.707031 113.894531 87.707031 129.042969 L 87.707031 131.144531 L 84.617188 131.144531 C 83.113281 131.144531 81.609375 131.144531 80.105469 131.144531 L 75.9375 131.144531 C 75.9375 132.601562 75.9375 134.058594 75.9375 135.511719 C 75.9375 137.238281 75.9375 138.960938 75.9375 140.683594 L 75.9375 142.785156 L 42 142.785156 L 42 140.683594 C 42 137.503906 42 134.324219 42 131.144531 C 38.785156 131.144531 35.570312 131.144531 32.351562 131.144531 L 30.257812 131.144531 L 30.257812 129.042969 C 30.257812 113.894531 30.257812 98.75 30.257812 83.601562 Z M 30.257812 83.601562 " fill-opacity="1" fill-rule="evenodd"/></svg>