<svg xmlns="http://www.w3.org/2000/svg" xmlns:xlink="http://www.w3.org/1999/xlink" width="50" zoomAndPan="magnify" viewBox="0 0 37.5 37.499999" height="50" preserveAspectRatio="xMidYMid meet" version="1.0"><defs><clipPath id="id1"><path d="M 17 2.917969 L 23 2.917969 L 23 10 L 17 10 Z M 17 2.917969 " clip-rule="nonzero"/></clipPath><clipPath id="id2"><path d="M 22 4 L 33.789062 4 L 33.789062 24 L 22 24 Z M 22 4 " clip-rule="nonzero"/></clipPath><clipPath id="id3"><path d="M 4.539062 4 L 16 4 L 16 24 L 4.539062 24 Z M 4.539062 4 " clip-rule="nonzero"/></clipPath><clipPath id="id4"><path d="M 20 27 L 31 27 L 31 33.667969 L 20 33.667969 Z M 20 27 " clip-rule="nonzero"/></clipPath><clipPath id="id5"><path d="M 7 27 L 18 27 L 18 33.667969 L 7 33.667969 Z M 7 27 " clip-rule="nonzero"/></clipPath></defs><path fill="#ffffff" d="M 12.664062 9.394531 L 12.664062 11.011719 L 14.289062 11.011719 L 14.289062 9.394531 L 12.664062 9.394531 " fill-opacity="1" fill-rule="nonzero"/><path fill="#ffffff" d="M 11.039062 12.628906 L 12.664062 12.628906 L 12.664062 11.011719 L 11.039062 11.011719 L 11.039062 12.628906 " fill-opacity="1" fill-rule="nonzero"/><path fill="#ffffff" d="M 9.414062 14.246094 L 9.414062 22.339844 L 11.039062 22.339844 L 11.039062 12.628906 L 9.414062 12.628906 L 9.414062 14.246094 " fill-opacity="1" fill-rule="nonzero"/><path fill="#ee2937" d="M 9.414062 20.722656 L 9.414062 12.628906 L 11.039062 12.628906 L 11.039062 11.011719 L 12.664062 11.011719 L 12.664062 9.394531 L 14.289062 9.394531 L 14.289062 11.011719 L 12.664062 11.011719 L 12.664062 12.628906 L 11.039062 12.628906 L 11.039062 22.339844 L 9.414062 22.339844 Z M 28.910156 12.628906 L 28.910156 11.011719 L 27.285156 11.011719 L 27.285156 9.394531 L 25.660156 9.394531 L 25.660156 7.773438 L 24.035156 7.773438 L 24.035156 9.394531 L 22.410156 9.394531 L 22.410156 11.011719 L 19.164062 11.011719 L 19.164062 9.394531 L 17.539062 9.394531 L 17.539062 7.773438 L 15.914062 7.773438 L 15.914062 6.15625 L 11.039062 6.15625 L 11.039062 7.773438 L 9.414062 7.773438 L 9.414062 9.394531 L 7.789062 9.394531 L 7.789062 11.011719 L 6.164062 11.011719 L 6.164062 23.957031 L 7.789062 23.957031 L 7.789062 27.195312 L 9.414062 27.195312 L 9.414062 28.8125 L 11.039062 28.8125 L 11.039062 30.429688 L 12.664062 30.429688 L 12.664062 32.050781 L 17.539062 32.050781 L 17.539062 30.429688 L 19.164062 30.429688 L 19.164062 28.8125 L 22.410156 28.8125 L 22.410156 30.429688 L 24.035156 30.429688 L 24.035156 28.8125 L 25.660156 28.8125 L 25.660156 27.195312 L 27.285156 27.195312 L 27.285156 25.574219 L 28.910156 25.574219 L 28.910156 22.339844 L 30.535156 22.339844 L 30.535156 12.628906 L 28.910156 12.628906 " fill-opacity="1" fill-rule="nonzero"/><path fill="#771519" d="M 30.535156 11.011719 L 30.535156 9.394531 L 28.910156 9.394531 L 28.910156 7.773438 L 27.285156 7.773438 L 27.285156 6.15625 L 22.410156 6.15625 L 22.410156 7.773438 L 20.789062 7.773438 L 20.789062 9.394531 L 19.164062 9.394531 L 19.164062 11.011719 L 22.410156 11.011719 L 22.410156 9.394531 L 24.035156 9.394531 L 24.035156 7.773438 L 25.660156 7.773438 L 25.660156 9.394531 L 27.285156 9.394531 L 27.285156 11.011719 L 28.910156 11.011719 L 28.910156 12.628906 L 30.535156 12.628906 L 30.535156 22.339844 L 28.910156 22.339844 L 28.910156 25.574219 L 27.285156 25.574219 L 27.285156 27.195312 L 25.660156 27.195312 L 25.660156 28.8125 L 24.035156 28.8125 L 24.035156 30.429688 L 22.410156 30.429688 L 22.410156 28.8125 L 19.164062 28.8125 L 19.164062 30.429688 L 20.789062 30.429688 L 20.789062 32.050781 L 25.660156 32.050781 L 25.660156 30.429688 L 27.285156 30.429688 L 27.285156 28.8125 L 28.910156 28.8125 L 28.910156 27.195312 L 30.535156 27.195312 L 30.535156 23.957031 L 32.160156 23.957031 L 32.160156 11.011719 L 30.535156 11.011719 " fill-opacity="1" fill-rule="nonzero"/><path fill="#040606" d="M 17.539062 7.773438 L 17.539062 6.15625 L 15.914062 6.15625 L 15.914062 7.773438 L 17.539062 7.773438 " fill-opacity="1" fill-rule="nonzero"/><g clip-path="url(#id1)"><path fill="#040606" d="M 19.164062 9.394531 L 20.789062 9.394531 L 20.789062 7.773438 L 22.410156 7.773438 L 22.410156 6.15625 L 20.789062 6.15625 L 20.789062 4.539062 L 19.164062 4.539062 L 19.164062 2.921875 L 17.539062 2.921875 L 17.539062 4.539062 L 19.164062 4.539062 L 19.164062 7.773438 L 17.539062 7.773438 L 17.539062 9.394531 L 19.164062 9.394531 " fill-opacity="1" fill-rule="nonzero"/></g><g clip-path="url(#id2)"><path fill="#040606" d="M 32.160156 9.394531 L 32.160156 7.773438 L 30.535156 7.773438 L 30.535156 6.15625 L 28.910156 6.15625 L 28.910156 4.539062 L 22.410156 4.539062 L 22.410156 6.15625 L 27.285156 6.15625 L 27.285156 7.773438 L 28.910156 7.773438 L 28.910156 9.394531 L 30.535156 9.394531 L 30.535156 11.011719 L 32.160156 11.011719 L 32.160156 23.957031 L 33.785156 23.957031 L 33.785156 9.394531 L 32.160156 9.394531 " fill-opacity="1" fill-rule="nonzero"/></g><g clip-path="url(#id3)"><path fill="#040606" d="M 6.164062 20.722656 L 6.164062 11.011719 L 7.789062 11.011719 L 7.789062 9.394531 L 9.414062 9.394531 L 9.414062 7.773438 L 11.039062 7.773438 L 11.039062 6.15625 L 15.914062 6.15625 L 15.914062 4.539062 L 9.414062 4.539062 L 9.414062 6.15625 L 7.789062 6.15625 L 7.789062 7.773438 L 6.164062 7.773438 L 6.164062 9.394531 L 4.542969 9.394531 L 4.542969 23.957031 L 6.164062 23.957031 L 6.164062 20.722656 " fill-opacity="1" fill-rule="nonzero"/></g><path fill="#040606" d="M 7.789062 23.957031 L 6.164062 23.957031 L 6.164062 27.195312 L 7.789062 27.195312 L 7.789062 23.957031 " fill-opacity="1" fill-rule="nonzero"/><path fill="#040606" d="M 30.535156 25.574219 L 30.535156 27.195312 L 32.160156 27.195312 L 32.160156 23.957031 L 30.535156 23.957031 L 30.535156 25.574219 " fill-opacity="1" fill-rule="nonzero"/><g clip-path="url(#id4)"><path fill="#040606" d="M 28.910156 28.8125 L 27.285156 28.8125 L 27.285156 30.429688 L 25.660156 30.429688 L 25.660156 32.050781 L 20.789062 32.050781 L 20.789062 33.667969 L 27.285156 33.667969 L 27.285156 32.050781 L 28.910156 32.050781 L 28.910156 30.429688 L 30.535156 30.429688 L 30.535156 27.195312 L 28.910156 27.195312 L 28.910156 28.8125 " fill-opacity="1" fill-rule="nonzero"/></g><path fill="#040606" d="M 19.164062 30.429688 L 17.539062 30.429688 L 17.539062 32.050781 L 20.789062 32.050781 L 20.789062 30.429688 L 19.164062 30.429688 " fill-opacity="1" fill-rule="nonzero"/><g clip-path="url(#id5)"><path fill="#040606" d="M 14.289062 32.050781 L 12.664062 32.050781 L 12.664062 30.429688 L 11.039062 30.429688 L 11.039062 28.8125 L 9.414062 28.8125 L 9.414062 27.195312 L 7.789062 27.195312 L 7.789062 30.429688 L 9.414062 30.429688 L 9.414062 32.050781 L 11.039062 32.050781 L 11.039062 33.667969 L 17.539062 33.667969 L 17.539062 32.050781 L 14.289062 32.050781 " fill-opacity="1" fill-rule="nonzero"/></g></svg>