<svg xmlns="http://www.w3.org/2000/svg" xmlns:xlink="http://www.w3.org/1999/xlink" width="250" zoomAndPan="magnify" viewBox="0 0 187.5 187.499992" height="250" preserveAspectRatio="xMidYMid meet" version="1.0"><defs><clipPath id="id1"><path d="M 150 121.734375 L 159.46875 121.734375 L 159.46875 131.464844 L 150 131.464844 Z M 150 121.734375 " clip-rule="nonzero"/></clipPath><clipPath id="id2"><path d="M 150 112.28125 L 159.46875 112.28125 L 159.46875 122 L 150 122 Z M 150 112.28125 " clip-rule="nonzero"/></clipPath><clipPath id="id3"><path d="M 150 103 L 159.46875 103 L 159.46875 112.558594 L 150 112.558594 Z M 150 103 " clip-rule="nonzero"/></clipPath><clipPath id="id4"><path d="M 150 93.652344 L 159.46875 93.652344 L 159.46875 103.105469 L 150 103.105469 Z M 150 93.652344 " clip-rule="nonzero"/></clipPath><clipPath id="id5"><path d="M 150 84.199219 L 159.46875 84.199219 L 159.46875 93.929688 L 150 93.929688 Z M 150 84.199219 " clip-rule="nonzero"/></clipPath><clipPath id="id6"><path d="M 150 75 L 159.46875 75 L 159.46875 84.476562 L 150 84.476562 Z M 150 75 " clip-rule="nonzero"/></clipPath><clipPath id="id7"><path d="M 150 65.570312 L 159.46875 65.570312 L 159.46875 75.023438 L 150 75.023438 Z M 150 65.570312 " clip-rule="nonzero"/></clipPath><clipPath id="id8"><path d="M 150 56.117188 L 159.46875 56.117188 L 159.46875 65.851562 L 150 65.851562 Z M 150 56.117188 " clip-rule="nonzero"/></clipPath><clipPath id="id9"><path d="M 121.769531 159.265625 L 131.515625 159.265625 L 131.515625 168.636719 L 121.769531 168.636719 Z M 121.769531 159.265625 " clip-rule="nonzero"/></clipPath><clipPath id="id10"><path d="M 121 18.75 L 132 18.75 L 132 29 L 121 29 Z M 121 18.75 " clip-rule="nonzero"/></clipPath><clipPath id="id11"><path d="M 112.582031 159.265625 L 122 159.265625 L 122 168.636719 L 112.582031 168.636719 Z M 112.582031 159.265625 " clip-rule="nonzero"/></clipPath><clipPath id="id12"><path d="M 112 18.75 L 122 18.75 L 122 29 L 112 29 Z M 112 18.75 " clip-rule="nonzero"/></clipPath><clipPath id="id13"><path d="M 103.117188 159.265625 L 112.582031 159.265625 L 112.582031 168.636719 L 103.117188 168.636719 Z M 103.117188 159.265625 " clip-rule="nonzero"/></clipPath><clipPath id="id14"><path d="M 103 18.75 L 113 18.75 L 113 29 L 103 29 Z M 103 18.75 " clip-rule="nonzero"/></clipPath><clipPath id="id15"><path d="M 93.648438 159.265625 L 103.394531 159.265625 L 103.394531 168.636719 L 93.648438 168.636719 Z M 93.648438 159.265625 " clip-rule="nonzero"/></clipPath><clipPath id="id16"><path d="M 93 18.75 L 104 18.75 L 104 29 L 93 29 Z M 93 18.75 " clip-rule="nonzero"/></clipPath><clipPath id="id17"><path d="M 84.183594 159.265625 L 93.925781 159.265625 L 93.925781 168.636719 L 84.183594 168.636719 Z M 84.183594 159.265625 " clip-rule="nonzero"/></clipPath><clipPath id="id18"><path d="M 84 18.75 L 94 18.75 L 94 29 L 84 29 Z M 84 18.75 " clip-rule="nonzero"/></clipPath><clipPath id="id19"><path d="M 75 159.265625 L 84.460938 159.265625 L 84.460938 168.636719 L 75 168.636719 Z M 75 159.265625 " clip-rule="nonzero"/></clipPath><clipPath id="id20"><path d="M 75 18.75 L 85 18.75 L 85 29 L 75 29 Z M 75 18.75 " clip-rule="nonzero"/></clipPath><clipPath id="id21"><path d="M 65.527344 159.265625 L 75.273438 159.265625 L 75.273438 168.636719 L 65.527344 168.636719 Z M 65.527344 159.265625 " clip-rule="nonzero"/></clipPath><clipPath id="id22"><path d="M 65 18.75 L 76 18.75 L 76 29 L 65 29 Z M 65 18.75 " clip-rule="nonzero"/></clipPath><clipPath id="id23"><path d="M 56.339844 159.265625 L 65.804688 159.265625 L 65.804688 168.636719 L 56.339844 168.636719 Z M 56.339844 159.265625 " clip-rule="nonzero"/></clipPath><clipPath id="id24"><path d="M 56 18.75 L 66 18.75 L 66 29 L 56 29 Z M 56 18.75 " clip-rule="nonzero"/></clipPath><clipPath id="id25"><path d="M 28.21875 121 L 38 121 L 38 132 L 28.21875 132 Z M 28.21875 121 " clip-rule="nonzero"/></clipPath><clipPath id="id26"><path d="M 28.21875 112 L 38 112 L 38 122 L 28.21875 122 Z M 28.21875 112 " clip-rule="nonzero"/></clipPath><clipPath id="id27"><path d="M 28.21875 103 L 38 103 L 38 113 L 28.21875 113 Z M 28.21875 103 " clip-rule="nonzero"/></clipPath><clipPath id="id28"><path d="M 28.21875 93 L 38 93 L 38 104 L 28.21875 104 Z M 28.21875 93 " clip-rule="nonzero"/></clipPath><clipPath id="id29"><path d="M 28.21875 84 L 38 84 L 38 94 L 28.21875 94 Z M 28.21875 84 " clip-rule="nonzero"/></clipPath><clipPath id="id30"><path d="M 28.21875 75 L 38 75 L 38 85 L 28.21875 85 Z M 28.21875 75 " clip-rule="nonzero"/></clipPath><clipPath id="id31"><path d="M 28.21875 65 L 38 65 L 38 76 L 28.21875 76 Z M 28.21875 65 " clip-rule="nonzero"/></clipPath><clipPath id="id32"><path d="M 28.21875 56 L 38 56 L 38 66 L 28.21875 66 Z M 28.21875 56 " clip-rule="nonzero"/></clipPath></defs><g clip-path="url(#id1)"><path fill="#702412" d="M 159.472656 121.839844 L 159.472656 131.195312 L 150.082031 131.195312 L 150.082031 121.839844 L 159.472656 121.839844 " fill-opacity="1" fill-rule="nonzero"/></g><g clip-path="url(#id2)"><path fill="#c74424" d="M 159.472656 112.484375 L 159.472656 121.839844 L 150.082031 121.839844 L 150.082031 112.484375 L 159.472656 112.484375 " fill-opacity="1" fill-rule="nonzero"/></g><g clip-path="url(#id3)"><path fill="#c74424" d="M 159.472656 103.101562 L 159.472656 112.484375 L 150.082031 112.484375 L 150.082031 103.101562 L 159.472656 103.101562 " fill-opacity="1" fill-rule="nonzero"/></g><g clip-path="url(#id4)"><path fill="#ed7239" d="M 159.472656 93.75 L 159.472656 103.101562 L 150.082031 103.101562 L 150.082031 93.75 L 159.472656 93.75 " fill-opacity="1" fill-rule="nonzero"/></g><g clip-path="url(#id5)"><path fill="#c74424" d="M 159.472656 84.398438 L 159.472656 93.75 L 150.082031 93.75 L 150.082031 84.398438 L 159.472656 84.398438 " fill-opacity="1" fill-rule="nonzero"/></g><g clip-path="url(#id6)"><path fill="#ed7239" d="M 159.472656 75.015625 L 159.472656 84.398438 L 150.082031 84.398438 L 150.082031 75.015625 L 159.472656 75.015625 " fill-opacity="1" fill-rule="nonzero"/></g><g clip-path="url(#id7)"><path fill="#ed7239" d="M 159.472656 65.660156 L 159.472656 75.015625 L 150.082031 75.015625 L 150.082031 65.660156 L 159.472656 65.660156 " fill-opacity="1" fill-rule="nonzero"/></g><g clip-path="url(#id8)"><path fill="#c74424" d="M 159.472656 56.308594 L 159.472656 65.660156 L 150.082031 65.660156 L 150.082031 56.308594 L 159.472656 56.308594 " fill-opacity="1" fill-rule="nonzero"/></g><path fill="#702412" d="M 150.082031 140.546875 L 150.082031 149.929688 L 140.710938 149.929688 L 140.710938 140.546875 L 150.082031 140.546875 " fill-opacity="1" fill-rule="nonzero"/><path fill="#c74424" d="M 150.082031 131.195312 L 150.082031 140.546875 L 140.710938 140.546875 L 140.710938 131.195312 L 150.082031 131.195312 " fill-opacity="1" fill-rule="nonzero"/><path fill="#c74424" d="M 150.082031 121.839844 L 150.082031 131.195312 L 140.710938 131.195312 L 140.710938 121.839844 L 150.082031 121.839844 " fill-opacity="1" fill-rule="nonzero"/><path fill="#c74424" d="M 150.082031 112.484375 L 150.082031 121.839844 L 140.710938 121.839844 L 140.710938 112.484375 L 150.082031 112.484375 " fill-opacity="1" fill-rule="nonzero"/><path fill="#c74424" d="M 150.082031 103.101562 L 150.082031 112.484375 L 140.710938 112.484375 L 140.710938 103.101562 L 150.082031 103.101562 " fill-opacity="1" fill-rule="nonzero"/><path fill="#ed7239" d="M 150.082031 93.75 L 150.082031 103.101562 L 140.710938 103.101562 L 140.710938 93.75 L 150.082031 93.75 " fill-opacity="1" fill-rule="nonzero"/><path fill="#c74424" d="M 150.082031 84.398438 L 150.082031 93.75 L 140.710938 93.75 L 140.710938 84.398438 L 150.082031 84.398438 " fill-opacity="1" fill-rule="nonzero"/><path fill="#ed7239" d="M 150.082031 75.015625 L 150.082031 84.398438 L 140.710938 84.398438 L 140.710938 75.015625 L 150.082031 75.015625 " fill-opacity="1" fill-rule="nonzero"/><path fill="#ed7239" d="M 150.082031 65.660156 L 150.082031 75.015625 L 140.710938 75.015625 L 140.710938 65.660156 L 150.082031 65.660156 " fill-opacity="1" fill-rule="nonzero"/><path fill="#c74424" d="M 150.082031 56.308594 L 150.082031 65.660156 L 140.710938 65.660156 L 140.710938 56.308594 L 150.082031 56.308594 " fill-opacity="1" fill-rule="nonzero"/><path fill="#c74424" d="M 150.082031 46.953125 L 150.082031 56.308594 L 140.710938 56.308594 L 140.710938 46.953125 L 150.082031 46.953125 " fill-opacity="1" fill-rule="nonzero"/><path fill="#ed7239" d="M 150.082031 37.570312 L 150.082031 46.953125 L 140.710938 46.953125 L 140.710938 37.570312 L 150.082031 37.570312 " fill-opacity="1" fill-rule="nonzero"/><path fill="#702412" d="M 140.710938 149.929688 L 140.710938 159.28125 L 131.34375 159.28125 L 131.34375 149.929688 L 140.710938 149.929688 " fill-opacity="1" fill-rule="nonzero"/><path fill="#c74424" d="M 140.710938 140.546875 L 140.710938 149.929688 L 131.34375 149.929688 L 131.34375 140.546875 L 140.710938 140.546875 " fill-opacity="1" fill-rule="nonzero"/><path fill="#c74424" d="M 140.710938 131.195312 L 140.710938 140.546875 L 131.34375 140.546875 L 131.34375 131.195312 L 140.710938 131.195312 " fill-opacity="1" fill-rule="nonzero"/><path fill="#fee670" d="M 140.710938 121.839844 L 140.710938 131.195312 L 131.34375 131.195312 L 131.34375 121.839844 L 140.710938 121.839844 " fill-opacity="1" fill-rule="nonzero"/><path fill="#fee670" d="M 140.710938 112.484375 L 140.710938 121.839844 L 131.34375 121.839844 L 131.34375 112.484375 L 140.710938 112.484375 " fill-opacity="1" fill-rule="nonzero"/><path fill="#fee670" d="M 140.710938 103.101562 L 140.710938 112.484375 L 131.34375 112.484375 L 131.34375 103.101562 L 140.710938 103.101562 " fill-opacity="1" fill-rule="nonzero"/><path fill="#fee670" d="M 140.710938 93.75 L 140.710938 103.101562 L 131.34375 103.101562 L 131.34375 93.75 L 140.710938 93.75 " fill-opacity="1" fill-rule="nonzero"/><path fill="#fee670" d="M 140.710938 84.398438 L 140.710938 93.75 L 131.34375 93.75 L 131.34375 84.398438 L 140.710938 84.398438 " fill-opacity="1" fill-rule="nonzero"/><path fill="#fee670" d="M 140.710938 75.015625 L 140.710938 84.398438 L 131.34375 84.398438 L 131.34375 75.015625 L 140.710938 75.015625 " fill-opacity="1" fill-rule="nonzero"/><path fill="#fee670" d="M 140.710938 65.660156 L 140.710938 75.015625 L 131.34375 75.015625 L 131.34375 65.660156 L 140.710938 65.660156 " fill-opacity="1" fill-rule="nonzero"/><path fill="#fee670" d="M 140.710938 56.308594 L 140.710938 65.660156 L 131.34375 65.660156 L 131.34375 56.308594 L 140.710938 56.308594 " fill-opacity="1" fill-rule="nonzero"/><path fill="#c74424" d="M 140.710938 46.953125 L 140.710938 56.308594 L 131.34375 56.308594 L 131.34375 46.953125 L 140.710938 46.953125 " fill-opacity="1" fill-rule="nonzero"/><path fill="#ed7239" d="M 140.710938 37.570312 L 140.710938 46.953125 L 131.34375 46.953125 L 131.34375 37.570312 L 140.710938 37.570312 " fill-opacity="1" fill-rule="nonzero"/><path fill="#c74424" d="M 140.710938 28.21875 L 140.710938 37.570312 L 131.34375 37.570312 L 131.34375 28.21875 L 140.710938 28.21875 " fill-opacity="1" fill-rule="nonzero"/><g clip-path="url(#id9)"><path fill="#702412" d="M 131.34375 159.28125 L 131.34375 168.636719 L 121.945312 168.636719 L 121.945312 159.28125 L 131.34375 159.28125 " fill-opacity="1" fill-rule="nonzero"/></g><path fill="#c74424" d="M 131.34375 149.929688 L 131.34375 159.28125 L 121.945312 159.28125 L 121.945312 149.929688 L 131.34375 149.929688 " fill-opacity="1" fill-rule="nonzero"/><path fill="#fee670" d="M 131.34375 140.546875 L 131.34375 149.929688 L 121.945312 149.929688 L 121.945312 140.546875 L 131.34375 140.546875 " fill-opacity="1" fill-rule="nonzero"/><path fill="#fee670" d="M 131.34375 131.195312 L 131.34375 140.546875 L 121.945312 140.546875 L 121.945312 131.195312 L 131.34375 131.195312 " fill-opacity="1" fill-rule="nonzero"/><path fill="#fec447" d="M 131.34375 121.839844 L 131.34375 131.195312 L 121.945312 131.195312 L 121.945312 121.839844 L 131.34375 121.839844 " fill-opacity="1" fill-rule="nonzero"/><path fill="#fea52a" d="M 131.34375 112.484375 L 131.34375 121.839844 L 121.945312 121.839844 L 121.945312 112.484375 L 131.34375 112.484375 " fill-opacity="1" fill-rule="nonzero"/><path fill="#fea52a" d="M 131.34375 103.101562 L 131.34375 112.484375 L 121.945312 112.484375 L 121.945312 103.101562 L 131.34375 103.101562 " fill-opacity="1" fill-rule="nonzero"/><path fill="#fea52a" d="M 131.34375 93.75 L 131.34375 103.101562 L 121.945312 103.101562 L 121.945312 93.75 L 131.34375 93.75 " fill-opacity="1" fill-rule="nonzero"/><path fill="#fec447" d="M 131.34375 84.398438 L 131.34375 93.75 L 121.945312 93.75 L 121.945312 84.398438 L 131.34375 84.398438 " fill-opacity="1" fill-rule="nonzero"/><path fill="#fec447" d="M 131.34375 75.015625 L 131.34375 84.398438 L 121.945312 84.398438 L 121.945312 75.015625 L 131.34375 75.015625 " fill-opacity="1" fill-rule="nonzero"/><path fill="#fea52a" d="M 131.34375 65.660156 L 131.34375 75.015625 L 121.945312 75.015625 L 121.945312 65.660156 L 131.34375 65.660156 " fill-opacity="1" fill-rule="nonzero"/><path fill="#fec447" d="M 131.34375 56.308594 L 131.34375 65.660156 L 121.945312 65.660156 L 121.945312 56.308594 L 131.34375 56.308594 " fill-opacity="1" fill-rule="nonzero"/><path fill="#fee670" d="M 131.34375 46.953125 L 131.34375 56.308594 L 121.945312 56.308594 L 121.945312 46.953125 L 131.34375 46.953125 " fill-opacity="1" fill-rule="nonzero"/><path fill="#fee670" d="M 131.34375 37.570312 L 131.34375 46.953125 L 121.945312 46.953125 L 121.945312 37.570312 L 131.34375 37.570312 " fill-opacity="1" fill-rule="nonzero"/><path fill="#c74424" d="M 131.34375 28.21875 L 131.34375 37.570312 L 121.945312 37.570312 L 121.945312 28.21875 L 131.34375 28.21875 " fill-opacity="1" fill-rule="nonzero"/><g clip-path="url(#id10)"><path fill="#c74424" d="M 131.34375 18.863281 L 131.34375 28.21875 L 121.945312 28.21875 L 121.945312 18.863281 L 131.34375 18.863281 " fill-opacity="1" fill-rule="nonzero"/></g><g clip-path="url(#id11)"><path fill="#c74424" d="M 121.945312 159.28125 L 121.945312 168.636719 L 112.582031 168.636719 L 112.582031 159.28125 L 121.945312 159.28125 " fill-opacity="1" fill-rule="nonzero"/></g><path fill="#fee670" d="M 121.945312 149.929688 L 121.945312 159.28125 L 112.582031 159.28125 L 112.582031 149.929688 L 121.945312 149.929688 " fill-opacity="1" fill-rule="nonzero"/><path fill="#fec447" d="M 121.945312 140.546875 L 121.945312 149.929688 L 112.582031 149.929688 L 112.582031 140.546875 L 121.945312 140.546875 " fill-opacity="1" fill-rule="nonzero"/><path fill="#fea52a" d="M 121.945312 131.195312 L 121.945312 140.546875 L 112.582031 140.546875 L 112.582031 131.195312 L 121.945312 131.195312 " fill-opacity="1" fill-rule="nonzero"/><path fill="#fea52a" d="M 121.945312 121.839844 L 121.945312 131.195312 L 112.582031 131.195312 L 112.582031 121.839844 L 121.945312 121.839844 " fill-opacity="1" fill-rule="nonzero"/><path fill="#fea52a" d="M 121.945312 112.484375 L 121.945312 121.839844 L 112.582031 121.839844 L 112.582031 112.484375 L 121.945312 112.484375 " fill-opacity="1" fill-rule="nonzero"/><path fill="#fec447" d="M 121.945312 103.101562 L 121.945312 112.484375 L 112.582031 112.484375 L 112.582031 103.101562 L 121.945312 103.101562 " fill-opacity="1" fill-rule="nonzero"/><path fill="#fec447" d="M 121.945312 93.75 L 121.945312 103.101562 L 112.582031 103.101562 L 112.582031 93.75 L 121.945312 93.75 " fill-opacity="1" fill-rule="nonzero"/><path fill="#fea52a" d="M 121.945312 84.398438 L 121.945312 93.75 L 112.582031 93.75 L 112.582031 84.398438 L 121.945312 84.398438 " fill-opacity="1" fill-rule="nonzero"/><path fill="#fea52a" d="M 121.945312 75.015625 L 121.945312 84.398438 L 112.582031 84.398438 L 112.582031 75.015625 L 121.945312 75.015625 " fill-opacity="1" fill-rule="nonzero"/><path fill="#fea52a" d="M 121.945312 65.660156 L 121.945312 75.015625 L 112.582031 75.015625 L 112.582031 65.660156 L 121.945312 65.660156 " fill-opacity="1" fill-rule="nonzero"/><path fill="#fea52a" d="M 121.945312 56.308594 L 121.945312 65.660156 L 112.582031 65.660156 L 112.582031 56.308594 L 121.945312 56.308594 " fill-opacity="1" fill-rule="nonzero"/><path fill="#fec447" d="M 121.945312 46.953125 L 121.945312 56.308594 L 112.582031 56.308594 L 112.582031 46.953125 L 121.945312 46.953125 " fill-opacity="1" fill-rule="nonzero"/><path fill="#fea52a" d="M 121.945312 37.570312 L 121.945312 46.953125 L 112.582031 46.953125 L 112.582031 37.570312 L 121.945312 37.570312 " fill-opacity="1" fill-rule="nonzero"/><path fill="#fee670" d="M 121.945312 28.21875 L 121.945312 37.570312 L 112.582031 37.570312 L 112.582031 28.21875 L 121.945312 28.21875 " fill-opacity="1" fill-rule="nonzero"/><g clip-path="url(#id12)"><path fill="#c74424" d="M 121.945312 18.863281 L 121.945312 28.21875 L 112.582031 28.21875 L 112.582031 18.863281 L 121.945312 18.863281 " fill-opacity="1" fill-rule="nonzero"/></g><g clip-path="url(#id13)"><path fill="#fee670" d="M 112.582031 159.28125 L 112.582031 168.636719 L 103.214844 168.636719 L 103.214844 159.28125 L 112.582031 159.28125 " fill-opacity="1" fill-rule="nonzero"/></g><path fill="#fec447" d="M 112.582031 149.929688 L 112.582031 159.28125 L 103.214844 159.28125 L 103.214844 149.929688 L 112.582031 149.929688 " fill-opacity="1" fill-rule="nonzero"/><path fill="#fea52a" d="M 112.582031 140.546875 L 112.582031 149.929688 L 103.214844 149.929688 L 103.214844 140.546875 L 112.582031 140.546875 " fill-opacity="1" fill-rule="nonzero"/><path fill="#fea52a" d="M 112.582031 131.195312 L 112.582031 140.546875 L 103.214844 140.546875 L 103.214844 131.195312 L 112.582031 131.195312 " fill-opacity="1" fill-rule="nonzero"/><path fill="#fec447" d="M 112.582031 121.839844 L 112.582031 131.195312 L 103.214844 131.195312 L 103.214844 121.839844 L 112.582031 121.839844 " fill-opacity="1" fill-rule="nonzero"/><path fill="#fec447" d="M 112.582031 112.484375 L 112.582031 121.839844 L 103.214844 121.839844 L 103.214844 112.484375 L 112.582031 112.484375 " fill-opacity="1" fill-rule="nonzero"/><path fill="#fea52a" d="M 112.582031 103.101562 L 112.582031 112.484375 L 103.214844 112.484375 L 103.214844 103.101562 L 112.582031 103.101562 " fill-opacity="1" fill-rule="nonzero"/><path fill="#fea52a" d="M 112.582031 93.75 L 112.582031 103.101562 L 103.214844 103.101562 L 103.214844 93.75 L 112.582031 93.75 " fill-opacity="1" fill-rule="nonzero"/><path fill="#fea52a" d="M 112.582031 84.398438 L 112.582031 93.75 L 103.214844 93.75 L 103.214844 84.398438 L 112.582031 84.398438 " fill-opacity="1" fill-rule="nonzero"/><path fill="#fea52a" d="M 112.582031 75.015625 L 112.582031 84.398438 L 103.214844 84.398438 L 103.214844 75.015625 L 112.582031 75.015625 " fill-opacity="1" fill-rule="nonzero"/><path fill="#fec447" d="M 112.582031 65.660156 L 112.582031 75.015625 L 103.214844 75.015625 L 103.214844 65.660156 L 112.582031 65.660156 " fill-opacity="1" fill-rule="nonzero"/><path fill="#fec447" d="M 112.582031 56.308594 L 112.582031 65.660156 L 103.214844 65.660156 L 103.214844 56.308594 L 112.582031 56.308594 " fill-opacity="1" fill-rule="nonzero"/><path fill="#fee670" d="M 112.582031 46.953125 L 112.582031 56.308594 L 103.214844 56.308594 L 103.214844 46.953125 L 112.582031 46.953125 " fill-opacity="1" fill-rule="nonzero"/><path fill="#c74424" d="M 112.582031 37.570312 L 112.582031 46.953125 L 103.214844 46.953125 L 103.214844 37.570312 L 112.582031 37.570312 " fill-opacity="1" fill-rule="nonzero"/><path fill="#fec447" d="M 112.582031 28.21875 L 112.582031 37.570312 L 103.214844 37.570312 L 103.214844 28.21875 L 112.582031 28.21875 " fill-opacity="1" fill-rule="nonzero"/><g clip-path="url(#id14)"><path fill="#fee670" d="M 112.582031 18.863281 L 112.582031 28.21875 L 103.214844 28.21875 L 103.214844 18.863281 L 112.582031 18.863281 " fill-opacity="1" fill-rule="nonzero"/></g><g clip-path="url(#id15)"><path fill="#fec447" d="M 103.214844 159.28125 L 103.214844 168.636719 L 93.84375 168.636719 L 93.84375 159.28125 L 103.214844 159.28125 " fill-opacity="1" fill-rule="nonzero"/></g><path fill="#fea52a" d="M 103.214844 149.929688 L 103.214844 159.28125 L 93.84375 159.28125 L 93.84375 149.929688 L 103.214844 149.929688 " fill-opacity="1" fill-rule="nonzero"/><path fill="#fec447" d="M 103.214844 140.546875 L 103.214844 149.929688 L 93.84375 149.929688 L 93.84375 140.546875 L 103.214844 140.546875 " fill-opacity="1" fill-rule="nonzero"/><path fill="#fec447" d="M 103.214844 131.195312 L 103.214844 140.546875 L 93.84375 140.546875 L 93.84375 131.195312 L 103.214844 131.195312 " fill-opacity="1" fill-rule="nonzero"/><path fill="#fea52a" d="M 103.214844 121.839844 L 103.214844 131.195312 L 93.84375 131.195312 L 93.84375 121.839844 L 103.214844 121.839844 " fill-opacity="1" fill-rule="nonzero"/><path fill="#fea52a" d="M 103.214844 112.484375 L 103.214844 121.839844 L 93.84375 121.839844 L 93.84375 112.484375 L 103.214844 112.484375 " fill-opacity="1" fill-rule="nonzero"/><path fill="#fea52a" d="M 103.214844 103.101562 L 103.214844 112.484375 L 93.84375 112.484375 L 93.84375 103.101562 L 103.214844 103.101562 " fill-opacity="1" fill-rule="nonzero"/><path fill="#fea52a" d="M 103.214844 93.75 L 103.214844 103.101562 L 93.84375 103.101562 L 93.84375 93.75 L 103.214844 93.75 " fill-opacity="1" fill-rule="nonzero"/><path fill="#fec447" d="M 103.214844 84.398438 L 103.214844 93.75 L 93.84375 93.75 L 93.84375 84.398438 L 103.214844 84.398438 " fill-opacity="1" fill-rule="nonzero"/><path fill="#fec447" d="M 103.214844 75.015625 L 103.214844 84.398438 L 93.84375 84.398438 L 93.84375 75.015625 L 103.214844 75.015625 " fill-opacity="1" fill-rule="nonzero"/><path fill="#fee670" d="M 103.214844 65.660156 L 103.214844 75.015625 L 93.84375 75.015625 L 93.84375 65.660156 L 103.214844 65.660156 " fill-opacity="1" fill-rule="nonzero"/><path fill="#fee670" d="M 103.214844 56.308594 L 103.214844 65.660156 L 93.84375 65.660156 L 93.84375 56.308594 L 103.214844 56.308594 " fill-opacity="1" fill-rule="nonzero"/><path fill="#fec447" d="M 103.214844 46.953125 L 103.214844 56.308594 L 93.84375 56.308594 L 93.84375 46.953125 L 103.214844 46.953125 " fill-opacity="1" fill-rule="nonzero"/><path fill="#fea52a" d="M 103.214844 37.570312 L 103.214844 46.953125 L 93.84375 46.953125 L 93.84375 37.570312 L 103.214844 37.570312 " fill-opacity="1" fill-rule="nonzero"/><path fill="#c74424" d="M 103.214844 28.21875 L 103.214844 37.570312 L 93.84375 37.570312 L 93.84375 28.21875 L 103.214844 28.21875 " fill-opacity="1" fill-rule="nonzero"/><g clip-path="url(#id16)"><path fill="#fec447" d="M 103.214844 18.863281 L 103.214844 28.21875 L 93.84375 28.21875 L 93.84375 18.863281 L 103.214844 18.863281 " fill-opacity="1" fill-rule="nonzero"/></g><g clip-path="url(#id17)"><path fill="#fea52a" d="M 93.84375 159.28125 L 93.84375 168.636719 L 84.453125 168.636719 L 84.453125 159.28125 L 93.84375 159.28125 " fill-opacity="1" fill-rule="nonzero"/></g><path fill="#c74424" d="M 93.84375 149.929688 L 93.84375 159.28125 L 84.453125 159.28125 L 84.453125 149.929688 L 93.84375 149.929688 " fill-opacity="1" fill-rule="nonzero"/><path fill="#fea52a" d="M 93.84375 140.546875 L 93.84375 149.929688 L 84.453125 149.929688 L 84.453125 140.546875 L 93.84375 140.546875 " fill-opacity="1" fill-rule="nonzero"/><path fill="#fea52a" d="M 93.84375 131.195312 L 93.84375 140.546875 L 84.453125 140.546875 L 84.453125 131.195312 L 93.84375 131.195312 " fill-opacity="1" fill-rule="nonzero"/><path fill="#fea52a" d="M 93.84375 121.839844 L 93.84375 131.195312 L 84.453125 131.195312 L 84.453125 121.839844 L 93.84375 121.839844 " fill-opacity="1" fill-rule="nonzero"/><path fill="#fea52a" d="M 93.84375 112.484375 L 93.84375 121.839844 L 84.453125 121.839844 L 84.453125 112.484375 L 93.84375 112.484375 " fill-opacity="1" fill-rule="nonzero"/><path fill="#fec447" d="M 93.84375 103.101562 L 93.84375 112.484375 L 84.453125 112.484375 L 84.453125 103.101562 L 93.84375 103.101562 " fill-opacity="1" fill-rule="nonzero"/><path fill="#fec447" d="M 93.84375 93.75 L 93.84375 103.101562 L 84.453125 103.101562 L 84.453125 93.75 L 93.84375 93.75 " fill-opacity="1" fill-rule="nonzero"/><path fill="#fee670" d="M 93.84375 84.398438 L 93.84375 93.75 L 84.453125 93.75 L 84.453125 84.398438 L 93.84375 84.398438 " fill-opacity="1" fill-rule="nonzero"/><path fill="#fee670" d="M 93.84375 75.015625 L 93.84375 84.398438 L 84.453125 84.398438 L 84.453125 75.015625 L 93.84375 75.015625 " fill-opacity="1" fill-rule="nonzero"/><path fill="#fec447" d="M 93.84375 65.660156 L 93.84375 75.015625 L 84.453125 75.015625 L 84.453125 65.660156 L 93.84375 65.660156 " fill-opacity="1" fill-rule="nonzero"/><path fill="#fec447" d="M 93.84375 56.308594 L 93.84375 65.660156 L 84.453125 65.660156 L 84.453125 56.308594 L 93.84375 56.308594 " fill-opacity="1" fill-rule="nonzero"/><path fill="#fea52a" d="M 93.84375 46.953125 L 93.84375 56.308594 L 84.453125 56.308594 L 84.453125 46.953125 L 93.84375 46.953125 " fill-opacity="1" fill-rule="nonzero"/><path fill="#fea52a" d="M 93.84375 37.570312 L 93.84375 46.953125 L 84.453125 46.953125 L 84.453125 37.570312 L 93.84375 37.570312 " fill-opacity="1" fill-rule="nonzero"/><path fill="#c74424" d="M 93.84375 28.21875 L 93.84375 37.570312 L 84.453125 37.570312 L 84.453125 28.21875 L 93.84375 28.21875 " fill-opacity="1" fill-rule="nonzero"/><g clip-path="url(#id18)"><path fill="#fea52a" d="M 93.84375 18.863281 L 93.84375 28.21875 L 84.453125 28.21875 L 84.453125 18.863281 L 93.84375 18.863281 " fill-opacity="1" fill-rule="nonzero"/></g><g clip-path="url(#id19)"><path fill="#fea52a" d="M 84.453125 159.28125 L 84.453125 168.636719 L 75.082031 168.636719 L 75.082031 159.28125 L 84.453125 159.28125 " fill-opacity="1" fill-rule="nonzero"/></g><path fill="#c74424" d="M 84.453125 149.929688 L 84.453125 159.28125 L 75.082031 159.28125 L 75.082031 149.929688 L 84.453125 149.929688 " fill-opacity="1" fill-rule="nonzero"/><path fill="#fea52a" d="M 84.453125 140.546875 L 84.453125 149.929688 L 75.082031 149.929688 L 75.082031 140.546875 L 84.453125 140.546875 " fill-opacity="1" fill-rule="nonzero"/><path fill="#fea52a" d="M 84.453125 131.195312 L 84.453125 140.546875 L 75.082031 140.546875 L 75.082031 131.195312 L 84.453125 131.195312 " fill-opacity="1" fill-rule="nonzero"/><path fill="#fec447" d="M 84.453125 121.839844 L 84.453125 131.195312 L 75.082031 131.195312 L 75.082031 121.839844 L 84.453125 121.839844 " fill-opacity="1" fill-rule="nonzero"/><path fill="#fec447" d="M 84.453125 112.484375 L 84.453125 121.839844 L 75.082031 121.839844 L 75.082031 112.484375 L 84.453125 112.484375 " fill-opacity="1" fill-rule="nonzero"/><path fill="#fee670" d="M 84.453125 103.101562 L 84.453125 112.484375 L 75.082031 112.484375 L 75.082031 103.101562 L 84.453125 103.101562 " fill-opacity="1" fill-rule="nonzero"/><path fill="#fee670" d="M 84.453125 93.75 L 84.453125 103.101562 L 75.082031 103.101562 L 75.082031 93.75 L 84.453125 93.75 " fill-opacity="1" fill-rule="nonzero"/><path fill="#fec447" d="M 84.453125 84.398438 L 84.453125 93.75 L 75.082031 93.75 L 75.082031 84.398438 L 84.453125 84.398438 " fill-opacity="1" fill-rule="nonzero"/><path fill="#fec447" d="M 84.453125 75.015625 L 84.453125 84.398438 L 75.082031 84.398438 L 75.082031 75.015625 L 84.453125 75.015625 " fill-opacity="1" fill-rule="nonzero"/><path fill="#fea52a" d="M 84.453125 65.660156 L 84.453125 75.015625 L 75.082031 75.015625 L 75.082031 65.660156 L 84.453125 65.660156 " fill-opacity="1" fill-rule="nonzero"/><path fill="#fea52a" d="M 84.453125 56.308594 L 84.453125 65.660156 L 75.082031 65.660156 L 75.082031 56.308594 L 84.453125 56.308594 " fill-opacity="1" fill-rule="nonzero"/><path fill="#fea52a" d="M 84.453125 46.953125 L 84.453125 56.308594 L 75.082031 56.308594 L 75.082031 46.953125 L 84.453125 46.953125 " fill-opacity="1" fill-rule="nonzero"/><path fill="#fea52a" d="M 84.453125 37.570312 L 84.453125 46.953125 L 75.082031 46.953125 L 75.082031 37.570312 L 84.453125 37.570312 " fill-opacity="1" fill-rule="nonzero"/><path fill="#c74424" d="M 84.453125 28.21875 L 84.453125 37.570312 L 75.082031 37.570312 L 75.082031 28.21875 L 84.453125 28.21875 " fill-opacity="1" fill-rule="nonzero"/><g clip-path="url(#id20)"><path fill="#fea52a" d="M 84.453125 18.863281 L 84.453125 28.21875 L 75.082031 28.21875 L 75.082031 18.863281 L 84.453125 18.863281 " fill-opacity="1" fill-rule="nonzero"/></g><g clip-path="url(#id21)"><path fill="#fea52a" d="M 75.082031 159.28125 L 75.082031 168.636719 L 65.71875 168.636719 L 65.71875 159.28125 L 75.082031 159.28125 " fill-opacity="1" fill-rule="nonzero"/></g><path fill="#c74424" d="M 75.082031 149.929688 L 75.082031 159.28125 L 65.71875 159.28125 L 65.71875 149.929688 L 75.082031 149.929688 " fill-opacity="1" fill-rule="nonzero"/><path fill="#fec447" d="M 75.082031 140.546875 L 75.082031 149.929688 L 65.71875 149.929688 L 65.71875 140.546875 L 75.082031 140.546875 " fill-opacity="1" fill-rule="nonzero"/><path fill="#fec447" d="M 75.082031 131.195312 L 75.082031 140.546875 L 65.71875 140.546875 L 65.71875 131.195312 L 75.082031 131.195312 " fill-opacity="1" fill-rule="nonzero"/><path fill="#fee670" d="M 75.082031 121.839844 L 75.082031 131.195312 L 65.71875 131.195312 L 65.71875 121.839844 L 75.082031 121.839844 " fill-opacity="1" fill-rule="nonzero"/><path fill="#fee670" d="M 75.082031 112.484375 L 75.082031 121.839844 L 65.71875 121.839844 L 65.71875 112.484375 L 75.082031 112.484375 " fill-opacity="1" fill-rule="nonzero"/><path fill="#fec447" d="M 75.082031 103.101562 L 75.082031 112.484375 L 65.71875 112.484375 L 65.71875 103.101562 L 75.082031 103.101562 " fill-opacity="1" fill-rule="nonzero"/><path fill="#fec447" d="M 75.082031 93.75 L 75.082031 103.101562 L 65.71875 103.101562 L 65.71875 93.75 L 75.082031 93.75 " fill-opacity="1" fill-rule="nonzero"/><path fill="#fea52a" d="M 75.082031 84.398438 L 75.082031 93.75 L 65.71875 93.75 L 65.71875 84.398438 L 75.082031 84.398438 " fill-opacity="1" fill-rule="nonzero"/><path fill="#fea52a" d="M 75.082031 75.015625 L 75.082031 84.398438 L 65.71875 84.398438 L 65.71875 75.015625 L 75.082031 75.015625 " fill-opacity="1" fill-rule="nonzero"/><path fill="#fea52a" d="M 75.082031 65.660156 L 75.082031 75.015625 L 65.71875 75.015625 L 65.71875 65.660156 L 75.082031 65.660156 " fill-opacity="1" fill-rule="nonzero"/><path fill="#fea52a" d="M 75.082031 56.308594 L 75.082031 65.660156 L 65.71875 65.660156 L 65.71875 56.308594 L 75.082031 56.308594 " fill-opacity="1" fill-rule="nonzero"/><path fill="#fec447" d="M 75.082031 46.953125 L 75.082031 56.308594 L 65.71875 56.308594 L 65.71875 46.953125 L 75.082031 46.953125 " fill-opacity="1" fill-rule="nonzero"/><path fill="#fec447" d="M 75.082031 37.570312 L 75.082031 46.953125 L 65.71875 46.953125 L 65.71875 37.570312 L 75.082031 37.570312 " fill-opacity="1" fill-rule="nonzero"/><path fill="#c74424" d="M 75.082031 28.21875 L 75.082031 37.570312 L 65.71875 37.570312 L 65.71875 28.21875 L 75.082031 28.21875 " fill-opacity="1" fill-rule="nonzero"/><g clip-path="url(#id22)"><path fill="#fea52a" d="M 75.082031 18.863281 L 75.082031 28.21875 L 65.71875 28.21875 L 65.71875 18.863281 L 75.082031 18.863281 " fill-opacity="1" fill-rule="nonzero"/></g><g clip-path="url(#id23)"><path fill="#fea52a" d="M 65.71875 159.28125 L 65.71875 168.636719 L 56.347656 168.636719 L 56.347656 159.28125 L 65.71875 159.28125 " fill-opacity="1" fill-rule="nonzero"/></g><path fill="#fea52a" d="M 65.71875 149.929688 L 65.71875 159.28125 L 56.347656 159.28125 L 56.347656 149.929688 L 65.71875 149.929688 " fill-opacity="1" fill-rule="nonzero"/><path fill="#c74424" d="M 65.71875 140.546875 L 65.71875 149.929688 L 56.347656 149.929688 L 56.347656 140.546875 L 65.71875 140.546875 " fill-opacity="1" fill-rule="nonzero"/><path fill="#fee670" d="M 65.71875 131.195312 L 65.71875 140.546875 L 56.347656 140.546875 L 56.347656 131.195312 L 65.71875 131.195312 " fill-opacity="1" fill-rule="nonzero"/><path fill="#fec447" d="M 65.71875 121.839844 L 65.71875 131.195312 L 56.347656 131.195312 L 56.347656 121.839844 L 65.71875 121.839844 " fill-opacity="1" fill-rule="nonzero"/><path fill="#fec447" d="M 65.71875 112.484375 L 65.71875 121.839844 L 56.347656 121.839844 L 56.347656 112.484375 L 65.71875 112.484375 " fill-opacity="1" fill-rule="nonzero"/><path fill="#fea52a" d="M 65.71875 103.101562 L 65.71875 112.484375 L 56.347656 112.484375 L 56.347656 103.101562 L 65.71875 103.101562 " fill-opacity="1" fill-rule="nonzero"/><path fill="#fea52a" d="M 65.71875 93.75 L 65.71875 103.101562 L 56.347656 103.101562 L 56.347656 93.75 L 65.71875 93.75 " fill-opacity="1" fill-rule="nonzero"/><path fill="#fea52a" d="M 65.71875 84.398438 L 65.71875 93.75 L 56.347656 93.75 L 56.347656 84.398438 L 65.71875 84.398438 " fill-opacity="1" fill-rule="nonzero"/><path fill="#fea52a" d="M 65.71875 75.015625 L 65.71875 84.398438 L 56.347656 84.398438 L 56.347656 75.015625 L 65.71875 75.015625 " fill-opacity="1" fill-rule="nonzero"/><path fill="#fec447" d="M 65.71875 65.660156 L 65.71875 75.015625 L 56.347656 75.015625 L 56.347656 65.660156 L 65.71875 65.660156 " fill-opacity="1" fill-rule="nonzero"/><path fill="#fec447" d="M 65.71875 56.308594 L 65.71875 65.660156 L 56.347656 65.660156 L 56.347656 56.308594 L 65.71875 56.308594 " fill-opacity="1" fill-rule="nonzero"/><path fill="#fea52a" d="M 65.71875 46.953125 L 65.71875 56.308594 L 56.347656 56.308594 L 56.347656 46.953125 L 65.71875 46.953125 " fill-opacity="1" fill-rule="nonzero"/><path fill="#c74424" d="M 65.71875 37.570312 L 65.71875 46.953125 L 56.347656 46.953125 L 56.347656 37.570312 L 65.71875 37.570312 " fill-opacity="1" fill-rule="nonzero"/><path fill="#fea52a" d="M 65.71875 28.21875 L 65.71875 37.570312 L 56.347656 37.570312 L 56.347656 28.21875 L 65.71875 28.21875 " fill-opacity="1" fill-rule="nonzero"/><g clip-path="url(#id24)"><path fill="#fec447" d="M 65.71875 18.863281 L 65.71875 28.21875 L 56.347656 28.21875 L 56.347656 18.863281 L 65.71875 18.863281 " fill-opacity="1" fill-rule="nonzero"/></g><path fill="#fea52a" d="M 56.347656 149.929688 L 56.347656 159.28125 L 46.953125 159.28125 L 46.953125 149.929688 L 56.347656 149.929688 " fill-opacity="1" fill-rule="nonzero"/><path fill="#fea52a" d="M 56.347656 140.546875 L 56.347656 149.929688 L 46.953125 149.929688 L 46.953125 140.546875 L 56.347656 140.546875 " fill-opacity="1" fill-rule="nonzero"/><path fill="#c74424" d="M 56.347656 131.195312 L 56.347656 140.546875 L 46.953125 140.546875 L 46.953125 131.195312 L 56.347656 131.195312 " fill-opacity="1" fill-rule="nonzero"/><path fill="#c74424" d="M 56.347656 121.839844 L 56.347656 131.195312 L 46.953125 131.195312 L 46.953125 121.839844 L 56.347656 121.839844 " fill-opacity="1" fill-rule="nonzero"/><path fill="#fea52a" d="M 56.347656 112.484375 L 56.347656 121.839844 L 46.953125 121.839844 L 46.953125 112.484375 L 56.347656 112.484375 " fill-opacity="1" fill-rule="nonzero"/><path fill="#fea52a" d="M 56.347656 103.101562 L 56.347656 112.484375 L 46.953125 112.484375 L 46.953125 103.101562 L 56.347656 103.101562 " fill-opacity="1" fill-rule="nonzero"/><path fill="#fea52a" d="M 56.347656 93.75 L 56.347656 103.101562 L 46.953125 103.101562 L 46.953125 93.75 L 56.347656 93.75 " fill-opacity="1" fill-rule="nonzero"/><path fill="#fec447" d="M 56.347656 84.398438 L 56.347656 93.75 L 46.953125 93.75 L 46.953125 84.398438 L 56.347656 84.398438 " fill-opacity="1" fill-rule="nonzero"/><path fill="#fec447" d="M 56.347656 75.015625 L 56.347656 84.398438 L 46.953125 84.398438 L 46.953125 75.015625 L 56.347656 75.015625 " fill-opacity="1" fill-rule="nonzero"/><path fill="#fea52a" d="M 56.347656 65.660156 L 56.347656 75.015625 L 46.953125 75.015625 L 46.953125 65.660156 L 56.347656 65.660156 " fill-opacity="1" fill-rule="nonzero"/><path fill="#c74424" d="M 56.347656 56.308594 L 56.347656 65.660156 L 46.953125 65.660156 L 46.953125 56.308594 L 56.347656 56.308594 " fill-opacity="1" fill-rule="nonzero"/><path fill="#c74424" d="M 56.347656 46.953125 L 56.347656 56.308594 L 46.953125 56.308594 L 46.953125 46.953125 L 56.347656 46.953125 " fill-opacity="1" fill-rule="nonzero"/><path fill="#fea52a" d="M 56.347656 37.570312 L 56.347656 46.953125 L 46.953125 46.953125 L 46.953125 37.570312 L 56.347656 37.570312 " fill-opacity="1" fill-rule="nonzero"/><path fill="#fec447" d="M 56.347656 28.21875 L 56.347656 37.570312 L 46.953125 37.570312 L 46.953125 28.21875 L 56.347656 28.21875 " fill-opacity="1" fill-rule="nonzero"/><path fill="#fea52a" d="M 46.953125 140.546875 L 46.953125 149.929688 L 37.589844 149.929688 L 37.589844 140.546875 L 46.953125 140.546875 " fill-opacity="1" fill-rule="nonzero"/><path fill="#fea52a" d="M 46.953125 131.195312 L 46.953125 140.546875 L 37.589844 140.546875 L 37.589844 131.195312 L 46.953125 131.195312 " fill-opacity="1" fill-rule="nonzero"/><path fill="#fea52a" d="M 46.953125 121.839844 L 46.953125 131.195312 L 37.589844 131.195312 L 37.589844 121.839844 L 46.953125 121.839844 " fill-opacity="1" fill-rule="nonzero"/><path fill="#c74424" d="M 46.953125 112.484375 L 46.953125 121.839844 L 37.589844 121.839844 L 37.589844 112.484375 L 46.953125 112.484375 " fill-opacity="1" fill-rule="nonzero"/><path fill="#c74424" d="M 46.953125 103.101562 L 46.953125 112.484375 L 37.589844 112.484375 L 37.589844 103.101562 L 46.953125 103.101562 " fill-opacity="1" fill-rule="nonzero"/><path fill="#c74424" d="M 46.953125 93.75 L 46.953125 103.101562 L 37.589844 103.101562 L 37.589844 93.75 L 46.953125 93.75 " fill-opacity="1" fill-rule="nonzero"/><path fill="#c74424" d="M 46.953125 84.398438 L 46.953125 93.75 L 37.589844 93.75 L 37.589844 84.398438 L 46.953125 84.398438 " fill-opacity="1" fill-rule="nonzero"/><path fill="#c74424" d="M 46.953125 75.015625 L 46.953125 84.398438 L 37.589844 84.398438 L 37.589844 75.015625 L 46.953125 75.015625 " fill-opacity="1" fill-rule="nonzero"/><path fill="#c74424" d="M 46.953125 65.660156 L 46.953125 75.015625 L 37.589844 75.015625 L 37.589844 65.660156 L 46.953125 65.660156 " fill-opacity="1" fill-rule="nonzero"/><path fill="#fea52a" d="M 46.953125 56.308594 L 46.953125 65.660156 L 37.589844 65.660156 L 37.589844 56.308594 L 46.953125 56.308594 " fill-opacity="1" fill-rule="nonzero"/><path fill="#fea52a" d="M 46.953125 46.953125 L 46.953125 56.308594 L 37.589844 56.308594 L 37.589844 46.953125 L 46.953125 46.953125 " fill-opacity="1" fill-rule="nonzero"/><path fill="#fec447" d="M 46.953125 37.570312 L 46.953125 46.953125 L 37.589844 46.953125 L 37.589844 37.570312 L 46.953125 37.570312 " fill-opacity="1" fill-rule="nonzero"/><g clip-path="url(#id25)"><path fill="#fea52a" d="M 37.589844 121.839844 L 37.589844 131.195312 L 28.21875 131.195312 L 28.21875 121.839844 L 37.589844 121.839844 " fill-opacity="1" fill-rule="nonzero"/></g><g clip-path="url(#id26)"><path fill="#fea52a" d="M 37.589844 112.484375 L 37.589844 121.839844 L 28.21875 121.839844 L 28.21875 112.484375 L 37.589844 112.484375 " fill-opacity="1" fill-rule="nonzero"/></g><g clip-path="url(#id27)"><path fill="#fea52a" d="M 37.589844 103.101562 L 37.589844 112.484375 L 28.21875 112.484375 L 28.21875 103.101562 L 37.589844 103.101562 " fill-opacity="1" fill-rule="nonzero"/></g><g clip-path="url(#id28)"><path fill="#fea52a" d="M 37.589844 93.75 L 37.589844 103.101562 L 28.21875 103.101562 L 28.21875 93.75 L 37.589844 93.75 " fill-opacity="1" fill-rule="nonzero"/></g><g clip-path="url(#id29)"><path fill="#fea52a" d="M 37.589844 84.398438 L 37.589844 93.75 L 28.21875 93.75 L 28.21875 84.398438 L 37.589844 84.398438 " fill-opacity="1" fill-rule="nonzero"/></g><g clip-path="url(#id30)"><path fill="#fea52a" d="M 37.589844 75.015625 L 37.589844 84.398438 L 28.21875 84.398438 L 28.21875 75.015625 L 37.589844 75.015625 " fill-opacity="1" fill-rule="nonzero"/></g><g clip-path="url(#id31)"><path fill="#fea52a" d="M 37.589844 65.660156 L 37.589844 75.015625 L 28.21875 75.015625 L 28.21875 65.660156 L 37.589844 65.660156 " fill-opacity="1" fill-rule="nonzero"/></g><g clip-path="url(#id32)"><path fill="#fec447" d="M 37.589844 56.308594 L 37.589844 65.660156 L 28.21875 65.660156 L 28.21875 56.308594 L 37.589844 56.308594 " fill-opacity="1" fill-rule="nonzero"/></g></svg>