<svg xmlns="http://www.w3.org/2000/svg" xmlns:xlink="http://www.w3.org/1999/xlink" width="250" zoomAndPan="magnify" viewBox="0 0 187.5 187.499992" height="250" preserveAspectRatio="xMidYMid meet" version="1.0"><defs><clipPath id="id1"><path d="M 18.75 69 L 26 69 L 26 77 L 18.75 77 Z M 18.75 69 " clip-rule="nonzero"/></clipPath><clipPath id="id2"><path d="M 18.75 76 L 26 76 L 26 84 L 18.75 84 Z M 18.75 76 " clip-rule="nonzero"/></clipPath><clipPath id="id3"><path d="M 18.75 83 L 26 83 L 26 91 L 18.75 91 Z M 18.75 83 " clip-rule="nonzero"/></clipPath><clipPath id="id4"><path d="M 18.75 90 L 26 90 L 26 98 L 18.75 98 Z M 18.75 90 " clip-rule="nonzero"/></clipPath><clipPath id="id5"><path d="M 18.75 97 L 26 97 L 26 105 L 18.75 105 Z M 18.75 97 " clip-rule="nonzero"/></clipPath><clipPath id="id6"><path d="M 18.75 104 L 26 104 L 26 112 L 18.75 112 Z M 18.75 104 " clip-rule="nonzero"/></clipPath><clipPath id="id7"><path d="M 18.75 111 L 26 111 L 26 119 L 18.75 119 Z M 18.75 111 " clip-rule="nonzero"/></clipPath><clipPath id="id8"><path d="M 32 125 L 40 125 L 40 132.09375 L 32 132.09375 Z M 32 125 " clip-rule="nonzero"/></clipPath><clipPath id="id9"><path d="M 39 125 L 47 125 L 47 132.09375 L 39 132.09375 Z M 39 125 " clip-rule="nonzero"/></clipPath><clipPath id="id10"><path d="M 46 125 L 54 125 L 54 132.09375 L 46 132.09375 Z M 46 125 " clip-rule="nonzero"/></clipPath><clipPath id="id11"><path d="M 53 125 L 61 125 L 61 132.09375 L 53 132.09375 Z M 53 125 " clip-rule="nonzero"/></clipPath><clipPath id="id12"><path d="M 60 125 L 68 125 L 68 132.09375 L 60 132.09375 Z M 60 125 " clip-rule="nonzero"/></clipPath><clipPath id="id13"><path d="M 60 55.59375 L 68 55.59375 L 68 63 L 60 63 Z M 60 55.59375 " clip-rule="nonzero"/></clipPath><clipPath id="id14"><path d="M 53 55.59375 L 61 55.59375 L 61 63 L 53 63 Z M 53 55.59375 " clip-rule="nonzero"/></clipPath><clipPath id="id15"><path d="M 46 55.59375 L 54 55.59375 L 54 63 L 46 63 Z M 46 55.59375 " clip-rule="nonzero"/></clipPath><clipPath id="id16"><path d="M 39 55.59375 L 47 55.59375 L 47 63 L 39 63 Z M 39 55.59375 " clip-rule="nonzero"/></clipPath><clipPath id="id17"><path d="M 32 55.59375 L 40 55.59375 L 40 63 L 32 63 Z M 32 55.59375 " clip-rule="nonzero"/></clipPath><clipPath id="id18"><path d="M 99 75 L 168.75 75 L 168.75 112 L 99 112 Z M 99 75 " clip-rule="nonzero"/></clipPath></defs><path fill="#fff647" d="M 32.835938 76.421875 L 25.902344 76.421875 L 25.902344 69.46875 L 32.835938 69.46875 L 32.835938 76.421875 " fill-opacity="1" fill-rule="nonzero"/><path fill="#e98410" d="M 46.703125 76.421875 L 39.765625 76.421875 L 39.765625 69.46875 L 46.703125 69.46875 L 46.703125 76.421875 " fill-opacity="1" fill-rule="nonzero"/><path fill="#e98410" d="M 53.636719 76.421875 L 46.703125 76.421875 L 46.703125 69.46875 L 53.636719 69.46875 L 53.636719 76.421875 " fill-opacity="1" fill-rule="nonzero"/><path fill="#e98410" d="M 60.566406 76.421875 L 53.636719 76.421875 L 53.636719 69.46875 L 60.566406 69.46875 L 60.566406 76.421875 " fill-opacity="1" fill-rule="nonzero"/><path fill="#fbc308" d="M 46.703125 83.375 L 39.765625 83.375 L 39.765625 76.421875 L 46.703125 76.421875 L 46.703125 83.375 " fill-opacity="1" fill-rule="nonzero"/><path fill="#fbc308" d="M 53.636719 83.375 L 46.703125 83.375 L 46.703125 76.421875 L 53.636719 76.421875 L 53.636719 83.375 " fill-opacity="1" fill-rule="nonzero"/><path fill="#fbc308" d="M 60.566406 83.375 L 53.636719 83.375 L 53.636719 76.421875 L 60.566406 76.421875 L 60.566406 83.375 " fill-opacity="1" fill-rule="nonzero"/><path fill="#fbc308" d="M 46.703125 90.324219 L 39.765625 90.324219 L 39.765625 83.375 L 46.703125 83.375 L 46.703125 90.324219 " fill-opacity="1" fill-rule="nonzero"/><path fill="#fbc308" d="M 53.636719 90.324219 L 46.703125 90.324219 L 46.703125 83.375 L 53.636719 83.375 L 53.636719 90.324219 " fill-opacity="1" fill-rule="nonzero"/><path fill="#fbc308" d="M 60.566406 90.324219 L 53.636719 90.324219 L 53.636719 83.375 L 60.566406 83.375 L 60.566406 90.324219 " fill-opacity="1" fill-rule="nonzero"/><path fill="#fbc308" d="M 46.703125 97.273438 L 39.765625 97.273438 L 39.765625 90.324219 L 46.703125 90.324219 L 46.703125 97.273438 " fill-opacity="1" fill-rule="nonzero"/><path fill="#fbc308" d="M 53.636719 97.273438 L 46.703125 97.273438 L 46.703125 90.324219 L 53.636719 90.324219 L 53.636719 97.273438 " fill-opacity="1" fill-rule="nonzero"/><path fill="#fbc308" d="M 60.566406 97.273438 L 53.636719 97.273438 L 53.636719 90.324219 L 60.566406 90.324219 L 60.566406 97.273438 " fill-opacity="1" fill-rule="nonzero"/><path fill="#fbc308" d="M 46.703125 104.222656 L 39.765625 104.222656 L 39.765625 97.273438 L 46.703125 97.273438 L 46.703125 104.222656 " fill-opacity="1" fill-rule="nonzero"/><path fill="#fbc308" d="M 53.636719 104.222656 L 46.703125 104.222656 L 46.703125 97.273438 L 53.636719 97.273438 L 53.636719 104.222656 " fill-opacity="1" fill-rule="nonzero"/><path fill="#fbc308" d="M 60.566406 104.222656 L 53.636719 104.222656 L 53.636719 97.273438 L 60.566406 97.273438 L 60.566406 104.222656 " fill-opacity="1" fill-rule="nonzero"/><path fill="#fbc308" d="M 46.703125 111.175781 L 39.765625 111.175781 L 39.765625 104.222656 L 46.703125 104.222656 L 46.703125 111.175781 " fill-opacity="1" fill-rule="nonzero"/><path fill="#fbc308" d="M 53.636719 111.175781 L 46.703125 111.175781 L 46.703125 104.222656 L 53.636719 104.222656 L 53.636719 111.175781 " fill-opacity="1" fill-rule="nonzero"/><path fill="#fbc308" d="M 60.566406 111.175781 L 53.636719 111.175781 L 53.636719 104.222656 L 60.566406 104.222656 L 60.566406 111.175781 " fill-opacity="1" fill-rule="nonzero"/><path fill="#e98410" d="M 46.664062 118.164062 L 39.730469 118.164062 L 39.730469 111.210938 L 46.664062 111.210938 L 46.664062 118.164062 " fill-opacity="1" fill-rule="nonzero"/><path fill="#e98410" d="M 53.597656 118.164062 L 46.664062 118.164062 L 46.664062 111.210938 L 53.597656 111.210938 L 53.597656 118.164062 " fill-opacity="1" fill-rule="nonzero"/><path fill="#e98410" d="M 60.53125 118.164062 L 53.597656 118.164062 L 53.597656 111.210938 L 60.53125 111.210938 L 60.53125 118.164062 " fill-opacity="1" fill-rule="nonzero"/><g clip-path="url(#id1)"><path fill="#fbc308" d="M 25.902344 76.445312 L 18.96875 76.445312 L 18.96875 69.5 L 25.902344 69.5 L 25.902344 76.445312 " fill-opacity="1" fill-rule="nonzero"/></g><path fill="#e98410" d="M 74.402344 76.558594 L 81.335938 76.558594 L 81.335938 69.613281 L 74.402344 69.613281 L 74.402344 76.558594 " fill-opacity="1" fill-rule="nonzero"/><g clip-path="url(#id2)"><path fill="#fbc308" d="M 25.902344 83.375 L 18.96875 83.375 L 18.96875 76.421875 L 25.902344 76.421875 L 25.902344 83.375 " fill-opacity="1" fill-rule="nonzero"/></g><path fill="#e98410" d="M 74.402344 83.375 L 81.335938 83.375 L 81.335938 76.421875 L 74.402344 76.421875 L 74.402344 83.375 " fill-opacity="1" fill-rule="nonzero"/><g clip-path="url(#id3)"><path fill="#fbc308" d="M 25.902344 90.351562 L 18.96875 90.351562 L 18.96875 83.398438 L 25.902344 83.398438 L 25.902344 90.351562 " fill-opacity="1" fill-rule="nonzero"/></g><path fill="#e98410" d="M 74.402344 90.464844 L 81.335938 90.464844 L 81.335938 83.511719 L 74.402344 83.511719 L 74.402344 90.464844 " fill-opacity="1" fill-rule="nonzero"/><g clip-path="url(#id4)"><path fill="#fbc308" d="M 25.902344 97.296875 L 18.96875 97.296875 L 18.96875 90.351562 L 25.902344 90.351562 L 25.902344 97.296875 " fill-opacity="1" fill-rule="nonzero"/></g><path fill="#e98410" d="M 74.402344 97.410156 L 81.335938 97.410156 L 81.335938 90.464844 L 74.402344 90.464844 L 74.402344 97.410156 " fill-opacity="1" fill-rule="nonzero"/><g clip-path="url(#id5)"><path fill="#fbc308" d="M 25.902344 104.246094 L 18.96875 104.246094 L 18.96875 97.296875 L 25.902344 97.296875 L 25.902344 104.246094 " fill-opacity="1" fill-rule="nonzero"/></g><path fill="#e98410" d="M 74.402344 104.359375 L 81.335938 104.359375 L 81.335938 97.410156 L 74.402344 97.410156 L 74.402344 104.359375 " fill-opacity="1" fill-rule="nonzero"/><g clip-path="url(#id6)"><path fill="#fbc308" d="M 25.902344 111.199219 L 18.96875 111.199219 L 18.96875 104.246094 L 25.902344 104.246094 L 25.902344 111.199219 " fill-opacity="1" fill-rule="nonzero"/></g><path fill="#e98410" d="M 74.402344 111.308594 L 81.335938 111.308594 L 81.335938 104.359375 L 74.402344 104.359375 L 74.402344 111.308594 " fill-opacity="1" fill-rule="nonzero"/><g clip-path="url(#id7)"><path fill="#fbc308" d="M 25.902344 111.199219 L 18.96875 111.199219 L 18.96875 118.152344 L 25.902344 118.152344 L 25.902344 111.199219 " fill-opacity="1" fill-rule="nonzero"/></g><path fill="#f89f0e" d="M 32.835938 83.375 L 25.902344 83.375 L 25.902344 76.421875 L 32.835938 76.421875 L 32.835938 83.375 " fill-opacity="1" fill-rule="nonzero"/><path fill="#f89f0e" d="M 32.835938 90.351562 L 25.902344 90.351562 L 25.902344 83.398438 L 32.835938 83.398438 L 32.835938 90.351562 " fill-opacity="1" fill-rule="nonzero"/><path fill="#f89f0e" d="M 32.835938 97.296875 L 25.902344 97.296875 L 25.902344 90.351562 L 32.835938 90.351562 L 32.835938 97.296875 " fill-opacity="1" fill-rule="nonzero"/><path fill="#f89f0e" d="M 32.835938 104.246094 L 25.902344 104.246094 L 25.902344 97.296875 L 32.835938 97.296875 L 32.835938 104.246094 " fill-opacity="1" fill-rule="nonzero"/><path fill="#f89f0e" d="M 32.835938 111.199219 L 25.902344 111.199219 L 25.902344 104.246094 L 32.835938 104.246094 L 32.835938 111.199219 " fill-opacity="1" fill-rule="nonzero"/><path fill="#e98410" d="M 39.757812 83.375 L 32.824219 83.375 L 32.824219 76.421875 L 39.757812 76.421875 L 39.757812 83.375 " fill-opacity="1" fill-rule="nonzero"/><path fill="#fbc308" d="M 39.757812 76.421875 L 32.824219 76.421875 L 32.824219 69.46875 L 39.757812 69.46875 L 39.757812 76.421875 " fill-opacity="1" fill-rule="nonzero"/><path fill="#fbc308" d="M 67.46875 76.421875 L 60.539062 76.421875 L 60.539062 69.46875 L 67.46875 69.46875 L 67.46875 76.421875 " fill-opacity="1" fill-rule="nonzero"/><path fill="#fbc308" d="M 39.757812 118.152344 L 32.824219 118.152344 L 32.824219 111.203125 L 39.757812 111.203125 L 39.757812 118.152344 " fill-opacity="1" fill-rule="nonzero"/><path fill="#fbc308" d="M 67.46875 118.152344 L 60.539062 118.152344 L 60.539062 111.203125 L 67.46875 111.203125 L 67.46875 118.152344 " fill-opacity="1" fill-rule="nonzero"/><path fill="#e98410" d="M 39.757812 90.351562 L 32.824219 90.351562 L 32.824219 83.398438 L 39.757812 83.398438 L 39.757812 90.351562 " fill-opacity="1" fill-rule="nonzero"/><path fill="#e98410" d="M 39.757812 97.296875 L 32.824219 97.296875 L 32.824219 90.351562 L 39.757812 90.351562 L 39.757812 97.296875 " fill-opacity="1" fill-rule="nonzero"/><path fill="#e98410" d="M 39.757812 104.246094 L 32.824219 104.246094 L 32.824219 97.296875 L 39.757812 97.296875 L 39.757812 104.246094 " fill-opacity="1" fill-rule="nonzero"/><path fill="#e98410" d="M 39.746094 111.199219 L 32.808594 111.199219 L 32.808594 104.246094 L 39.746094 104.246094 L 39.746094 111.199219 " fill-opacity="1" fill-rule="nonzero"/><path fill="#e98410" d="M 67.46875 83.375 L 60.539062 83.375 L 60.539062 76.421875 L 67.46875 76.421875 L 67.46875 83.375 " fill-opacity="1" fill-rule="nonzero"/><path fill="#e98410" d="M 67.46875 90.351562 L 60.539062 90.351562 L 60.539062 83.398438 L 67.46875 83.398438 L 67.46875 90.351562 " fill-opacity="1" fill-rule="nonzero"/><path fill="#e98410" d="M 67.46875 97.296875 L 60.539062 97.296875 L 60.539062 90.351562 L 67.46875 90.351562 L 67.46875 97.296875 " fill-opacity="1" fill-rule="nonzero"/><path fill="#e98410" d="M 67.46875 104.246094 L 60.539062 104.246094 L 60.539062 97.296875 L 67.46875 97.296875 L 67.46875 104.246094 " fill-opacity="1" fill-rule="nonzero"/><path fill="#e98410" d="M 67.46875 111.199219 L 60.539062 111.199219 L 60.539062 104.246094 L 67.46875 104.246094 L 67.46875 111.199219 " fill-opacity="1" fill-rule="nonzero"/><path fill="#f89f0e" d="M 32.835938 111.285156 L 25.902344 111.285156 L 25.902344 118.136719 L 32.835938 118.136719 L 32.835938 111.285156 " fill-opacity="1" fill-rule="nonzero"/><path fill="#f89f0e" d="M 74.421875 111.21875 L 67.484375 111.21875 L 67.484375 118.167969 L 74.421875 118.167969 L 74.421875 111.21875 " fill-opacity="1" fill-rule="nonzero"/><path fill="#fff647" d="M 74.421875 76.421875 L 67.484375 76.421875 L 67.484375 69.46875 L 74.421875 69.46875 L 74.421875 76.421875 " fill-opacity="1" fill-rule="nonzero"/><path fill="#f89f0e" d="M 74.421875 83.375 L 67.484375 83.375 L 67.484375 76.421875 L 74.421875 76.421875 L 74.421875 83.375 " fill-opacity="1" fill-rule="nonzero"/><path fill="#f89f0e" d="M 74.421875 90.351562 L 67.484375 90.351562 L 67.484375 83.398438 L 74.421875 83.398438 L 74.421875 90.351562 " fill-opacity="1" fill-rule="nonzero"/><path fill="#f89f0e" d="M 74.421875 97.296875 L 67.484375 97.296875 L 67.484375 90.351562 L 74.421875 90.351562 L 74.421875 97.296875 " fill-opacity="1" fill-rule="nonzero"/><path fill="#f89f0e" d="M 74.421875 104.246094 L 67.484375 104.246094 L 67.484375 97.296875 L 74.421875 97.296875 L 74.421875 104.246094 " fill-opacity="1" fill-rule="nonzero"/><path fill="#f89f0e" d="M 74.421875 111.199219 L 67.484375 111.199219 L 67.484375 104.246094 L 74.421875 104.246094 L 74.421875 111.199219 " fill-opacity="1" fill-rule="nonzero"/><path fill="#f89f0e" d="M 39.71875 125.117188 L 32.789062 125.117188 L 32.789062 118.164062 L 39.71875 118.164062 L 39.71875 125.117188 " fill-opacity="1" fill-rule="nonzero"/><path fill="#f89f0e" d="M 46.652344 125.117188 L 39.71875 125.117188 L 39.71875 118.164062 L 46.652344 118.164062 L 46.652344 125.117188 " fill-opacity="1" fill-rule="nonzero"/><path fill="#f89f0e" d="M 53.574219 125.117188 L 46.644531 125.117188 L 46.644531 118.164062 L 53.574219 118.164062 L 53.574219 125.117188 " fill-opacity="1" fill-rule="nonzero"/><path fill="#f89f0e" d="M 60.511719 125.117188 L 53.574219 125.117188 L 53.574219 118.164062 L 60.511719 118.164062 L 60.511719 125.117188 " fill-opacity="1" fill-rule="nonzero"/><path fill="#f89f0e" d="M 67.453125 125.117188 L 60.519531 125.117188 L 60.519531 118.164062 L 67.453125 118.164062 L 67.453125 125.117188 " fill-opacity="1" fill-rule="nonzero"/><g clip-path="url(#id8)"><path fill="#e98410" d="M 39.765625 132.058594 L 32.835938 132.058594 L 32.835938 125.109375 L 39.765625 125.109375 L 39.765625 132.058594 " fill-opacity="1" fill-rule="nonzero"/></g><g clip-path="url(#id9)"><path fill="#e98410" d="M 46.703125 132.058594 L 39.765625 132.058594 L 39.765625 125.109375 L 46.703125 125.109375 L 46.703125 132.058594 " fill-opacity="1" fill-rule="nonzero"/></g><g clip-path="url(#id10)"><path fill="#e98410" d="M 53.636719 132.058594 L 46.703125 132.058594 L 46.703125 125.109375 L 53.636719 125.109375 L 53.636719 132.058594 " fill-opacity="1" fill-rule="nonzero"/></g><g clip-path="url(#id11)"><path fill="#e98410" d="M 60.566406 132.058594 L 53.636719 132.058594 L 53.636719 125.109375 L 60.566406 125.109375 L 60.566406 132.058594 " fill-opacity="1" fill-rule="nonzero"/></g><g clip-path="url(#id12)"><path fill="#e98410" d="M 67.503906 132.058594 L 60.566406 132.058594 L 60.566406 125.109375 L 67.503906 125.109375 L 67.503906 132.058594 " fill-opacity="1" fill-rule="nonzero"/></g><path fill="#f9a70d" d="M 32.789062 118.164062 L 25.851562 118.164062 L 25.851562 125.117188 L 32.789062 125.117188 L 32.789062 118.164062 " fill-opacity="1" fill-rule="nonzero"/><path fill="#e98410" d="M 67.453125 118.164062 L 74.386719 118.164062 L 74.386719 125.117188 L 67.453125 125.117188 L 67.453125 118.164062 " fill-opacity="1" fill-rule="nonzero"/><path fill="#f89f0e" d="M 60.519531 62.523438 L 67.453125 62.523438 L 67.453125 69.472656 L 60.519531 69.472656 L 60.519531 62.523438 " fill-opacity="1" fill-rule="nonzero"/><path fill="#f89f0e" d="M 53.585938 62.523438 L 60.519531 62.523438 L 60.519531 69.472656 L 53.585938 69.472656 L 53.585938 62.523438 " fill-opacity="1" fill-rule="nonzero"/><path fill="#f89f0e" d="M 46.664062 62.523438 L 53.597656 62.523438 L 53.597656 69.472656 L 46.664062 69.472656 L 46.664062 62.523438 " fill-opacity="1" fill-rule="nonzero"/><path fill="#f89f0e" d="M 39.730469 62.523438 L 46.664062 62.523438 L 46.664062 69.472656 L 39.730469 69.472656 L 39.730469 62.523438 " fill-opacity="1" fill-rule="nonzero"/><path fill="#fff647" d="M 32.789062 62.523438 L 39.71875 62.523438 L 39.71875 69.472656 L 32.789062 69.472656 L 32.789062 62.523438 " fill-opacity="1" fill-rule="nonzero"/><g clip-path="url(#id13)"><path fill="#fbc308" d="M 60.472656 55.582031 L 67.40625 55.582031 L 67.40625 62.53125 L 60.472656 62.53125 L 60.472656 55.582031 " fill-opacity="1" fill-rule="nonzero"/></g><g clip-path="url(#id14)"><path fill="#fbc308" d="M 53.539062 55.582031 L 60.472656 55.582031 L 60.472656 62.53125 L 53.539062 62.53125 L 53.539062 55.582031 " fill-opacity="1" fill-rule="nonzero"/></g><g clip-path="url(#id15)"><path fill="#fbc308" d="M 46.605469 55.582031 L 53.539062 55.582031 L 53.539062 62.53125 L 46.605469 62.53125 L 46.605469 55.582031 " fill-opacity="1" fill-rule="nonzero"/></g><g clip-path="url(#id16)"><path fill="#fbc308" d="M 39.671875 55.582031 L 46.605469 55.582031 L 46.605469 62.53125 L 39.671875 62.53125 L 39.671875 55.582031 " fill-opacity="1" fill-rule="nonzero"/></g><g clip-path="url(#id17)"><path fill="#fbc308" d="M 32.738281 55.582031 L 39.671875 55.582031 L 39.671875 62.53125 L 32.738281 62.53125 L 32.738281 55.582031 " fill-opacity="1" fill-rule="nonzero"/></g><path fill="#fbc308" d="M 67.453125 69.472656 L 74.386719 69.472656 L 74.386719 62.523438 L 67.453125 62.523438 L 67.453125 69.472656 " fill-opacity="1" fill-rule="nonzero"/><path fill="#fbc308" d="M 32.789062 69.472656 L 25.851562 69.472656 L 25.851562 62.523438 L 32.789062 62.523438 L 32.789062 69.472656 " fill-opacity="1" fill-rule="nonzero"/><path fill="#e98410" d="M 74.402344 111.21875 L 81.335938 111.21875 L 81.335938 118.167969 L 74.402344 118.167969 L 74.402344 111.21875 " fill-opacity="1" fill-rule="nonzero"/><g clip-path="url(#id18)"><path fill="#231f20" d="M 166.546875 79.769531 L 166.546875 77.730469 L 164.515625 77.730469 L 164.515625 75.691406 L 136.480469 75.691406 L 136.480469 79.769531 L 136.066406 79.769531 L 136.066406 77.730469 L 134.03125 77.730469 L 134.03125 75.691406 L 101.933594 75.691406 L 101.933594 77.730469 L 99.902344 77.730469 L 99.902344 109.910156 L 101.933594 109.910156 L 101.933594 111.949219 L 132 111.949219 L 132 109.910156 L 134.03125 109.910156 L 134.03125 107.871094 L 134.449219 107.871094 L 134.449219 109.910156 L 136.480469 109.910156 L 136.480469 111.949219 L 164.515625 111.949219 L 164.515625 109.910156 L 166.546875 109.910156 L 166.546875 107.871094 L 168.578125 107.871094 L 168.578125 79.769531 L 166.546875 79.769531 " fill-opacity="1" fill-rule="nonzero"/></g><path fill="#ffffff" d="M 132.207031 81.597656 L 132.207031 85.671875 L 130.175781 85.671875 L 130.175781 87.707031 L 117.980469 87.707031 L 117.980469 89.742188 L 128.144531 89.742188 L 128.144531 91.78125 L 130.175781 91.78125 L 130.175781 93.820312 L 132.207031 93.820312 L 132.207031 104.003906 L 130.175781 104.003906 L 130.175781 106.046875 L 128.144531 106.046875 L 128.144531 108.078125 L 105.789062 108.078125 L 105.789062 106.046875 L 103.753906 106.046875 L 103.753906 99.929688 L 105.789062 99.929688 L 105.789062 97.894531 L 122.046875 97.894531 L 122.046875 95.859375 L 105.789062 95.859375 L 105.789062 93.820312 L 103.753906 93.820312 L 103.753906 81.597656 L 105.789062 81.597656 L 105.789062 85.671875 L 107.820312 85.671875 L 107.820312 83.636719 L 109.851562 83.636719 L 109.851562 81.597656 L 105.789062 81.597656 L 105.789062 79.558594 L 130.175781 79.558594 L 130.175781 81.597656 L 132.207031 81.597656 " fill-opacity="1" fill-rule="nonzero"/><path fill="#ffffff" d="M 156.59375 99.929688 L 156.59375 85.671875 L 150.496094 85.671875 L 150.496094 99.929688 Z M 162.6875 83.636719 L 164.722656 83.636719 L 164.722656 104.003906 L 162.6875 104.003906 L 162.6875 106.046875 L 160.65625 106.046875 L 160.65625 108.078125 L 140.335938 108.078125 L 140.335938 106.046875 L 138.304688 106.046875 L 138.304688 104.003906 L 136.269531 104.003906 L 136.269531 83.636719 L 138.304688 83.636719 L 138.304688 85.671875 L 140.335938 85.671875 L 140.335938 83.636719 L 142.371094 83.636719 L 142.371094 81.597656 L 140.335938 81.597656 L 140.335938 79.558594 L 160.65625 79.558594 L 160.65625 81.597656 L 162.6875 81.597656 L 162.6875 83.636719 " fill-opacity="1" fill-rule="nonzero"/><path fill="#231f20" d="M 95.628906 90.910156 L 95.628906 80.316406 L 93.582031 80.316406 L 93.582031 78.265625 L 80.96875 78.265625 L 80.96875 80.316406 L 77.210938 80.316406 L 77.210938 78.265625 L 66.644531 78.265625 L 66.644531 80.316406 L 64.597656 80.316406 L 64.597656 92.960938 L 66.644531 92.960938 L 66.644531 96.730469 L 64.597656 96.730469 L 64.597656 107.320312 L 66.644531 107.320312 L 66.644531 109.375 L 79.257812 109.375 L 79.257812 107.320312 L 83.015625 107.320312 L 83.015625 109.375 L 93.582031 109.375 L 93.582031 107.320312 L 95.628906 107.320312 L 95.628906 94.679688 L 93.582031 94.679688 L 93.582031 90.910156 L 95.628906 90.910156 " fill-opacity="1" fill-rule="nonzero"/><path fill="#ffffff" d="M 69.878906 83.5625 L 69.878906 81.507812 L 73.972656 81.507812 L 73.972656 83.5625 Z M 92.394531 83.5625 L 92.394531 87.664062 L 90.347656 87.664062 L 90.347656 89.71875 L 88.300781 89.71875 L 88.300781 91.769531 L 86.253906 91.769531 L 86.253906 93.820312 L 88.300781 93.820312 L 88.300781 95.871094 L 90.347656 95.871094 L 90.347656 97.921875 L 92.394531 97.921875 L 92.394531 104.078125 L 90.347656 104.078125 L 90.347656 106.128906 L 86.253906 106.128906 L 86.253906 104.078125 L 84.207031 104.078125 L 84.207031 102.027344 L 82.160156 102.027344 L 82.160156 99.976562 L 80.117188 99.976562 L 80.117188 102.027344 L 78.066406 102.027344 L 78.066406 104.078125 L 76.019531 104.078125 L 76.019531 106.128906 L 69.878906 106.128906 L 69.878906 104.078125 L 67.832031 104.078125 L 67.832031 99.976562 L 69.878906 99.976562 L 69.878906 97.921875 L 71.925781 97.921875 L 71.925781 95.871094 L 73.972656 95.871094 L 73.972656 93.820312 L 71.925781 93.820312 L 71.925781 91.769531 L 69.878906 91.769531 L 69.878906 89.71875 L 67.832031 89.71875 L 67.832031 83.5625 L 69.878906 83.5625 L 69.878906 87.664062 L 71.925781 87.664062 L 71.925781 85.613281 L 73.972656 85.613281 L 73.972656 83.5625 L 76.019531 83.5625 L 76.019531 85.613281 L 78.066406 85.613281 L 78.066406 87.664062 L 80.117188 87.664062 L 80.117188 85.613281 L 82.160156 85.613281 L 82.160156 83.5625 L 84.207031 83.5625 L 84.207031 81.507812 L 90.347656 81.507812 L 90.347656 83.5625 L 92.394531 83.5625 " fill-opacity="1" fill-rule="nonzero"/></svg>