<svg xmlns="http://www.w3.org/2000/svg" xmlns:xlink="http://www.w3.org/1999/xlink" width="1900" zoomAndPan="magnify" viewBox="0 0 1425 449.999984" height="600" preserveAspectRatio="xMidYMid meet" version="1.0"><defs><clipPath id="id1"><path d="M 753.261719 137 L 1425 137 L 1425 450 L 753.261719 450 Z M 753.261719 137 " clip-rule="nonzero"/></clipPath><clipPath id="id2"><path d="M 100.300781 353 L 1134.550781 353 L 1134.550781 450 L 100.300781 450 Z M 100.300781 353 " clip-rule="nonzero"/></clipPath></defs><g clip-path="url(#id1)"><path fill="#459653" d="M 1982.800781 648.792969 C 1943.429688 632.78125 1910.308594 597.976562 1886.164062 559.34375 C 1855.648438 510.507812 1835.984375 454.601562 1808.792969 403.464844 C 1754.914062 302.144531 1663.796875 219.4375 1561.714844 170.65625 C 1452.847656 118.632812 1354.582031 128.710938 1249.316406 193.390625 C 1172.433594 240.632812 1108.855469 306.824219 1046.183594 372.269531 C 991.820312 429.046875 937.457031 485.820312 883.089844 542.597656 C 845.917969 581.417969 804.4375 626.546875 753.828125 648.792969 Z M 1982.800781 648.792969 " fill-opacity="1" fill-rule="nonzero"/></g><path fill="#1c8f0c" d="M 711.941406 529.597656 C 678.835938 516.144531 650.984375 486.902344 630.683594 454.441406 C 605.023438 413.414062 588.488281 366.445312 565.621094 323.480469 C 520.316406 238.351562 443.699219 168.863281 357.863281 127.878906 C 266.320312 84.171875 183.6875 92.640625 95.175781 146.980469 C 30.527344 186.671875 -22.933594 242.285156 -75.632812 297.269531 C -121.34375 344.972656 -167.058594 392.671875 -212.773438 440.375 C -244.03125 472.988281 -278.910156 510.90625 -321.464844 529.597656 Z M 711.941406 529.597656 " fill-opacity="1" fill-rule="nonzero"/><g clip-path="url(#id2)"><path fill="#459653" d="M 1134.171875 783.449219 C 1101.066406 769.996094 1073.214844 740.753906 1052.914062 708.292969 C 1027.253906 667.261719 1010.71875 620.296875 987.855469 577.332031 C 942.546875 492.203125 865.929688 422.714844 780.09375 381.730469 C 688.550781 338.023438 605.921875 346.492188 517.40625 400.832031 C 452.757812 440.523438 399.296875 496.136719 346.601562 551.121094 C 300.886719 598.824219 255.171875 646.523438 209.457031 694.226562 C 178.199219 726.839844 143.320312 764.757812 100.765625 783.449219 Z M 1134.171875 783.449219 " fill-opacity="1" fill-rule="nonzero"/></g><path fill="#4cbc38" d="M 1462.476562 627.578125 C 1429.371094 614.125 1401.519531 584.882812 1381.21875 552.425781 C 1355.558594 511.394531 1339.023438 464.425781 1316.15625 421.460938 C 1270.851562 336.332031 1194.234375 266.847656 1108.398438 225.863281 C 1016.855469 182.152344 934.226562 190.621094 845.710938 244.964844 C 781.0625 284.652344 727.601562 340.265625 674.902344 395.253906 C 629.191406 442.953125 583.476562 490.65625 537.761719 538.355469 C 506.503906 570.972656 471.625 608.886719 429.070312 627.578125 Z M 1462.476562 627.578125 " fill-opacity="1" fill-rule="nonzero"/></svg>