<svg xmlns="http://www.w3.org/2000/svg" xmlns:xlink="http://www.w3.org/1999/xlink" width="250" zoomAndPan="magnify" viewBox="0 0 187.5 187.499992" height="250" preserveAspectRatio="xMidYMid meet" version="1.0"><defs><clipPath id="id1"><path d="M 14.199219 53.972656 L 173 53.972656 L 173 133.472656 L 14.199219 133.472656 Z M 14.199219 53.972656 " clip-rule="nonzero"/></clipPath></defs><g clip-path="url(#id1)"><path fill="#808080" d="M 121.378906 133.476562 L 140.816406 133.476562 L 140.648438 130.191406 L 143.859375 130.191406 L 143.859375 126.980469 L 149.285156 126.949219 L 149.285156 122.847656 L 163.289062 122.933594 L 163.289062 118.75 L 166.53125 118.765625 L 166.507812 116.003906 L 172.933594 116.15625 L 172.933594 108.164062 L 169.722656 108.164062 L 169.722656 104.949219 L 166.507812 104.949219 L 166.507812 98.519531 L 163.289062 98.519531 L 163.289062 95.308594 L 153.648438 95.308594 L 153.648438 92.089844 L 150.433594 92.089844 L 150.433594 88.878906 L 147.21875 88.878906 L 147.21875 85.664062 L 140.644531 85.664062 L 140.644531 82.445312 L 139.648438 82.445312 L 139.648438 79.6875 L 136.433594 79.6875 L 136.433594 76.472656 L 133.21875 76.472656 L 133.21875 70.042969 L 130.003906 70.042969 L 130.003906 66.828125 L 120.359375 66.828125 L 120.359375 63.617188 L 117.148438 63.617188 L 117.148438 60.402344 L 113.929688 60.402344 L 113.929688 57.1875 L 107.355469 57.1875 L 107.355469 53.972656 L 94.351562 53.972656 L 94.351562 57.1875 L 87.925781 57.1875 L 87.925781 60.402344 L 84.855469 60.402344 L 84.855469 57.1875 L 68.644531 57.1875 L 68.644531 60.402344 L 65.425781 60.402344 L 65.425781 63.621094 L 62.066406 63.621094 L 62.066406 74.886719 L 58.820312 74.910156 L 53.109375 74.910156 L 53.109375 78.015625 L 46.699219 78.015625 L 46.699219 81.320312 L 43.398438 81.320312 L 43.398438 84.523438 L 24.074219 84.523438 L 24.074219 87.726562 L 22.371094 87.726562 L 21.175781 87.734375 L 20.910156 87.925781 L 20.828125 91.019531 L 17.734375 91.023438 L 17.664062 94.199219 L 14.464844 94.234375 L 14.464844 107.253906 L 17.667969 107.253906 L 17.667969 113.113281 L 20.769531 113.113281 L 24.074219 116.316406 L 24.074219 119.519531 L 38.59375 119.519531 L 39.804688 119.507812 L 40.304688 120.214844 L 40.292969 122.726562 L 49.917969 122.816406 L 50.003906 125.890625 L 53.109375 125.894531 L 53.210938 129.097656 L 71.636719 129.199219 L 71.738281 125.894531 L 75.984375 125.882812 L 75.941406 122.585938 L 79.144531 122.585938 L 79.144531 119.382812 L 85.351562 119.246094 L 85.351562 122.449219 L 88.65625 122.449219 L 88.65625 125.753906 L 98.472656 125.753906 L 98.472656 122.449219 L 101.628906 122.402344 L 101.808594 120.46875 L 108.355469 120.484375 L 108.355469 123.695312 L 111.574219 123.695312 L 111.574219 126.910156 L 114.109375 126.921875 L 114.304688 129.816406 L 121.222656 129.71875 Z M 69.34375 119.199219 L 75.875 119.199219 L 75.875 115.933594 L 88.683594 115.933594 L 88.683594 119.199219 L 91.949219 119.199219 L 91.949219 122.335938 L 95.214844 122.335938 L 95.214844 119.199219 L 98.484375 119.199219 L 98.484375 115.933594 L 98.714844 115.933594 L 98.714844 117.429688 L 111.519531 117.429688 L 111.519531 120.566406 L 114.789062 120.566406 L 114.789062 123.835938 L 118.054688 123.835938 L 118.054688 127.097656 L 124.570312 127.097656 L 124.589844 130.234375 L 127.726562 130.234375 L 137.390625 130.144531 L 137.390625 128.199219 C 137.476562 127.976562 137.496094 127.742188 137.488281 127.503906 L 141.726562 127.449219 L 141.679688 124.058594 C 143.023438 123.914062 144.773438 123.835938 147.0625 123.835938 L 147.0625 120.566406 L 160 120.566406 L 160 117.429688 L 163.269531 117.429688 L 163.269531 114.164062 L 169.589844 114.167969 L 169.59375 113.867188 L 169.671875 113.867188 L 169.671875 110.898438 L 166.535156 110.898438 L 166.535156 110.636719 L 166.492188 107.628906 L 163.269531 107.628906 L 163.269531 101.226562 L 160 101.226562 L 160 97.960938 L 150.332031 97.960938 L 150.332031 94.824219 L 147.0625 94.824219 L 147.0625 91.558594 L 143.929688 91.558594 L 143.929688 91.265625 L 143.890625 91.265625 L 143.890625 88.289062 L 137.390625 88.289062 L 137.390625 85.15625 L 136.386719 85.15625 L 136.386719 82.421875 L 133.25 82.421875 L 133.25 82.164062 L 133.207031 79.15625 L 129.980469 79.15625 L 129.980469 72.753906 L 126.714844 72.753906 L 126.714844 69.484375 L 117.046875 69.484375 L 117.046875 66.347656 L 113.777344 66.347656 L 113.777344 63.082031 L 110.644531 63.082031 L 110.644531 62.785156 L 110.609375 62.785156 L 110.605469 59.816406 L 104.109375 59.816406 L 104.109375 56.675781 L 97.707031 56.675781 L 97.707031 59.8125 L 91.171875 59.8125 L 91.171875 63.082031 L 81.503906 63.082031 L 81.503906 59.8125 L 71.882812 59.8125 L 71.867188 62.792969 L 71.832031 62.792969 L 71.832031 63.082031 L 68.695312 63.082031 L 68.695312 66.347656 L 65.425781 66.347656 L 65.425781 76.015625 L 62.1875 76.015625 L 62.1875 77.253906 L 56.539062 77.253906 L 56.539062 80.390625 L 50.003906 80.390625 L 50.003906 83.65625 L 46.738281 83.65625 L 46.738281 86.925781 L 43.46875 86.925781 L 43.46875 90.058594 L 37.066406 90.058594 L 37.066406 86.925781 L 27.398438 86.925781 L 27.398438 90.058594 L 24.128906 90.058594 L 24.128906 93.328125 L 20.992188 93.328125 L 20.992188 96.59375 L 17.726562 96.59375 L 17.726562 102.996094 L 20.992188 102.996094 L 20.992188 106.261719 L 24.261719 106.261719 L 24.261719 109.53125 L 27.398438 109.53125 L 27.398438 112.667969 L 40.332031 112.667969 L 40.332031 115.933594 L 43.46875 115.933594 L 43.46875 119.199219 L 53.269531 119.199219 L 53.269531 122.46875 L 56.40625 122.46875 L 56.40625 125.601562 L 69.339844 125.601562 L 69.339844 119.199219 Z M 69.34375 119.199219 " fill-opacity="1" fill-rule="evenodd"/></g><path fill="#ffffff" d="M 69.34375 119.199219 L 75.875 119.199219 L 75.875 115.933594 L 88.683594 115.933594 L 88.683594 119.199219 L 91.949219 119.199219 L 91.949219 122.335938 L 95.214844 122.335938 L 95.214844 119.199219 L 98.484375 119.199219 L 98.484375 115.933594 L 98.714844 115.933594 L 98.714844 117.429688 L 111.519531 117.429688 L 111.519531 120.566406 L 114.789062 120.566406 L 114.789062 123.835938 L 118.054688 123.835938 L 118.054688 127.097656 L 124.570312 127.097656 L 124.585938 130.238281 L 127.726562 130.238281 L 137.390625 130.144531 L 137.390625 127.503906 L 141.726562 127.449219 L 141.675781 123.808594 L 147.0625 123.835938 L 147.0625 120.566406 L 160 120.566406 L 160 117.429688 L 163.269531 117.429688 L 163.269531 114.164062 L 166.492188 114.164062 L 166.492188 113.84375 L 169.671875 113.867188 L 169.671875 110.898438 L 166.53125 110.898438 L 166.53125 110.636719 L 166.492188 107.628906 L 163.269531 107.628906 L 163.269531 101.226562 L 160 101.226562 L 160 97.957031 L 150.328125 97.957031 L 150.328125 94.824219 L 147.0625 94.824219 L 147.0625 91.554688 L 143.929688 91.554688 L 143.929688 91.261719 L 143.890625 91.261719 L 143.890625 88.289062 L 137.390625 88.289062 L 137.390625 85.15625 L 136.386719 85.15625 L 136.386719 82.421875 L 133.25 82.421875 L 133.25 82.160156 L 133.207031 79.15625 L 129.980469 79.15625 L 129.980469 72.753906 L 126.714844 72.753906 L 126.714844 69.484375 L 117.046875 69.484375 L 117.046875 66.347656 L 113.777344 66.347656 L 113.777344 63.082031 L 110.644531 63.082031 L 110.644531 62.785156 L 110.609375 62.785156 L 110.605469 59.8125 L 104.109375 59.8125 L 104.109375 56.675781 L 97.707031 56.675781 L 97.707031 59.8125 L 91.171875 59.8125 L 91.171875 63.082031 L 81.503906 63.082031 L 81.503906 59.8125 L 71.882812 59.8125 L 71.867188 62.792969 L 71.832031 62.792969 L 71.832031 63.082031 L 68.695312 63.082031 L 68.695312 66.347656 L 65.425781 66.347656 L 65.425781 76.015625 L 62.1875 76.015625 L 62.1875 77.253906 L 56.539062 77.253906 L 56.539062 80.390625 L 50.003906 80.390625 L 50.003906 83.65625 L 46.738281 83.65625 L 46.738281 86.925781 L 43.46875 86.925781 L 43.46875 90.058594 L 37.066406 90.058594 L 37.066406 86.925781 L 27.398438 86.925781 L 27.398438 90.058594 L 24.128906 90.058594 L 24.128906 93.328125 L 20.992188 93.328125 L 20.992188 96.59375 L 17.726562 96.59375 L 17.726562 102.996094 L 20.992188 102.996094 L 20.992188 106.261719 L 24.261719 106.261719 L 24.261719 109.53125 L 27.398438 109.53125 L 27.398438 112.667969 L 40.332031 112.667969 L 40.332031 115.933594 L 43.46875 115.933594 L 43.46875 119.199219 L 53.269531 119.199219 L 53.269531 122.46875 L 56.40625 122.46875 L 56.40625 125.601562 L 69.34375 125.601562 Z M 69.34375 119.199219 " fill-opacity="1" fill-rule="evenodd"/><path fill="#e6e6e6" d="M 127.128906 99.664062 L 127.128906 102.929688 L 123.992188 102.929688 L 123.992188 109.464844 L 127.128906 109.464844 L 127.128906 106.195312 L 130.390625 106.195312 L 130.390625 102.929688 L 133.660156 102.929688 L 133.660156 99.792969 L 140.0625 99.792969 L 140.0625 102.929688 L 143.332031 102.929688 L 143.332031 106.195312 L 146.46875 106.195312 L 146.46875 99.792969 L 143.332031 99.792969 L 143.332031 96.527344 L 130.390625 96.527344 L 130.390625 99.664062 Z M 95.214844 115.800781 L 91.949219 115.800781 L 91.949219 112.667969 L 88.683594 112.667969 L 88.683594 109.398438 L 75.875 109.398438 L 75.875 112.667969 L 69.34375 112.667969 L 69.34375 119.070312 L 56.40625 119.070312 L 56.40625 115.933594 L 53.269531 115.933594 L 53.269531 112.667969 L 43.46875 112.667969 L 43.46875 109.398438 L 40.332031 109.398438 L 40.332031 106.132812 L 27.398438 106.132812 L 27.398438 102.996094 L 24.261719 102.996094 L 24.261719 99.730469 L 24.128906 99.730469 L 24.128906 102.996094 L 20.992188 102.996094 L 20.992188 109.398438 L 24.128906 109.398438 L 24.128906 112.667969 L 27.398438 112.667969 L 27.398438 115.800781 L 37.066406 115.800781 L 37.066406 112.667969 L 40.332031 112.667969 L 40.332031 115.800781 L 43.601562 115.800781 L 43.601562 119.070312 L 53.269531 119.070312 L 53.269531 122.339844 L 56.40625 122.339844 L 56.40625 125.601562 L 69.34375 125.601562 L 69.34375 122.335938 L 72.609375 122.335938 L 72.609375 119.070312 L 75.875 119.070312 L 75.875 115.933594 C 81.019531 115.933594 80.503906 115.800781 88.8125 115.800781 L 88.8125 119.070312 L 91.949219 119.070312 L 91.949219 122.339844 L 95.214844 122.339844 L 95.214844 119.070312 L 98.351562 119.070312 L 98.351562 115.800781 Z M 70.9375 106.132812 L 67.800781 106.132812 L 67.800781 102.867188 L 54.867188 102.867188 L 54.867188 106.132812 L 64.535156 106.132812 L 64.535156 109.398438 L 70.9375 109.398438 Z M 72.257812 83.980469 L 59.320312 83.980469 L 59.320312 87.25 L 52.917969 87.25 L 52.917969 93.652344 L 56.054688 93.652344 L 56.054688 90.382812 L 62.585938 90.382812 L 62.585938 87.25 L 68.988281 87.25 L 68.988281 90.382812 L 72.257812 90.382812 L 72.257812 93.652344 L 75.394531 93.652344 L 75.394531 87.25 L 72.257812 87.25 Z M 104.542969 73.777344 L 104.542969 77.039062 L 107.679688 77.039062 L 107.679688 83.574219 L 104.542969 83.574219 L 104.542969 80.308594 L 101.273438 80.308594 L 101.273438 77.039062 L 98.007812 77.039062 L 98.007812 73.90625 L 91.605469 73.90625 L 91.605469 77.039062 L 88.339844 77.039062 L 88.339844 80.308594 L 85.203125 80.308594 L 85.203125 73.90625 L 88.339844 73.90625 L 88.339844 70.636719 L 101.273438 70.636719 L 101.273438 73.773438 L 104.542969 73.773438 Z M 94.574219 98.179688 L 94.574219 104.714844 L 97.710938 104.714844 L 97.710938 101.449219 L 104.246094 101.449219 L 104.246094 98.179688 L 110.648438 98.179688 L 110.648438 101.449219 L 117.050781 101.449219 L 117.050781 98.179688 L 113.914062 98.179688 L 113.914062 95.042969 L 100.980469 95.042969 L 100.980469 98.179688 Z M 94.574219 98.179688 " fill-opacity="1" fill-rule="evenodd"/></svg>