<svg xmlns="http://www.w3.org/2000/svg" xmlns:xlink="http://www.w3.org/1999/xlink" width="250" zoomAndPan="magnify" viewBox="0 0 187.5 187.499992" height="250" preserveAspectRatio="xMidYMid meet" version="1.0"><defs><clipPath id="id1"><path d="M 0 4.601562 L 187 4.601562 L 187 183.101562 L 0 183.101562 Z M 0 4.601562 " clip-rule="nonzero"/></clipPath><clipPath id="id2"><path d="M 0 4.601562 L 152 4.601562 L 152 183.101562 L 0 183.101562 Z M 0 4.601562 " clip-rule="nonzero"/></clipPath></defs><g clip-path="url(#id1)"><path fill="#f5c116" d="M 93.726562 4.59375 L 123.921875 65.09375 L 187.464844 72.78125 L 142.589844 122.605469 L 151.660156 183.109375 L 93.726562 158.152344 L 35.789062 183.109375 L 44.863281 122.605469 L -0.015625 72.78125 L 63.527344 65.09375 L 93.726562 4.59375 " fill-opacity="1" fill-rule="nonzero"/></g><g clip-path="url(#id2)"><path fill="#d2a113" d="M 151.660156 183.109375 L 93.726562 158.152344 L 35.789062 183.109375 L 44.863281 122.605469 L -0.015625 72.78125 L 63.527344 65.09375 L 93.726562 4.59375 C 93.726562 4.59375 82.058594 48.601562 78.601562 57.347656 C 75.476562 65.253906 74.539062 71.582031 66.621094 73.863281 C 64.058594 74.601562 61.226562 74.75 58.3125 74.75 C 57.324219 74.75 56.328125 74.734375 55.328125 74.714844 C 54.328125 74.699219 53.328125 74.679688 52.332031 74.679688 C 45.828125 74.679688 39.566406 75.414062 35.664062 81.664062 C 30.3125 90.226562 35.613281 97.421875 42.464844 102.914062 C 49.351562 108.433594 57.386719 111.964844 59.507812 119.214844 C 61.8125 127.105469 51.707031 139.246094 55.328125 146.742188 C 58.125 152.527344 63.921875 156.234375 70.296875 156.234375 C 73.460938 156.234375 76.761719 155.320312 79.910156 153.296875 C 84.171875 150.554688 87.820312 147.929688 92.402344 147.929688 C 95.703125 147.929688 99.492188 149.292969 104.335938 152.964844 C 110.621094 157.722656 116.667969 161.929688 120.828125 163.640625 C 123.523438 164.746094 125.800781 165.230469 127.773438 165.230469 C 132.289062 165.230469 135.207031 162.679688 137.839844 159.160156 C 143.011719 152.246094 144.542969 140.226562 144.03125 132.242188 L 151.660156 183.109375 " fill-opacity="1" fill-rule="nonzero"/></g></svg>