<svg xmlns="http://www.w3.org/2000/svg" xmlns:xlink="http://www.w3.org/1999/xlink" width="250" zoomAndPan="magnify" viewBox="0 0 187.5 187.499992" height="250" preserveAspectRatio="xMidYMid meet" version="1.0"><defs><clipPath id="id1"><path d="M 3.820312 41.367188 L 183.820312 41.367188 L 183.820312 146.367188 L 3.820312 146.367188 Z M 3.820312 41.367188 " clip-rule="nonzero"/></clipPath></defs><g clip-path="url(#id1)"><path fill="#6869a4" d="M 175.691406 103.136719 L 175.691406 96.984375 L 159.253906 96.984375 L 159.253906 60.082031 L 142.90625 60.082031 L 142.90625 53.933594 L 110.210938 53.933594 L 110.210938 47.78125 L 93.863281 47.78125 L 93.863281 41.632812 L 52.859375 41.632812 L 52.859375 47.78125 L 44.730469 47.78125 L 44.730469 53.933594 L 36.511719 53.933594 L 36.511719 60.082031 L 28.386719 60.082031 L 28.386719 72.382812 L 20.167969 72.382812 L 20.167969 84.683594 L 12.039062 84.683594 L 12.039062 90.835938 L 3.820312 90.835938 L 3.820312 133.796875 L 12.039062 133.796875 L 12.039062 139.949219 L 20.167969 139.949219 L 20.167969 146.097656 L 175.691406 146.097656 L 175.691406 139.949219 L 28.386719 139.949219 L 28.386719 133.796875 L 20.167969 133.796875 L 20.167969 127.648438 L 12.039062 127.648438 L 12.039062 96.984375 L 20.167969 96.984375 L 20.167969 90.835938 L 28.386719 90.835938 L 28.386719 78.535156 L 36.511719 78.535156 L 36.511719 66.234375 L 44.730469 66.234375 L 44.730469 60.082031 L 52.859375 60.082031 L 52.859375 53.933594 L 61.078125 53.933594 L 61.078125 47.78125 L 85.644531 47.78125 L 85.644531 53.933594 L 101.992188 53.933594 L 101.992188 66.234375 L 110.210938 66.234375 L 110.210938 60.082031 L 134.777344 60.082031 L 134.777344 66.234375 L 151.125 66.234375 L 151.125 103.136719 L 167.472656 103.136719 L 167.472656 109.285156 L 175.691406 109.285156 L 175.691406 139.949219 L 183.820312 139.949219 L 183.820312 103.136719 Z M 175.691406 103.136719 " fill-opacity="1" fill-rule="nonzero"/></g><path fill="#c2e6ff" d="M 175.691406 127.648438 L 20.167969 127.648438 L 20.167969 133.796875 L 28.386719 133.796875 L 28.386719 139.949219 L 175.691406 139.949219 Z M 175.691406 127.648438 " fill-opacity="1" fill-rule="nonzero"/><path fill="#eef6ff" d="M 142.90625 109.285156 L 142.90625 115.4375 L 134.777344 115.4375 L 134.777344 127.648438 L 175.691406 127.648438 L 175.691406 109.285156 L 167.472656 109.285156 L 167.472656 103.136719 L 151.125 103.136719 L 151.125 109.285156 Z M 142.90625 109.285156 " fill-opacity="1" fill-rule="nonzero"/><path fill="#6869a4" d="M 134.777344 103.136719 L 134.777344 109.285156 L 126.558594 109.285156 L 126.558594 127.648438 L 134.777344 127.648438 L 134.777344 115.4375 L 142.90625 115.4375 L 142.90625 109.285156 L 151.125 109.285156 L 151.125 103.136719 Z M 134.777344 103.136719 " fill-opacity="1" fill-rule="nonzero"/><path fill="#6869a4" d="M 93.863281 72.382812 L 93.863281 78.535156 L 85.644531 78.535156 L 85.644531 90.835938 L 93.863281 90.835938 L 93.863281 84.683594 L 101.992188 84.683594 L 101.992188 66.234375 L 93.863281 66.234375 Z M 93.863281 72.382812 " fill-opacity="1" fill-rule="nonzero"/><path fill="#eef6ff" d="M 36.511719 127.648438 L 126.558594 127.648438 L 126.558594 109.285156 L 134.777344 109.285156 L 134.777344 103.136719 L 151.125 103.136719 L 151.125 66.234375 L 134.777344 66.234375 L 134.777344 60.082031 L 110.210938 60.082031 L 110.210938 66.234375 L 101.992188 66.234375 L 101.992188 84.683594 L 93.863281 84.683594 L 93.863281 90.835938 L 85.644531 90.835938 L 85.644531 78.535156 L 93.863281 78.535156 L 93.863281 66.234375 L 101.992188 66.234375 L 101.992188 53.933594 L 85.644531 53.933594 L 85.644531 47.78125 L 61.078125 47.78125 L 61.078125 53.933594 L 52.859375 53.933594 L 52.859375 60.082031 L 44.730469 60.082031 L 44.730469 66.234375 L 36.511719 66.234375 L 36.511719 78.535156 L 28.386719 78.535156 L 28.386719 90.835938 L 36.511719 90.835938 L 36.511719 96.984375 L 44.730469 96.984375 L 44.730469 103.136719 L 61.078125 103.136719 L 61.078125 109.285156 L 36.511719 109.285156 L 36.511719 103.136719 L 28.386719 103.136719 L 28.386719 90.835938 L 20.167969 90.835938 L 20.167969 96.984375 L 12.039062 96.984375 L 12.039062 127.648438 Z M 36.511719 127.648438 " fill-opacity="1" fill-rule="nonzero"/><path fill="#6869a4" d="M 28.386719 103.136719 L 36.511719 103.136719 L 36.511719 109.285156 L 61.078125 109.285156 L 61.078125 103.136719 L 44.730469 103.136719 L 44.730469 96.984375 L 36.511719 96.984375 L 36.511719 90.835938 L 28.386719 90.835938 Z M 28.386719 103.136719 " fill-opacity="1" fill-rule="nonzero"/></svg>